  0
SECTION
  2
HEADER
  9
$ACADVER
  1
AC1027
  9
$ACADMAINTVER
 70
   125
  9
$DWGCODEPAGE
  3
ANSI_1252
  9
$REQUIREDVERSIONS
160
                 0
  9
$INSBASE
 10
0.0
 20
0.0
 30
0.0
  9
$EXTMIN
 10
1.000000000000000E+20
 20
1.000000000000000E+20
 30
1.000000000000000E+20
  9
$EXTMAX
 10
-1.000000000000000E+20
 20
-1.000000000000000E+20
 30
-1.000000000000000E+20
  9
$LIMMIN
 10
0.0
 20
0.0
  9
$LIMMAX
 10
12.0
 20
9.0
  9
$ORTHOMODE
 70
     0
  9
$REGENMODE
 70
     1
  9
$FILLMODE
 70
     1
  9
$QTEXTMODE
 70
     0
  9
$MIRRTEXT
 70
     0
  9
$LTSCALE
 40
1.0
  9
$ATTMODE
 70
     1
  9
$TEXTSIZE
 40
0.2
  9
$TRACEWID
 40
0.05
  9
$TEXTSTYLE
  7
Standard
  9
$CLAYER
  8
0
  9
$CELTYPE
  6
ByLayer
  9
$CECOLOR
 62
   256
  9
$CELTSCALE
 40
1.0
  9
$DISPSILH
 70
     0
  9
$DIMSCALE
 40
1.0
  9
$DIMASZ
 40
0.18
  9
$DIMEXO
 40
0.0625
  9
$DIMDLI
 40
0.38
  9
$DIMRND
 40
0.0
  9
$DIMDLE
 40
0.0
  9
$DIMEXE
 40
0.18
  9
$DIMTP
 40
0.0
  9
$DIMTM
 40
0.0
  9
$DIMTXT
 40
0.18
  9
$DIMCEN
 40
0.09
  9
$DIMTSZ
 40
0.0
  9
$DIMTOL
 70
     0
  9
$DIMLIM
 70
     0
  9
$DIMTIH
 70
     1
  9
$DIMTOH
 70
     1
  9
$DIMSE1
 70
     0
  9
$DIMSE2
 70
     0
  9
$DIMTAD
 70
     0
  9
$DIMZIN
 70
     0
  9
$DIMBLK
  1

  9
$DIMASO
 70
     1
  9
$DIMSHO
 70
     1
  9
$DIMPOST
  1

  9
$DIMAPOST
  1

  9
$DIMALT
 70
     0
  9
$DIMALTD
 70
     2
  9
$DIMALTF
 40
25.4
  9
$DIMLFAC
 40
1.0
  9
$DIMTOFL
 70
     0
  9
$DIMTVP
 40
0.0
  9
$DIMTIX
 70
     0
  9
$DIMSOXD
 70
     0
  9
$DIMSAH
 70
     0
  9
$DIMBLK1
  1

  9
$DIMBLK2
  1

  9
$DIMSTYLE
  2
Standard
  9
$DIMCLRD
 70
     0
  9
$DIMCLRE
 70
     0
  9
$DIMCLRT
 70
     0
  9
$DIMTFAC
 40
1.0
  9
$DIMGAP
 40
0.09
  9
$DIMJUST
 70
     0
  9
$DIMSD1
 70
     0
  9
$DIMSD2
 70
     0
  9
$DIMTOLJ
 70
     1
  9
$DIMTZIN
 70
     0
  9
$DIMALTZ
 70
     0
  9
$DIMALTTZ
 70
     0
  9
$DIMUPT
 70
     0
  9
$DIMDEC
 70
     4
  9
$DIMTDEC
 70
     4
  9
$DIMALTU
 70
     2
  9
$DIMALTTD
 70
     2
  9
$DIMTXSTY
  7
Standard
  9
$DIMAUNIT
 70
     0
  9
$DIMADEC
 70
     0
  9
$DIMALTRND
 40
0.0
  9
$DIMAZIN
 70
     0
  9
$DIMDSEP
 70
    46
  9
$DIMATFIT
 70
     3
  9
$DIMFRAC
 70
     0
  9
$DIMLDRBLK
  1

  9
$DIMLUNIT
 70
     2
  9
$DIMLWD
 70
    -2
  9
$DIMLWE
 70
    -2
  9
$DIMTMOVE
 70
     0
  9
$DIMFXL
 40
1.0
  9
$DIMFXLON
 70
     0
  9
$DIMJOGANG
 40
0.7853981633974483
  9
$DIMTFILL
 70
     0
  9
$DIMTFILLCLR
 70
     0
  9
$DIMARCSYM
 70
     0
  9
$DIMLTYPE
  6

  9
$DIMLTEX1
  6

  9
$DIMLTEX2
  6

  9
$DIMTXTDIRECTION
 70
     0
  9
$LUNITS
 70
     2
  9
$LUPREC
 70
     4
  9
$SKETCHINC
 40
0.1
  9
$FILLETRAD
 40
0.0
  9
$AUNITS
 70
     0
  9
$AUPREC
 70
     0
  9
$MENU
  1
.
  9
$ELEVATION
 40
0.0
  9
$PELEVATION
 40
0.0
  9
$THICKNESS
 40
0.0
  9
$LIMCHECK
 70
     0
  9
$CHAMFERA
 40
0.0
  9
$CHAMFERB
 40
0.0
  9
$CHAMFERC
 40
0.0
  9
$CHAMFERD
 40
0.0
  9
$SKPOLY
 70
     0
  9
$TDCREATE
 40
2459885.228101852
  9
$TDUCREATE
 40
2459885.228101852
  9
$TDUPDATE
 40
2459885.228101852
  9
$TDUUPDATE
 40
2459885.228101852
  9
$TDINDWG
 40
0.0000115741
  9
$TDUSRTIMER
 40
0.0000115741
  9
$USRTIMER
 70
     1
  9
$ANGBASE
 50
0.0
  9
$ANGDIR
 70
     0
  9
$PDMODE
 70
     0
  9
$PDSIZE
 40
0.0
  9
$PLINEWID
 40
0.0
  9
$SPLFRAME
 70
     0
  9
$SPLINETYPE
 70
     6
  9
$SPLINESEGS
 70
     8
  9
$HANDSEED
  5
28D
  9
$SURFTAB1
 70
     6
  9
$SURFTAB2
 70
     6
  9
$SURFTYPE
 70
     6
  9
$SURFU
 70
     6
  9
$SURFV
 70
     6
  9
$UCSBASE
  2

  9
$UCSNAME
  2

  9
$UCSORG
 10
0.0
 20
0.0
 30
0.0
  9
$UCSXDIR
 10
1.0
 20
0.0
 30
0.0
  9
$UCSYDIR
 10
0.0
 20
1.0
 30
0.0
  9
$UCSORTHOREF
  2

  9
$UCSORTHOVIEW
 70
     0
  9
$UCSORGTOP
 10
0.0
 20
0.0
 30
0.0
  9
$UCSORGBOTTOM
 10
0.0
 20
0.0
 30
0.0
  9
$UCSORGLEFT
 10
0.0
 20
0.0
 30
0.0
  9
$UCSORGRIGHT
 10
0.0
 20
0.0
 30
0.0
  9
$UCSORGFRONT
 10
0.0
 20
0.0
 30
0.0
  9
$UCSORGBACK
 10
0.0
 20
0.0
 30
0.0
  9
$PUCSBASE
  2

  9
$PUCSNAME
  2

  9
$PUCSORG
 10
0.0
 20
0.0
 30
0.0
  9
$PUCSXDIR
 10
1.0
 20
0.0
 30
0.0
  9
$PUCSYDIR
 10
0.0
 20
1.0
 30
0.0
  9
$PUCSORTHOREF
  2

  9
$PUCSORTHOVIEW
 70
     0
  9
$PUCSORGTOP
 10
0.0
 20
0.0
 30
0.0
  9
$PUCSORGBOTTOM
 10
0.0
 20
0.0
 30
0.0
  9
$PUCSORGLEFT
 10
0.0
 20
0.0
 30
0.0
  9
$PUCSORGRIGHT
 10
0.0
 20
0.0
 30
0.0
  9
$PUCSORGFRONT
 10
0.0
 20
0.0
 30
0.0
  9
$PUCSORGBACK
 10
0.0
 20
0.0
 30
0.0
  9
$USERI1
 70
     0
  9
$USERI2
 70
     0
  9
$USERI3
 70
     0
  9
$USERI4
 70
     0
  9
$USERI5
 70
     0
  9
$USERR1
 40
0.0
  9
$USERR2
 40
0.0
  9
$USERR3
 40
0.0
  9
$USERR4
 40
0.0
  9
$USERR5
 40
0.0
  9
$WORLDVIEW
 70
     1
  9
$SHADEDGE
 70
     3
  9
$SHADEDIF
 70
    70
  9
$TILEMODE
 70
     1
  9
$MAXACTVP
 70
    64
  9
$PINSBASE
 10
0.0
 20
0.0
 30
0.0
  9
$PLIMCHECK
 70
     0
  9
$PEXTMIN
 10
1.000000000000000E+20
 20
1.000000000000000E+20
 30
1.000000000000000E+20
  9
$PEXTMAX
 10
-1.000000000000000E+20
 20
-1.000000000000000E+20
 30
-1.000000000000000E+20
  9
$PLIMMIN
 10
0.0
 20
0.0
  9
$PLIMMAX
 10
12.0
 20
9.0
  9
$UNITMODE
 70
     0
  9
$VISRETAIN
 70
     1
  9
$PLINEGEN
 70
     0
  9
$PSLTSCALE
 70
     1
  9
$TREEDEPTH
 70
  3020
  9
$CMLSTYLE
  2
Standard
  9
$CMLJUST
 70
     0
  9
$CMLSCALE
 40
1.0
  9
$PROXYGRAPHICS
 70
     1
  9
$MEASUREMENT
 70
     0
  9
$CELWEIGHT
370
    -1
  9
$ENDCAPS
280
     0
  9
$JOINSTYLE
280
     0
  9
$LWDISPLAY
290
     0
  9
$INSUNITS
 70
     5
  9
$HYPERLINKBASE
  1

  9
$STYLESHEET
  1

  9
$XEDIT
290
     1
  9
$CEPSNTYPE
380
     0
  9
$PSTYLEMODE
290
     1
  9
$FINGERPRINTGUID
  2
{8ABA1B03-F393-BE41-806C-CE09B24A96C8}
  9
$VERSIONGUID
  2
{E8E99692-1DD0-AF43-A640-6060267964E2}
  9
$EXTNAMES
290
     1
  9
$PSVPSCALE
 40
0.0
  9
$OLESTARTUP
290
     0
  9
$SORTENTS
280
   127
  9
$INDEXCTL
280
     0
  9
$HIDETEXT
280
     1
  9
$XCLIPFRAME
280
     2
  9
$HALOGAP
280
     0
  9
$OBSCOLOR
 70
   257
  9
$OBSLTYPE
280
     0
  9
$INTERSECTIONDISPLAY
280
     0
  9
$INTERSECTIONCOLOR
 70
   257
  9
$DIMASSOC
280
     2
  9
$PROJECTNAME
  1

  9
$CAMERADISPLAY
290
     0
  9
$LENSLENGTH
 40
50.0
  9
$CAMERAHEIGHT
 40
0.0
  9
$STEPSPERSEC
 40
2.0
  9
$STEPSIZE
 40
6.0
  9
$3DDWFPREC
 40
2.0
  9
$PSOLWIDTH
 40
0.25
  9
$PSOLHEIGHT
 40
4.0
  9
$LOFTANG1
 40
1.570796326794896
  9
$LOFTANG2
 40
1.570796326794896
  9
$LOFTMAG1
 40
0.0
  9
$LOFTMAG2
 40
0.0
  9
$LOFTPARAM
 70
     7
  9
$LOFTNORMALS
280
     1
  9
$LATITUDE
 40
37.795
  9
$LONGITUDE
 40
-122.394
  9
$NORTHDIRECTION
 40
0.0
  9
$TIMEZONE
 70
 -8000
  9
$LIGHTGLYPHDISPLAY
280
     1
  9
$TILEMODELIGHTSYNCH
280
     1
  9
$CMATERIAL
347
11
  9
$SOLIDHIST
280
     0
  9
$SHOWHIST
280
     1
  9
$DWFFRAME
280
     2
  9
$DGNFRAME
280
     0
  9
$REALWORLDSCALE
290
     1
  9
$INTERFERECOLOR
 62
     1
  9
$INTERFEREOBJVS
345
33
  9
$INTERFEREVPVS
346
30
  9
$CSHADOW
280
     0
  9
$SHADOWPLANELOCATION
 40
0.0
  0
ENDSEC
  0
SECTION
  2
CLASSES
  0
CLASS
  1
ACDBDICTIONARYWDFLT
  2
AcDbDictionaryWithDefault
  3
ObjectDBX Classes
 90
        0
 91
        1
280
     0
281
     0
  0
CLASS
  1
MATERIAL
  2
AcDbMaterial
  3
ObjectDBX Classes
 90
     1153
 91
        3
280
     0
281
     0
  0
CLASS
  1
VISUALSTYLE
  2
AcDbVisualStyle
  3
ObjectDBX Classes
 90
     4095
 91
       24
280
     0
281
     0
  0
CLASS
  1
SCALE
  2
AcDbScale
  3
ObjectDBX Classes
 90
     1153
 91
       17
280
     0
281
     0
  0
CLASS
  1
TABLESTYLE
  2
AcDbTableStyle
  3
ObjectDBX Classes
 90
     4095
 91
        1
280
     0
281
     0
  0
CLASS
  1
MLEADERSTYLE
  2
AcDbMLeaderStyle
  3
ACDB_MLEADERSTYLE_CLASS
 90
     4095
 91
        1
280
     0
281
     0
  0
CLASS
  1
ACDBSECTIONVIEWSTYLE
  2
AcDbSectionViewStyle
  3
ObjectDBX Classes
 90
     1025
 91
        1
280
     0
281
     0
  0
CLASS
  1
ACDBDETAILVIEWSTYLE
  2
AcDbDetailViewStyle
  3
ObjectDBX Classes
 90
     1025
 91
        1
280
     0
281
     0
  0
CLASS
  1
DICTIONARYVAR
  2
AcDbDictionaryVar
  3
ObjectDBX Classes
 90
        0
 91
        5
280
     0
281
     0
  0
CLASS
  1
CELLSTYLEMAP
  2
AcDbCellStyleMap
  3
ObjectDBX Classes
 90
     1152
 91
        1
280
     0
281
     0
  0
ENDSEC
  0
SECTION
  2
TABLES
  0
TABLE
  2
VPORT
  5
8
330
0
100
AcDbSymbolTable
 70
     1
1001
ACAD
1000
DbSaveVer
1071
      267
  0
VPORT
  5
57
330
8
100
AcDbSymbolTableRecord
100
AcDbViewportTableRecord
  2
*Active
 70
     0
 10
0.0
 20
0.0
 11
1.0
 21
1.0
 12
500.0
 22
500.0
 13
0.0
 23
0.0
 14
1.0
 24
1.0
 15
0.0
 25
0.0
 16
0.0
 26
0.0
 36
1.0
 17
0.0
 27
0.0
 37
0.0
 40
12.0
 41
1.0
 42
50.0
 43
0.0
 44
0.0
 50
0.0
 51
0.0
 71
     0
 72
   100
 73
     1
 74
     1
 75
     0
 76
     0
 77
     0
 78
     0
281
     0
 65
     1
110
0.0
120
0.0
130
0.0
111
1.0
121
0.0
131
0.0
112
0.0
122
1.0
132
0.0
 79
     0
146
0.0
 60
     3
 61
     5
292
     1
282
     1
141
0.0
142
0.0
 63
   250
421
  3355443
  0
ENDTAB
  0
TABLE
  2
LTYPE
  5
5
330
0
100
AcDbSymbolTable
 70
     1
  0
LTYPE
  5
5B
330
5
100
AcDbSymbolTableRecord
100
AcDbLinetypeTableRecord
  2
ByBlock
 70
     0
  3

 72
    65
 73
     0
 40
0.0
  0
LTYPE
  5
5C
330
5
100
AcDbSymbolTableRecord
100
AcDbLinetypeTableRecord
  2
ByLayer
 70
     0
  3

 72
    65
 73
     0
 40
0.0
  0
LTYPE
  5
5D
330
5
100
AcDbSymbolTableRecord
100
AcDbLinetypeTableRecord
  2
Continuous
 70
     0
  3
Solid line
 72
    65
 73
     0
 40
0.0
  0
ENDTAB
  0
TABLE
  2
LAYER
  5
2
330
0
100
AcDbSymbolTable
 70
     2
  0
LAYER
  5
54
330
2
100
AcDbSymbolTableRecord
100
AcDbLayerTableRecord
  2
0
 70
     0
 62
     7
  6
Continuous
370
    -3
390
F
347
21
348
0
  0
LAYER
  5
7A
330
2
100
AcDbSymbolTableRecord
100
AcDbLayerTableRecord
  2
SG-61-定位板 v8_Locating plate
 70
     0
 62
     7
  6
Continuous
370
    -3
390
F
347
21
348
0
1001
NFusion_SketchTransform
1000
1.000000;0.000000;0.000000;0.000000;0.000000;1.000000;0.000000;0.000000;0.000000;0.000000;1.000000;0.000000;0.000000;0.000000;0.000000;1.000000
  0
ENDTAB
  0
TABLE
  2
STYLE
  5
3
330
0
100
AcDbSymbolTable
 70
     2
  0
STYLE
  5
55
330
3
100
AcDbSymbolTableRecord
100
AcDbTextStyleTableRecord
  2
Standard
 70
     0
 40
0.0
 41
1.0
 50
0.0
 71
     0
 42
0.2
  3
txt
  4

  0
STYLE
  5
5A
330
3
100
AcDbSymbolTableRecord
100
AcDbTextStyleTableRecord
  2
Annotative
 70
     0
 40
0.0
 41
1.0
 50
0.0
 71
     0
 42
0.2
  3
txt
  4

1001
AcadAnnotative
1000
AnnotativeData
1002
{
1070
     1
1070
     1
1002
}
  0
ENDTAB
  0
TABLE
  2
VIEW
  5
6
330
0
100
AcDbSymbolTable
 70
     0
  0
ENDTAB
  0
TABLE
  2
UCS
  5
7
330
0
100
AcDbSymbolTable
 70
     0
  0
ENDTAB
  0
TABLE
  2
APPID
  5
9
330
0
100
AcDbSymbolTable
 70
     4
  0
APPID
  5
56
330
9
100
AcDbSymbolTableRecord
100
AcDbRegAppTableRecord
  2
ACAD
 70
     0
  0
APPID
  5
5E
330
9
100
AcDbSymbolTableRecord
100
AcDbRegAppTableRecord
  2
AcadAnnotative
 70
     0
  0
APPID
  5
78
330
9
100
AcDbSymbolTableRecord
100
AcDbRegAppTableRecord
  2
EDIT_IN_FUSION_ACAD_ADDIN
 70
     0
  0
APPID
  5
79
330
9
100
AcDbSymbolTableRecord
100
AcDbRegAppTableRecord
  2
NFusion_SketchTransform
 70
     0
  0
ENDTAB
  0
TABLE
  2
DIMSTYLE
  5
A
330
0
100
AcDbSymbolTable
 70
     2
100
AcDbDimStyleTable
 71
     0
  0
DIMSTYLE
105
58
330
A
100
AcDbSymbolTableRecord
100
AcDbDimStyleTableRecord
  2
Standard
 70
     0
340
55
  0
DIMSTYLE
105
59
330
A
100
AcDbSymbolTableRecord
100
AcDbDimStyleTableRecord
  2
Annotative
 70
     0
340
55
1001
AcadAnnotative
1000
AnnotativeData
1002
{
1070
     1
1070
     1
1002
}
  0
ENDTAB
  0
TABLE
  2
BLOCK_RECORD
  5
1
330
0
100
AcDbSymbolTable
 70
     1
  0
BLOCK_RECORD
  5
70
330
1
100
AcDbSymbolTableRecord
100
AcDbBlockTableRecord
  2
*Model_Space
340
73
 70
     0
280
     1
281
     0
  0
BLOCK_RECORD
  5
6C
330
1
100
AcDbSymbolTableRecord
100
AcDbBlockTableRecord
  2
*Paper_Space
340
6F
 70
     0
280
     1
281
     0
  0
BLOCK_RECORD
  5
74
330
1
100
AcDbSymbolTableRecord
100
AcDbBlockTableRecord
  2
*Paper_Space0
340
77
 70
     0
280
     1
281
     0
  0
ENDTAB
  0
ENDSEC
  0
SECTION
  2
BLOCKS
  0
BLOCK
  5
71
330
70
100
AcDbEntity
  8
0
100
AcDbBlockBegin
  2
*Model_Space
 70
     0
 10
0.0
 20
0.0
 30
0.0
  3
*Model_Space
  1

  0
ENDBLK
  5
72
330
70
100
AcDbEntity
  8
0
100
AcDbBlockEnd
  0
BLOCK
  5
6D
330
6C
100
AcDbEntity
 67
     1
  8
0
100
AcDbBlockBegin
  2
*Paper_Space
 70
     0
 10
0.0
 20
0.0
 30
0.0
  3
*Paper_Space
  1

  0
ENDBLK
  5
6E
330
6C
100
AcDbEntity
 67
     1
  8
0
100
AcDbBlockEnd
  0
BLOCK
  5
75
330
74
100
AcDbEntity
 67
     1
  8
0
100
AcDbBlockBegin
  2
*Paper_Space0
 70
     0
 10
0.0
 20
0.0
 30
0.0
  3
*Paper_Space0
  1

  0
ENDBLK
  5
76
330
74
100
AcDbEntity
 67
     1
  8
0
100
AcDbBlockEnd
  0
ENDSEC
  0
SECTION
  2
ENTITIES
  0
POINT
  5
7B
330
70
100
AcDbEntity
  8
SG-61-定位板 v8_Locating plate
100
AcDbPoint
 10
13.09460382733967
 20
1.930985122300732
 30
0.0
  0
POINT
  5
7C
330
70
100
AcDbEntity
  8
SG-61-定位板 v8_Locating plate
100
AcDbPoint
 10
13.08523275766623
 20
5.740957073063635
 30
0.0
  0
POINT
  5
7D
330
70
100
AcDbEntity
  8
SG-61-定位板 v8_Locating plate
100
AcDbPoint
 10
13.0805472166805
 20
7.645945548429964
 30
0.0
  0
POINT
  5
7E
330
70
100
AcDbEntity
  8
SG-61-定位板 v8_Locating plate
100
AcDbPoint
 10
13.08991829865195
 20
3.835968597697309
 30
0.0
  0
LINE
  5
7F
330
70
100
AcDbEntity
  8
SG-61-定位板 v8_Locating plate
100
AcDbLine
 10
24.305
 20
1.685889999999999
 30
0.0
 11
25.705
 21
1.685889999999999
 31
0.0
  0
LINE
  5
80
330
70
100
AcDbEntity
  8
SG-61-定位板 v8_Locating plate
100
AcDbLine
 10
13.7987
 20
1.685889999999999
 30
0.0
 11
12.3986
 21
1.685889999999999
 31
0.0
  0
LINE
  5
81
330
70
100
AcDbEntity
  8
SG-61-定位板 v8_Locating plate
100
AcDbLine
 10
6.654980000000001
 20
1.685889999999999
 30
0.0
 11
6.654980000000001
 21
0.2859430000000001
 31
0.0
  0
LINE
  5
82
330
70
100
AcDbEntity
  8
SG-61-定位板 v8_Locating plate
100
AcDbLine
 10
0.4925100000000001
 20
0.285943
 30
0.0
 11
0.4925100000000001
 21
1.685889999999999
 31
0.0
  0
LINE
  5
83
330
70
100
AcDbEntity
  8
SG-61-定位板 v8_Locating plate
100
AcDbLine
 10
20.9425
 20
0.285943
 30
0.0
 11
19.5425
 21
0.285943
 31
0.0
  0
LINE
  5
84
330
70
100
AcDbEntity
  8
SG-61-定位板 v8_Locating plate
100
AcDbLine
 10
19.5425
 20
0.285943
 30
0.0
 11
19.5425
 21
1.685889999999999
 31
0.0
  0
LINE
  5
85
330
70
100
AcDbEntity
  8
SG-61-定位板 v8_Locating plate
100
AcDbLine
 10
21.9236
 20
0.285943
 30
0.0
 11
21.9236
 21
1.685889999999999
 31
0.0
  0
LINE
  5
86
330
70
100
AcDbEntity
  8
SG-61-定位板 v8_Locating plate
100
AcDbLine
 10
4.273729999999999
 20
1.685889999999999
 30
0.0
 11
4.273729999999999
 21
0.2859430000000001
 31
0.0
  0
LINE
  5
87
330
70
100
AcDbEntity
  8
SG-61-定位板 v8_Locating plate
100
AcDbLine
 10
19.5425
 20
1.685889999999999
 30
0.0
 11
20.9425
 21
1.685889999999999
 31
0.0
  0
LINE
  5
88
330
70
100
AcDbEntity
  8
SG-61-定位板 v8_Locating plate
100
AcDbLine
 10
23.3237
 20
0.285943
 30
0.0
 11
21.9236
 21
0.285943
 31
0.0
  0
LINE
  5
89
330
70
100
AcDbEntity
  8
SG-61-定位板 v8_Locating plate
100
AcDbLine
 10
0.4925100000000001
 20
1.685889999999999
 30
0.0
 11
1.89246
 21
1.685889999999999
 31
0.0
  0
LINE
  5
8A
330
70
100
AcDbEntity
  8
SG-61-定位板 v8_Locating plate
100
AcDbLine
 10
20.9425
 20
1.685889999999999
 30
0.0
 11
20.9425
 21
0.2859430000000001
 31
0.0
  0
LINE
  5
8B
330
70
100
AcDbEntity
  8
SG-61-定位板 v8_Locating plate
100
AcDbLine
 10
1.89246
 20
1.685889999999999
 30
0.0
 11
1.89246
 21
0.2859430000000001
 31
0.0
  0
LINE
  5
8C
330
70
100
AcDbEntity
  8
SG-61-定位板 v8_Locating plate
100
AcDbLine
 10
21.9236
 20
1.685889999999999
 30
0.0
 11
23.3237
 21
1.685889999999999
 31
0.0
  0
LINE
  5
8D
330
70
100
AcDbEntity
  8
SG-61-定位板 v8_Locating plate
100
AcDbLine
 10
1.89246
 20
0.2859430000000001
 30
0.0
 11
0.4925100000000001
 21
0.285943
 31
0.0
  0
LINE
  5
8E
330
70
100
AcDbEntity
  8
SG-61-定位板 v8_Locating plate
100
AcDbLine
 10
12.3986
 20
0.285943
 30
0.0
 11
13.7987
 21
0.285943
 31
0.0
  0
LINE
  5
8F
330
70
100
AcDbEntity
  8
SG-61-定位板 v8_Locating plate
100
AcDbLine
 10
23.3237
 20
1.685889999999999
 30
0.0
 11
23.3237
 21
0.2859430000000001
 31
0.0
  0
LINE
  5
90
330
70
100
AcDbEntity
  8
SG-61-定位板 v8_Locating plate
100
AcDbLine
 10
1.44501
 20
2.374041793586251
 30
0.0
 11
1.44501
 21
2.19094
 31
0.0
  0
LINE
  5
91
330
70
100
AcDbEntity
  8
SG-61-定位板 v8_Locating plate
100
AcDbLine
 10
28.08620000000001
 20
0.285943
 30
0.0
 11
26.6861
 21
0.285943
 31
0.0
  0
LINE
  5
92
330
70
100
AcDbEntity
  8
SG-61-定位板 v8_Locating plate
100
AcDbLine
 10
5.25501
 20
1.685889999999999
 30
0.0
 11
6.654980000000001
 21
1.685889999999999
 31
0.0
  0
LINE
  5
93
330
70
100
AcDbEntity
  8
SG-61-定位板 v8_Locating plate
100
AcDbLine
 10
26.6861
 20
1.685889999999999
 30
0.0
 11
28.08620000000001
 21
1.685889999999999
 31
0.0
  0
LINE
  5
94
330
70
100
AcDbEntity
  8
SG-61-定位板 v8_Locating plate
100
AcDbLine
 10
1.44501
 20
2.19094
 30
0.0
 11
2.84496
 21
2.19094
 31
0.0
  0
LINE
  5
95
330
70
100
AcDbEntity
  8
SG-61-定位板 v8_Locating plate
100
AcDbLine
 10
4.273729999999999
 20
0.2859430000000001
 30
0.0
 11
2.87362
 21
0.285943
 31
0.0
  0
LINE
  5
96
330
70
100
AcDbEntity
  8
SG-61-定位板 v8_Locating plate
100
AcDbLine
 10
25.705
 20
0.285943
 30
0.0
 11
24.305
 21
0.285943
 31
0.0
  0
LINE
  5
97
330
70
100
AcDbEntity
  8
SG-61-定位板 v8_Locating plate
100
AcDbLine
 10
2.87362
 20
1.685889999999999
 30
0.0
 11
4.273729999999999
 21
1.685889999999999
 31
0.0
  0
LINE
  5
98
330
70
100
AcDbEntity
  8
SG-61-定位板 v8_Locating plate
100
AcDbLine
 10
26.6861
 20
0.285943
 30
0.0
 11
26.6861
 21
1.685889999999999
 31
0.0
  0
LINE
  5
99
330
70
100
AcDbEntity
  8
SG-61-定位板 v8_Locating plate
100
AcDbLine
 10
2.84496
 20
2.19094
 30
0.0
 11
2.84496
 21
2.372372211383829
 31
0.0
  0
LINE
  5
9A
330
70
100
AcDbEntity
  8
SG-61-定位板 v8_Locating plate
100
AcDbLine
 10
2.87362
 20
0.285943
 30
0.0
 11
2.87362
 21
1.685889999999999
 31
0.0
  0
LINE
  5
9B
330
70
100
AcDbEntity
  8
SG-61-定位板 v8_Locating plate
100
AcDbLine
 10
28.5769
 20
9.585443914099652
 30
0.0
 11
28.5769
 21
0.2333485
 31
0.0
  0
LINE
  5
9C
330
70
100
AcDbEntity
  8
SG-61-定位板 v8_Locating plate
100
AcDbLine
 10
6.654980000000001
 20
0.2859430000000001
 30
0.0
 11
5.25501
 21
0.285943
 31
0.0
  0
LINE
  5
9D
330
70
100
AcDbEntity
  8
SG-61-定位板 v8_Locating plate
100
AcDbLine
 10
5.25501
 20
0.285943
 30
0.0
 11
5.25501
 21
1.685889999999999
 31
0.0
  0
LINE
  5
9E
330
70
100
AcDbEntity
  8
SG-61-定位板 v8_Locating plate
100
AcDbLine
 10
25.705
 20
1.685889999999999
 30
0.0
 11
25.705
 21
0.2859430000000001
 31
0.0
  0
LINE
  5
9F
330
70
100
AcDbEntity
  8
SG-61-定位板 v8_Locating plate
100
AcDbLine
 10
24.305
 20
0.285943
 30
0.0
 11
24.305
 21
1.685889999999999
 31
0.0
  0
LINE
  5
A0
330
70
100
AcDbEntity
  8
SG-61-定位板 v8_Locating plate
100
AcDbLine
 10
17.8756
 20
3.59089
 30
0.0
 11
19.27559999999999
 21
3.59089
 31
0.0
  0
LINE
  5
A1
330
70
100
AcDbEntity
  8
SG-61-定位板 v8_Locating plate
100
AcDbLine
 10
5.49314
 20
5.49589
 30
0.0
 11
6.8931
 21
5.49589
 31
0.0
  0
LINE
  5
A2
330
70
100
AcDbEntity
  8
SG-61-定位板 v8_Locating plate
100
AcDbLine
 10
11.6556
 20
2.19094
 30
0.0
 11
10.2556
 21
2.19094
 31
0.0
  0
LINE
  5
A3
330
70
100
AcDbEntity
  8
SG-61-定位板 v8_Locating plate
100
AcDbLine
 10
6.44564
 20
3.59089
 30
0.0
 11
7.845600000000001
 21
3.59089
 31
0.0
  0
LINE
  5
A4
330
70
100
AcDbEntity
  8
SG-61-定位板 v8_Locating plate
100
AcDbLine
 10
6.8931
 20
5.49589
 30
0.0
 11
6.8931
 21
4.09593
 31
0.0
  0
LINE
  5
A5
330
70
100
AcDbEntity
  8
SG-61-定位板 v8_Locating plate
100
AcDbLine
 10
7.398139999999999
 20
4.09593
 30
0.0
 11
7.398139999999999
 21
5.49589
 31
0.0
  0
LINE
  5
A6
330
70
100
AcDbEntity
  8
SG-61-定位板 v8_Locating plate
100
AcDbLine
 10
9.30314
 20
5.49589
 30
0.0
 11
10.7031
 21
5.49589
 31
0.0
  0
LINE
  5
A7
330
70
100
AcDbEntity
  8
SG-61-定位板 v8_Locating plate
100
AcDbLine
 10
19.7806
 20
2.19094
 30
0.0
 11
19.7806
 21
3.59089
 31
0.0
  0
LINE
  5
A8
330
70
100
AcDbEntity
  8
SG-61-定位板 v8_Locating plate
100
AcDbLine
 10
1.44501
 20
3.591014311361526
 30
0.0
 11
1.444723826242418
 21
3.434914483398641
 31
0.0
  0
LINE
  5
A9
330
70
100
AcDbEntity
  8
SG-61-定位板 v8_Locating plate
100
AcDbLine
 10
14.0656
 20
2.19094
 30
0.0
 11
14.0656
 21
3.59089
 31
0.0
  0
LINE
  5
AA
330
70
100
AcDbEntity
  8
SG-61-定位板 v8_Locating plate
100
AcDbLine
 10
16.9231
 20
5.49589
 30
0.0
 11
18.3231
 21
5.49589
 31
0.0
  0
LINE
  5
AB
330
70
100
AcDbEntity
  8
SG-61-定位板 v8_Locating plate
100
AcDbLine
 10
11.6556
 20
3.59089
 30
0.0
 11
11.6556
 21
2.19094
 31
0.0
  0
LINE
  5
AC
330
70
100
AcDbEntity
  8
SG-61-定位板 v8_Locating plate
100
AcDbLine
 10
15.9706
 20
2.19094
 30
0.0
 11
15.9706
 21
3.59089
 31
0.0
  0
LINE
  5
AD
330
70
100
AcDbEntity
  8
SG-61-定位板 v8_Locating plate
100
AcDbLine
 10
6.44564
 20
2.19094
 30
0.0
 11
6.44564
 21
3.59089
 31
0.0
  0
LINE
  5
AE
330
70
100
AcDbEntity
  8
SG-61-定位板 v8_Locating plate
100
AcDbLine
 10
19.7806
 20
3.59089
 30
0.0
 11
21.1806
 21
3.59089
 31
0.0
  0
LINE
  5
AF
330
70
100
AcDbEntity
  8
SG-61-定位板 v8_Locating plate
100
AcDbLine
 10
14.5131
 20
4.09593
 30
0.0
 11
13.1131
 21
4.09593
 31
0.0
  0
LINE
  5
B0
330
70
100
AcDbEntity
  8
SG-61-定位板 v8_Locating plate
100
AcDbLine
 10
19.27559999999999
 20
2.19094
 30
0.0
 11
17.8756
 21
2.19094
 31
0.0
  0
LINE
  5
B1
330
70
100
AcDbEntity
  8
SG-61-定位板 v8_Locating plate
100
AcDbLine
 10
2.84496
 20
3.589955551746679
 30
0.0
 11
1.44501
 21
3.591014311361526
 31
0.0
  0
LINE
  5
B2
330
70
100
AcDbEntity
  8
SG-61-定位板 v8_Locating plate
100
AcDbLine
 10
0.968622
 20
4.09593
 30
0.0
 11
0.968622
 21
5.49589
 31
0.0
  0
LINE
  5
B3
330
70
100
AcDbEntity
  8
SG-61-定位板 v8_Locating plate
100
AcDbLine
 10
2.844959999999997
 20
3.433238617508012
 30
0.0
 11
2.84496
 21
3.589955551746679
 31
0.0
  0
LINE
  5
B4
330
70
100
AcDbEntity
  8
SG-61-定位板 v8_Locating plate
100
AcDbLine
 10
0.968622
 20
5.49589
 30
0.0
 11
2.36871
 21
5.49589
 31
0.0
  0
LINE
  5
B5
330
70
100
AcDbEntity
  8
SG-61-定位板 v8_Locating plate
100
AcDbLine
 10
16.4181
 20
5.49589
 30
0.0
 11
16.4181
 21
4.09593
 31
0.0
  0
LINE
  5
B6
330
70
100
AcDbEntity
  8
SG-61-定位板 v8_Locating plate
100
AcDbLine
 10
12.1606
 20
3.59089
 30
0.0
 11
13.5606
 21
3.59089
 31
0.0
  0
LINE
  5
B7
330
70
100
AcDbEntity
  8
SG-61-定位板 v8_Locating plate
100
AcDbLine
 10
7.845600000000001
 20
3.59089
 30
0.0
 11
7.845600000000001
 21
2.19094
 31
0.0
  0
LINE
  5
B8
330
70
100
AcDbEntity
  8
SG-61-定位板 v8_Locating plate
100
AcDbLine
 10
19.27559999999999
 20
3.59089
 30
0.0
 11
19.27559999999999
 21
2.19094
 31
0.0
  0
LINE
  5
B9
330
70
100
AcDbEntity
  8
SG-61-定位板 v8_Locating plate
100
AcDbLine
 10
12.6081
 20
5.49589
 30
0.0
 11
12.6081
 21
4.09593
 31
0.0
  0
LINE
  5
BA
330
70
100
AcDbEntity
  8
SG-61-定位板 v8_Locating plate
100
AcDbLine
 10
17.3706
 20
3.59089
 30
0.0
 11
17.3706
 21
2.19094
 31
0.0
  0
LINE
  5
BB
330
70
100
AcDbEntity
  8
SG-61-定位板 v8_Locating plate
100
AcDbLine
 10
15.0181
 20
4.09593
 30
0.0
 11
15.0181
 21
5.49589
 31
0.0
  0
LINE
  5
BC
330
70
100
AcDbEntity
  8
SG-61-定位板 v8_Locating plate
100
AcDbLine
 10
28.08620000000001
 20
1.685889999999999
 30
0.0
 11
28.08620000000001
 21
0.2859430000000001
 31
0.0
  0
LINE
  5
BD
330
70
100
AcDbEntity
  8
SG-61-定位板 v8_Locating plate
100
AcDbLine
 10
5.9406
 20
2.19094
 30
0.0
 11
4.540639999999999
 21
2.19094
 31
0.0
  0
LINE
  5
BE
330
70
100
AcDbEntity
  8
SG-61-定位板 v8_Locating plate
100
AcDbLine
 10
18.3231
 20
4.09593
 30
0.0
 11
16.9231
 21
4.09593
 31
0.0
  0
LINE
  5
BF
330
70
100
AcDbEntity
  8
SG-61-定位板 v8_Locating plate
100
AcDbLine
 10
2.36871
 20
4.09593
 30
0.0
 11
0.968622
 21
4.09593
 31
0.0
  0
LINE
  5
C0
330
70
100
AcDbEntity
  8
SG-61-定位板 v8_Locating plate
100
AcDbLine
 10
23.0856
 20
3.59089
 30
0.0
 11
23.0856
 21
2.19094
 31
0.0
  0
LINE
  5
C1
330
70
100
AcDbEntity
  8
SG-61-定位板 v8_Locating plate
100
AcDbLine
 10
8.35064
 20
2.19094
 30
0.0
 11
8.35064
 21
3.59089
 31
0.0
  0
LINE
  5
C2
330
70
100
AcDbEntity
  8
SG-61-定位板 v8_Locating plate
100
AcDbLine
 10
17.8756
 20
2.19094
 30
0.0
 11
17.8756
 21
3.59089
 31
0.0
  0
LINE
  5
C3
330
70
100
AcDbEntity
  8
SG-61-定位板 v8_Locating plate
100
AcDbLine
 10
10.7031
 20
4.09593
 30
0.0
 11
9.30314
 21
4.09593
 31
0.0
  0
LINE
  5
C4
330
70
100
AcDbEntity
  8
SG-61-定位板 v8_Locating plate
100
AcDbLine
 10
16.4181
 20
4.09593
 30
0.0
 11
15.0181
 21
4.09593
 31
0.0
  0
LINE
  5
C5
330
70
100
AcDbEntity
  8
SG-61-定位板 v8_Locating plate
100
AcDbLine
 10
9.7506
 20
3.59089
 30
0.0
 11
9.7506
 21
2.19094
 31
0.0
  0
LINE
  5
C6
330
70
100
AcDbEntity
  8
SG-61-定位板 v8_Locating plate
100
AcDbLine
 10
15.9706
 20
3.59089
 30
0.0
 11
17.3706
 21
3.59089
 31
0.0
  0
LINE
  5
C7
330
70
100
AcDbEntity
  8
SG-61-定位板 v8_Locating plate
100
AcDbLine
 10
21.6856
 20
3.59089
 30
0.0
 11
23.0856
 21
3.59089
 31
0.0
  0
LINE
  5
C8
330
70
100
AcDbEntity
  8
SG-61-定位板 v8_Locating plate
100
AcDbLine
 10
21.1806
 20
2.19094
 30
0.0
 11
19.7806
 21
2.19094
 31
0.0
  0
LINE
  5
C9
330
70
100
AcDbEntity
  8
SG-61-定位板 v8_Locating plate
100
AcDbLine
 10
9.7506
 20
2.19094
 30
0.0
 11
8.35064
 21
2.19094
 31
0.0
  0
LINE
  5
CA
330
70
100
AcDbEntity
  8
SG-61-定位板 v8_Locating plate
100
AcDbLine
 10
13.5606
 20
3.59089
 30
0.0
 11
13.5606
 21
2.19094
 31
0.0
  0
LINE
  5
CB
330
70
100
AcDbEntity
  8
SG-61-定位板 v8_Locating plate
100
AcDbLine
 10
3.58814
 20
4.09593
 30
0.0
 11
3.58814
 21
5.49589
 31
0.0
  0
LINE
  5
CC
330
70
100
AcDbEntity
  8
SG-61-定位板 v8_Locating plate
100
AcDbLine
 10
8.798100000000001
 20
4.09593
 30
0.0
 11
7.398139999999999
 21
4.09593
 31
0.0
  0
LINE
  5
CD
330
70
100
AcDbEntity
  8
SG-61-定位板 v8_Locating plate
100
AcDbLine
 10
10.2556
 20
3.59089
 30
0.0
 11
11.6556
 21
3.59089
 31
0.0
  0
LINE
  5
CE
330
70
100
AcDbEntity
  8
SG-61-定位板 v8_Locating plate
100
AcDbLine
 10
3.58814
 20
5.49589
 30
0.0
 11
4.9881
 21
5.49589
 31
0.0
  0
LINE
  5
CF
330
70
100
AcDbEntity
  8
SG-61-定位板 v8_Locating plate
100
AcDbLine
 10
10.7031
 20
5.49589
 30
0.0
 11
10.7031
 21
4.09593
 31
0.0
  0
LINE
  5
D0
330
70
100
AcDbEntity
  8
SG-61-定位板 v8_Locating plate
100
AcDbLine
 10
17.3706
 20
2.19094
 30
0.0
 11
15.9706
 21
2.19094
 31
0.0
  0
LINE
  5
D1
330
70
100
AcDbEntity
  8
SG-61-定位板 v8_Locating plate
100
AcDbLine
 10
21.1806
 20
3.59089
 30
0.0
 11
21.1806
 21
2.19094
 31
0.0
  0
LINE
  5
D2
330
70
100
AcDbEntity
  8
SG-61-定位板 v8_Locating plate
100
AcDbLine
 10
4.540639999999999
 20
2.19094
 30
0.0
 11
4.540639999999999
 21
3.59089
 31
0.0
  0
LINE
  5
D3
330
70
100
AcDbEntity
  8
SG-61-定位板 v8_Locating plate
100
AcDbLine
 10
10.2556
 20
2.19094
 30
0.0
 11
10.2556
 21
3.59089
 31
0.0
  0
LINE
  5
D4
330
70
100
AcDbEntity
  8
SG-61-定位板 v8_Locating plate
100
AcDbLine
 10
15.4656
 20
2.19094
 30
0.0
 11
14.0656
 21
2.19094
 31
0.0
  0
LINE
  5
D5
330
70
100
AcDbEntity
  8
SG-61-定位板 v8_Locating plate
100
AcDbLine
 10
4.540639999999999
 20
3.59089
 30
0.0
 11
5.9406
 21
3.59089
 31
0.0
  0
LINE
  5
D6
330
70
100
AcDbEntity
  8
SG-61-定位板 v8_Locating plate
100
AcDbLine
 10
23.0856
 20
2.19094
 30
0.0
 11
21.6856
 21
2.19094
 31
0.0
  0
LINE
  5
D7
330
70
100
AcDbEntity
  8
SG-61-定位板 v8_Locating plate
100
AcDbLine
 10
21.6856
 20
2.19094
 30
0.0
 11
21.6856
 21
3.59089
 31
0.0
  0
LINE
  5
D8
330
70
100
AcDbEntity
  8
SG-61-定位板 v8_Locating plate
100
AcDbLine
 10
8.798100000000001
 20
5.49589
 30
0.0
 11
8.798100000000001
 21
4.09593
 31
0.0
  0
LINE
  5
D9
330
70
100
AcDbEntity
  8
SG-61-定位板 v8_Locating plate
100
AcDbLine
 10
9.30314
 20
4.09593
 30
0.0
 11
9.30314
 21
5.49589
 31
0.0
  0
LINE
  5
DA
330
70
100
AcDbEntity
  8
SG-61-定位板 v8_Locating plate
100
AcDbLine
 10
4.9881
 20
4.09593
 30
0.0
 11
3.58814
 21
4.09593
 31
0.0
  0
LINE
  5
DB
330
70
100
AcDbEntity
  8
SG-61-定位板 v8_Locating plate
100
AcDbLine
 10
14.0656
 20
3.59089
 30
0.0
 11
15.4656
 21
3.59089
 31
0.0
  0
LINE
  5
DC
330
70
100
AcDbEntity
  8
SG-61-定位板 v8_Locating plate
100
AcDbLine
 10
12.1606
 20
2.19094
 30
0.0
 11
12.1606
 21
3.59089
 31
0.0
  0
LINE
  5
DD
330
70
100
AcDbEntity
  8
SG-61-定位板 v8_Locating plate
100
AcDbLine
 10
8.35064
 20
3.59089
 30
0.0
 11
9.7506
 21
3.59089
 31
0.0
  0
LINE
  5
DE
330
70
100
AcDbEntity
  8
SG-61-定位板 v8_Locating plate
100
AcDbLine
 10
6.8931
 20
4.09593
 30
0.0
 11
5.49314
 21
4.09593
 31
0.0
  0
LINE
  5
DF
330
70
100
AcDbEntity
  8
SG-61-定位板 v8_Locating plate
100
AcDbLine
 10
18.3231
 20
5.49589
 30
0.0
 11
18.3231
 21
4.09593
 31
0.0
  0
LINE
  5
E0
330
70
100
AcDbEntity
  8
SG-61-定位板 v8_Locating plate
100
AcDbLine
 10
24.06690000000001
 20
7.40089
 30
0.0
 11
25.4669
 21
7.40089
 31
0.0
  0
LINE
  5
E1
330
70
100
AcDbEntity
  8
SG-61-定位板 v8_Locating plate
100
AcDbLine
 10
7.845600000000001
 20
2.19094
 30
0.0
 11
6.44564
 21
2.19094
 31
0.0
  0
LINE
  5
E2
330
70
100
AcDbEntity
  8
SG-61-定位板 v8_Locating plate
100
AcDbLine
 10
22.1619
 20
6.00093
 30
0.0
 11
22.1619
 21
7.40089
 31
0.0
  0
LINE
  5
E3
330
70
100
AcDbEntity
  8
SG-61-定位板 v8_Locating plate
100
AcDbLine
 10
8.321850000000001
 20
7.40089
 30
0.0
 11
8.321850000000001
 21
6.00093
 31
0.0
  0
LINE
  5
E4
330
70
100
AcDbEntity
  8
SG-61-定位板 v8_Locating plate
100
AcDbLine
 10
10.7319
 20
7.40089
 30
0.0
 11
12.1319
 21
7.40089
 31
0.0
  0
LINE
  5
E5
330
70
100
AcDbEntity
  8
SG-61-定位板 v8_Locating plate
100
AcDbLine
 10
20.2281
 20
4.09593
 30
0.0
 11
18.8281
 21
4.09593
 31
0.0
  0
LINE
  5
E6
330
70
100
AcDbEntity
  8
SG-61-定位板 v8_Locating plate
100
AcDbLine
 10
20.2569
 20
6.00093
 30
0.0
 11
20.2569
 21
7.40089
 31
0.0
  0
LINE
  5
E7
330
70
100
AcDbEntity
  8
SG-61-定位板 v8_Locating plate
100
AcDbLine
 10
12.1319
 20
6.00093
 30
0.0
 11
10.7319
 21
6.00093
 31
0.0
  0
LINE
  5
E8
330
70
100
AcDbEntity
  8
SG-61-定位板 v8_Locating plate
100
AcDbLine
 10
22.1331
 20
4.09593
 30
0.0
 11
20.7331
 21
4.09593
 31
0.0
  0
LINE
  5
E9
330
70
100
AcDbEntity
  8
SG-61-定位板 v8_Locating plate
100
AcDbLine
 10
15.4656
 20
3.59089
 30
0.0
 11
15.4656
 21
2.19094
 31
0.0
  0
LINE
  5
EA
330
70
100
AcDbEntity
  8
SG-61-定位板 v8_Locating plate
100
AcDbLine
 10
25.4669
 20
6.00093
 30
0.0
 11
24.06690000000001
 21
6.00093
 31
0.0
  0
LINE
  5
EB
330
70
100
AcDbEntity
  8
SG-61-定位板 v8_Locating plate
100
AcDbLine
 10
12.6081
 20
4.09593
 30
0.0
 11
11.2081
 21
4.09593
 31
0.0
  0
LINE
  5
EC
330
70
100
AcDbEntity
  8
SG-61-定位板 v8_Locating plate
100
AcDbLine
 10
4.9881
 20
5.49589
 30
0.0
 11
4.9881
 21
4.09593
 31
0.0
  0
LINE
  5
ED
330
70
100
AcDbEntity
  8
SG-61-定位板 v8_Locating plate
100
AcDbLine
 10
0.254386
 20
9.305889999999999
 30
0.0
 11
1.654329999999999
 21
9.305889999999999
 31
0.0
  0
LINE
  5
EE
330
70
100
AcDbEntity
  8
SG-61-定位板 v8_Locating plate
100
AcDbLine
 10
14.5131
 20
5.49589
 30
0.0
 11
14.5131
 21
4.09593
 31
0.0
  0
LINE
  5
EF
330
70
100
AcDbEntity
  8
SG-61-定位板 v8_Locating plate
100
AcDbLine
 10
2.13058
 20
7.40089
 30
0.0
 11
2.13058
 21
6.00093
 31
0.0
  0
LINE
  5
F0
330
70
100
AcDbEntity
  8
SG-61-定位板 v8_Locating plate
100
AcDbLine
 10
5.9406
 20
3.59089
 30
0.0
 11
5.9406
 21
2.19094
 31
0.0
  0
LINE
  5
F1
330
70
100
AcDbEntity
  8
SG-61-定位板 v8_Locating plate
100
AcDbLine
 10
13.5606
 20
2.19094
 30
0.0
 11
12.1606
 21
2.19094
 31
0.0
  0
LINE
  5
F2
330
70
100
AcDbEntity
  8
SG-61-定位板 v8_Locating plate
100
AcDbLine
 10
12.6369
 20
6.00093
 30
0.0
 11
12.6369
 21
7.40089
 31
0.0
  0
LINE
  5
F3
330
70
100
AcDbEntity
  8
SG-61-定位板 v8_Locating plate
100
AcDbLine
 10
23.56190000000001
 20
7.40089
 30
0.0
 11
23.56190000000001
 21
6.00093
 31
0.0
  0
LINE
  5
F4
330
70
100
AcDbEntity
  8
SG-61-定位板 v8_Locating plate
100
AcDbLine
 10
13.1131
 20
4.09593
 30
0.0
 11
13.1131
 21
5.49589
 31
0.0
  0
LINE
  5
F5
330
70
100
AcDbEntity
  8
SG-61-定位板 v8_Locating plate
100
AcDbLine
 10
18.3519
 20
7.40089
 30
0.0
 11
19.7519
 21
7.40089
 31
0.0
  0
LINE
  5
F6
330
70
100
AcDbEntity
  8
SG-61-定位板 v8_Locating plate
100
AcDbLine
 10
5.01689
 20
7.40089
 30
0.0
 11
6.41685
 21
7.40089
 31
0.0
  0
LINE
  5
F7
330
70
100
AcDbEntity
  8
SG-61-定位板 v8_Locating plate
100
AcDbLine
 10
7.36935
 20
7.905929999999999
 30
0.0
 11
5.96939
 21
7.905929999999999
 31
0.0
  0
LINE
  5
F8
330
70
100
AcDbEntity
  8
SG-61-定位板 v8_Locating plate
100
AcDbLine
 10
25.4669
 20
7.40089
 30
0.0
 11
25.4669
 21
6.00093
 31
0.0
  0
LINE
  5
F9
330
70
100
AcDbEntity
  8
SG-61-定位板 v8_Locating plate
100
AcDbLine
 10
0.7306350000000001
 20
7.40089
 30
0.0
 11
2.13058
 21
7.40089
 31
0.0
  0
LINE
  5
FA
330
70
100
AcDbEntity
  8
SG-61-定位板 v8_Locating plate
100
AcDbLine
 10
7.87439
 20
9.305889999999999
 30
0.0
 11
9.27435
 21
9.305889999999999
 31
0.0
  0
LINE
  5
FB
330
70
100
AcDbEntity
  8
SG-61-定位板 v8_Locating plate
100
AcDbLine
 10
7.87439
 20
7.905929999999999
 30
0.0
 11
7.87439
 21
9.305889999999999
 31
0.0
  0
LINE
  5
FC
330
70
100
AcDbEntity
  8
SG-61-定位板 v8_Locating plate
100
AcDbLine
 10
23.56190000000001
 20
6.00093
 30
0.0
 11
22.1619
 21
6.00093
 31
0.0
  0
LINE
  5
FD
330
70
100
AcDbEntity
  8
SG-61-定位板 v8_Locating plate
100
AcDbLine
 10
22.6381
 20
5.49589
 30
0.0
 11
24.0381
 21
5.49589
 31
0.0
  0
LINE
  5
FE
330
70
100
AcDbEntity
  8
SG-61-定位板 v8_Locating plate
100
AcDbLine
 10
0.7306350000000001
 20
6.00093
 30
0.0
 11
0.7306350000000001
 21
7.40089
 31
0.0
  0
LINE
  5
FF
330
70
100
AcDbEntity
  8
SG-61-定位板 v8_Locating plate
100
AcDbLine
 10
12.1319
 20
7.40089
 30
0.0
 11
12.1319
 21
6.00093
 31
0.0
  0
LINE
  5
100
330
70
100
AcDbEntity
  8
SG-61-定位板 v8_Locating plate
100
AcDbLine
 10
3.55935
 20
7.905929999999999
 30
0.0
 11
2.15938
 21
7.905929999999999
 31
0.0
  0
LINE
  5
101
330
70
100
AcDbEntity
  8
SG-61-定位板 v8_Locating plate
100
AcDbLine
 10
21.65690000000001
 20
7.40089
 30
0.0
 11
21.65690000000001
 21
6.00093
 31
0.0
  0
LINE
  5
102
330
70
100
AcDbEntity
  8
SG-61-定位板 v8_Locating plate
100
AcDbLine
 10
24.06690000000001
 20
6.00093
 30
0.0
 11
24.06690000000001
 21
7.40089
 31
0.0
  0
LINE
  5
103
330
70
100
AcDbEntity
  8
SG-61-定位板 v8_Locating plate
100
AcDbLine
 10
3.11188
 20
7.40089
 30
0.0
 11
4.511849999999999
 21
7.40089
 31
0.0
  0
LINE
  5
104
330
70
100
AcDbEntity
  8
SG-61-定位板 v8_Locating plate
100
AcDbLine
 10
15.0181
 20
5.49589
 30
0.0
 11
16.4181
 21
5.49589
 31
0.0
  0
LINE
  5
105
330
70
100
AcDbEntity
  8
SG-61-定位板 v8_Locating plate
100
AcDbLine
 10
2.13058
 20
6.00093
 30
0.0
 11
0.730635
 21
6.00093
 31
0.0
  0
LINE
  5
106
330
70
100
AcDbEntity
  8
SG-61-定位板 v8_Locating plate
100
AcDbLine
 10
20.2569
 20
7.40089
 30
0.0
 11
21.65690000000001
 21
7.40089
 31
0.0
  0
LINE
  5
107
330
70
100
AcDbEntity
  8
SG-61-定位板 v8_Locating plate
100
AcDbLine
 10
26.4481
 20
7.40089
 30
0.0
 11
27.8481
 21
7.40089
 31
0.0
  0
LINE
  5
108
330
70
100
AcDbEntity
  8
SG-61-定位板 v8_Locating plate
100
AcDbLine
 10
13.1131
 20
5.49589
 30
0.0
 11
14.5131
 21
5.49589
 31
0.0
  0
LINE
  5
109
330
70
100
AcDbEntity
  8
SG-61-定位板 v8_Locating plate
100
AcDbLine
 10
24.0381
 20
5.49589
 30
0.0
 11
24.0381
 21
4.09593
 31
0.0
  0
LINE
  5
10A
330
70
100
AcDbEntity
  8
SG-61-定位板 v8_Locating plate
100
AcDbLine
 10
22.1619
 20
7.40089
 30
0.0
 11
23.56190000000001
 21
7.40089
 31
0.0
  0
LINE
  5
10B
330
70
100
AcDbEntity
  8
SG-61-定位板 v8_Locating plate
100
AcDbLine
 10
11.2081
 20
5.49589
 30
0.0
 11
12.6081
 21
5.49589
 31
0.0
  0
LINE
  5
10C
330
70
100
AcDbEntity
  8
SG-61-定位板 v8_Locating plate
100
AcDbLine
 10
10.2269
 20
6.00093
 30
0.0
 11
8.82689
 21
6.00093
 31
0.0
  0
LINE
  5
10D
330
70
100
AcDbEntity
  8
SG-61-定位板 v8_Locating plate
100
AcDbLine
 10
15.9419
 20
6.00093
 30
0.0
 11
14.5419
 21
6.00093
 31
0.0
  0
LINE
  5
10E
330
70
100
AcDbEntity
  8
SG-61-定位板 v8_Locating plate
100
AcDbLine
 10
3.11188
 20
6.00093
 30
0.0
 11
3.11188
 21
7.40089
 31
0.0
  0
LINE
  5
10F
330
70
100
AcDbEntity
  8
SG-61-定位板 v8_Locating plate
100
AcDbLine
 10
16.9231
 20
4.09593
 30
0.0
 11
16.9231
 21
5.49589
 31
0.0
  0
LINE
  5
110
330
70
100
AcDbEntity
  8
SG-61-定位板 v8_Locating plate
100
AcDbLine
 10
8.321850000000001
 20
6.00093
 30
0.0
 11
6.921890000000001
 21
6.00093
 31
0.0
  0
LINE
  5
111
330
70
100
AcDbEntity
  8
SG-61-定位板 v8_Locating plate
100
AcDbLine
 10
15.9419
 20
7.40089
 30
0.0
 11
15.9419
 21
6.00093
 31
0.0
  0
LINE
  5
112
330
70
100
AcDbEntity
  8
SG-61-定位板 v8_Locating plate
100
AcDbLine
 10
17.8469
 20
7.40089
 30
0.0
 11
17.8469
 21
6.00093
 31
0.0
  0
LINE
  5
113
330
70
100
AcDbEntity
  8
SG-61-定位板 v8_Locating plate
100
AcDbLine
 10
18.8281
 20
5.49589
 30
0.0
 11
20.2281
 21
5.49589
 31
0.0
  0
LINE
  5
114
330
70
100
AcDbEntity
  8
SG-61-定位板 v8_Locating plate
100
AcDbLine
 10
14.5419
 20
6.00093
 30
0.0
 11
14.5419
 21
7.40089
 31
0.0
  0
LINE
  5
115
330
70
100
AcDbEntity
  8
SG-61-定位板 v8_Locating plate
100
AcDbLine
 10
11.2081
 20
4.09593
 30
0.0
 11
11.2081
 21
5.49589
 31
0.0
  0
LINE
  5
116
330
70
100
AcDbEntity
  8
SG-61-定位板 v8_Locating plate
100
AcDbLine
 10
19.7519
 20
6.00093
 30
0.0
 11
18.3519
 21
6.00093
 31
0.0
  0
LINE
  5
117
330
70
100
AcDbEntity
  8
SG-61-定位板 v8_Locating plate
100
AcDbLine
 10
7.398139999999999
 20
5.49589
 30
0.0
 11
8.798100000000001
 21
5.49589
 31
0.0
  0
LINE
  5
118
330
70
100
AcDbEntity
  8
SG-61-定位板 v8_Locating plate
100
AcDbLine
 10
19.7519
 20
7.40089
 30
0.0
 11
19.7519
 21
6.00093
 31
0.0
  0
LINE
  5
119
330
70
100
AcDbEntity
  8
SG-61-定位板 v8_Locating plate
100
AcDbLine
 10
6.921890000000001
 20
6.00093
 30
0.0
 11
6.921890000000001
 21
7.40089
 31
0.0
  0
LINE
  5
11A
330
70
100
AcDbEntity
  8
SG-61-定位板 v8_Locating plate
100
AcDbLine
 10
24.0381
 20
4.09593
 30
0.0
 11
22.6381
 21
4.09593
 31
0.0
  0
LINE
  5
11B
330
70
100
AcDbEntity
  8
SG-61-定位板 v8_Locating plate
100
AcDbLine
 10
5.49314
 20
4.09593
 30
0.0
 11
5.49314
 21
5.49589
 31
0.0
  0
LINE
  5
11C
330
70
100
AcDbEntity
  8
SG-61-定位板 v8_Locating plate
100
AcDbLine
 10
12.6369
 20
7.40089
 30
0.0
 11
14.0369
 21
7.40089
 31
0.0
  0
LINE
  5
11D
330
70
100
AcDbEntity
  8
SG-61-定位板 v8_Locating plate
100
AcDbLine
 10
2.36871
 20
5.49589
 30
0.0
 11
2.36871
 21
4.09593
 31
0.0
  0
LINE
  5
11E
330
70
100
AcDbEntity
  8
SG-61-定位板 v8_Locating plate
100
AcDbLine
 10
9.27435
 20
7.905929999999999
 30
0.0
 11
7.87439
 21
7.905929999999999
 31
0.0
  0
LINE
  5
11F
330
70
100
AcDbEntity
  8
SG-61-定位板 v8_Locating plate
100
AcDbLine
 10
18.8281
 20
4.09593
 30
0.0
 11
18.8281
 21
5.49589
 31
0.0
  0
LINE
  5
120
330
70
100
AcDbEntity
  8
SG-61-定位板 v8_Locating plate
100
AcDbLine
 10
21.2094
 20
9.305889999999999
 30
0.0
 11
22.60940000000001
 21
9.305889999999999
 31
0.0
  0
LINE
  5
121
330
70
100
AcDbEntity
  8
SG-61-定位板 v8_Locating plate
100
AcDbLine
 10
8.82689
 20
6.00093
 30
0.0
 11
8.82689
 21
7.40089
 31
0.0
  0
LINE
  5
122
330
70
100
AcDbEntity
  8
SG-61-定位板 v8_Locating plate
100
AcDbLine
 10
26.4481
 20
6.00093
 30
0.0
 11
26.4481
 21
7.40089
 31
0.0
  0
LINE
  5
123
330
70
100
AcDbEntity
  8
SG-61-定位板 v8_Locating plate
100
AcDbLine
 10
5.46435
 20
9.305889999999999
 30
0.0
 11
5.46435
 21
7.905929999999999
 31
0.0
  0
LINE
  5
124
330
70
100
AcDbEntity
  8
SG-61-定位板 v8_Locating plate
100
AcDbLine
 10
8.82689
 20
7.40089
 30
0.0
 11
10.2269
 21
7.40089
 31
0.0
  0
LINE
  5
125
330
70
100
AcDbEntity
  8
SG-61-定位板 v8_Locating plate
100
AcDbLine
 10
17.8469
 20
6.00093
 30
0.0
 11
16.4469
 21
6.00093
 31
0.0
  0
LINE
  5
126
330
70
100
AcDbEntity
  8
SG-61-定位板 v8_Locating plate
100
AcDbLine
 10
18.3519
 20
6.00093
 30
0.0
 11
18.3519
 21
7.40089
 31
0.0
  0
LINE
  5
127
330
70
100
AcDbEntity
  8
SG-61-定位板 v8_Locating plate
100
AcDbLine
 10
4.511849999999999
 20
6.00093
 30
0.0
 11
3.11188
 21
6.00093
 31
0.0
  0
LINE
  5
128
330
70
100
AcDbEntity
  8
SG-61-定位板 v8_Locating plate
100
AcDbLine
 10
1.654329999999999
 20
9.305889999999999
 30
0.0
 11
1.654329999999999
 21
7.905929999999999
 31
0.0
  0
LINE
  5
129
330
70
100
AcDbEntity
  8
SG-61-定位板 v8_Locating plate
100
AcDbLine
 10
11.1794
 20
9.305889999999999
 30
0.0
 11
11.1794
 21
7.905929999999999
 31
0.0
  0
LINE
  5
12A
330
70
100
AcDbEntity
  8
SG-61-定位板 v8_Locating plate
100
AcDbLine
 10
14.5419
 20
7.40089
 30
0.0
 11
15.9419
 21
7.40089
 31
0.0
  0
LINE
  5
12B
330
70
100
AcDbEntity
  8
SG-61-定位板 v8_Locating plate
100
AcDbLine
 10
20.2281
 20
5.49589
 30
0.0
 11
20.2281
 21
4.09593
 31
0.0
  0
LINE
  5
12C
330
70
100
AcDbEntity
  8
SG-61-定位板 v8_Locating plate
100
AcDbLine
 10
22.1331
 20
5.49589
 30
0.0
 11
22.1331
 21
4.09593
 31
0.0
  0
LINE
  5
12D
330
70
100
AcDbEntity
  8
SG-61-定位板 v8_Locating plate
100
AcDbLine
 10
25.9719
 20
9.305889999999999
 30
0.0
 11
25.9719
 21
8.83585
 31
0.0
  0
LINE
  5
12E
330
70
100
AcDbEntity
  8
SG-61-定位板 v8_Locating plate
100
AcDbLine
 10
0.254386
 20
7.905929999999999
 30
0.0
 11
0.254386
 21
9.305889999999999
 31
0.0
  0
LINE
  5
12F
330
70
100
AcDbEntity
  8
SG-61-定位板 v8_Locating plate
100
AcDbLine
 10
11.1794
 20
7.905929999999999
 30
0.0
 11
9.779250000000001
 21
7.905929999999999
 31
0.0
  0
LINE
  5
130
330
70
100
AcDbEntity
  8
SG-61-定位板 v8_Locating plate
100
AcDbLine
 10
4.511849999999999
 20
7.40089
 30
0.0
 11
4.511849999999999
 21
6.00093
 31
0.0
  0
LINE
  5
131
330
70
100
AcDbEntity
  8
SG-61-定位板 v8_Locating plate
100
AcDbLine
 10
16.4469
 20
7.40089
 30
0.0
 11
17.8469
 21
7.40089
 31
0.0
  0
LINE
  5
132
330
70
100
AcDbEntity
  8
SG-61-定位板 v8_Locating plate
100
AcDbLine
 10
11.6842
 20
9.305889999999999
 30
0.0
 11
13.0844
 21
9.305889999999999
 31
0.0
  0
LINE
  5
133
330
70
100
AcDbEntity
  8
SG-61-定位板 v8_Locating plate
100
AcDbLine
 10
5.01689
 20
6.00093
 30
0.0
 11
5.01689
 21
7.40089
 31
0.0
  0
LINE
  5
134
330
70
100
AcDbEntity
  8
SG-61-定位板 v8_Locating plate
100
AcDbLine
 10
20.7331
 20
5.49589
 30
0.0
 11
22.1331
 21
5.49589
 31
0.0
  0
LINE
  5
135
330
70
100
AcDbEntity
  8
SG-61-定位板 v8_Locating plate
100
AcDbLine
 10
14.0369
 20
6.00093
 30
0.0
 11
12.6369
 21
6.00093
 31
0.0
  0
LINE
  5
136
330
70
100
AcDbEntity
  8
SG-61-定位板 v8_Locating plate
100
AcDbLine
 10
11.6842
 20
7.905929999999999
 30
0.0
 11
11.6842
 21
9.305889999999999
 31
0.0
  0
LINE
  5
137
330
70
100
AcDbEntity
  8
SG-61-定位板 v8_Locating plate
100
AcDbLine
 10
14.0369
 20
7.40089
 30
0.0
 11
14.0369
 21
6.00093
 31
0.0
  0
LINE
  5
138
330
70
100
AcDbEntity
  8
SG-61-定位板 v8_Locating plate
100
AcDbLine
 10
22.60940000000001
 20
9.305889999999999
 30
0.0
 11
22.60940000000001
 21
7.905929999999999
 31
0.0
  0
LINE
  5
139
330
70
100
AcDbEntity
  8
SG-61-定位板 v8_Locating plate
100
AcDbLine
 10
27.8481
 20
6.00093
 30
0.0
 11
26.4481
 21
6.00093
 31
0.0
  0
LINE
  5
13A
330
70
100
AcDbEntity
  8
SG-61-定位板 v8_Locating plate
100
AcDbLine
 10
16.4469
 20
6.00093
 30
0.0
 11
16.4469
 21
7.40089
 31
0.0
  0
LINE
  5
13B
330
70
100
AcDbEntity
  8
SG-61-定位板 v8_Locating plate
100
AcDbLine
 10
20.7331
 20
4.09593
 30
0.0
 11
20.7331
 21
5.49589
 31
0.0
  0
LINE
  5
13C
330
70
100
AcDbEntity
  8
SG-61-定位板 v8_Locating plate
100
AcDbLine
 10
5.46435
 20
7.905929999999999
 30
0.0
 11
4.06439
 21
7.905929999999999
 31
0.0
  0
LINE
  5
13D
330
70
100
AcDbEntity
  8
SG-61-定位板 v8_Locating plate
100
AcDbLine
 10
10.2269
 20
7.40089
 30
0.0
 11
10.2269
 21
6.00093
 31
0.0
  0
LINE
  5
13E
330
70
100
AcDbEntity
  8
SG-61-定位板 v8_Locating plate
100
AcDbLine
 10
16.8944
 20
7.905929999999999
 30
0.0
 11
15.4944
 21
7.905929999999999
 31
0.0
  0
LINE
  5
13F
330
70
100
AcDbEntity
  8
SG-61-定位板 v8_Locating plate
100
AcDbLine
 10
16.8944
 20
9.305889999999999
 30
0.0
 11
16.8944
 21
7.905929999999999
 31
0.0
  0
LINE
  5
140
330
70
100
AcDbEntity
  8
SG-61-定位板 v8_Locating plate
100
AcDbLine
 10
24.5144
 20
9.305889999999999
 30
0.0
 11
24.5144
 21
7.905929999999999
 31
0.0
  0
LINE
  5
141
330
70
100
AcDbEntity
  8
SG-61-定位板 v8_Locating plate
100
AcDbLine
 10
2.15938
 20
7.905929999999999
 30
0.0
 11
2.15938
 21
9.305889999999999
 31
0.0
  0
LINE
  5
142
330
70
100
AcDbEntity
  8
SG-61-定位板 v8_Locating plate
100
AcDbLine
 10
4.06439
 20
7.905929999999999
 30
0.0
 11
4.06439
 21
9.305889999999999
 31
0.0
  0
LINE
  5
143
330
70
100
AcDbEntity
  8
SG-61-定位板 v8_Locating plate
100
AcDbLine
 10
2.15938
 20
9.305889999999999
 30
0.0
 11
3.55935
 21
9.305889999999999
 31
0.0
  0
LINE
  5
144
330
70
100
AcDbEntity
  8
SG-61-定位板 v8_Locating plate
100
AcDbLine
 10
19.3044
 20
7.905929999999999
 30
0.0
 11
19.3044
 21
9.305889999999999
 31
0.0
  0
LINE
  5
145
330
70
100
AcDbEntity
  8
SG-61-定位板 v8_Locating plate
100
AcDbLine
 10
6.921890000000001
 20
7.40089
 30
0.0
 11
8.321850000000001
 21
7.40089
 31
0.0
  0
LINE
  5
146
330
70
100
AcDbEntity
  8
SG-61-定位板 v8_Locating plate
100
AcDbLine
 10
5.96939
 20
9.305889999999999
 30
0.0
 11
7.36935
 21
9.305889999999999
 31
0.0
  0
LINE
  5
147
330
70
100
AcDbEntity
  8
SG-61-定位板 v8_Locating plate
100
AcDbLine
 10
6.41685
 20
6.00093
 30
0.0
 11
5.01689
 21
6.00093
 31
0.0
  0
LINE
  5
148
330
70
100
AcDbEntity
  8
SG-61-定位板 v8_Locating plate
100
AcDbLine
 10
9.779250000000001
 20
7.905929999999999
 30
0.0
 11
9.779250000000001
 21
9.305889999999999
 31
0.0
  0
LINE
  5
149
330
70
100
AcDbEntity
  8
SG-61-定位板 v8_Locating plate
100
AcDbLine
 10
20.7044
 20
9.305889999999999
 30
0.0
 11
20.7044
 21
7.905929999999999
 31
0.0
  0
LINE
  5
14A
330
70
100
AcDbEntity
  8
SG-61-定位板 v8_Locating plate
100
AcDbLine
 10
22.60940000000001
 20
7.905929999999999
 30
0.0
 11
21.2094
 21
7.905929999999999
 31
0.0
  0
LINE
  5
14B
330
70
100
AcDbEntity
  8
SG-61-定位板 v8_Locating plate
100
AcDbLine
 10
23.11440000000001
 20
9.305889999999999
 30
0.0
 11
24.5144
 21
9.305889999999999
 31
0.0
  0
LINE
  5
14C
330
70
100
AcDbEntity
  8
SG-61-定位板 v8_Locating plate
100
AcDbLine
 10
21.2094
 20
7.905929999999999
 30
0.0
 11
21.2094
 21
9.305889999999999
 31
0.0
  0
LINE
  5
14D
330
70
100
AcDbEntity
  8
SG-61-定位板 v8_Locating plate
100
AcDbLine
 10
17.3994
 20
7.905929999999999
 30
0.0
 11
17.3994
 21
9.305889999999999
 31
0.0
  0
LINE
  5
14E
330
70
100
AcDbEntity
  8
SG-61-定位板 v8_Locating plate
100
AcDbLine
 10
19.3044
 20
9.305889999999999
 30
0.0
 11
20.7044
 21
9.305889999999999
 31
0.0
  0
LINE
  5
14F
330
70
100
AcDbEntity
  8
SG-61-定位板 v8_Locating plate
100
AcDbLine
 10
15.4944
 20
9.305889999999999
 30
0.0
 11
16.8944
 21
9.305889999999999
 31
0.0
  0
LINE
  5
150
330
70
100
AcDbEntity
  8
SG-61-定位板 v8_Locating plate
100
AcDbLine
 10
23.11440000000001
 20
7.905929999999999
 30
0.0
 11
23.11440000000001
 21
9.305889999999999
 31
0.0
  0
LINE
  5
151
330
70
100
AcDbEntity
  8
SG-61-定位板 v8_Locating plate
100
AcDbLine
 10
24.5144
 20
7.905929999999999
 30
0.0
 11
23.11440000000001
 21
7.905929999999999
 31
0.0
  0
LINE
  5
152
330
70
100
AcDbEntity
  8
SG-61-定位板 v8_Locating plate
100
AcDbLine
 10
14.9894
 20
9.305889999999999
 30
0.0
 11
14.9894
 21
7.905929999999999
 31
0.0
  0
LINE
  5
153
330
70
100
AcDbEntity
  8
SG-61-定位板 v8_Locating plate
100
AcDbLine
 10
5.96939
 20
7.905929999999999
 30
0.0
 11
5.96939
 21
9.305889999999999
 31
0.0
  0
LINE
  5
154
330
70
100
AcDbEntity
  8
SG-61-定位板 v8_Locating plate
100
AcDbLine
 10
4.06439
 20
9.305889999999999
 30
0.0
 11
5.46435
 21
9.305889999999999
 31
0.0
  0
LINE
  5
155
330
70
100
AcDbEntity
  8
SG-61-定位板 v8_Locating plate
100
AcDbLine
 10
13.0844
 20
7.905929999999999
 30
0.0
 11
11.6842
 21
7.905929999999999
 31
0.0
  0
LINE
  5
156
330
70
100
AcDbEntity
  8
SG-61-定位板 v8_Locating plate
100
AcDbLine
 10
6.41685
 20
7.40089
 30
0.0
 11
6.41685
 21
6.00093
 31
0.0
  0
LINE
  5
157
330
70
100
AcDbEntity
  8
SG-61-定位板 v8_Locating plate
100
AcDbLine
 10
14.9894
 20
7.905929999999999
 30
0.0
 11
13.5894
 21
7.905929999999999
 31
0.0
  0
LINE
  5
158
330
70
100
AcDbEntity
  8
SG-61-定位板 v8_Locating plate
100
AcDbLine
 10
22.6381
 20
4.09593
 30
0.0
 11
22.6381
 21
5.49589
 31
0.0
  0
LINE
  5
159
330
70
100
AcDbEntity
  8
SG-61-定位板 v8_Locating plate
100
AcDbLine
 10
18.7994
 20
7.905929999999999
 30
0.0
 11
17.3994
 21
7.905929999999999
 31
0.0
  0
LINE
  5
15A
330
70
100
AcDbEntity
  8
SG-61-定位板 v8_Locating plate
100
AcDbLine
 10
9.779250000000001
 20
9.305889999999999
 30
0.0
 11
11.1794
 21
9.305889999999999
 31
0.0
  0
LINE
  5
15B
330
70
100
AcDbEntity
  8
SG-61-定位板 v8_Locating plate
100
AcDbLine
 10
10.7319
 20
6.00093
 30
0.0
 11
10.7319
 21
7.40089
 31
0.0
  0
LINE
  5
15C
330
70
100
AcDbEntity
  8
SG-61-定位板 v8_Locating plate
100
AcDbLine
 10
15.4944
 20
7.905929999999999
 30
0.0
 11
15.4944
 21
9.305889999999999
 31
0.0
  0
LINE
  5
15D
330
70
100
AcDbEntity
  8
SG-61-定位板 v8_Locating plate
100
AcDbLine
 10
7.36935
 20
9.305889999999999
 30
0.0
 11
7.36935
 21
7.905929999999999
 31
0.0
  0
LINE
  5
15E
330
70
100
AcDbEntity
  8
SG-61-定位板 v8_Locating plate
100
AcDbLine
 10
13.5894
 20
9.305889999999999
 30
0.0
 11
14.9894
 21
9.305889999999999
 31
0.0
  0
LINE
  5
15F
330
70
100
AcDbEntity
  8
SG-61-定位板 v8_Locating plate
100
AcDbLine
 10
21.65690000000001
 20
6.00093
 30
0.0
 11
20.2569
 21
6.00093
 31
0.0
  0
LINE
  5
160
330
70
100
AcDbEntity
  8
SG-61-定位板 v8_Locating plate
100
AcDbLine
 10
1.444723826242418
 20
3.434914483398641
 30
0.0
 11
1.44501
 21
2.374041793586251
 31
0.0
  0
LINE
  5
161
330
70
100
AcDbEntity
  8
SG-61-定位板 v8_Locating plate
100
AcDbLine
 10
2.844959999999997
 20
3.433238617508012
 30
0.0
 11
2.84496
 21
3.589955551746679
 31
0.0
  0
LINE
  5
162
330
70
100
AcDbEntity
  8
SG-61-定位板 v8_Locating plate
100
AcDbLine
 10
2.84496
 20
2.19094
 30
0.0
 11
2.84496
 21
2.372372211383829
 31
0.0
  0
LINE
  5
163
330
70
100
AcDbEntity
  8
SG-61-定位板 v8_Locating plate
100
AcDbLine
 10
1.44501
 20
3.591014311361526
 30
0.0
 11
1.444723826242418
 21
3.434914483398641
 31
0.0
  0
LINE
  5
164
330
70
100
AcDbEntity
  8
SG-61-定位板 v8_Locating plate
100
AcDbLine
 10
1.654329999999999
 20
7.905929999999999
 30
0.0
 11
0.254386
 21
7.905929999999999
 31
0.0
  0
LINE
  5
165
330
70
100
AcDbEntity
  8
SG-61-定位板 v8_Locating plate
100
AcDbLine
 10
2.844959999999997
 20
3.433238617508012
 30
0.0
 11
2.84496
 21
2.372372211383829
 31
0.0
  0
LINE
  5
166
330
70
100
AcDbEntity
  8
SG-61-定位板 v8_Locating plate
100
AcDbLine
 10
2.84496
 20
2.19094
 30
0.0
 11
2.84496
 21
2.372372211383829
 31
0.0
  0
LINE
  5
167
330
70
100
AcDbEntity
  8
SG-61-定位板 v8_Locating plate
100
AcDbLine
 10
2.844959999999997
 20
3.433238617508012
 30
0.0
 11
2.84496
 21
2.372372211383829
 31
0.0
  0
LINE
  5
168
330
70
100
AcDbEntity
  8
SG-61-定位板 v8_Locating plate
100
AcDbLine
 10
1.44501
 20
2.19094
 30
0.0
 11
2.84496
 21
2.19094
 31
0.0
  0
LINE
  5
169
330
70
100
AcDbEntity
  8
SG-61-定位板 v8_Locating plate
100
AcDbLine
 10
1.44501
 20
3.591014311361526
 30
0.0
 11
1.444723826242418
 21
3.434914483398641
 31
0.0
  0
LINE
  5
16A
330
70
100
AcDbEntity
  8
SG-61-定位板 v8_Locating plate
100
AcDbLine
 10
24.88942536593063
 20
4.261901563520049
 30
0.0
 11
24.88942536593063
 21
5.346901563520049
 31
0.0
  0
LINE
  5
16B
330
70
100
AcDbEntity
  8
SG-61-定位板 v8_Locating plate
100
AcDbLine
 10
1.444723826242418
 20
3.434914483398641
 30
0.0
 11
1.44501
 21
2.374041793586251
 31
0.0
  0
LINE
  5
16C
330
70
100
AcDbEntity
  8
SG-61-定位板 v8_Locating plate
100
AcDbLine
 10
25.73445036593062
 20
4.091391022339553
 30
0.0
 11
27.13440036593063
 21
4.091391022339553
 31
0.0
  0
LINE
  5
16D
330
70
100
AcDbEntity
  8
SG-61-定位板 v8_Locating plate
100
AcDbLine
 10
27.13440036593062
 20
5.333689639847565
 30
0.0
 11
27.13440036593063
 21
5.490406574086232
 31
0.0
  0
LINE
  5
16E
330
70
100
AcDbEntity
  8
SG-61-定位板 v8_Locating plate
100
AcDbLine
 10
27.13440036593062
 20
5.333689639847565
 30
0.0
 11
27.13440036593063
 21
4.272823233723382
 31
0.0
  0
LINE
  5
16F
330
70
100
AcDbEntity
  8
SG-61-定位板 v8_Locating plate
100
AcDbLine
 10
25.9719
 20
8.375860000000001
 30
0.0
 11
25.9719
 21
7.905929999999999
 31
0.0
  0
LINE
  5
170
330
70
100
AcDbEntity
  8
SG-61-定位板 v8_Locating plate
100
AcDbLine
 10
1.444723826242418
 20
3.434914483398641
 30
0.0
 11
1.44501
 21
2.374041793586251
 31
0.0
  0
LINE
  5
171
330
70
100
AcDbEntity
  8
SG-61-定位板 v8_Locating plate
100
AcDbLine
 10
2.844959999999997
 20
3.433238617508012
 30
0.0
 11
2.84496
 21
2.372372211383829
 31
0.0
  0
LINE
  5
172
330
70
100
AcDbEntity
  8
SG-61-定位板 v8_Locating plate
100
AcDbLine
 10
1.444723826242418
 20
3.434914483398641
 30
0.0
 11
1.44501
 21
2.374041793586251
 31
0.0
  0
LINE
  5
173
330
70
100
AcDbEntity
  8
SG-61-定位板 v8_Locating plate
100
AcDbLine
 10
2.844959999999997
 20
3.433238617508012
 30
0.0
 11
2.84496
 21
3.589955551746679
 31
0.0
  0
LINE
  5
174
330
70
100
AcDbEntity
  8
SG-61-定位板 v8_Locating plate
100
AcDbLine
 10
9.27435
 20
9.305889999999999
 30
0.0
 11
9.27435
 21
7.905929999999999
 31
0.0
  0
LINE
  5
175
330
70
100
AcDbEntity
  8
SG-61-定位板 v8_Locating plate
100
AcDbLine
 10
1.44501
 20
2.374041793586251
 30
0.0
 11
1.44501
 21
2.19094
 31
0.0
  0
LINE
  5
176
330
70
100
AcDbEntity
  8
SG-61-定位板 v8_Locating plate
100
AcDbLine
 10
2.84496
 20
2.19094
 30
0.0
 11
2.84496
 21
2.372372211383829
 31
0.0
  0
LINE
  5
177
330
70
100
AcDbEntity
  8
SG-61-定位板 v8_Locating plate
100
AcDbLine
 10
27.13440036593063
 20
4.091391022339553
 30
0.0
 11
27.13440036593063
 21
4.272823233723382
 31
0.0
  0
LINE
  5
178
330
70
100
AcDbEntity
  8
SG-61-定位板 v8_Locating plate
100
AcDbLine
 10
25.58942536593062
 20
4.261901563520049
 30
0.0
 11
24.88942536593063
 21
4.261901563520049
 31
0.0
  0
LINE
  5
179
330
70
100
AcDbEntity
  8
SG-61-定位板 v8_Locating plate
100
AcDbLine
 10
27.13440036593063
 20
4.091391022339553
 30
0.0
 11
27.13440036593063
 21
4.272823233723382
 31
0.0
  0
LINE
  5
17A
330
70
100
AcDbEntity
  8
SG-61-定位板 v8_Locating plate
100
AcDbLine
 10
25.58942536593062
 20
4.261901563520049
 30
0.0
 11
24.88942536593063
 21
4.261901563520049
 31
0.0
  0
LINE
  5
17B
330
70
100
AcDbEntity
  8
SG-61-定位板 v8_Locating plate
100
AcDbLine
 10
25.73445036593062
 20
4.274492815925803
 30
0.0
 11
25.73445036593062
 21
4.091391022339553
 31
0.0
  0
LINE
  5
17C
330
70
100
AcDbEntity
  8
SG-61-定位板 v8_Locating plate
100
AcDbLine
 10
24.88942536593063
 20
4.261901563520049
 30
0.0
 11
24.88942536593063
 21
5.346901563520049
 31
0.0
  0
LINE
  5
17D
330
70
100
AcDbEntity
  8
SG-61-定位板 v8_Locating plate
100
AcDbLine
 10
1.44501
 20
2.374041793586251
 30
0.0
 11
1.44501
 21
2.19094
 31
0.0
  0
LINE
  5
17E
330
70
100
AcDbEntity
  8
SG-61-定位板 v8_Locating plate
100
AcDbLine
 10
25.58942536593062
 20
4.261901563520049
 30
0.0
 11
24.88942536593063
 21
4.261901563520049
 31
0.0
  0
LINE
  5
17F
330
70
100
AcDbEntity
  8
SG-61-定位板 v8_Locating plate
100
AcDbLine
 10
1.44501
 20
2.374041793586251
 30
0.0
 11
1.44501
 21
2.19094
 31
0.0
  0
LINE
  5
180
330
70
100
AcDbEntity
  8
SG-61-定位板 v8_Locating plate
100
AcDbLine
 10
27.13440036593063
 20
5.490406574086232
 30
0.0
 11
25.73445036593062
 21
5.491465333701079
 31
0.0
  0
LINE
  5
181
330
70
100
AcDbEntity
  8
SG-61-定位板 v8_Locating plate
100
AcDbLine
 10
27.13440036593062
 20
5.333689639847565
 30
0.0
 11
27.13440036593063
 21
5.490406574086232
 31
0.0
  0
LINE
  5
182
330
70
100
AcDbEntity
  8
SG-61-定位板 v8_Locating plate
100
AcDbLine
 10
2.84496
 20
3.589955551746679
 30
0.0
 11
1.44501
 21
3.591014311361526
 31
0.0
  0
LINE
  5
183
330
70
100
AcDbEntity
  8
SG-61-定位板 v8_Locating plate
100
AcDbLine
 10
27.13440036593062
 20
5.333689639847565
 30
0.0
 11
27.13440036593063
 21
4.272823233723382
 31
0.0
  0
LINE
  5
184
330
70
100
AcDbEntity
  8
SG-61-定位板 v8_Locating plate
100
AcDbLine
 10
2.84496
 20
3.589955551746679
 30
0.0
 11
1.44501
 21
3.591014311361526
 31
0.0
  0
LINE
  5
185
330
70
100
AcDbEntity
  8
SG-61-定位板 v8_Locating plate
100
AcDbLine
 10
27.13440036593063
 20
4.091391022339553
 30
0.0
 11
27.13440036593063
 21
4.272823233723382
 31
0.0
  0
LINE
  5
186
330
70
100
AcDbEntity
  8
SG-61-定位板 v8_Locating plate
100
AcDbLine
 10
20.7044
 20
7.905929999999999
 30
0.0
 11
19.3044
 21
7.905929999999999
 31
0.0
  0
LINE
  5
187
330
70
100
AcDbEntity
  8
SG-61-定位板 v8_Locating plate
100
AcDbLine
 10
27.13440036593062
 20
5.333689639847565
 30
0.0
 11
27.13440036593063
 21
4.272823233723382
 31
0.0
  0
LINE
  5
188
330
70
100
AcDbEntity
  8
SG-61-定位板 v8_Locating plate
100
AcDbLine
 10
2.844959999999997
 20
3.433238617508012
 30
0.0
 11
2.84496
 21
2.372372211383829
 31
0.0
  0
LINE
  5
189
330
70
100
AcDbEntity
  8
SG-61-定位板 v8_Locating plate
100
AcDbLine
 10
25.73445036593062
 20
4.091391022339553
 30
0.0
 11
27.13440036593063
 21
4.091391022339553
 31
0.0
  0
LINE
  5
18A
330
70
100
AcDbEntity
  8
SG-61-定位板 v8_Locating plate
100
AcDbLine
 10
27.13440036593063
 20
5.490406574086232
 30
0.0
 11
25.73445036593062
 21
5.491465333701079
 31
0.0
  0
LINE
  5
18B
330
70
100
AcDbEntity
  8
SG-61-定位板 v8_Locating plate
100
AcDbLine
 10
25.73445036593062
 20
4.091391022339553
 30
0.0
 11
27.13440036593063
 21
4.091391022339553
 31
0.0
  0
LINE
  5
18C
330
70
100
AcDbEntity
  8
SG-61-定位板 v8_Locating plate
100
AcDbLine
 10
18.7994
 20
9.305889999999999
 30
0.0
 11
18.7994
 21
7.905929999999999
 31
0.0
  0
LINE
  5
18D
330
70
100
AcDbEntity
  8
SG-61-定位板 v8_Locating plate
100
AcDbLine
 10
17.3994
 20
9.305889999999999
 30
0.0
 11
18.7994
 21
9.305889999999999
 31
0.0
  0
LINE
  5
18E
330
70
100
AcDbEntity
  8
SG-61-定位板 v8_Locating plate
100
AcDbLine
 10
27.8481
 20
7.40089
 30
0.0
 11
27.8481
 21
6.00093
 31
0.0
  0
LINE
  5
18F
330
70
100
AcDbEntity
  8
SG-61-定位板 v8_Locating plate
100
AcDbLine
 10
1.44501
 20
2.19094
 30
0.0
 11
2.84496
 21
2.19094
 31
0.0
  0
LINE
  5
190
330
70
100
AcDbEntity
  8
SG-61-定位板 v8_Locating plate
100
AcDbLine
 10
24.88942536593063
 20
4.261901563520049
 30
0.0
 11
24.88942536593063
 21
5.346901563520049
 31
0.0
  0
LINE
  5
191
330
70
100
AcDbEntity
  8
SG-61-定位板 v8_Locating plate
100
AcDbLine
 10
24.88942536593063
 20
4.261901563520049
 30
0.0
 11
24.88942536593063
 21
5.346901563520049
 31
0.0
  0
LINE
  5
192
330
70
100
AcDbEntity
  8
SG-61-定位板 v8_Locating plate
100
AcDbLine
 10
25.58942536593062
 20
4.261901563520049
 30
0.0
 11
24.88942536593063
 21
4.261901563520049
 31
0.0
  0
LINE
  5
193
330
70
100
AcDbEntity
  8
SG-61-定位板 v8_Locating plate
100
AcDbLine
 10
24.88942536593063
 20
4.261901563520049
 30
0.0
 11
24.88942536593063
 21
5.346901563520049
 31
0.0
  0
LINE
  5
194
330
70
100
AcDbEntity
  8
SG-61-定位板 v8_Locating plate
100
AcDbLine
 10
27.13440036593063
 20
5.490406574086232
 30
0.0
 11
25.73445036593062
 21
5.491465333701079
 31
0.0
  0
LINE
  5
195
330
70
100
AcDbEntity
  8
SG-61-定位板 v8_Locating plate
100
AcDbLine
 10
27.13440036593062
 20
5.333689639847565
 30
0.0
 11
27.13440036593063
 21
5.490406574086232
 31
0.0
  0
LINE
  5
196
330
70
100
AcDbEntity
  8
SG-61-定位板 v8_Locating plate
100
AcDbLine
 10
2.844959999999997
 20
3.433238617508012
 30
0.0
 11
2.84496
 21
3.589955551746679
 31
0.0
  0
LINE
  5
197
330
70
100
AcDbEntity
  8
SG-61-定位板 v8_Locating plate
100
AcDbLine
 10
13.5894
 20
7.905929999999999
 30
0.0
 11
13.5894
 21
9.305889999999999
 31
0.0
  0
LINE
  5
198
330
70
100
AcDbEntity
  8
SG-61-定位板 v8_Locating plate
100
AcDbLine
 10
2.84496
 20
3.589955551746679
 30
0.0
 11
1.44501
 21
3.591014311361526
 31
0.0
  0
LINE
  5
199
330
70
100
AcDbEntity
  8
SG-61-定位板 v8_Locating plate
100
AcDbLine
 10
25.73445036593062
 20
4.274492815925803
 30
0.0
 11
25.73445036593062
 21
4.091391022339553
 31
0.0
  0
LINE
  5
19A
330
70
100
AcDbEntity
  8
SG-61-定位板 v8_Locating plate
100
AcDbLine
 10
3.55935
 20
9.305889999999999
 30
0.0
 11
3.55935
 21
7.905929999999999
 31
0.0
  0
LINE
  5
19B
330
70
100
AcDbEntity
  8
SG-61-定位板 v8_Locating plate
100
AcDbLine
 10
1.44501
 20
3.591014311361526
 30
0.0
 11
1.444723826242418
 21
3.434914483398641
 31
0.0
  0
LINE
  5
19C
330
70
100
AcDbEntity
  8
SG-61-定位板 v8_Locating plate
100
AcDbLine
 10
24.88942536593063
 20
4.261901563520049
 30
0.0
 11
24.88942536593063
 21
5.346901563520049
 31
0.0
  0
LINE
  5
19D
330
70
100
AcDbEntity
  8
SG-61-定位板 v8_Locating plate
100
AcDbLine
 10
25.73445036593062
 20
4.274492815925803
 30
0.0
 11
25.73445036593062
 21
4.091391022339553
 31
0.0
  0
LINE
  5
19E
330
70
100
AcDbEntity
  8
SG-61-定位板 v8_Locating plate
100
AcDbLine
 10
13.0844
 20
9.305889999999999
 30
0.0
 11
13.0844
 21
7.905929999999999
 31
0.0
  0
LINE
  5
19F
330
70
100
AcDbEntity
  8
SG-61-定位板 v8_Locating plate
100
AcDbLine
 10
1.44501
 20
2.19094
 30
0.0
 11
2.84496
 21
2.19094
 31
0.0
  0
LINE
  5
1A0
330
70
100
AcDbEntity
  8
SG-61-定位板 v8_Locating plate
100
AcDbLine
 10
25.73445036593062
 20
5.491465333701079
 30
0.0
 11
25.73416419217304
 21
5.335365505738193
 31
0.0
  0
LINE
  5
1A1
330
70
100
AcDbEntity
  8
SG-61-定位板 v8_Locating plate
100
AcDbLine
 10
25.73416419217304
 20
5.335365505738193
 30
0.0
 11
25.73445036593062
 21
4.274492815925803
 31
0.0
  0
LINE
  5
1A2
330
70
100
AcDbEntity
  8
SG-61-定位板 v8_Locating plate
100
AcDbLine
 10
25.973425433936
 20
9.308093866145959
 30
0.0
 11
25.97313926017842
 21
9.151994038183074
 31
0.0
  0
LINE
  5
1A3
330
70
100
AcDbEntity
  8
SG-61-定位板 v8_Locating plate
100
AcDbLine
 10
25.973425433936
 20
9.308093866145959
 30
0.0
 11
25.97313926017842
 21
9.151994038183074
 31
0.0
  0
LINE
  5
1A4
330
70
100
AcDbEntity
  8
SG-61-定位板 v8_Locating plate
100
AcDbLine
 10
25.97313926017842
 20
9.151994038183074
 30
0.0
 11
25.973425433936
 21
8.091121348370684
 31
0.0
  0
LINE
  5
1A5
330
70
100
AcDbEntity
  8
SG-61-定位板 v8_Locating plate
100
AcDbLine
 10
27.373375433936
 20
9.150318172292447
 30
0.0
 11
27.373375433936
 21
9.307035106531113
 31
0.0
  0
LINE
  5
1A6
330
70
100
AcDbEntity
  8
SG-61-定位板 v8_Locating plate
100
AcDbLine
 10
27.373375433936
 20
9.150318172292447
 30
0.0
 11
27.373375433936
 21
8.089451766168263
 31
0.0
  0
LINE
  5
1A7
330
70
100
AcDbEntity
  8
SG-61-定位板 v8_Locating plate
100
AcDbLine
 10
27.373375433936
 20
9.307035106531113
 30
0.0
 11
25.973425433936
 21
9.308093866145959
 31
0.0
  0
LINE
  5
1A8
330
70
100
AcDbEntity
  8
SG-61-定位板 v8_Locating plate
100
AcDbLine
 10
27.373375433936
 20
9.150318172292447
 30
0.0
 11
27.373375433936
 21
9.307035106531113
 31
0.0
  0
LINE
  5
1A9
330
70
100
AcDbEntity
  8
SG-61-定位板 v8_Locating plate
100
AcDbLine
 10
25.973425433936
 20
7.908019554784433
 30
0.0
 11
27.373375433936
 21
7.908019554784433
 31
0.0
  0
LINE
  5
1AA
330
70
100
AcDbEntity
  8
SG-61-定位板 v8_Locating plate
100
AcDbLine
 10
25.97313926017842
 20
9.151994038183074
 30
0.0
 11
25.973425433936
 21
8.091121348370684
 31
0.0
  0
LINE
  5
1AB
330
70
100
AcDbEntity
  8
SG-61-定位板 v8_Locating plate
100
AcDbLine
 10
13.7987
 20
0.285943
 30
0.0
 11
13.7987
 21
1.685889999999999
 31
0.0
  0
LINE
  5
1AC
330
70
100
AcDbEntity
  8
SG-61-定位板 v8_Locating plate
100
AcDbLine
 10
27.13440036593062
 20
5.333689639847565
 30
0.0
 11
27.13440036593063
 21
4.272823233723382
 31
0.0
  0
LINE
  5
1AD
330
70
100
AcDbEntity
  8
SG-61-定位板 v8_Locating plate
100
AcDbLine
 10
17.74865
 20
1.5284165
 30
0.0
 11
17.74865
 21
0.4434164999999997
 31
0.0
  0
LINE
  5
1AE
330
70
100
AcDbEntity
  8
SG-61-定位板 v8_Locating plate
100
AcDbLine
 10
25.73416419217304
 20
5.335365505738193
 30
0.0
 11
25.73445036593062
 21
4.274492815925803
 31
0.0
  0
LINE
  5
1AF
330
70
100
AcDbEntity
  8
SG-61-定位板 v8_Locating plate
100
AcDbLine
 10
25.73416419217304
 20
5.335365505738193
 30
0.0
 11
25.73445036593062
 21
4.274492815925803
 31
0.0
  0
LINE
  5
1B0
330
70
100
AcDbEntity
  8
SG-61-定位板 v8_Locating plate
100
AcDbLine
 10
1.099984999999999
 20
3.641450541180496
 30
0.0
 11
1.099984999999999
 21
3.871450541180496
 31
0.0
  0
LINE
  5
1B1
330
70
100
AcDbEntity
  8
SG-61-定位板 v8_Locating plate
100
AcDbLine
 10
25.973425433936
 20
8.091121348370684
 30
0.0
 11
25.973425433936
 21
7.908019554784433
 31
0.0
  0
LINE
  5
1B2
330
70
100
AcDbEntity
  8
SG-61-定位板 v8_Locating plate
100
AcDbLine
 10
25.97313926017842
 20
9.151994038183074
 30
0.0
 11
25.973425433936
 21
8.091121348370684
 31
0.0
  0
LINE
  5
1B3
330
70
100
AcDbEntity
  8
SG-61-定位板 v8_Locating plate
100
AcDbLine
 10
25.73445036593062
 20
4.091391022339553
 30
0.0
 11
27.13440036593063
 21
4.091391022339553
 31
0.0
  0
LINE
  5
1B4
330
70
100
AcDbEntity
  8
SG-61-定位板 v8_Locating plate
100
AcDbLine
 10
25.973425433936
 20
8.091121348370684
 30
0.0
 11
25.973425433936
 21
7.908019554784433
 31
0.0
  0
LINE
  5
1B5
330
70
100
AcDbEntity
  8
SG-61-定位板 v8_Locating plate
100
AcDbLine
 10
25.973425433936
 20
8.091121348370684
 30
0.0
 11
25.973425433936
 21
7.908019554784433
 31
0.0
  0
LINE
  5
1B6
330
70
100
AcDbEntity
  8
SG-61-定位板 v8_Locating plate
100
AcDbLine
 10
24.88942536593063
 20
4.261901563520049
 30
0.0
 11
25.58942536593062
 21
4.261901563520049
 31
0.0
  0
LINE
  5
1B7
330
70
100
AcDbEntity
  8
SG-61-定位板 v8_Locating plate
100
AcDbLine
 10
27.373375433936
 20
7.908019554784433
 30
0.0
 11
27.373375433936
 21
8.089451766168263
 31
0.0
  0
LINE
  5
1B8
330
70
100
AcDbEntity
  8
SG-61-定位板 v8_Locating plate
100
AcDbLine
 10
0.7999849999999997
 20
3.871450541180496
 30
0.0
 11
0.7999849999999997
 21
3.641450541180496
 31
0.0
  0
LINE
  5
1B9
330
70
100
AcDbEntity
  8
SG-61-定位板 v8_Locating plate
100
AcDbLine
 10
25.97313926017842
 20
9.151994038183074
 30
0.0
 11
25.973425433936
 21
8.091121348370684
 31
0.0
  0
LINE
  5
1BA
330
70
100
AcDbEntity
  8
SG-61-定位板 v8_Locating plate
100
AcDbLine
 10
25.973425433936
 20
9.308093866145959
 30
0.0
 11
25.97313926017842
 21
9.151994038183074
 31
0.0
  0
LINE
  5
1BB
330
70
100
AcDbEntity
  8
SG-61-定位板 v8_Locating plate
100
AcDbLine
 10
25.25789465942155
 20
3.591880026668944
 30
0.0
 11
25.25789465942155
 21
2.191805715307417
 31
0.0
  0
LINE
  5
1BC
330
70
100
AcDbEntity
  8
SG-61-定位板 v8_Locating plate
100
AcDbLine
 10
25.58942536593062
 20
4.261901563520049
 30
0.0
 11
24.88942536593063
 21
4.261901563520049
 31
0.0
  0
LINE
  5
1BD
330
70
100
AcDbEntity
  8
SG-61-定位板 v8_Locating plate
100
AcDbLine
 10
27.373375433936
 20
9.150318172292447
 30
0.0
 11
27.373375433936
 21
8.089451766168263
 31
0.0
  0
LINE
  5
1BE
330
70
100
AcDbEntity
  8
SG-61-定位板 v8_Locating plate
100
AcDbLine
 10
27.13440036593063
 20
4.091391022339553
 30
0.0
 11
27.13440036593063
 21
4.272823233723382
 31
0.0
  0
LINE
  5
1BF
330
70
100
AcDbEntity
  8
SG-61-定位板 v8_Locating plate
100
AcDbLine
 10
25.73445036593062
 20
5.491465333701079
 30
0.0
 11
25.73416419217304
 21
5.335365505738193
 31
0.0
  0
LINE
  5
1C0
330
70
100
AcDbEntity
  8
SG-61-定位板 v8_Locating plate
100
AcDbLine
 10
25.11286965942155
 20
3.447316256487913
 30
0.0
 11
25.11286965942155
 21
2.362316256487913
 31
0.0
  0
LINE
  5
1C1
330
70
100
AcDbEntity
  8
SG-61-定位板 v8_Locating plate
100
AcDbLine
 10
25.973425433936
 20
7.908019554784433
 30
0.0
 11
27.373375433936
 21
7.908019554784433
 31
0.0
  0
LINE
  5
1C2
330
70
100
AcDbEntity
  8
SG-61-定位板 v8_Locating plate
100
AcDbLine
 10
27.373375433936
 20
9.150318172292447
 30
0.0
 11
27.373375433936
 21
9.307035106531113
 31
0.0
  0
LINE
  5
1C3
330
70
100
AcDbEntity
  8
SG-61-定位板 v8_Locating plate
100
AcDbLine
 10
1.099984999999999
 20
3.871450541180496
 30
0.0
 11
0.7999849999999997
 21
3.871450541180496
 31
0.0
  0
LINE
  5
1C4
330
70
100
AcDbEntity
  8
SG-61-定位板 v8_Locating plate
100
AcDbLine
 10
27.373375433936
 20
9.307035106531113
 30
0.0
 11
25.973425433936
 21
9.308093866145959
 31
0.0
  0
LINE
  5
1C5
330
70
100
AcDbEntity
  8
SG-61-定位板 v8_Locating plate
100
AcDbLine
 10
24.88942536593063
 20
4.261901563520049
 30
0.0
 11
24.88942536593063
 21
5.346901563520049
 31
0.0
  0
LINE
  5
1C6
330
70
100
AcDbEntity
  8
SG-61-定位板 v8_Locating plate
100
AcDbLine
 10
27.13440036593063
 20
5.490406574086232
 30
0.0
 11
25.73445036593062
 21
5.491465333701079
 31
0.0
  0
LINE
  5
1C7
330
70
100
AcDbEntity
  8
SG-61-定位板 v8_Locating plate
100
AcDbLine
 10
24.88942536593063
 20
4.261901563520049
 30
0.0
 11
24.88942536593063
 21
5.346901563520049
 31
0.0
  0
LINE
  5
1C8
330
70
100
AcDbEntity
  8
SG-61-定位板 v8_Locating plate
100
AcDbLine
 10
25.58942536593062
 20
4.261901563520049
 30
0.0
 11
24.88942536593063
 21
4.261901563520049
 31
0.0
  0
LINE
  5
1C9
330
70
100
AcDbEntity
  8
SG-61-定位板 v8_Locating plate
100
AcDbLine
 10
25.73445036593062
 20
4.274492815925803
 30
0.0
 11
25.73445036593062
 21
4.091391022339553
 31
0.0
  0
LINE
  5
1CA
330
70
100
AcDbEntity
  8
SG-61-定位板 v8_Locating plate
100
AcDbLine
 10
25.73445036593062
 20
5.491465333701079
 30
0.0
 11
25.73416419217304
 21
5.335365505738193
 31
0.0
  0
LINE
  5
1CB
330
70
100
AcDbEntity
  8
SG-61-定位板 v8_Locating plate
100
AcDbLine
 10
27.373375433936
 20
9.150318172292447
 30
0.0
 11
27.373375433936
 21
8.089451766168263
 31
0.0
  0
LINE
  5
1CC
330
70
100
AcDbEntity
  8
SG-61-定位板 v8_Locating plate
100
AcDbLine
 10
27.373375433936
 20
9.307035106531113
 30
0.0
 11
25.973425433936
 21
9.308093866145959
 31
0.0
  0
LINE
  5
1CD
330
70
100
AcDbEntity
  8
SG-61-定位板 v8_Locating plate
100
AcDbLine
 10
27.373375433936
 20
9.150318172292447
 30
0.0
 11
27.373375433936
 21
9.307035106531113
 31
0.0
  0
LINE
  5
1CE
330
70
100
AcDbEntity
  8
SG-61-定位板 v8_Locating plate
100
AcDbLine
 10
25.973425433936
 20
8.091121348370684
 30
0.0
 11
25.973425433936
 21
7.908019554784433
 31
0.0
  0
LINE
  5
1CF
330
70
100
AcDbEntity
  8
SG-61-定位板 v8_Locating plate
100
AcDbLine
 10
27.373375433936
 20
9.150318172292447
 30
0.0
 11
27.373375433936
 21
8.089451766168263
 31
0.0
  0
LINE
  5
1D0
330
70
100
AcDbEntity
  8
SG-61-定位板 v8_Locating plate
100
AcDbLine
 10
25.973425433936
 20
9.308093866145959
 30
0.0
 11
25.97313926017842
 21
9.151994038183074
 31
0.0
  0
LINE
  5
1D1
330
70
100
AcDbEntity
  8
SG-61-定位板 v8_Locating plate
100
AcDbLine
 10
25.973425433936
 20
7.908019554784433
 30
0.0
 11
27.373375433936
 21
7.908019554784433
 31
0.0
  0
LINE
  5
1D2
330
70
100
AcDbEntity
  8
SG-61-定位板 v8_Locating plate
100
AcDbLine
 10
27.13440036593062
 20
5.333689639847565
 30
0.0
 11
27.13440036593063
 21
5.490406574086232
 31
0.0
  0
LINE
  5
1D3
330
70
100
AcDbEntity
  8
SG-61-定位板 v8_Locating plate
100
AcDbLine
 10
25.73416419217304
 20
5.335365505738193
 30
0.0
 11
25.73445036593062
 21
4.274492815925803
 31
0.0
  0
LINE
  5
1D4
330
70
100
AcDbEntity
  8
SG-61-定位板 v8_Locating plate
100
AcDbLine
 10
25.58942536593062
 20
4.261901563520049
 30
0.0
 11
24.88942536593063
 21
4.261901563520049
 31
0.0
  0
LINE
  5
1D5
330
70
100
AcDbEntity
  8
SG-61-定位板 v8_Locating plate
100
AcDbLine
 10
27.373375433936
 20
9.307035106531113
 30
0.0
 11
25.973425433936
 21
9.308093866145959
 31
0.0
  0
LINE
  5
1D6
330
70
100
AcDbEntity
  8
SG-61-定位板 v8_Locating plate
100
AcDbLine
 10
3.484984999999999
 20
3.641450541180496
 30
0.0
 11
3.484984999999999
 21
3.871450541180496
 31
0.0
  0
LINE
  5
1D7
330
70
100
AcDbEntity
  8
SG-61-定位板 v8_Locating plate
100
AcDbLine
 10
27.373375433936
 20
7.908019554784433
 30
0.0
 11
27.373375433936
 21
8.089451766168263
 31
0.0
  0
LINE
  5
1D8
330
70
100
AcDbEntity
  8
SG-61-定位板 v8_Locating plate
100
AcDbLine
 10
25.973425433936
 20
7.908019554784433
 30
0.0
 11
27.373375433936
 21
7.908019554784433
 31
0.0
  0
LINE
  5
1D9
330
70
100
AcDbEntity
  8
SG-61-定位板 v8_Locating plate
100
AcDbLine
 10
12.3986
 20
1.685889999999999
 30
0.0
 11
12.3986
 21
0.2859430000000001
 31
0.0
  0
LINE
  5
1DA
330
70
100
AcDbEntity
  8
SG-61-定位板 v8_Locating plate
100
AcDbLine
 10
25.73445036593062
 20
5.491465333701079
 30
0.0
 11
25.73416419217304
 21
5.335365505738193
 31
0.0
  0
LINE
  5
1DB
330
70
100
AcDbEntity
  8
SG-61-定位板 v8_Locating plate
100
AcDbLine
 10
27.373375433936
 20
7.908019554784433
 30
0.0
 11
27.373375433936
 21
8.089451766168263
 31
0.0
  0
LINE
  5
1DC
330
70
100
AcDbEntity
  8
SG-61-定位板 v8_Locating plate
100
AcDbLine
 10
3.484984999999999
 20
3.871450541180496
 30
0.0
 11
3.184985
 21
3.871450541180496
 31
0.0
  0
LINE
  5
1DD
330
70
100
AcDbEntity
  8
SG-61-定位板 v8_Locating plate
100
AcDbLine
 10
27.373375433936
 20
7.908019554784433
 30
0.0
 11
27.373375433936
 21
8.089451766168263
 31
0.0
  0
LINE
  5
1DE
330
70
100
AcDbEntity
  8
SG-61-定位板 v8_Locating plate
100
AcDbLine
 10
3.184985
 20
3.871450541180496
 30
0.0
 11
3.184985
 21
3.641450541180496
 31
0.0
  0
LINE
  5
1DF
330
70
100
AcDbEntity
  8
SG-61-定位板 v8_Locating plate
100
AcDbLine
 10
25.58942536593062
 20
4.261901563520049
 30
0.0
 11
24.88942536593063
 21
4.261901563520049
 31
0.0
  0
LINE
  5
1E0
330
70
100
AcDbEntity
  8
SG-61-定位板 v8_Locating plate
100
AcDbLine
 10
2.553800593749999
 20
-0.1666514999999999
 30
0.0
 11
3.593800593749999
 21
-0.1666514999999999
 31
0.0
  0
LINE
  5
1E1
330
70
100
AcDbEntity
  8
SG-61-定位板 v8_Locating plate
100
AcDbLine
 10
7.948649999999997
 20
1.9534165
 30
0.0
 11
7.948649999999997
 21
1.7234165
 31
0.0
  0
LINE
  5
1E2
330
70
100
AcDbEntity
  8
SG-61-定位板 v8_Locating plate
100
AcDbLine
 10
24.91286965942155
 20
3.642316256487913
 30
0.0
 11
24.91286965942155
 21
3.872316256487913
 31
0.0
  0
LINE
  5
1E3
330
70
100
AcDbEntity
  8
SG-61-定位板 v8_Locating plate
100
AcDbLine
 10
17.94865
 20
1.9534165
 30
0.0
 11
17.94865
 21
1.7234165
 31
0.0
  0
LINE
  5
1E4
330
70
100
AcDbEntity
  8
SG-61-定位板 v8_Locating plate
100
AcDbLine
 10
25.62840043393601
 20
9.35853009596493
 30
0.0
 11
25.62840043393601
 21
9.58853009596493
 31
0.0
  0
LINE
  5
1E5
330
70
100
AcDbEntity
  8
SG-61-定位板 v8_Locating plate
100
AcDbLine
 10
8.248649999999997
 20
1.9534165
 30
0.0
 11
7.948649999999997
 21
1.9534165
 31
0.0
  0
LINE
  5
1E6
330
70
100
AcDbEntity
  8
SG-61-定位板 v8_Locating plate
100
AcDbLine
 10
27.47442536593063
 20
5.771901563520049
 30
0.0
 11
27.47442536593063
 21
5.541901563520049
 31
0.0
  0
ARC
  5
1E7
330
70
100
AcDbEntity
  8
SG-61-定位板 v8_Locating plate
100
AcDbCircle
 10
28.3769
 20
9.558339999999997
 30
0.0
 40
0.2000000000000028
100
AcDbArc
 50
0.0000000000005089
 51
89.99999999999797
  0
LINE
  5
1E8
330
70
100
AcDbEntity
  8
SG-61-定位板 v8_Locating plate
100
AcDbLine
 10
18.24865
 20
1.9534165
 30
0.0
 11
17.94865
 21
1.9534165
 31
0.0
  0
LINE
  5
1E9
330
70
100
AcDbEntity
  8
SG-61-定位板 v8_Locating plate
100
AcDbLine
 10
7.2456719375
 20
-0.1666514999999999
 30
0.0
 11
3.723800593749999
 21
-0.1666514999999999
 31
0.0
  0
LINE
  5
1EA
330
70
100
AcDbEntity
  8
SG-61-定位板 v8_Locating plate
100
AcDbLine
 10
27.29786965942155
 20
3.872316256487913
 30
0.0
 11
26.99786965942155
 21
3.872316256487913
 31
0.0
  0
LINE
  5
1EB
330
70
100
AcDbEntity
  8
SG-61-定位板 v8_Locating plate
100
AcDbLine
 10
10.76754328125
 20
9.758339999999998
 30
0.0
 11
14.289414625
 21
9.758339999999998
 31
0.0
  0
LINE
  5
1EC
330
70
100
AcDbEntity
  8
SG-61-定位板 v8_Locating plate
100
AcDbLine
 10
17.94128596874999
 20
-0.1666514999999998
 30
0.0
 11
14.289414625
 21
-0.1666514999999998
 31
0.0
  0
LINE
  5
1ED
330
70
100
AcDbEntity
  8
SG-61-定位板 v8_Locating plate
100
AcDbLine
 10
18.24865
 20
1.7234165
 30
0.0
 11
18.24865
 21
1.9534165
 31
0.0
  0
LINE
  5
1EE
330
70
100
AcDbEntity
  8
SG-61-定位板 v8_Locating plate
100
AcDbLine
 10
21.33315731250001
 20
9.758339999999998
 30
0.0
 11
24.98502865625001
 21
9.758339999999998
 31
0.0
  0
LINE
  5
1EF
330
70
100
AcDbEntity
  8
SG-61-定位板 v8_Locating plate
100
AcDbLine
 10
25.38942536593062
 20
5.541901563520049
 30
0.0
 11
25.38942536593062
 21
5.771901563520049
 31
0.0
  0
LINE
  5
1F0
330
70
100
AcDbEntity
  8
SG-61-定位板 v8_Locating plate
100
AcDbLine
 10
25.38942536593062
 20
5.771901563520049
 30
0.0
 11
25.08942536593063
 21
5.771901563520049
 31
0.0
  0
LINE
  5
1F1
330
70
100
AcDbEntity
  8
SG-61-定位板 v8_Locating plate
100
AcDbLine
 10
26.99786965942155
 20
3.872316256487913
 30
0.0
 11
26.99786965942155
 21
3.642316256487913
 31
0.0
  0
LINE
  5
1F2
330
70
100
AcDbEntity
  8
SG-61-定位板 v8_Locating plate
100
AcDbLine
 10
28.013400433936
 20
9.35853009596493
 30
0.0
 11
28.013400433936
 21
9.58853009596493
 31
0.0
  0
ARC
  5
1F3
330
70
100
AcDbEntity
  8
SG-61-定位板 v8_Locating plate
100
AcDbCircle
 10
28.3769
 20
0.0333484999999997
 30
0.0
 40
0.1999999999999993
100
AcDbArc
 50
270.0
 51
0.0000000000000974
  0
LINE
  5
1F4
330
70
100
AcDbEntity
  8
SG-61-定位板 v8_Locating plate
100
AcDbLine
 10
14.289414625
 20
9.758339999999998
 30
0.0
 11
17.94128596875001
 21
9.758339999999998
 31
0.0
  0
LINE
  5
1F5
330
70
100
AcDbEntity
  8
SG-61-定位板 v8_Locating plate
100
AcDbLine
 10
25.08942536593063
 20
5.771901563520049
 30
0.0
 11
25.08942536593063
 21
5.541901563520049
 31
0.0
  0
LINE
  5
1F6
330
70
100
AcDbEntity
  8
SG-61-定位板 v8_Locating plate
100
AcDbLine
 10
28.013400433936
 20
9.58853009596493
 30
0.0
 11
27.713400433936
 21
9.58853009596493
 31
0.0
  0
LINE
  5
1F7
330
70
100
AcDbEntity
  8
SG-61-定位板 v8_Locating plate
100
AcDbLine
 10
28.5769
 20
9.558339999999999
 30
0.0
 11
28.5769
 21
9.585443914099652
 31
0.0
  0
LINE
  5
1F8
330
70
100
AcDbEntity
  8
SG-61-定位板 v8_Locating plate
100
AcDbLine
 10
18.98128596875
 20
9.758339999999998
 30
0.0
 11
21.33315731250001
 21
9.758339999999998
 31
0.0
  0
LINE
  5
1F9
330
70
100
AcDbEntity
  8
SG-61-定位板 v8_Locating plate
100
AcDbLine
 10
24.98502865625
 20
-0.1666514999999997
 30
0.0
 11
21.3331573125
 21
-0.1666514999999997
 31
0.0
  0
LINE
  5
1FA
330
70
100
AcDbEntity
  8
SG-61-定位板 v8_Locating plate
100
AcDbLine
 10
14.289414625
 20
-0.1666514999999998
 30
0.0
 11
10.63754328125
 21
-0.1666514999999998
 31
0.0
  0
LINE
  5
1FB
330
70
100
AcDbEntity
  8
SG-61-定位板 v8_Locating plate
100
AcDbLine
 10
9.597543281250002
 20
9.758339999999998
 30
0.0
 11
10.70254328125
 21
9.758339999999998
 31
0.0
  0
LINE
  5
1FC
330
70
100
AcDbEntity
  8
SG-61-定位板 v8_Locating plate
100
AcDbLine
 10
24.98502865625
 20
-0.1666514999999997
 30
0.0
 11
26.02502865625
 21
-0.1666514999999997
 31
0.0
  0
LINE
  5
1FD
330
70
100
AcDbEntity
  8
SG-61-定位板 v8_Locating plate
100
AcDbLine
 10
27.29786965942155
 20
3.642316256487913
 30
0.0
 11
27.29786965942155
 21
3.872316256487913
 31
0.0
  0
LINE
  5
1FE
330
70
100
AcDbEntity
  8
SG-61-定位板 v8_Locating plate
100
AcDbLine
 10
28.5769
 20
0.2333485
 30
0.0
 11
28.5769
 21
0.0333485000000001
 31
0.0
  0
LINE
  5
1FF
330
70
100
AcDbEntity
  8
SG-61-定位板 v8_Locating plate
100
AcDbLine
 10
17.94128596875001
 20
9.758339999999998
 30
0.0
 11
18.98128596875
 21
9.758339999999998
 31
0.0
  0
LINE
  5
200
330
70
100
AcDbEntity
  8
SG-61-定位板 v8_Locating plate
100
AcDbLine
 10
10.76754328125
 20
9.758339999999998
 30
0.0
 11
10.70254328125
 21
9.758339999999998
 31
0.0
  0
LINE
  5
201
330
70
100
AcDbEntity
  8
SG-61-定位板 v8_Locating plate
100
AcDbLine
 10
25.328400433936
 20
9.163530095964929
 30
0.0
 11
25.128400433936
 21
9.163530095964929
 31
0.0
  0
LINE
  5
202
330
70
100
AcDbEntity
  8
SG-61-定位板 v8_Locating plate
100
AcDbLine
 10
25.62840043393601
 20
9.163530095964929
 30
0.0
 11
25.828400433936
 21
9.163530095964929
 31
0.0
  0
LINE
  5
203
330
70
100
AcDbEntity
  8
SG-61-定位板 v8_Locating plate
100
AcDbLine
 10
27.713400433936
 20
9.163530095964929
 30
0.0
 11
27.51340043393601
 21
9.163530095964929
 31
0.0
  0
LINE
  5
204
330
70
100
AcDbEntity
  8
SG-61-定位板 v8_Locating plate
100
AcDbLine
 10
0.00192925
 20
0.0333485
 30
0.0
 11
0.00192925
 21
0.0333485000000001
 31
0.0
  0
LINE
  5
205
330
70
100
AcDbEntity
  8
SG-61-定位板 v8_Locating plate
100
AcDbLine
 10
24.91286965942155
 20
3.872316256487913
 30
0.0
 11
24.61286965942155
 21
3.872316256487913
 31
0.0
  0
LINE
  5
206
330
70
100
AcDbEntity
  8
SG-61-定位板 v8_Locating plate
100
AcDbLine
 10
3.723800593749999
 20
-0.1666514999999999
 30
0.0
 11
3.593800593749999
 21
-0.1666514999999999
 31
0.0
  0
LINE
  5
207
330
70
100
AcDbEntity
  8
SG-61-定位板 v8_Locating plate
100
AcDbLine
 10
28.3769
 20
-0.1666514999999996
 30
0.0
 11
26.02502865625
 21
-0.1666514999999997
 31
0.0
  0
LINE
  5
208
330
70
100
AcDbEntity
  8
SG-61-定位板 v8_Locating plate
100
AcDbLine
 10
2.55380059375
 20
9.758339999999996
 30
0.0
 11
4.511849999999999
 21
9.758339999999998
 31
0.0
  0
LINE
  5
209
330
70
100
AcDbEntity
  8
SG-61-定位板 v8_Locating plate
100
AcDbLine
 10
28.013400433936
 20
9.163530095964929
 30
0.0
 11
28.213400433936
 21
9.163530095964929
 31
0.0
  0
LINE
  5
20A
330
70
100
AcDbEntity
  8
SG-61-定位板 v8_Locating plate
100
AcDbLine
 10
25.08942536593063
 20
5.541901563520049
 30
0.0
 11
25.08942536593063
 21
5.346901563520049
 31
0.0
  0
LINE
  5
20B
330
70
100
AcDbEntity
  8
SG-61-定位板 v8_Locating plate
100
AcDbLine
 10
25.08942536593063
 20
5.346901563520049
 30
0.0
 11
24.88942536593063
 21
5.346901563520049
 31
0.0
  0
LINE
  5
20C
330
70
100
AcDbEntity
  8
SG-61-定位板 v8_Locating plate
100
AcDbLine
 10
9.597543281250001
 20
-0.1666514999999985
 30
0.0
 11
7.2456719375
 21
-0.1666514999999999
 31
0.0
  0
LINE
  5
20D
330
70
100
AcDbEntity
  8
SG-61-定位板 v8_Locating plate
100
AcDbLine
 10
25.62840043393601
 20
9.58853009596493
 30
0.0
 11
25.328400433936
 21
9.58853009596493
 31
0.0
  0
LINE
  5
20E
330
70
100
AcDbEntity
  8
SG-61-定位板 v8_Locating plate
100
AcDbLine
 10
25.328400433936
 20
9.58853009596493
 30
0.0
 11
25.328400433936
 21
9.35853009596493
 31
0.0
  0
LINE
  5
20F
330
70
100
AcDbEntity
  8
SG-61-定位板 v8_Locating plate
100
AcDbLine
 10
27.713400433936
 20
9.58853009596493
 30
0.0
 11
27.713400433936
 21
9.35853009596493
 31
0.0
  0
LINE
  5
210
330
70
100
AcDbEntity
  8
SG-61-定位板 v8_Locating plate
100
AcDbLine
 10
4.511849999999999
 20
9.758339999999998
 30
0.0
 11
7.245671937500001
 21
9.758339999999998
 31
0.0
  0
LINE
  5
211
330
70
100
AcDbEntity
  8
SG-61-定位板 v8_Locating plate
100
AcDbLine
 10
9.597543281250001
 20
-0.1666514999999985
 30
0.0
 11
10.63754328125
 21
-0.1666514999999998
 31
0.0
  0
LINE
  5
212
330
70
100
AcDbEntity
  8
SG-61-定位板 v8_Locating plate
100
AcDbLine
 10
25.38942536593062
 20
5.346901563520049
 30
0.0
 11
25.58942536593062
 21
5.346901563520049
 31
0.0
  0
LINE
  5
213
330
70
100
AcDbEntity
  8
SG-61-定位板 v8_Locating plate
100
AcDbLine
 10
24.61286965942155
 20
3.872316256487913
 30
0.0
 11
24.61286965942155
 21
3.642316256487913
 31
0.0
  0
ARC
  5
214
330
70
100
AcDbEntity
  8
SG-61-定位板 v8_Locating plate
100
AcDbCircle
 10
0.2019292499999987
 20
9.558339999999999
 30
0.0
 40
0.1999999999999993
100
AcDbArc
 50
89.99999999999969
 51
180.0
  0
LINE
  5
215
330
70
100
AcDbEntity
  8
SG-61-定位板 v8_Locating plate
100
AcDbLine
 10
27.77442536593063
 20
5.541901563520049
 30
0.0
 11
27.77442536593063
 21
5.771901563520049
 31
0.0
  0
LINE
  5
216
330
70
100
AcDbEntity
  8
SG-61-定位板 v8_Locating plate
100
AcDbLine
 10
27.77442536593063
 20
5.771901563520049
 30
0.0
 11
27.47442536593063
 21
5.771901563520049
 31
0.0
  0
LINE
  5
217
330
70
100
AcDbEntity
  8
SG-61-定位板 v8_Locating plate
100
AcDbLine
 10
7.245671937500001
 20
9.758339999999998
 30
0.0
 11
9.597543281250002
 21
9.758339999999998
 31
0.0
  0
LINE
  5
218
330
70
100
AcDbEntity
  8
SG-61-定位板 v8_Locating plate
100
AcDbLine
 10
0.2019292499999998
 20
9.758339999999998
 30
0.0
 11
2.55380059375
 21
9.758339999999996
 31
0.0
  0
LINE
  5
219
330
70
100
AcDbEntity
  8
SG-61-定位板 v8_Locating plate
100
AcDbLine
 10
28.5769
 20
0.0333485000000001
 30
0.0
 11
28.5769
 21
0.0333485
 31
0.0
  0
LINE
  5
21A
330
70
100
AcDbEntity
  8
SG-61-定位板 v8_Locating plate
100
AcDbLine
 10
21.3331573125
 20
-0.1666514999999997
 30
0.0
 11
18.98128596875
 21
-0.1666514999999997
 31
0.0
  0
LINE
  5
21B
330
70
100
AcDbEntity
  8
SG-61-定位板 v8_Locating plate
100
AcDbLine
 10
2.553800593749999
 20
-0.1666514999999999
 30
0.0
 11
0.2019292499999992
 21
-0.1666514999999999
 31
0.0
  0
LINE
  5
21C
330
70
100
AcDbEntity
  8
SG-61-定位板 v8_Locating plate
100
AcDbLine
 10
17.94128596874999
 20
-0.1666514999999998
 30
0.0
 11
18.98128596875
 21
-0.1666514999999997
 31
0.0
  0
LINE
  5
21D
330
70
100
AcDbEntity
  8
SG-61-定位板 v8_Locating plate
100
AcDbLine
 10
25.38942536593062
 20
5.541901563520049
 30
0.0
 11
25.38942536593062
 21
5.346901563520049
 31
0.0
  0
ARC
  5
21E
330
70
100
AcDbEntity
  8
SG-61-定位板 v8_Locating plate
100
AcDbCircle
 10
0.2019292500000003
 20
0.0333485000000004
 30
0.0
 40
0.2000000000000003
100
AcDbArc
 50
180.0000000000001
 51
269.9999999999997
  0
LINE
  5
21F
330
70
100
AcDbEntity
  8
SG-61-定位板 v8_Locating plate
100
AcDbLine
 10
8.248649999999997
 20
1.7234165
 30
0.0
 11
8.248649999999997
 21
1.9534165
 31
0.0
  0
LINE
  5
220
330
70
100
AcDbEntity
  8
SG-61-定位板 v8_Locating plate
100
AcDbLine
 10
8.248649999999997
 20
1.7234165
 30
0.0
 11
8.248649999999997
 21
1.5284165
 31
0.0
  0
LINE
  5
221
330
70
100
AcDbEntity
  8
SG-61-定位板 v8_Locating plate
100
AcDbLine
 10
3.484984999999999
 20
3.641450541180496
 30
0.0
 11
3.484984999999999
 21
3.446450541180496
 31
0.0
  0
LINE
  5
222
330
70
100
AcDbEntity
  8
SG-61-定位板 v8_Locating plate
100
AcDbLine
 10
24.91286965942155
 20
3.447316256487913
 30
0.0
 11
25.11286965942155
 21
3.447316256487913
 31
0.0
  0
LINE
  5
223
330
70
100
AcDbEntity
  8
SG-61-定位板 v8_Locating plate
100
AcDbLine
 10
25.128400433936
 20
9.163530095964929
 30
0.0
 11
25.128400433936
 21
8.078530095964929
 31
0.0
  0
LINE
  5
224
330
70
100
AcDbEntity
  8
SG-61-定位板 v8_Locating plate
100
AcDbLine
 10
27.47442536593063
 20
5.346901563520049
 30
0.0
 11
27.27442536593063
 21
5.346901563520049
 31
0.0
  0
LINE
  5
225
330
70
100
AcDbEntity
  8
SG-61-定位板 v8_Locating plate
100
AcDbLine
 10
26.79786965942155
 20
3.447316256487913
 30
0.0
 11
26.79786965942155
 21
2.362316256487913
 31
0.0
  0
LINE
  5
226
330
70
100
AcDbEntity
  8
SG-61-定位板 v8_Locating plate
100
AcDbLine
 10
27.29786965942155
 20
3.447316256487913
 30
0.0
 11
27.49786965942155
 21
3.447316256487913
 31
0.0
  0
LINE
  5
227
330
70
100
AcDbEntity
  8
SG-61-定位板 v8_Locating plate
100
AcDbLine
 10
27.27442536593063
 20
5.346901563520049
 30
0.0
 11
27.27442536593063
 21
4.261901563520049
 31
0.0
  0
LINE
  5
228
330
70
100
AcDbEntity
  8
SG-61-定位板 v8_Locating plate
100
AcDbLine
 10
3.184985
 20
3.446450541180496
 30
0.0
 11
2.984984999999999
 21
3.446450541180496
 31
0.0
  0
LINE
  5
229
330
70
100
AcDbEntity
  8
SG-61-定位板 v8_Locating plate
100
AcDbLine
 10
3.484984999999999
 20
3.446450541180496
 30
0.0
 11
3.684985
 21
3.446450541180496
 31
0.0
  0
LINE
  5
22A
330
70
100
AcDbEntity
  8
SG-61-定位板 v8_Locating plate
100
AcDbLine
 10
27.49786965942155
 20
3.447316256487913
 30
0.0
 11
27.49786965942155
 21
2.362316256487913
 31
0.0
  0
LINE
  5
22B
330
70
100
AcDbEntity
  8
SG-61-定位板 v8_Locating plate
100
AcDbLine
 10
25.328400433936
 20
9.35853009596493
 30
0.0
 11
25.328400433936
 21
9.163530095964929
 31
0.0
  0
LINE
  5
22C
330
70
100
AcDbEntity
  8
SG-61-定位板 v8_Locating plate
100
AcDbLine
 10
25.25789465942155
 20
3.591880026668944
 30
0.0
 11
26.65784465942155
 21
3.590821267054097
 31
0.0
  0
LINE
  5
22D
330
70
100
AcDbEntity
  8
SG-61-定位板 v8_Locating plate
100
AcDbLine
 10
7.748649999999997
 20
1.5284165
 30
0.0
 11
7.748649999999997
 21
0.4434164999999997
 31
0.0
  0
LINE
  5
22E
330
70
100
AcDbEntity
  8
SG-61-定位板 v8_Locating plate
100
AcDbLine
 10
8.448649999999997
 20
1.5284165
 30
0.0
 11
8.448649999999997
 21
0.4434164999999997
 31
0.0
  0
LINE
  5
22F
330
70
100
AcDbEntity
  8
SG-61-定位板 v8_Locating plate
100
AcDbLine
 10
1.299984999999999
 20
3.446450541180496
 30
0.0
 11
1.299984999999999
 21
2.361450541180496
 31
0.0
  0
LINE
  5
230
330
70
100
AcDbEntity
  8
SG-61-定位板 v8_Locating plate
100
AcDbLine
 10
27.77442536593063
 20
5.346901563520049
 30
0.0
 11
27.97442536593063
 21
5.346901563520049
 31
0.0
  0
LINE
  5
231
330
70
100
AcDbEntity
  8
SG-61-定位板 v8_Locating plate
100
AcDbLine
 10
18.24865
 20
1.7234165
 30
0.0
 11
18.24865
 21
1.5284165
 31
0.0
  0
LINE
  5
232
330
70
100
AcDbEntity
  8
SG-61-定位板 v8_Locating plate
100
AcDbLine
 10
0.7999849999999997
 20
3.446450541180496
 30
0.0
 11
0.5999849999999998
 21
3.446450541180496
 31
0.0
  0
LINE
  5
233
330
70
100
AcDbEntity
  8
SG-61-定位板 v8_Locating plate
100
AcDbLine
 10
27.713400433936
 20
9.35853009596493
 30
0.0
 11
27.713400433936
 21
9.163530095964929
 31
0.0
  0
LINE
  5
234
330
70
100
AcDbEntity
  8
SG-61-定位板 v8_Locating plate
100
AcDbLine
 10
3.184985
 20
3.641450541180496
 30
0.0
 11
3.184985
 21
3.446450541180496
 31
0.0
  0
LINE
  5
235
330
70
100
AcDbEntity
  8
SG-61-定位板 v8_Locating plate
100
AcDbLine
 10
0.7999849999999997
 20
3.641450541180496
 30
0.0
 11
0.7999849999999997
 21
3.446450541180496
 31
0.0
  0
LINE
  5
236
330
70
100
AcDbEntity
  8
SG-61-定位板 v8_Locating plate
100
AcDbLine
 10
24.98502865625001
 20
9.758339999999998
 30
0.0
 11
28.37690000000001
 21
9.758339999999998
 31
0.0
  0
LINE
  5
237
330
70
100
AcDbEntity
  8
SG-61-定位板 v8_Locating plate
100
AcDbLine
 10
28.213400433936
 20
8.078530095964929
 30
0.0
 11
27.51340043393601
 21
8.078530095964929
 31
0.0
  0
LINE
  5
238
330
70
100
AcDbEntity
  8
SG-61-定位板 v8_Locating plate
100
AcDbLine
 10
26.65784465942155
 20
3.590821267054097
 30
0.0
 11
26.65784465942155
 21
2.191805715307417
 31
0.0
  0
LINE
  5
239
330
70
100
AcDbEntity
  8
SG-61-定位板 v8_Locating plate
100
AcDbLine
 10
0.5999849999999998
 20
3.446450541180496
 30
0.0
 11
0.5999849999999998
 21
2.361450541180496
 31
0.0
  0
LINE
  5
23A
330
70
100
AcDbEntity
  8
SG-61-定位板 v8_Locating plate
100
AcDbLine
 10
7.948649999999997
 20
1.7234165
 30
0.0
 11
7.948649999999997
 21
1.5284165
 31
0.0
  0
LINE
  5
23B
330
70
100
AcDbEntity
  8
SG-61-定位板 v8_Locating plate
100
AcDbLine
 10
0.00192925
 20
0.0333485000000001
 30
0.0
 11
0.0019292499999994
 21
9.558339999999999
 31
0.0
  0
LINE
  5
23C
330
70
100
AcDbEntity
  8
SG-61-定位板 v8_Locating plate
100
AcDbLine
 10
8.248649999999997
 20
1.5284165
 30
0.0
 11
8.448649999999997
 21
1.5284165
 31
0.0
  0
LINE
  5
23D
330
70
100
AcDbEntity
  8
SG-61-定位板 v8_Locating plate
100
AcDbLine
 10
2.984984999999999
 20
2.361450541180496
 30
0.0
 11
3.684985
 21
2.361450541180496
 31
0.0
  0
LINE
  5
23E
330
70
100
AcDbEntity
  8
SG-61-定位板 v8_Locating plate
100
AcDbLine
 10
18.24865
 20
1.5284165
 30
0.0
 11
18.44865
 21
1.5284165
 31
0.0
  0
LINE
  5
23F
330
70
100
AcDbEntity
  8
SG-61-定位板 v8_Locating plate
100
AcDbLine
 10
28.013400433936
 20
9.35853009596493
 30
0.0
 11
28.013400433936
 21
9.163530095964929
 31
0.0
  0
LINE
  5
240
330
70
100
AcDbEntity
  8
SG-61-定位板 v8_Locating plate
100
AcDbLine
 10
17.94865
 20
1.7234165
 30
0.0
 11
17.94865
 21
1.5284165
 31
0.0
  0
LINE
  5
241
330
70
100
AcDbEntity
  8
SG-61-定位板 v8_Locating plate
100
AcDbLine
 10
27.27442536593063
 20
4.261901563520049
 30
0.0
 11
27.3129304017861
 21
4.261901563520049
 31
0.0
  0
LINE
  5
242
330
70
100
AcDbEntity
  8
SG-61-定位板 v8_Locating plate
100
AcDbLine
 10
25.62840043393601
 20
9.35853009596493
 30
0.0
 11
25.62840043393601
 21
9.163530095964929
 31
0.0
  0
LINE
  5
243
330
70
100
AcDbEntity
  8
SG-61-定位板 v8_Locating plate
100
AcDbLine
 10
25.828400433936
 20
9.163530095964929
 30
0.0
 11
25.828400433936
 21
8.078530095964929
 31
0.0
  0
LINE
  5
244
330
70
100
AcDbEntity
  8
SG-61-定位板 v8_Locating plate
100
AcDbLine
 10
27.3129304017861
 20
4.261901563520049
 30
0.0
 11
27.97442536593063
 21
4.261901563520049
 31
0.0
  0
LINE
  5
245
330
70
100
AcDbEntity
  8
SG-61-定位板 v8_Locating plate
100
AcDbLine
 10
27.51340043393601
 20
9.163530095964929
 30
0.0
 11
27.51340043393601
 21
8.078530095964929
 31
0.0
  0
LINE
  5
246
330
70
100
AcDbEntity
  8
SG-61-定位板 v8_Locating plate
100
AcDbLine
 10
24.41286965942155
 20
2.362316256487913
 30
0.0
 11
25.11286965942155
 21
2.362316256487913
 31
0.0
  0
LINE
  5
247
330
70
100
AcDbEntity
  8
SG-61-定位板 v8_Locating plate
100
AcDbLine
 10
26.79786965942155
 20
2.362316256487913
 30
0.0
 11
27.49786965942155
 21
2.362316256487913
 31
0.0
  0
LINE
  5
248
330
70
100
AcDbEntity
  8
SG-61-定位板 v8_Locating plate
100
AcDbLine
 10
24.61286965942155
 20
3.642316256487913
 30
0.0
 11
24.61286965942155
 21
3.447316256487913
 31
0.0
  0
LINE
  5
249
330
70
100
AcDbEntity
  8
SG-61-定位板 v8_Locating plate
100
AcDbLine
 10
27.97442536593063
 20
5.346901563520049
 30
0.0
 11
27.97442536593063
 21
4.261901563520049
 31
0.0
  0
LINE
  5
24A
330
70
100
AcDbEntity
  8
SG-61-定位板 v8_Locating plate
100
AcDbLine
 10
24.41286965942155
 20
3.447316256487913
 30
0.0
 11
24.41286965942155
 21
2.362316256487913
 31
0.0
  0
LINE
  5
24B
330
70
100
AcDbEntity
  8
SG-61-定位板 v8_Locating plate
100
AcDbLine
 10
1.099984999999999
 20
3.641450541180496
 30
0.0
 11
1.099984999999999
 21
3.446450541180496
 31
0.0
  0
LINE
  5
24C
330
70
100
AcDbEntity
  8
SG-61-定位板 v8_Locating plate
100
AcDbLine
 10
26.99786965942155
 20
3.642316256487913
 30
0.0
 11
26.99786965942155
 21
3.447316256487913
 31
0.0
  0
LINE
  5
24D
330
70
100
AcDbEntity
  8
SG-61-定位板 v8_Locating plate
100
AcDbLine
 10
7.748649999999997
 20
0.4434164999999997
 30
0.0
 11
8.448649999999997
 21
0.4434164999999997
 31
0.0
  0
LINE
  5
24E
330
70
100
AcDbEntity
  8
SG-61-定位板 v8_Locating plate
100
AcDbLine
 10
2.984984999999999
 20
3.446450541180496
 30
0.0
 11
2.984984999999999
 21
2.361450541180496
 31
0.0
  0
LINE
  5
24F
330
70
100
AcDbEntity
  8
SG-61-定位板 v8_Locating plate
100
AcDbLine
 10
24.91286965942155
 20
3.642316256487913
 30
0.0
 11
24.91286965942155
 21
3.447316256487913
 31
0.0
  0
LINE
  5
250
330
70
100
AcDbEntity
  8
SG-61-定位板 v8_Locating plate
100
AcDbLine
 10
0.5999849999999998
 20
2.361450541180496
 30
0.0
 11
1.299984999999999
 21
2.361450541180496
 31
0.0
  0
LINE
  5
251
330
70
100
AcDbEntity
  8
SG-61-定位板 v8_Locating plate
100
AcDbLine
 10
17.94865
 20
1.5284165
 30
0.0
 11
17.74865
 21
1.5284165
 31
0.0
  0
LINE
  5
252
330
70
100
AcDbEntity
  8
SG-61-定位板 v8_Locating plate
100
AcDbLine
 10
27.29786965942155
 20
3.642316256487913
 30
0.0
 11
27.29786965942155
 21
3.447316256487913
 31
0.0
  0
LINE
  5
253
330
70
100
AcDbEntity
  8
SG-61-定位板 v8_Locating plate
100
AcDbLine
 10
7.948649999999997
 20
1.5284165
 30
0.0
 11
7.748649999999997
 21
1.5284165
 31
0.0
  0
LINE
  5
254
330
70
100
AcDbEntity
  8
SG-61-定位板 v8_Locating plate
100
AcDbLine
 10
17.74865
 20
0.4434164999999997
 30
0.0
 11
18.44865
 21
0.4434164999999997
 31
0.0
  0
LINE
  5
255
330
70
100
AcDbEntity
  8
SG-61-定位板 v8_Locating plate
100
AcDbLine
 10
18.44865
 20
1.5284165
 30
0.0
 11
18.44865
 21
0.4434164999999997
 31
0.0
  0
LINE
  5
256
330
70
100
AcDbEntity
  8
SG-61-定位板 v8_Locating plate
100
AcDbLine
 10
24.61286965942155
 20
3.447316256487913
 30
0.0
 11
24.41286965942155
 21
3.447316256487913
 31
0.0
  0
LINE
  5
257
330
70
100
AcDbEntity
  8
SG-61-定位板 v8_Locating plate
100
AcDbLine
 10
26.99786965942155
 20
3.447316256487913
 30
0.0
 11
26.79786965942155
 21
3.447316256487913
 31
0.0
  0
LINE
  5
258
330
70
100
AcDbEntity
  8
SG-61-定位板 v8_Locating plate
100
AcDbLine
 10
28.213400433936
 20
9.163530095964929
 30
0.0
 11
28.213400433936
 21
8.078530095964929
 31
0.0
  0
LINE
  5
259
330
70
100
AcDbEntity
  8
SG-61-定位板 v8_Locating plate
100
AcDbLine
 10
25.828400433936
 20
8.078530095964929
 30
0.0
 11
25.128400433936
 21
8.078530095964929
 31
0.0
  0
LINE
  5
25A
330
70
100
AcDbEntity
  8
SG-61-定位板 v8_Locating plate
100
AcDbLine
 10
25.58942536593062
 20
5.346901563520049
 30
0.0
 11
25.58942536593062
 21
4.261901563520049
 31
0.0
  0
LINE
  5
25B
330
70
100
AcDbEntity
  8
SG-61-定位板 v8_Locating plate
100
AcDbLine
 10
25.25789465942155
 20
2.191805715307417
 30
0.0
 11
26.65784465942155
 21
2.191805715307417
 31
0.0
  0
LINE
  5
25C
330
70
100
AcDbEntity
  8
SG-61-定位板 v8_Locating plate
100
AcDbLine
 10
3.684985
 20
3.446450541180496
 30
0.0
 11
3.684985
 21
2.361450541180496
 31
0.0
  0
LINE
  5
25D
330
70
100
AcDbEntity
  8
SG-61-定位板 v8_Locating plate
100
AcDbLine
 10
1.099984999999999
 20
3.446450541180496
 30
0.0
 11
1.299984999999999
 21
3.446450541180496
 31
0.0
  0
LINE
  5
25E
330
70
100
AcDbEntity
  8
SG-61-定位板 v8_Locating plate
100
AcDbLine
 10
27.47442536593063
 20
5.541901563520049
 30
0.0
 11
27.47442536593063
 21
5.346901563520049
 31
0.0
  0
LINE
  5
25F
330
70
100
AcDbEntity
  8
SG-61-定位板 v8_Locating plate
100
AcDbLine
 10
27.77442536593063
 20
5.541901563520049
 30
0.0
 11
27.77442536593063
 21
5.346901563520049
 31
0.0
  0
LINE
  5
260
330
70
100
AcDbEntity
  8
SG-61-定位板 v8_Locating plate
100
AcDbLine
 10
17.69460382733966
 20
1.930985122300732
 30
0.0
 11
17.69460382733966
 21
1.930985122300732
 31
0.0
  0
LINE
  5
261
330
70
100
AcDbEntity
  8
SG-61-定位板 v8_Locating plate
100
AcDbLine
 10
22.48991829865195
 20
3.835968597697308
 30
0.0
 11
22.48991829865195
 21
3.835968597697309
 31
0.0
  0
LINE
  5
262
330
70
100
AcDbEntity
  8
SG-61-定位板 v8_Locating plate
100
AcDbLine
 10
1.285232757666225
 20
5.740957073063635
 30
0.0
 11
1.285232757666225
 21
5.740957073063634
 31
0.0
  0
LINE
  5
263
330
70
100
AcDbEntity
  8
SG-61-定位板 v8_Locating plate
100
AcDbLine
 10
8.544603827339667
 20
1.980985122300732
 30
0.0
 11
17.64460382733966
 21
1.980985122300732
 31
0.0
  0
ARC
  5
264
330
70
100
AcDbEntity
  8
SG-61-定位板 v8_Locating plate
100
AcDbCircle
 10
22.43991829865195
 20
3.835968597697306
 30
0.0
 40
0.0499999999999972
100
AcDbArc
 50
269.9999999999959
 51
0.0000000000025444
  0
ARC
  5
265
330
70
100
AcDbEntity
  8
SG-61-定位板 v8_Locating plate
100
AcDbCircle
 10
8.544603827339667
 20
1.930985122300733
 30
0.0
 40
0.0500000000000007
100
AcDbArc
 50
180.000000000001
 51
270.0
  0
ARC
  5
266
330
70
100
AcDbEntity
  8
SG-61-定位板 v8_Locating plate
100
AcDbCircle
 10
3.739918298651949
 20
3.835968597697309
 30
0.0
 40
0.0499999999999998
100
AcDbArc
 50
89.99999999999491
 51
180.0
  0
ARC
  5
267
330
70
100
AcDbEntity
  8
SG-61-定位板 v8_Locating plate
100
AcDbCircle
 10
25.03054721668051
 20
7.645945548429962
 30
0.0
 40
0.0499999999999972
100
AcDbArc
 50
269.9999999999959
 51
0.0000000000030533
  0
ARC
  5
268
330
70
100
AcDbEntity
  8
SG-61-定位板 v8_Locating plate
100
AcDbCircle
 10
17.64460382733966
 20
1.930985122300732
 30
0.0
 40
0.0500000000000007
100
AcDbArc
 50
270.0
 51
0.0000000000005089
  0
LINE
  5
269
330
70
100
AcDbEntity
  8
SG-61-定位板 v8_Locating plate
100
AcDbLine
 10
25.08054721668051
 20
7.645945548429964
 30
0.0
 11
25.08054721668051
 21
7.645945548429964
 31
0.0
  0
ARC
  5
26A
330
70
100
AcDbEntity
  8
SG-61-定位板 v8_Locating plate
100
AcDbCircle
 10
1.130547216680503
 20
7.645945548429964
 30
0.0
 40
0.0499999999999998
100
AcDbArc
 50
180.0
 51
270.0000000000051
  0
ARC
  5
26B
330
70
100
AcDbEntity
  8
SG-61-定位板 v8_Locating plate
100
AcDbCircle
 10
3.739918298651949
 20
3.835968597697308
 30
0.0
 40
0.0499999999999998
100
AcDbArc
 50
180.0
 51
270.0
  0
ARC
  5
26C
330
70
100
AcDbEntity
  8
SG-61-定位板 v8_Locating plate
100
AcDbCircle
 10
1.335232757666224
 20
5.740957073063635
 30
0.0
 40
0.0499999999999996
100
AcDbArc
 50
180.000000000001
 51
270.0000000000005
  0
ARC
  5
26D
330
70
100
AcDbEntity
  8
SG-61-定位板 v8_Locating plate
100
AcDbCircle
 10
24.83523275766624
 20
5.740957073063632
 30
0.0
 40
0.0499999999999972
100
AcDbArc
 50
269.9999999999959
 51
0.0000000000030533
  0
LINE
  5
26E
330
70
100
AcDbEntity
  8
SG-61-定位板 v8_Locating plate
100
AcDbLine
 10
1.130547216680503
 20
7.695945548429964
 30
0.0
 11
25.0305472166805
 21
7.695945548429964
 31
0.0
  0
LINE
  5
26F
330
70
100
AcDbEntity
  8
SG-61-定位板 v8_Locating plate
100
AcDbLine
 10
24.88523275766623
 20
5.740957073063635
 30
0.0
 11
24.88523275766623
 21
5.740957073063635
 31
0.0
  0
LINE
  5
270
330
70
100
AcDbEntity
  8
SG-61-定位板 v8_Locating plate
100
AcDbLine
 10
8.494603827339666
 20
1.930985122300732
 30
0.0
 11
8.494603827339666
 21
1.930985122300732
 31
0.0
  0
LINE
  5
271
330
70
100
AcDbEntity
  8
SG-61-定位板 v8_Locating plate
100
AcDbLine
 10
22.43991829865195
 20
3.885968597697309
 30
0.0
 11
3.739918298651954
 21
3.885968597697309
 31
0.0
  0
ARC
  5
272
330
70
100
AcDbEntity
  8
SG-61-定位板 v8_Locating plate
100
AcDbCircle
 10
24.83523275766624
 20
5.740957073063637
 30
0.0
 40
0.0499999999999972
100
AcDbArc
 50
359.9999999999969
 51
90.00000000000406
  0
ARC
  5
273
330
70
100
AcDbEntity
  8
SG-61-定位板 v8_Locating plate
100
AcDbCircle
 10
1.335232757666224
 20
5.740957073063635
 30
0.0
 40
0.0499999999999998
100
AcDbArc
 50
89.9999999999944
 51
180.0
  0
ARC
  5
274
330
70
100
AcDbEntity
  8
SG-61-定位板 v8_Locating plate
100
AcDbCircle
 10
22.43991829865195
 20
3.835968597697311
 30
0.0
 40
0.0499999999999972
100
AcDbArc
 50
359.9999999999974
 51
90.00000000000406
  0
LINE
  5
275
330
70
100
AcDbEntity
  8
SG-61-定位板 v8_Locating plate
100
AcDbLine
 10
25.03054721668051
 20
7.595945548429964
 30
0.0
 11
1.130547216680508
 21
7.595945548429964
 31
0.0
  0
LINE
  5
276
330
70
100
AcDbEntity
  8
SG-61-定位板 v8_Locating plate
100
AcDbLine
 10
17.64460382733966
 20
1.880985122300731
 30
0.0
 11
8.544603827339667
 21
1.880985122300733
 31
0.0
  0
LINE
  5
277
330
70
100
AcDbEntity
  8
SG-61-定位板 v8_Locating plate
100
AcDbLine
 10
24.83523275766623
 20
5.790957073063634
 30
0.0
 11
1.335232757666229
 21
5.790957073063634
 31
0.0
  0
LINE
  5
278
330
70
100
AcDbEntity
  8
SG-61-定位板 v8_Locating plate
100
AcDbLine
 10
1.335232757666225
 20
5.690957073063635
 30
0.0
 11
24.83523275766623
 21
5.690957073063635
 31
0.0
  0
LINE
  5
279
330
70
100
AcDbEntity
  8
SG-61-定位板 v8_Locating plate
100
AcDbLine
 10
3.689918298651949
 20
3.835968597697309
 30
0.0
 11
3.689918298651949
 21
3.835968597697308
 31
0.0
  0
ARC
  5
27A
330
70
100
AcDbEntity
  8
SG-61-定位板 v8_Locating plate
100
AcDbCircle
 10
1.130547216680503
 20
7.645945548429964
 30
0.0
 40
0.0499999999999998
100
AcDbArc
 50
89.99999999999975
 51
180.0
  0
LINE
  5
27B
330
70
100
AcDbEntity
  8
SG-61-定位板 v8_Locating plate
100
AcDbLine
 10
3.739918298651949
 20
3.785968597697308
 30
0.0
 11
22.43991829865195
 21
3.785968597697309
 31
0.0
  0
ARC
  5
27C
330
70
100
AcDbEntity
  8
SG-61-定位板 v8_Locating plate
100
AcDbCircle
 10
25.03054721668051
 20
7.645945548429968
 30
0.0
 40
0.0499999999999972
100
AcDbArc
 50
359.9999999999959
 51
90.00000000000813
  0
ARC
  5
27D
330
70
100
AcDbEntity
  8
SG-61-定位板 v8_Locating plate
100
AcDbCircle
 10
17.64460382733966
 20
1.930985122300733
 30
0.0
 40
0.0500000000000007
100
AcDbArc
 50
359.9999999999995
 51
90.0
  0
ARC
  5
27E
330
70
100
AcDbEntity
  8
SG-61-定位板 v8_Locating plate
100
AcDbCircle
 10
8.544603827339667
 20
1.930985122300731
 30
0.0
 40
0.0500000000000009
100
AcDbArc
 50
90.0
 51
179.999999999999
  0
LINE
  5
27F
330
70
100
AcDbEntity
  8
SG-61-定位板 v8_Locating plate
100
AcDbLine
 10
1.080547216680503
 20
7.645945548429964
 30
0.0
 11
1.080547216680503
 21
7.645945548429964
 31
0.0
  0
ENDSEC
  0
SECTION
  2
OBJECTS
  0
DICTIONARY
  5
C
330
0
100
AcDbDictionary
281
     1
  3
ACAD_COLOR
350
63
  3
ACAD_DETAILVIEWSTYLE
350
6A
  3
ACAD_GROUP
350
D
  3
ACAD_LAYOUT
350
62
  3
ACAD_MATERIAL
350
10
  3
ACAD_MLEADERSTYLE
350
66
  3
ACAD_MLINESTYLE
350
5F
  3
ACAD_PLOTSETTINGS
350
61
  3
ACAD_PLOTSTYLENAME
350
E
  3
ACAD_SCALELIST
350
42
  3
ACAD_SECTIONVIEWSTYLE
350
68
  3
ACAD_TABLESTYLE
350
64
  3
ACAD_VISUALSTYLE
350
29
  3
ACDB_RECOMPOSE_DATA
350
288
  3
AcDbVariableDictionary
350
280
  0
DICTIONARY
  5
63
102
{ACAD_REACTORS
330
C
102
}
330
C
100
AcDbDictionary
281
     1
  0
DICTIONARY
  5
6A
102
{ACAD_REACTORS
330
C
102
}
330
C
100
AcDbDictionary
281
     1
  3
Imperial24
350
6B
  0
DICTIONARY
  5
D
102
{ACAD_REACTORS
330
C
102
}
330
C
100
AcDbDictionary
281
     1
  0
DICTIONARY
  5
62
102
{ACAD_REACTORS
330
C
102
}
330
C
100
AcDbDictionary
281
     1
  3
Layout1
350
6F
  3
Layout2
350
77
  3
Model
350
73
  0
DICTIONARY
  5
10
102
{ACAD_REACTORS
330
C
102
}
330
C
100
AcDbDictionary
281
     1
  3
ByBlock
350
19
  3
ByLayer
350
11
  3
Global
350
21
  0
DICTIONARY
  5
66
102
{ACAD_REACTORS
330
C
102
}
330
C
100
AcDbDictionary
281
     1
  3
Standard
350
67
  0
DICTIONARY
  5
5F
102
{ACAD_REACTORS
330
C
102
}
330
C
100
AcDbDictionary
281
     1
  3
Standard
350
60
  0
DICTIONARY
  5
61
102
{ACAD_REACTORS
330
C
102
}
330
C
100
AcDbDictionary
281
     1
  0
ACDBDICTIONARYWDFLT
  5
E
102
{ACAD_REACTORS
330
C
102
}
330
C
100
AcDbDictionary
281
     1
  3
Normal
350
F
100
AcDbDictionaryWithDefault
340
F
  0
DICTIONARY
  5
42
102
{ACAD_REACTORS
330
C
102
}
330
C
100
AcDbDictionary
281
     1
  3
A0
350
43
  3
A1
350
44
  3
A2
350
45
  3
A3
350
46
  3
A4
350
47
  3
A5
350
48
  3
A6
350
49
  3
A7
350
4A
  3
A8
350
4B
  3
A9
350
4C
  3
B0
350
4D
  3
B1
350
4E
  3
B2
350
4F
  3
B3
350
50
  3
B4
350
51
  3
B5
350
52
  3
B6
350
53
  0
DICTIONARY
  5
68
102
{ACAD_REACTORS
330
C
102
}
330
C
100
AcDbDictionary
281
     1
  3
Imperial24
350
69
  0
DICTIONARY
  5
64
102
{ACAD_REACTORS
330
C
102
}
330
C
100
AcDbDictionary
281
     1
  3
Standard
350
65
  0
DICTIONARY
  5
29
102
{ACAD_REACTORS
330
C
102
}
330
C
100
AcDbDictionary
281
     1
  3
2dWireframe
350
2F
  3
Basic
350
2E
  3
Brighten
350
35
  3
ColorChange
350
39
  3
Conceptual
350
32
  3
Dim
350
34
  3
EdgeColorOff
350
41
  3
Facepattern
350
38
  3
Flat
350
2A
  3
FlatWithEdges
350
2B
  3
Gouraud
350
2C
  3
GouraudWithEdges
350
2D
  3
Hidden
350
31
  3
JitterOff
350
3F
  3
Linepattern
350
37
  3
OverhangOff
350
40
  3
Realistic
350
33
  3
Shaded
350
3E
  3
Shaded with edges
350
3D
  3
Shades of Gray
350
3A
  3
Sketchy
350
3B
  3
Thicken
350
36
  3
Wireframe
350
30
  3
X-Ray
350
3C
  0
XRECORD
  5
288
102
{ACAD_REACTORS
330
C
102
}
330
C
100
AcDbXrecord
280
     1
 90
        1
330
65
  0
DICTIONARY
  5
280
102
{ACAD_REACTORS
330
C
102
}
330
C
100
AcDbDictionary
281
     1
  3
CANNOSCALE
350
285
  3
CMLEADERSTYLE
350
282
  3
CTABLESTYLE
350
281
  3
CVIEWDETAILSTYLE
350
283
  3
CVIEWSECTIONSTYLE
350
284
  0
ACDBDETAILVIEWSTYLE
  5
6B
102
{ACAD_XDICTIONARY
360
28B
102
}
102
{ACAD_REACTORS
330
6A
102
}
330
6A
100
AcDbModelDocViewStyle
 70
     0
  3
Imperial24
290
     0
100
AcDbDetailViewStyle
 70
     0
 71
     0
 90
        3
 71
     1
340
55
 62
   256
 40
0.24
340
0
 62
   256
 40
0.24
300

 40
0.36
280
     3
 71
     2
340
5D
 90
       25
 62
   256
 71
     3
340
55
 62
   256
 40
0.24
 90
        1
 40
0.75
 90
        1
300
%<\AcVar ViewType \f "%tc1">% %<\AcVar ViewDetailId>%\PSCALE %<\AcVar ViewScale \f "%sn">%
 71
     4
340
5D
 90
       25
 62
   256
340
5D
 90
       25
 62
   256
280
     0
  0
LAYOUT
  5
6F
102
{ACAD_REACTORS
330
62
102
}
330
62
100
AcDbPlotSettings
  1

  2

  4

  6

 40
0.0
 41
0.0
 42
0.0
 43
0.0
 44
0.0
 45
0.0
 46
0.0
 47
0.0
 48
0.0
 49
0.0
140
0.0
141
0.0
142
1.0
143
1.0
 70
   688
 72
     0
 73
     0
 74
     5
  7

 75
    16
147
1.0
 76
     0
 77
     2
 78
   300
148
0.0
149
0.0
100
AcDbLayout
  1
Layout1
 70
     1
 71
     1
 10
0.0
 20
0.0
 11
12.0
 21
9.0
 12
0.0
 22
0.0
 32
0.0
 14
0.0
 24
0.0
 34
0.0
 15
0.0
 25
0.0
 35
0.0
146
0.0
 13
0.0
 23
0.0
 33
0.0
 16
1.0
 26
0.0
 36
0.0
 17
0.0
 27
1.0
 37
0.0
 76
     0
330
6C
  0
LAYOUT
  5
77
102
{ACAD_REACTORS
330
62
102
}
330
62
100
AcDbPlotSettings
  1

  2

  4

  6

 40
0.0
 41
0.0
 42
0.0
 43
0.0
 44
0.0
 45
0.0
 46
0.0
 47
0.0
 48
0.0
 49
0.0
140
0.0
141
0.0
142
1.0
143
1.0
 70
   688
 72
     0
 73
     0
 74
     5
  7

 75
    16
147
1.0
 76
     0
 77
     2
 78
   300
148
0.0
149
0.0
100
AcDbLayout
  1
Layout2
 70
     1
 71
     2
 10
0.0
 20
0.0
 11
12.0
 21
9.0
 12
0.0
 22
0.0
 32
0.0
 14
0.0
 24
0.0
 34
0.0
 15
0.0
 25
0.0
 35
0.0
146
0.0
 13
0.0
 23
0.0
 33
0.0
 16
1.0
 26
0.0
 36
0.0
 17
0.0
 27
1.0
 37
0.0
 76
     0
330
74
  0
LAYOUT
  5
73
102
{ACAD_REACTORS
330
62
102
}
330
62
100
AcDbPlotSettings
  1

  2

  4

  6

 40
0.0
 41
0.0
 42
0.0
 43
0.0
 44
0.0
 45
0.0
 46
0.0
 47
0.0
 48
0.0
 49
0.0
140
0.0
141
0.0
142
1.0
143
1.0
 70
  1712
 72
     0
 73
     0
 74
     0
  7

 75
     0
147
1.0
 76
     0
 77
     2
 78
   300
148
0.0
149
0.0
100
AcDbLayout
  1
Model
 70
     1
 71
     0
 10
0.0
 20
0.0
 11
12.0
 21
9.0
 12
0.0
 22
0.0
 32
0.0
 14
0.0
 24
0.0
 34
0.0
 15
0.0
 25
0.0
 35
0.0
146
0.0
 13
0.0
 23
0.0
 33
0.0
 16
1.0
 26
0.0
 36
0.0
 17
0.0
 27
1.0
 37
0.0
 76
     0
330
70
  0
MATERIAL
  5
19
102
{ACAD_XDICTIONARY
360
1A
102
}
102
{ACAD_REACTORS
330
10
102
}
330
10
100
AcDbMaterial
  1
ByBlock
 72
     0
 43
0.0208333333333333
 43
0.0
 43
0.0
 43
0.0
 43
0.0
 43
0.0208333333333333
 43
0.0
 43
0.0
 43
0.0
 43
0.0
 43
1.0
 43
0.0
 43
0.0
 43
0.0
 43
0.0
 43
1.0
 77
     0
 47
0.0208333333333333
 47
0.0
 47
0.0
 47
0.0
 47
0.0
 47
0.0208333333333333
 47
0.0
 47
0.0
 47
0.0
 47
0.0
 47
1.0
 47
0.0
 47
0.0
 47
0.0
 47
0.0
 47
1.0
171
     0
 49
0.0208333333333333
 49
0.0
 49
0.0
 49
0.0
 49
0.0
 49
0.0208333333333333
 49
0.0
 49
0.0
 49
0.0
 49
0.0
 49
1.0
 49
0.0
 49
0.0
 49
0.0
 49
0.0
 49
1.0
175
     0
142
0.0208333333333333
142
0.0
142
0.0
142
0.0
142
0.0
142
0.0208333333333333
142
0.0
142
0.0
142
0.0
142
0.0
142
1.0
142
0.0
142
0.0
142
0.0
142
0.0
142
1.0
179
     0
144
0.0208333333333333
144
0.0
144
0.0
144
0.0
144
0.0
144
0.0208333333333333
144
0.0
144
0.0
144
0.0
144
0.0
144
1.0
144
0.0
144
0.0
144
0.0
144
0.0
144
1.0
147
0.0208333333333333
147
0.0
147
0.0
147
0.0
147
0.0
147
0.0208333333333333
147
0.0
147
0.0
147
0.0
147
0.0
147
1.0
147
0.0
147
0.0
147
0.0
147
0.0
147
1.0
  0
MATERIAL
  5
11
102
{ACAD_XDICTIONARY
360
12
102
}
102
{ACAD_REACTORS
330
10
102
}
330
10
100
AcDbMaterial
  1
ByLayer
 72
     0
 43
0.0208333333333333
 43
0.0
 43
0.0
 43
0.0
 43
0.0
 43
0.0208333333333333
 43
0.0
 43
0.0
 43
0.0
 43
0.0
 43
1.0
 43
0.0
 43
0.0
 43
0.0
 43
0.0
 43
1.0
 77
     0
 47
0.0208333333333333
 47
0.0
 47
0.0
 47
0.0
 47
0.0
 47
0.0208333333333333
 47
0.0
 47
0.0
 47
0.0
 47
0.0
 47
1.0
 47
0.0
 47
0.0
 47
0.0
 47
0.0
 47
1.0
171
     0
 49
0.0208333333333333
 49
0.0
 49
0.0
 49
0.0
 49
0.0
 49
0.0208333333333333
 49
0.0
 49
0.0
 49
0.0
 49
0.0
 49
1.0
 49
0.0
 49
0.0
 49
0.0
 49
0.0
 49
1.0
175
     0
142
0.0208333333333333
142
0.0
142
0.0
142
0.0
142
0.0
142
0.0208333333333333
142
0.0
142
0.0
142
0.0
142
0.0
142
1.0
142
0.0
142
0.0
142
0.0
142
0.0
142
1.0
179
     0
144
0.0208333333333333
144
0.0
144
0.0
144
0.0
144
0.0
144
0.0208333333333333
144
0.0
144
0.0
144
0.0
144
0.0
144
1.0
144
0.0
144
0.0
144
0.0
144
0.0
144
1.0
147
0.0208333333333333
147
0.0
147
0.0
147
0.0
147
0.0
147
0.0208333333333333
147
0.0
147
0.0
147
0.0
147
0.0
147
1.0
147
0.0
147
0.0
147
0.0
147
0.0
147
1.0
  0
MATERIAL
  5
21
102
{ACAD_XDICTIONARY
360
22
102
}
102
{ACAD_REACTORS
330
10
102
}
330
10
100
AcDbMaterial
  1
Global
 72
     0
 43
0.0208333333333333
 43
0.0
 43
0.0
 43
0.0
 43
0.0
 43
0.0208333333333333
 43
0.0
 43
0.0
 43
0.0
 43
0.0
 43
1.0
 43
0.0
 43
0.0
 43
0.0
 43
0.0
 43
1.0
 77
     0
 47
0.0208333333333333
 47
0.0
 47
0.0
 47
0.0
 47
0.0
 47
0.0208333333333333
 47
0.0
 47
0.0
 47
0.0
 47
0.0
 47
1.0
 47
0.0
 47
0.0
 47
0.0
 47
0.0
 47
1.0
171
     0
 49
0.0208333333333333
 49
0.0
 49
0.0
 49
0.0
 49
0.0
 49
0.0208333333333333
 49
0.0
 49
0.0
 49
0.0
 49
0.0
 49
1.0
 49
0.0
 49
0.0
 49
0.0
 49
0.0
 49
1.0
175
     0
142
0.0208333333333333
142
0.0
142
0.0
142
0.0
142
0.0
142
0.0208333333333333
142
0.0
142
0.0
142
0.0
142
0.0
142
1.0
142
0.0
142
0.0
142
0.0
142
0.0
142
1.0
179
     0
144
0.0208333333333333
144
0.0
144
0.0
144
0.0
144
0.0
144
0.0208333333333333
144
0.0
144
0.0
144
0.0
144
0.0
144
1.0
144
0.0
144
0.0
144
0.0
144
0.0
144
1.0
147
0.0208333333333333
147
0.0
147
0.0
147
0.0
147
0.0
147
0.0208333333333333
147
0.0
147
0.0
147
0.0
147
0.0
147
1.0
147
0.0
147
0.0
147
0.0
147
0.0
147
1.0
  0
MLEADERSTYLE
  5
67
102
{ACAD_REACTORS
330
66
102
}
330
66
100
AcDbMLeaderStyle
179
     2
170
     2
171
     1
172
     0
 90
        2
 40
0.0
 41
0.0
173
     1
 91
-1056964608
340
5B
 92
       -2
290
     1
 42
0.09
291
     1
 43
0.36
  3
Standard
 44
0.18
300

342
55
174
     1
178
     6
175
     1
176
     0
 93
-1056964608
 45
0.18
292
     0
297
     0
 46
0.18
 94
-1056964608
 47
1.0
 49
1.0
140
1.0
293
     1
141
0.0
294
     1
177
     0
142
1.0
295
     0
296
     0
143
0.125
271
     0
272
     9
273
     9
298
     1
  0
MLINESTYLE
  5
60
102
{ACAD_REACTORS
330
5F
102
}
330
5F
100
AcDbMlineStyle
  2
STANDARD
 70
     0
  3

 62
   256
 51
90.0
 52
90.0
 71
     2
 49
0.5
 62
   256
  6
BYLAYER
 49
-0.5
 62
   256
  6
BYLAYER
  0
ACDBPLACEHOLDER
  5
F
102
{ACAD_REACTORS
330
E
102
}
330
E
  0
SCALE
  5
43
102
{ACAD_REACTORS
330
42
102
}
330
42
100
AcDbScale
 70
     0
300
1:1
140
1.0
141
1.0
290
     1
  0
SCALE
  5
44
102
{ACAD_REACTORS
330
42
102
}
330
42
100
AcDbScale
 70
     0
300
1/128" = 1'-0"
140
0.0078125
141
12.0
290
     0
  0
SCALE
  5
45
102
{ACAD_REACTORS
330
42
102
}
330
42
100
AcDbScale
 70
     0
300
1/64" = 1'-0"
140
0.015625
141
12.0
290
     0
  0
SCALE
  5
46
102
{ACAD_REACTORS
330
42
102
}
330
42
100
AcDbScale
 70
     0
300
1/32" = 1'-0"
140
0.03125
141
12.0
290
     0
  0
SCALE
  5
47
102
{ACAD_REACTORS
330
42
102
}
330
42
100
AcDbScale
 70
     0
300
1/16" = 1'-0"
140
0.0625
141
12.0
290
     0
  0
SCALE
  5
48
102
{ACAD_REACTORS
330
42
102
}
330
42
100
AcDbScale
 70
     0
300
3/32" = 1'-0"
140
0.09375
141
12.0
290
     0
  0
SCALE
  5
49
102
{ACAD_REACTORS
330
42
102
}
330
42
100
AcDbScale
 70
     0
300
1/8" = 1'-0"
140
0.125
141
12.0
290
     0
  0
SCALE
  5
4A
102
{ACAD_REACTORS
330
42
102
}
330
42
100
AcDbScale
 70
     0
300
3/16" = 1'-0"
140
0.1875
141
12.0
290
     0
  0
SCALE
  5
4B
102
{ACAD_REACTORS
330
42
102
}
330
42
100
AcDbScale
 70
     0
300
1/4" = 1'-0"
140
0.25
141
12.0
290
     0
  0
SCALE
  5
4C
102
{ACAD_REACTORS
330
42
102
}
330
42
100
AcDbScale
 70
     0
300
3/8" = 1'-0"
140
0.375
141
12.0
290
     0
  0
SCALE
  5
4D
102
{ACAD_REACTORS
330
42
102
}
330
42
100
AcDbScale
 70
     0
300
1/2" = 1'-0"
140
0.5
141
12.0
290
     0
  0
SCALE
  5
4E
102
{ACAD_REACTORS
330
42
102
}
330
42
100
AcDbScale
 70
     0
300
3/4" = 1'-0"
140
0.75
141
12.0
290
     0
  0
SCALE
  5
4F
102
{ACAD_REACTORS
330
42
102
}
330
42
100
AcDbScale
 70
     0
300
1" = 1'-0"
140
1.0
141
12.0
290
     0
  0
SCALE
  5
50
102
{ACAD_REACTORS
330
42
102
}
330
42
100
AcDbScale
 70
     0
300
1-1/2" = 1'-0"
140
1.5
141
12.0
290
     0
  0
SCALE
  5
51
102
{ACAD_REACTORS
330
42
102
}
330
42
100
AcDbScale
 70
     0
300
3" = 1'-0"
140
3.0
141
12.0
290
     0
  0
SCALE
  5
52
102
{ACAD_REACTORS
330
42
102
}
330
42
100
AcDbScale
 70
     0
300
6" = 1'-0"
140
6.0
141
12.0
290
     0
  0
SCALE
  5
53
102
{ACAD_REACTORS
330
42
102
}
330
42
100
AcDbScale
 70
     0
300
1'-0" = 1'-0"
140
12.0
141
12.0
290
     0
  0
ACDBSECTIONVIEWSTYLE
  5
69
102
{ACAD_XDICTIONARY
360
289
102
}
102
{ACAD_REACTORS
330
68
102
}
330
68
100
AcDbModelDocViewStyle
 70
     0
  3
Imperial24
290
     0
100
AcDbSectionViewStyle
 70
     0
 71
     0
 90
       78
 71
     1
340
55
 62
   256
 40
0.24
340
0
340
0
 62
   256
 40
0.24
300
I, O, Q, S, X, Z
 40
0.48
 90
        3
 40
0.18
 90
        1
 71
     2
340
5D
 90
       25
 62
   256
340
5D
 90
       50
 62
   256
 40
0.24
 40
0.0
 40
0.24
 71
     3
340
55
 62
   256
 40
0.24
 90
        1
 40
0.75
 90
        1
300
%<\AcVar ViewType \f "%tc1">% %<\AcVar ViewSectionStartId>%-%<\AcVar ViewSectionEndId>%\PSCALE %<\AcVar ViewScale \f "%sn">%
 71
     4
 62
   256
 62
   257
300
ANSI31
 40
1.0
 90
        0
290
     0
290
     0
 90
        6
 40
0.0
 40
1.570796326794896
 40
0.2617993877991494
 40
1.308996938995747
 40
-0.2617993877991494
 40
1.832595714594046
  0
TABLESTYLE
  5
65
102
{ACAD_XDICTIONARY
360
286
102
}
102
{ACAD_REACTORS
330
64
102
}
330
64
100
AcDbTableStyle
280
     0
  3
Standard
 70
     0
 71
     0
 40
0.06
 41
0.06
280
     0
281
     0
  7
Standard
140
0.18
170
     2
 62
     0
 63
     7
283
     0
 90
      512
 91
        0
  1

274
    -2
284
     1
 64
     0
275
    -2
285
     1
 65
     0
276
    -2
286
     1
 66
     0
277
    -2
287
     1
 67
     0
278
    -2
288
     1
 68
     0
279
    -2
289
     1
 69
     0
  7
Standard
140
0.25
170
     5
 62
     0
 63
     7
283
     0
 90
      512
 91
        0
  1

274
    -2
284
     1
 64
     0
275
    -2
285
     1
 65
     0
276
    -2
286
     1
 66
     0
277
    -2
287
     1
 67
     0
278
    -2
288
     1
 68
     0
279
    -2
289
     1
 69
     0
  7
Standard
140
0.18
170
     5
 62
     0
 63
     7
283
     0
 90
      512
 91
        0
  1

274
    -2
284
     1
 64
     0
275
    -2
285
     1
 65
     0
276
    -2
286
     1
 66
     0
277
    -2
287
     1
 67
     0
278
    -2
288
     1
 68
     0
279
    -2
289
     1
 69
     0
  0
VISUALSTYLE
  5
2F
102
{ACAD_REACTORS
330
29
102
}
330
29
100
AcDbVisualStyle
  2
2dWireframe
 70
     4
177
     3
291
     0
 70
    58
 90
        0
176
     1
 90
        2
176
     1
 90
        0
176
     1
 90
        0
176
     1
 40
0.6
176
     1
 40
30.0
176
     1
 62
     7
420
 16777215
176
     1
 90
        1
176
     1
 90
        4
176
     1
 62
     7
176
     1
 62
   257
176
     1
 90
        1
176
     1
 90
        1
176
     1
 40
1.0
176
     1
 90
        0
176
     1
 62
   257
176
     1
 40
1.0
176
     1
 90
        1
176
     1
 90
        6
176
     1
 90
        2
176
     1
 62
     7
176
     1
 90
        5
176
     1
 90
        0
176
     1
 90
        0
176
     1
290
     0
176
     1
 90
        1
176
     1
 40
0.0
176
     1
 90
        0
176
     1
290
     1
176
     1
290
     1
176
     1
290
     0
176
     1
290
     0
176
     1
290
     0
176
     1
290
     0
176
     1
290
     0
176
     1
290
     0
176
     1
290
     0
176
     1
 90
       50
176
     1
 40
0.0
176
     1
 40
1.0
176
     1
 90
        0
176
     1
 62
    18
420
        0
176
     1
 90
       50
176
     1
 90
        3
176
     1
 62
     5
420
      255
176
     1
290
     0
176
     1
 90
       50
176
     1
 90
       50
176
     1
 90
       50
176
     1
290
     0
176
     1
 90
       50
176
     1
 62
   256
176
     0
 40
1.0
176
     0
 90
        2
176
     1
  1
strokes_ogs.tif
176
     1
290
     0
176
     1
 40
1.0
176
     1
 40
1.0
176
     1
1001
ACAD
1000
AcDbSavedByObjectVersion
1070
     0
  0
VISUALSTYLE
  5
2E
102
{ACAD_REACTORS
330
29
102
}
330
29
100
AcDbVisualStyle
  2
Basic
 70
     7
177
     3
291
     1
 70
    58
 90
        1
176
     1
 90
        0
176
     1
 90
        1
176
     1
 90
        0
176
     1
 40
0.6
176
     1
 40
30.0
176
     1
 62
     7
420
 16777215
176
     1
 90
        0
176
     1
 90
        4
176
     1
 62
     7
176
     1
 62
   257
176
     1
 90
        1
176
     1
 90
        1
176
     1
 40
1.0
176
     1
 90
        8
176
     1
 62
     7
176
     1
 40
1.0
176
     1
 90
        1
176
     1
 90
        6
176
     1
 90
        2
176
     1
 62
     7
176
     1
 90
        5
176
     1
 90
        0
176
     1
 90
        0
176
     1
290
     0
176
     1
 90
        1
176
     1
 40
0.0
176
     1
 90
        0
176
     1
290
     0
176
     1
290
     1
176
     1
290
     1
176
     1
290
     0
176
     1
290
     0
176
     1
290
     0
176
     1
290
     0
176
     1
290
     0
176
     1
290
     0
176
     1
 90
       50
176
     1
 40
0.0
176
     1
 40
1.0
176
     1
 90
        0
176
     1
 62
    18
420
        0
176
     1
 90
       50
176
     1
 90
        3
176
     1
 62
     5
420
      255
176
     1
290
     0
176
     1
 90
       50
176
     1
 90
       50
176
     1
 90
       50
176
     1
290
     0
176
     1
 90
       50
176
     1
 62
   256
176
     0
 40
1.0
176
     0
 90
        2
176
     1
  1
strokes_ogs.tif
176
     1
290
     0
176
     1
 40
1.0
176
     1
 40
1.0
176
     1
1001
ACAD
1000
AcDbSavedByObjectVersion
1070
     0
  0
VISUALSTYLE
  5
35
102
{ACAD_REACTORS
330
29
102
}
330
29
100
AcDbVisualStyle
  2
Brighten
 70
    12
177
     3
291
     1
 70
    58
 90
        2
176
     1
 90
        2
176
     1
 90
        0
176
     1
 90
        0
176
     1
 40
0.6
176
     1
 40
30.0
176
     1
 62
     7
420
 16777215
176
     1
 90
        1
176
     1
 90
        4
176
     1
 62
     7
176
     1
 62
   257
176
     1
 90
        1
176
     1
 90
        1
176
     1
 40
1.0
176
     1
 90
        8
176
     1
 62
     7
176
     1
 40
1.0
176
     1
 90
        1
176
     1
 90
        6
176
     1
 90
        2
176
     1
 62
     7
176
     1
 90
        5
176
     1
 90
        0
176
     1
 90
        0
176
     1
290
     0
176
     1
 90
        1
176
     1
 40
50.0
176
     1
 90
        0
176
     1
290
     0
176
     1
290
     1
176
     1
290
     1
176
     1
290
     0
176
     1
290
     0
176
     1
290
     0
176
     1
290
     0
176
     1
290
     0
176
     1
290
     0
176
     1
 90
       50
176
     1
 40
0.0
176
     1
 40
1.0
176
     1
 90
        0
176
     1
 62
    18
420
        0
176
     1
 90
       50
176
     1
 90
        3
176
     1
 62
     5
420
      255
176
     1
290
     0
176
     1
 90
       50
176
     1
 90
       50
176
     1
 90
       50
176
     1
290
     0
176
     1
 90
       50
176
     1
 62
   256
176
     0
 40
1.0
176
     0
 90
        2
176
     1
  1
strokes_ogs.tif
176
     1
290
     0
176
     1
 40
1.0
176
     1
 40
1.0
176
     1
1001
ACAD
1000
AcDbSavedByObjectVersion
1070
     0
  0
VISUALSTYLE
  5
39
102
{ACAD_REACTORS
330
29
102
}
330
29
100
AcDbVisualStyle
  2
ColorChange
 70
    16
177
     3
291
     1
 70
    58
 90
        2
176
     1
 90
        2
176
     1
 90
        3
176
     1
 90
        0
176
     1
 40
0.6
176
     1
 40
30.0
176
     1
 62
     8
420
  8421504
176
     1
 90
        1
176
     1
 90
        4
176
     1
 62
     7
176
     1
 62
   257
176
     1
 90
        1
176
     1
 90
        1
176
     1
 40
1.0
176
     1
 90
        8
176
     1
 62
     8
420
  8421504
176
     1
 40
1.0
176
     1
 90
        1
176
     1
 90
        6
176
     1
 90
        2
176
     1
 62
     7
176
     1
 90
        5
176
     1
 90
        0
176
     1
 90
        0
176
     1
290
     0
176
     1
 90
        1
176
     1
 40
0.0
176
     1
 90
        0
176
     1
290
     0
176
     1
290
     1
176
     1
290
     1
176
     1
290
     0
176
     1
290
     0
176
     1
290
     0
176
     1
290
     0
176
     1
290
     0
176
     1
290
     0
176
     1
 90
       50
176
     1
 40
0.0
176
     1
 40
1.0
176
     1
 90
        0
176
     1
 62
    18
420
        0
176
     1
 90
       50
176
     1
 90
        3
176
     1
 62
     5
420
      255
176
     1
290
     0
176
     1
 90
       50
176
     1
 90
       50
176
     1
 90
       50
176
     1
290
     0
176
     1
 90
       50
176
     1
 62
   256
176
     0
 40
1.0
176
     0
 90
        2
176
     1
  1
strokes_ogs.tif
176
     1
290
     0
176
     1
 40
1.0
176
     1
 40
1.0
176
     1
1001
ACAD
1000
AcDbSavedByObjectVersion
1070
     0
  0
VISUALSTYLE
  5
32
102
{ACAD_REACTORS
330
29
102
}
330
29
100
AcDbVisualStyle
  2
Conceptual
 70
     9
177
     3
291
     0
 70
    58
 90
        3
176
     1
 90
        2
176
     1
 90
        0
176
     1
 90
        0
176
     1
 40
0.6
176
     1
 40
30.0
176
     1
 62
     7
420
 16777215
176
     1
 90
        2
176
     1
 90
        2
176
     1
 62
     7
176
     1
 62
   257
176
     1
 90
        1
176
     1
 90
        1
176
     1
 40
179.0
176
     1
 90
        8
176
     1
 62
     7
176
     1
 40
1.0
176
     1
 90
        1
176
     1
 90
        6
176
     1
 90
        2
176
     1
 62
     7
176
     1
 90
        3
176
     1
 90
        0
176
     1
 90
        0
176
     1
290
     0
176
     1
 90
        1
176
     1
 40
0.0
176
     1
 90
        0
176
     1
290
     0
176
     1
290
     1
176
     1
290
     1
176
     1
290
     0
176
     1
290
     0
176
     1
290
     0
176
     1
290
     0
176
     1
290
     0
176
     1
290
     0
176
     1
 90
       50
176
     1
 40
0.0
176
     1
 40
1.0
176
     1
 90
        0
176
     1
 62
    18
420
        0
176
     1
 90
       50
176
     1
 90
        3
176
     1
 62
     5
420
      255
176
     1
290
     0
176
     1
 90
       50
176
     1
 90
       50
176
     1
 90
       50
176
     1
290
     0
176
     1
 90
       50
176
     1
 62
   256
176
     0
 40
1.0
176
     0
 90
        2
176
     1
  1
strokes_ogs.tif
176
     1
290
     0
176
     1
 40
1.0
176
     1
 40
1.0
176
     1
1001
ACAD
1000
AcDbSavedByObjectVersion
1070
     0
  0
VISUALSTYLE
  5
34
102
{ACAD_REACTORS
330
29
102
}
330
29
100
AcDbVisualStyle
  2
Dim
 70
    11
177
     3
291
     1
 70
    58
 90
        2
176
     1
 90
        2
176
     1
 90
        0
176
     1
 90
        0
176
     1
 40
0.6
176
     1
 40
30.0
176
     1
 62
     7
420
 16777215
176
     1
 90
        1
176
     1
 90
        4
176
     1
 62
     7
176
     1
 62
   257
176
     1
 90
        1
176
     1
 90
        1
176
     1
 40
1.0
176
     1
 90
        8
176
     1
 62
     7
176
     1
 40
1.0
176
     1
 90
        1
176
     1
 90
        6
176
     1
 90
        2
176
     1
 62
     7
176
     1
 90
        5
176
     1
 90
        0
176
     1
 90
        0
176
     1
290
     0
176
     1
 90
        1
176
     1
 40
-50.0
176
     1
 90
        0
176
     1
290
     0
176
     1
290
     1
176
     1
290
     1
176
     1
290
     0
176
     1
290
     0
176
     1
290
     0
176
     1
290
     0
176
     1
290
     0
176
     1
290
     0
176
     1
 90
       50
176
     1
 40
0.0
176
     1
 40
1.0
176
     1
 90
        0
176
     1
 62
    18
420
        0
176
     1
 90
       50
176
     1
 90
        3
176
     1
 62
     5
420
      255
176
     1
290
     0
176
     1
 90
       50
176
     1
 90
       50
176
     1
 90
       50
176
     1
290
     0
176
     1
 90
       50
176
     1
 62
   256
176
     0
 40
1.0
176
     0
 90
        2
176
     1
  1
strokes_ogs.tif
176
     1
290
     0
176
     1
 40
1.0
176
     1
 40
1.0
176
     1
1001
ACAD
1000
AcDbSavedByObjectVersion
1070
     0
  0
VISUALSTYLE
  5
41
102
{ACAD_REACTORS
330
29
102
}
330
29
100
AcDbVisualStyle
  2
EdgeColorOff
 70
    22
177
     3
291
     1
 70
    58
 90
        2
176
     0
 90
        2
176
     0
 90
        0
176
     0
 90
        0
176
     0
 40
0.6
176
     0
 40
30.0
176
     0
 62
     7
420
 16777215
176
     0
 90
        1
176
     0
 90
        4
176
     0
 62
     7
176
     0
 62
   257
176
     0
 90
        1
176
     0
 90
        1
176
     0
 40
1.0
176
     0
 90
        8
176
     2
 62
     7
176
     0
 40
1.0
176
     0
 90
        1
176
     0
 90
        6
176
     0
 90
        2
176
     0
 62
     7
176
     0
 90
        5
176
     0
 90
        0
176
     0
 90
        0
176
     0
290
     0
176
     0
 90
        1
176
     0
 40
0.0
176
     0
 90
        0
176
     0
290
     0
176
     0
290
     1
176
     0
290
     1
176
     0
290
     0
176
     0
290
     0
176
     0
290
     0
176
     0
290
     0
176
     0
290
     0
176
     0
290
     0
176
     0
 90
       50
176
     0
 40
0.0
176
     0
 40
1.0
176
     0
 90
        0
176
     0
 62
    18
420
        0
176
     0
 90
       50
176
     0
 90
        3
176
     0
 62
     5
420
      255
176
     0
290
     0
176
     0
 90
       50
176
     0
 90
       50
176
     0
 90
       50
176
     0
290
     0
176
     0
 90
       50
176
     0
 62
   256
176
     0
 40
1.0
176
     0
 90
        2
176
     0
  1
strokes_ogs.tif
176
     0
290
     0
176
     0
 40
1.0
176
     0
 40
1.0
176
     0
1001
ACAD
1000
AcDbSavedByObjectVersion
1070
     0
  0
VISUALSTYLE
  5
38
102
{ACAD_REACTORS
330
29
102
}
330
29
100
AcDbVisualStyle
  2
Facepattern
 70
    15
177
     3
291
     1
 70
    58
 90
        2
176
     1
 90
        2
176
     1
 90
        0
176
     1
 90
        0
176
     1
 40
0.6
176
     1
 40
30.0
176
     1
 62
     7
420
 16777215
176
     1
 90
        1
176
     1
 90
        4
176
     1
 62
     7
176
     1
 62
   257
176
     1
 90
        1
176
     1
 90
        1
176
     1
 40
1.0
176
     1
 90
        8
176
     1
 62
     7
176
     1
 40
1.0
176
     1
 90
        1
176
     1
 90
        6
176
     1
 90
        2
176
     1
 62
     7
176
     1
 90
        5
176
     1
 90
        0
176
     1
 90
        0
176
     1
290
     0
176
     1
 90
        1
176
     1
 40
0.0
176
     1
 90
        0
176
     1
290
     0
176
     1
290
     1
176
     1
290
     1
176
     1
290
     0
176
     1
290
     0
176
     1
290
     0
176
     1
290
     0
176
     1
290
     0
176
     1
290
     0
176
     1
 90
       50
176
     1
 40
0.0
176
     1
 40
1.0
176
     1
 90
        0
176
     1
 62
    18
420
        0
176
     1
 90
       50
176
     1
 90
        3
176
     1
 62
     5
420
      255
176
     1
290
     0
176
     1
 90
       50
176
     1
 90
       50
176
     1
 90
       50
176
     1
290
     0
176
     1
 90
       50
176
     1
 62
   256
176
     0
 40
1.0
176
     0
 90
        2
176
     1
  1
strokes_ogs.tif
176
     1
290
     0
176
     1
 40
1.0
176
     1
 40
1.0
176
     1
1001
ACAD
1000
AcDbSavedByObjectVersion
1070
     0
  0
VISUALSTYLE
  5
2A
102
{ACAD_REACTORS
330
29
102
}
330
29
100
AcDbVisualStyle
  2
Flat
 70
     0
177
     3
291
     1
 70
    58
 90
        2
176
     1
 90
        1
176
     1
 90
        1
176
     1
 90
        2
176
     1
 40
0.6
176
     1
 40
30.0
176
     1
 62
     7
420
 16777215
176
     1
 90
        0
176
     1
 90
        0
176
     1
 62
     7
176
     1
 62
   257
176
     1
 90
        1
176
     1
 90
        1
176
     1
 40
1.0
176
     1
 90
        8
176
     1
 62
     7
176
     1
 40
1.0
176
     1
 90
        1
176
     1
 90
        6
176
     1
 90
        2
176
     1
 62
     7
176
     1
 90
        5
176
     1
 90
        0
176
     1
 90
        0
176
     1
290
     0
176
     1
 90
       13
176
     1
 40
0.0
176
     1
 90
        0
176
     1
290
     0
176
     1
290
     1
176
     1
290
     1
176
     1
290
     0
176
     1
290
     0
176
     1
290
     0
176
     1
290
     0
176
     1
290
     0
176
     1
290
     0
176
     1
 90
       50
176
     1
 40
0.0
176
     1
 40
1.0
176
     1
 90
        0
176
     1
 62
    18
420
        0
176
     1
 90
       50
176
     1
 90
        3
176
     1
 62
     5
420
      255
176
     1
290
     0
176
     1
 90
       50
176
     1
 90
       50
176
     1
 90
       50
176
     1
290
     0
176
     1
 90
       50
176
     1
 62
   256
176
     0
 40
1.0
176
     0
 90
        2
176
     1
  1
strokes_ogs.tif
176
     1
290
     0
176
     1
 40
1.0
176
     1
 40
1.0
176
     1
1001
ACAD
1000
AcDbSavedByObjectVersion
1070
     0
  0
VISUALSTYLE
  5
2B
102
{ACAD_REACTORS
330
29
102
}
330
29
100
AcDbVisualStyle
  2
FlatWithEdges
 70
     1
177
     3
291
     1
 70
    58
 90
        2
176
     1
 90
        1
176
     1
 90
        1
176
     1
 90
        2
176
     1
 40
0.6
176
     1
 40
30.0
176
     1
 62
     7
420
 16777215
176
     1
 90
        1
176
     1
 90
        0
176
     1
 62
     7
176
     1
 62
   257
176
     1
 90
        1
176
     1
 90
        1
176
     1
 40
1.0
176
     1
 90
        0
176
     1
 62
   257
176
     1
 40
1.0
176
     1
 90
        1
176
     1
 90
        6
176
     1
 90
        2
176
     1
 62
     7
176
     1
 90
        5
176
     1
 90
        0
176
     1
 90
        0
176
     1
290
     0
176
     1
 90
       13
176
     1
 40
0.0
176
     1
 90
        0
176
     1
290
     0
176
     1
290
     1
176
     1
290
     1
176
     1
290
     0
176
     1
290
     0
176
     1
290
     0
176
     1
290
     0
176
     1
290
     0
176
     1
290
     0
176
     1
 90
       50
176
     1
 40
0.0
176
     1
 40
1.0
176
     1
 90
        0
176
     1
 62
    18
420
        0
176
     1
 90
       50
176
     1
 90
        3
176
     1
 62
     5
420
      255
176
     1
290
     0
176
     1
 90
       50
176
     1
 90
       50
176
     1
 90
       50
176
     1
290
     0
176
     1
 90
       50
176
     1
 62
   256
176
     0
 40
1.0
176
     0
 90
        2
176
     1
  1
strokes_ogs.tif
176
     1
290
     0
176
     1
 40
1.0
176
     1
 40
1.0
176
     1
1001
ACAD
1000
AcDbSavedByObjectVersion
1070
     0
  0
VISUALSTYLE
  5
2C
102
{ACAD_REACTORS
330
29
102
}
330
29
100
AcDbVisualStyle
  2
Gouraud
 70
     2
177
     3
291
     1
 70
    58
 90
        2
176
     1
 90
        2
176
     1
 90
        1
176
     1
 90
        2
176
     1
 40
0.6
176
     1
 40
30.0
176
     1
 62
     7
420
 16777215
176
     1
 90
        0
176
     1
 90
        0
176
     1
 62
     7
176
     1
 62
   257
176
     1
 90
        1
176
     1
 90
        1
176
     1
 40
1.0
176
     1
 90
        0
176
     1
 62
     7
176
     1
 40
1.0
176
     1
 90
        1
176
     1
 90
        6
176
     1
 90
        2
176
     1
 62
     7
176
     1
 90
        5
176
     1
 90
        0
176
     1
 90
        0
176
     1
290
     0
176
     1
 90
       13
176
     1
 40
0.0
176
     1
 90
        0
176
     1
290
     0
176
     1
290
     1
176
     1
290
     1
176
     1
290
     0
176
     1
290
     0
176
     1
290
     0
176
     1
290
     0
176
     1
290
     0
176
     1
290
     0
176
     1
 90
       50
176
     1
 40
0.0
176
     1
 40
1.0
176
     1
 90
        0
176
     1
 62
    18
420
        0
176
     1
 90
       50
176
     1
 90
        3
176
     1
 62
     5
420
      255
176
     1
290
     0
176
     1
 90
       50
176
     1
 90
       50
176
     1
 90
       50
176
     1
290
     0
176
     1
 90
       50
176
     1
 62
   256
176
     0
 40
1.0
176
     0
 90
        2
176
     1
  1
strokes_ogs.tif
176
     1
290
     0
176
     1
 40
1.0
176
     1
 40
1.0
176
     1
1001
ACAD
1000
AcDbSavedByObjectVersion
1070
     0
  0
VISUALSTYLE
  5
2D
102
{ACAD_REACTORS
330
29
102
}
330
29
100
AcDbVisualStyle
  2
GouraudWithEdges
 70
     3
177
     3
291
     1
 70
    58
 90
        2
176
     1
 90
        2
176
     1
 90
        1
176
     1
 90
        2
176
     1
 40
0.6
176
     1
 40
30.0
176
     1
 62
     7
420
 16777215
176
     1
 90
        1
176
     1
 90
        0
176
     1
 62
     7
176
     1
 62
   257
176
     1
 90
        1
176
     1
 90
        1
176
     1
 40
1.0
176
     1
 90
        0
176
     1
 62
   257
176
     1
 40
1.0
176
     1
 90
        1
176
     1
 90
        6
176
     1
 90
        2
176
     1
 62
     7
176
     1
 90
        5
176
     1
 90
        0
176
     1
 90
        0
176
     1
290
     0
176
     1
 90
       13
176
     1
 40
0.0
176
     1
 90
        0
176
     1
290
     0
176
     1
290
     1
176
     1
290
     1
176
     1
290
     0
176
     1
290
     0
176
     1
290
     0
176
     1
290
     0
176
     1
290
     0
176
     1
290
     0
176
     1
 90
       50
176
     1
 40
0.0
176
     1
 40
1.0
176
     1
 90
        0
176
     1
 62
    18
420
        0
176
     1
 90
       50
176
     1
 90
        3
176
     1
 62
     5
420
      255
176
     1
290
     0
176
     1
 90
       50
176
     1
 90
       50
176
     1
 90
       50
176
     1
290
     0
176
     1
 90
       50
176
     1
 62
   256
176
     0
 40
1.0
176
     0
 90
        2
176
     1
  1
strokes_ogs.tif
176
     1
290
     0
176
     1
 40
1.0
176
     1
 40
1.0
176
     1
1001
ACAD
1000
AcDbSavedByObjectVersion
1070
     0
  0
VISUALSTYLE
  5
31
102
{ACAD_REACTORS
330
29
102
}
330
29
100
AcDbVisualStyle
  2
Hidden
 70
     6
177
     3
291
     0
 70
    58
 90
        1
176
     1
 90
        2
176
     1
 90
        2
176
     1
 90
        0
176
     1
 40
0.6
176
     1
 40
30.0
176
     1
 62
     7
420
 16777215
176
     1
 90
        2
176
     1
 90
        2
176
     1
 62
     7
176
     1
 62
   257
176
     1
 90
        2
176
     1
 90
        1
176
     1
 40
40.0
176
     1
 90
        0
176
     1
 62
   257
176
     1
 40
1.0
176
     1
 90
        1
176
     1
 90
        6
176
     1
 90
        2
176
     1
 62
     7
176
     1
 90
        3
176
     1
 90
        0
176
     1
 90
        0
176
     1
290
     0
176
     1
 90
        1
176
     1
 40
0.0
176
     1
 90
        0
176
     1
290
     0
176
     1
290
     1
176
     1
290
     1
176
     1
290
     0
176
     1
290
     0
176
     1
290
     0
176
     1
290
     0
176
     1
290
     0
176
     1
290
     0
176
     1
 90
       50
176
     1
 40
0.0
176
     1
 40
1.0
176
     1
 90
        0
176
     1
 62
    18
420
        0
176
     1
 90
       50
176
     1
 90
        3
176
     1
 62
     5
420
      255
176
     1
290
     0
176
     1
 90
       50
176
     1
 90
       50
176
     1
 90
       50
176
     1
290
     0
176
     1
 90
       50
176
     1
 62
   256
176
     0
 40
1.0
176
     0
 90
        2
176
     1
  1
strokes_ogs.tif
176
     1
290
     0
176
     1
 40
1.0
176
     1
 40
1.0
176
     1
1001
ACAD
1000
AcDbSavedByObjectVersion
1070
     0
  0
VISUALSTYLE
  5
3F
102
{ACAD_REACTORS
330
29
102
}
330
29
100
AcDbVisualStyle
  2
JitterOff
 70
    20
177
     3
291
     1
 70
    58
 90
        2
176
     0
 90
        2
176
     0
 90
        0
176
     0
 90
        0
176
     0
 40
0.6
176
     0
 40
30.0
176
     0
 62
     7
420
 16777215
176
     0
 90
        1
176
     0
 90
        4
176
     0
 62
     7
176
     0
 62
   257
176
     0
 90
        1
176
     0
 90
        1
176
     0
 40
1.0
176
     0
 90
       10
176
     2
 62
     7
176
     0
 40
1.0
176
     0
 90
        1
176
     0
 90
        6
176
     0
 90
        2
176
     0
 62
     7
176
     0
 90
        5
176
     0
 90
        0
176
     0
 90
        0
176
     0
290
     0
176
     0
 90
        1
176
     0
 40
0.0
176
     0
 90
        0
176
     0
290
     0
176
     0
290
     1
176
     0
290
     1
176
     0
290
     0
176
     0
290
     0
176
     0
290
     0
176
     0
290
     0
176
     0
290
     0
176
     0
290
     0
176
     0
 90
       50
176
     0
 40
0.0
176
     0
 40
1.0
176
     0
 90
        0
176
     0
 62
    18
420
        0
176
     0
 90
       50
176
     0
 90
        3
176
     0
 62
     5
420
      255
176
     0
290
     0
176
     0
 90
       50
176
     0
 90
       50
176
     0
 90
       50
176
     0
290
     0
176
     0
 90
       50
176
     0
 62
   256
176
     0
 40
1.0
176
     0
 90
        2
176
     0
  1
strokes_ogs.tif
176
     0
290
     0
176
     0
 40
1.0
176
     0
 40
1.0
176
     0
1001
ACAD
1000
AcDbSavedByObjectVersion
1070
     0
  0
VISUALSTYLE
  5
37
102
{ACAD_REACTORS
330
29
102
}
330
29
100
AcDbVisualStyle
  2
Linepattern
 70
    14
177
     3
291
     1
 70
    58
 90
        2
176
     1
 90
        2
176
     1
 90
        0
176
     1
 90
        0
176
     1
 40
0.6
176
     1
 40
30.0
176
     1
 62
     7
420
 16777215
176
     1
 90
        1
176
     1
 90
        4
176
     1
 62
     7
176
     1
 62
   257
176
     1
 90
        7
176
     1
 90
        7
176
     1
 40
1.0
176
     1
 90
        8
176
     1
 62
     7
176
     1
 40
1.0
176
     1
 90
        1
176
     1
 90
        6
176
     1
 90
        2
176
     1
 62
     7
176
     1
 90
        5
176
     1
 90
        0
176
     1
 90
        0
176
     1
290
     0
176
     1
 90
        1
176
     1
 40
0.0
176
     1
 90
        0
176
     1
290
     0
176
     1
290
     1
176
     1
290
     1
176
     1
290
     0
176
     1
290
     0
176
     1
290
     0
176
     1
290
     0
176
     1
290
     0
176
     1
290
     0
176
     1
 90
       50
176
     1
 40
0.0
176
     1
 40
1.0
176
     1
 90
        0
176
     1
 62
    18
420
        0
176
     1
 90
       50
176
     1
 90
        3
176
     1
 62
     5
420
      255
176
     1
290
     0
176
     1
 90
       50
176
     1
 90
       50
176
     1
 90
       50
176
     1
290
     0
176
     1
 90
       50
176
     1
 62
   256
176
     0
 40
1.0
176
     0
 90
        2
176
     1
  1
strokes_ogs.tif
176
     1
290
     0
176
     1
 40
1.0
176
     1
 40
1.0
176
     1
1001
ACAD
1000
AcDbSavedByObjectVersion
1070
     0
  0
VISUALSTYLE
  5
40
102
{ACAD_REACTORS
330
29
102
}
330
29
100
AcDbVisualStyle
  2
OverhangOff
 70
    21
177
     3
291
     1
 70
    58
 90
        2
176
     0
 90
        2
176
     0
 90
        0
176
     0
 90
        0
176
     0
 40
0.6
176
     0
 40
30.0
176
     0
 62
     7
420
 16777215
176
     0
 90
        1
176
     0
 90
        4
176
     0
 62
     7
176
     0
 62
   257
176
     0
 90
        1
176
     0
 90
        1
176
     0
 40
1.0
176
     0
 90
        9
176
     2
 62
     7
176
     0
 40
1.0
176
     0
 90
        1
176
     0
 90
        6
176
     0
 90
        2
176
     0
 62
     7
176
     0
 90
        5
176
     0
 90
        0
176
     0
 90
        0
176
     0
290
     0
176
     0
 90
        1
176
     0
 40
0.0
176
     0
 90
        0
176
     0
290
     0
176
     0
290
     1
176
     0
290
     1
176
     0
290
     0
176
     0
290
     0
176
     0
290
     0
176
     0
290
     0
176
     0
290
     0
176
     0
290
     0
176
     0
 90
       50
176
     0
 40
0.0
176
     0
 40
1.0
176
     0
 90
        0
176
     0
 62
    18
420
        0
176
     0
 90
       50
176
     0
 90
        3
176
     0
 62
     5
420
      255
176
     0
290
     0
176
     0
 90
       50
176
     0
 90
       50
176
     0
 90
       50
176
     0
290
     0
176
     0
 90
       50
176
     0
 62
   256
176
     0
 40
1.0
176
     0
 90
        2
176
     0
  1
strokes_ogs.tif
176
     0
290
     0
176
     0
 40
1.0
176
     0
 40
1.0
176
     0
1001
ACAD
1000
AcDbSavedByObjectVersion
1070
     0
  0
VISUALSTYLE
  5
33
102
{ACAD_REACTORS
330
29
102
}
330
29
100
AcDbVisualStyle
  2
Realistic
 70
     8
177
     3
291
     0
 70
    58
 90
        2
176
     1
 90
        3
176
     1
 90
        0
176
     1
 90
        2
176
     1
 40
0.6
176
     1
 40
30.0
176
     1
 62
     7
420
 16777215
176
     1
 90
        0
176
     1
 90
        0
176
     1
 62
     7
176
     1
 62
   257
176
     1
 90
        1
176
     1
 90
        1
176
     1
 40
1.0
176
     1
 90
        8
176
     1
 62
   257
176
     1
 40
1.0
176
     1
 90
        1
176
     1
 90
        6
176
     1
 90
        2
176
     1
 62
     7
176
     1
 90
        3
176
     1
 90
        0
176
     1
 90
        0
176
     1
290
     0
176
     1
 90
       13
176
     1
 40
0.0
176
     1
 90
        0
176
     1
290
     0
176
     1
290
     1
176
     1
290
     1
176
     1
290
     0
176
     1
290
     0
176
     1
290
     0
176
     1
290
     0
176
     1
290
     0
176
     1
290
     0
176
     1
 90
       50
176
     1
 40
0.0
176
     1
 40
1.0
176
     1
 90
        0
176
     1
 62
    18
420
        0
176
     1
 90
       50
176
     1
 90
        3
176
     1
 62
     5
420
      255
176
     1
290
     0
176
     1
 90
       50
176
     1
 90
       50
176
     1
 90
       50
176
     1
290
     0
176
     1
 90
       50
176
     1
 62
   256
176
     0
 40
1.0
176
     0
 90
        2
176
     1
  1
strokes_ogs.tif
176
     1
290
     0
176
     1
 40
1.0
176
     1
 40
1.0
176
     1
1001
ACAD
1000
AcDbSavedByObjectVersion
1070
     0
  0
VISUALSTYLE
  5
3E
102
{ACAD_REACTORS
330
29
102
}
330
29
100
AcDbVisualStyle
  2
Shaded
 70
    27
177
     3
291
     0
 70
    58
 90
        2
176
     1
 90
        2
176
     1
 90
        1
176
     1
 90
        2
176
     1
 40
0.6
176
     1
 40
30.0
176
     1
 62
     7
420
 16777215
176
     1
 90
        0
176
     1
 90
        4
176
     1
 62
     7
176
     1
 62
   257
176
     1
 90
        1
176
     1
 90
        1
176
     1
 40
1.0
176
     1
 90
        8
176
     1
 62
   257
176
     1
 40
1.0
176
     1
 90
        1
176
     1
 90
        6
176
     1
 90
        2
176
     1
 62
     8
420
  7895160
176
     1
 90
        3
176
     1
 90
        0
176
     1
 90
        0
176
     1
290
     0
176
     1
 90
        5
176
     1
 40
0.0
176
     1
 90
        0
176
     1
290
     0
176
     1
290
     1
176
     1
290
     1
176
     1
290
     0
176
     1
290
     0
176
     1
290
     0
176
     1
290
     0
176
     1
290
     0
176
     1
290
     0
176
     1
 90
       50
176
     1
 40
0.0
176
     1
 40
1.0
176
     1
 90
        0
176
     1
 62
    18
420
        0
176
     1
 90
       50
176
     1
 90
        3
176
     1
 62
     5
420
      255
176
     1
290
     0
176
     1
 90
       50
176
     1
 90
       50
176
     1
 90
       50
176
     1
290
     0
176
     1
 90
       50
176
     1
 62
   256
176
     0
 40
1.0
176
     0
 90
        2
176
     1
  1
strokes_ogs.tif
176
     1
290
     0
176
     1
 40
1.0
176
     1
 40
1.0
176
     1
1001
ACAD
1000
AcDbSavedByObjectVersion
1070
     0
  0
VISUALSTYLE
  5
3D
102
{ACAD_REACTORS
330
29
102
}
330
29
100
AcDbVisualStyle
  2
Shaded with edges
 70
    26
177
     3
291
     0
 70
    58
 90
        2
176
     1
 90
        2
176
     1
 90
        1
176
     1
 90
        2
176
     1
 40
0.6
176
     1
 40
30.0
176
     1
 62
     7
420
 16777215
176
     1
 90
        1
176
     1
 90
        2
176
     1
 62
     7
176
     1
 62
   257
176
     1
 90
        2
176
     1
 90
        1
176
     1
 40
1.0
176
     1
 90
        8
176
     1
 62
   257
176
     1
 40
1.0
176
     1
 90
        1
176
     1
 90
        6
176
     1
 90
        2
176
     1
 62
     7
176
     1
 90
        3
176
     1
 90
        0
176
     1
 90
        0
176
     1
290
     0
176
     1
 90
        5
176
     1
 40
0.0
176
     1
 90
        0
176
     1
290
     0
176
     1
290
     1
176
     1
290
     1
176
     1
290
     0
176
     1
290
     0
176
     1
290
     0
176
     1
290
     0
176
     1
290
     0
176
     1
290
     0
176
     1
 90
       50
176
     1
 40
0.0
176
     1
 40
1.0
176
     1
 90
        0
176
     1
 62
    18
420
        0
176
     1
 90
       50
176
     1
 90
        3
176
     1
 62
     5
420
      255
176
     1
290
     0
176
     1
 90
       50
176
     1
 90
       50
176
     1
 90
       50
176
     1
290
     0
176
     1
 90
       50
176
     1
 62
   256
176
     0
 40
1.0
176
     0
 90
        2
176
     1
  1
strokes_ogs.tif
176
     1
290
     0
176
     1
 40
1.0
176
     1
 40
1.0
176
     1
1001
ACAD
1000
AcDbSavedByObjectVersion
1070
     0
  0
VISUALSTYLE
  5
3A
102
{ACAD_REACTORS
330
29
102
}
330
29
100
AcDbVisualStyle
  2
Shades of Gray
 70
    23
177
     3
291
     0
 70
    58
 90
        2
176
     1
 90
        2
176
     1
 90
        3
176
     1
 90
        0
176
     1
 40
0.6
176
     1
 40
30.0
176
     1
 62
     7
420
 16777215
176
     1
 90
        2
176
     1
 90
        2
176
     1
 62
     7
176
     1
 62
     7
176
     1
 90
        1
176
     1
 90
        1
176
     1
 40
40.0
176
     1
 90
        8
176
     1
 62
     7
176
     1
 40
1.0
176
     1
 90
        1
176
     1
 90
        6
176
     1
 90
        2
176
     1
 62
     7
176
     1
 90
        3
176
     1
 90
        0
176
     1
 90
        0
176
     1
290
     0
176
     1
 90
        1
176
     1
 40
0.0
176
     1
 90
        0
176
     1
290
     0
176
     1
290
     1
176
     1
290
     1
176
     1
290
     0
176
     1
290
     0
176
     1
290
     0
176
     1
290
     0
176
     1
290
     0
176
     1
290
     0
176
     1
 90
       50
176
     1
 40
0.0
176
     1
 40
1.0
176
     1
 90
        0
176
     1
 62
    18
420
        0
176
     1
 90
       50
176
     1
 90
        3
176
     1
 62
     5
420
      255
176
     1
290
     0
176
     1
 90
       50
176
     1
 90
       50
176
     1
 90
       50
176
     1
290
     0
176
     1
 90
       50
176
     1
 62
   256
176
     0
 40
1.0
176
     0
 90
        2
176
     1
  1
strokes_ogs.tif
176
     1
290
     0
176
     1
 40
1.0
176
     1
 40
1.0
176
     1
1001
ACAD
1000
AcDbSavedByObjectVersion
1070
     0
  0
VISUALSTYLE
  5
3B
102
{ACAD_REACTORS
330
29
102
}
330
29
100
AcDbVisualStyle
  2
Sketchy
 70
    24
177
     3
291
     0
 70
    58
 90
        1
176
     1
 90
        2
176
     1
 90
        2
176
     1
 90
        0
176
     1
 40
0.6
176
     1
 40
30.0
176
     1
 62
     7
420
 16777215
176
     1
 90
        2
176
     1
 90
        2
176
     1
 62
     7
176
     1
 62
     7
176
     1
 90
        1
176
     1
 90
        1
176
     1
 40
40.0
176
     1
 90
       11
176
     1
 62
     7
176
     1
 40
1.0
176
     1
 90
        1
176
     1
 90
        6
176
     1
 90
        2
176
     1
 62
     7
176
     1
 90
        6
176
     1
 90
        0
176
     1
 90
        0
176
     1
290
     0
176
     1
 90
        1
176
     1
 40
0.0
176
     1
 90
        0
176
     1
290
     0
176
     1
290
     1
176
     1
290
     1
176
     1
290
     0
176
     1
290
     0
176
     1
290
     0
176
     1
290
     0
176
     1
290
     0
176
     1
290
     0
176
     1
 90
       50
176
     1
 40
0.0
176
     1
 40
1.0
176
     1
 90
        0
176
     1
 62
    18
420
        0
176
     1
 90
       50
176
     1
 90
        3
176
     1
 62
     5
420
      255
176
     1
290
     0
176
     1
 90
       50
176
     1
 90
       50
176
     1
 90
       50
176
     1
290
     0
176
     1
 90
       50
176
     1
 62
   256
176
     0
 40
1.0
176
     0
 90
        2
176
     1
  1
strokes_ogs.tif
176
     1
290
     0
176
     1
 40
1.0
176
     1
 40
1.0
176
     1
1001
ACAD
1000
AcDbSavedByObjectVersion
1070
     0
  0
VISUALSTYLE
  5
36
102
{ACAD_REACTORS
330
29
102
}
330
29
100
AcDbVisualStyle
  2
Thicken
 70
    13
177
     3
291
     1
 70
    58
 90
        2
176
     1
 90
        2
176
     1
 90
        0
176
     1
 90
        0
176
     1
 40
0.6
176
     1
 40
30.0
176
     1
 62
     7
420
 16777215
176
     1
 90
        1
176
     1
 90
        4
176
     1
 62
     7
176
     1
 62
   257
176
     1
 90
        1
176
     1
 90
        1
176
     1
 40
1.0
176
     1
 90
       12
176
     1
 62
     7
176
     1
 40
1.0
176
     1
 90
        1
176
     1
 90
        6
176
     1
 90
        2
176
     1
 62
     7
176
     1
 90
        5
176
     1
 90
        0
176
     1
 90
        0
176
     1
290
     0
176
     1
 90
        1
176
     1
 40
0.0
176
     1
 90
        0
176
     1
290
     0
176
     1
290
     1
176
     1
290
     1
176
     1
290
     0
176
     1
290
     0
176
     1
290
     0
176
     1
290
     0
176
     1
290
     0
176
     1
290
     0
176
     1
 90
       50
176
     1
 40
0.0
176
     1
 40
1.0
176
     1
 90
        0
176
     1
 62
    18
420
        0
176
     1
 90
       50
176
     1
 90
        3
176
     1
 62
     5
420
      255
176
     1
290
     0
176
     1
 90
       50
176
     1
 90
       50
176
     1
 90
       50
176
     1
290
     0
176
     1
 90
       50
176
     1
 62
   256
176
     0
 40
1.0
176
     0
 90
        2
176
     1
  1
strokes_ogs.tif
176
     1
290
     0
176
     1
 40
1.0
176
     1
 40
1.0
176
     1
1001
ACAD
1000
AcDbSavedByObjectVersion
1070
     0
  0
VISUALSTYLE
  5
30
102
{ACAD_REACTORS
330
29
102
}
330
29
100
AcDbVisualStyle
  2
Wireframe
 70
     5
177
     3
291
     0
 70
    58
 90
        0
176
     1
 90
        2
176
     1
 90
        0
176
     1
 90
        0
176
     1
 40
0.6
176
     1
 40
30.0
176
     1
 62
     7
420
 16777215
176
     1
 90
        1
176
     1
 90
        4
176
     1
 62
     7
176
     1
 62
   257
176
     1
 90
        1
176
     1
 90
        1
176
     1
 40
1.0
176
     1
 90
        0
176
     1
 62
   257
176
     1
 40
1.0
176
     1
 90
        1
176
     1
 90
        6
176
     1
 90
        2
176
     1
 62
     7
176
     1
 90
        3
176
     1
 90
        0
176
     1
 90
        0
176
     1
290
     0
176
     1
 90
        1
176
     1
 40
0.0
176
     1
 90
        0
176
     1
290
     0
176
     1
290
     1
176
     1
290
     1
176
     1
290
     0
176
     1
290
     0
176
     1
290
     0
176
     1
290
     0
176
     1
290
     0
176
     1
290
     0
176
     1
 90
       50
176
     1
 40
0.0
176
     1
 40
1.0
176
     1
 90
        0
176
     1
 62
    18
420
        0
176
     1
 90
       50
176
     1
 90
        3
176
     1
 62
     5
420
      255
176
     1
290
     0
176
     1
 90
       50
176
     1
 90
       50
176
     1
 90
       50
176
     1
290
     0
176
     1
 90
       50
176
     1
 62
   256
176
     0
 40
1.0
176
     0
 90
        2
176
     1
  1
strokes_ogs.tif
176
     1
290
     0
176
     1
 40
1.0
176
     1
 40
1.0
176
     1
1001
ACAD
1000
AcDbSavedByObjectVersion
1070
     0
  0
VISUALSTYLE
  5
3C
102
{ACAD_REACTORS
330
29
102
}
330
29
100
AcDbVisualStyle
  2
X-Ray
 70
    25
177
     3
291
     0
 70
    58
 90
        2
176
     1
 90
        2
176
     1
 90
        1
176
     1
 90
        1
176
     1
 40
0.5
176
     1
 40
30.0
176
     1
 62
     7
420
 16777215
176
     1
 90
        1
176
     1
 90
        0
176
     1
 62
     7
176
     1
 62
   257
176
     1
 90
        1
176
     1
 90
        1
176
     1
 40
1.0
176
     1
 90
        8
176
     1
 62
     7
176
     1
 40
1.0
176
     1
 90
        1
176
     1
 90
        6
176
     1
 90
        2
176
     1
 62
     7
176
     1
 90
        3
176
     1
 90
        0
176
     1
 90
        0
176
     1
290
     0
176
     1
 90
       13
176
     1
 40
0.0
176
     1
 90
        0
176
     1
290
     0
176
     1
290
     1
176
     1
290
     1
176
     1
290
     0
176
     1
290
     0
176
     1
290
     0
176
     1
290
     0
176
     1
290
     0
176
     1
290
     0
176
     1
 90
       50
176
     1
 40
0.0
176
     1
 40
1.0
176
     1
 90
        0
176
     1
 62
    18
420
        0
176
     1
 90
       50
176
     1
 90
        3
176
     1
 62
     5
420
      255
176
     1
290
     0
176
     1
 90
       50
176
     1
 90
       50
176
     1
 90
       50
176
     1
290
     0
176
     1
 90
       50
176
     1
 62
   256
176
     0
 40
1.0
176
     0
 90
        2
176
     1
  1
strokes_ogs.tif
176
     1
290
     0
176
     1
 40
1.0
176
     1
 40
1.0
176
     1
1001
ACAD
1000
AcDbSavedByObjectVersion
1070
     0
  0
DICTIONARYVAR
  5
285
102
{ACAD_REACTORS
330
280
102
}
330
280
100
DictionaryVariables
280
     0
  1
1:1
  0
DICTIONARYVAR
  5
282
102
{ACAD_REACTORS
330
280
102
}
330
280
100
DictionaryVariables
280
     0
  1
STANDARD
  0
DICTIONARYVAR
  5
281
102
{ACAD_REACTORS
330
280
102
}
330
280
100
DictionaryVariables
280
     0
  1
STANDARD
  0
DICTIONARYVAR
  5
283
102
{ACAD_REACTORS
330
280
102
}
330
280
100
DictionaryVariables
280
     0
  1
Imperial24
  0
DICTIONARYVAR
  5
284
102
{ACAD_REACTORS
330
280
102
}
330
280
100
DictionaryVariables
280
     0
  1
Imperial24
  0
DICTIONARY
  5
28B
330
6B
100
AcDbDictionary
280
     1
281
     1
  3
ACAD_XREC_ROUNDTRIP
360
28C
  0
DICTIONARY
  5
1A
330
19
100
AcDbDictionary
280
     1
281
     1
  3
BUMPTILE
360
1C
  3
DIFFUSETILE
360
1B
  3
OPACITYTILE
360
1F
  3
REFLECTIONTILE
360
1E
  3
REFRACTIONTILE
360
20
  3
SPECULARTILE
360
1D
  0
DICTIONARY
  5
12
330
11
100
AcDbDictionary
280
     1
281
     1
  3
BUMPTILE
360
14
  3
DIFFUSETILE
360
13
  3
OPACITYTILE
360
17
  3
REFLECTIONTILE
360
16
  3
REFRACTIONTILE
360
18
  3
SPECULARTILE
360
15
  0
DICTIONARY
  5
22
330
21
100
AcDbDictionary
280
     1
281
     1
  3
BUMPTILE
360
24
  3
DIFFUSETILE
360
23
  3
OPACITYTILE
360
27
  3
REFLECTIONTILE
360
26
  3
REFRACTIONTILE
360
28
  3
SPECULARTILE
360
25
  0
DICTIONARY
  5
289
330
69
100
AcDbDictionary
280
     1
281
     1
  3
ACAD_XREC_ROUNDTRIP
360
28A
  0
DICTIONARY
  5
286
330
65
100
AcDbDictionary
280
     1
281
     1
  3
ACAD_ROUNDTRIP_2008_TABLESTYLE_CELLSTYLEMAP
360
287
  0
XRECORD
  5
28C
102
{ACAD_REACTORS
330
28B
102
}
330
28B
100
AcDbXrecord
280
     1
102
DISPLAYNAME
  1
Imperial24
102
FLAGS
 90
        0
  0
XRECORD
  5
1C
102
{ACAD_REACTORS
330
1A
102
}
330
1A
100
AcDbXrecord
280
     1
270
     1
271
     1
  0
XRECORD
  5
1B
102
{ACAD_REACTORS
330
1A
102
}
330
1A
100
AcDbXrecord
280
     1
270
     1
271
     1
  0
XRECORD
  5
1F
102
{ACAD_REACTORS
330
1A
102
}
330
1A
100
AcDbXrecord
280
     1
270
     1
271
     1
  0
XRECORD
  5
1E
102
{ACAD_REACTORS
330
1A
102
}
330
1A
100
AcDbXrecord
280
     1
270
     1
271
     1
  0
XRECORD
  5
20
102
{ACAD_REACTORS
330
1A
102
}
330
1A
100
AcDbXrecord
280
     1
270
     1
271
     1
  0
XRECORD
  5
1D
102
{ACAD_REACTORS
330
1A
102
}
330
1A
100
AcDbXrecord
280
     1
270
     1
271
     1
  0
XRECORD
  5
14
102
{ACAD_REACTORS
330
12
102
}
330
12
100
AcDbXrecord
280
     1
270
     1
271
     1
  0
XRECORD
  5
13
102
{ACAD_REACTORS
330
12
102
}
330
12
100
AcDbXrecord
280
     1
270
     1
271
     1
  0
XRECORD
  5
17
102
{ACAD_REACTORS
330
12
102
}
330
12
100
AcDbXrecord
280
     1
270
     1
271
     1
  0
XRECORD
  5
16
102
{ACAD_REACTORS
330
12
102
}
330
12
100
AcDbXrecord
280
     1
270
     1
271
     1
  0
XRECORD
  5
18
102
{ACAD_REACTORS
330
12
102
}
330
12
100
AcDbXrecord
280
     1
270
     1
271
     1
  0
XRECORD
  5
15
102
{ACAD_REACTORS
330
12
102
}
330
12
100
AcDbXrecord
280
     1
270
     1
271
     1
  0
XRECORD
  5
24
102
{ACAD_REACTORS
330
22
102
}
330
22
100
AcDbXrecord
280
     1
270
     1
271
     1
  0
XRECORD
  5
23
102
{ACAD_REACTORS
330
22
102
}
330
22
100
AcDbXrecord
280
     1
270
     1
271
     1
  0
XRECORD
  5
27
102
{ACAD_REACTORS
330
22
102
}
330
22
100
AcDbXrecord
280
     1
270
     1
271
     1
  0
XRECORD
  5
26
102
{ACAD_REACTORS
330
22
102
}
330
22
100
AcDbXrecord
280
     1
270
     1
271
     1
  0
XRECORD
  5
28
102
{ACAD_REACTORS
330
22
102
}
330
22
100
AcDbXrecord
280
     1
270
     1
271
     1
  0
XRECORD
  5
25
102
{ACAD_REACTORS
330
22
102
}
330
22
100
AcDbXrecord
280
     1
270
     1
271
     1
  0
XRECORD
  5
28A
102
{ACAD_REACTORS
330
289
102
}
330
289
100
AcDbXrecord
280
     1
102
DISPLAYNAME
  1
Imperial24
102
FLAGS
 90
        0
  0
CELLSTYLEMAP
  5
287
102
{ACAD_REACTORS
330
286
102
}
330
286
100
AcDbCellStyleMap
 90
        3
300
CELLSTYLE
  1
TABLEFORMAT_BEGIN
 90
        5
170
     1
 91
        0
 92
    32768
 62
   257
 93
        1
300
CONTENTFORMAT
  1
CONTENTFORMAT_BEGIN
 90
        0
 91
        0
 92
      512
 93
        0
300

 40
0.0
140
1.0
 94
        5
 62
     0
340
55
144
0.25
309
CONTENTFORMAT_END
171
     0
 94
        0
309
TABLEFORMAT_END
  1
CELLSTYLE_BEGIN
 90
        1
 91
        1
300
_TITLE
309
CELLSTYLE_END
300
CELLSTYLE
  1
TABLEFORMAT_BEGIN
 90
        5
170
     1
 91
        0
 92
        0
 62
   257
 93
        1
300
CONTENTFORMAT
  1
CONTENTFORMAT_BEGIN
 90
        0
 91
        0
 92
      512
 93
        0
300

 40
0.0
140
1.0
 94
        5
 62
     0
340
55
144
0.18
309
CONTENTFORMAT_END
171
     0
 94
        0
309
TABLEFORMAT_END
  1
CELLSTYLE_BEGIN
 90
        2
 91
        1
300
_HEADER
309
CELLSTYLE_END
300
CELLSTYLE
  1
TABLEFORMAT_BEGIN
 90
        5
170
     1
 91
        0
 92
        0
 62
   257
 93
        1
300
CONTENTFORMAT
  1
CONTENTFORMAT_BEGIN
 90
        0
 91
        0
 92
      512
 93
        0
300

 40
0.0
140
1.0
 94
        2
 62
     0
340
55
144
0.18
309
CONTENTFORMAT_END
171
     0
 94
        0
309
TABLEFORMAT_END
  1
CELLSTYLE_BEGIN
 90
        3
 91
        2
300
_DATA
309
CELLSTYLE_END
  0
ENDSEC
  0
EOF
