  0
SECTION
  2
HEADER
  9
$ACADVER
  1
AC1009
  9
$FILLMODE
 70
 0
  9
$SPLFRAME
 70
 1
  9
$EXTMIN
 10
0
 20
0
 30
0.0
  9
$EXTMAX
 10
1058.33
 20
1058.33
 30
0.0
  0
ENDSEC
  0
SECTION
  2
TABLES
  0
TABLE
  2
LAYER
 70
1
  0
LAYER
  2
0
 70
     0
 62
     7
  6
CONTINUOUS
  0
ENDTAB
  0
ENDSEC
  0
SECTION
  2
ENTITIES
  0
LINE
  8
0
 62
     0
 10
0.0192925
 20
95.5834
 30
0.0
 11
285.769
 21
95.5834
 31
0.0
  0
LINE
  8
0
 62
     0
 10
285.769
 20
95.5834
 30
0.0
 11
285.769
 21
0.333485
 31
0.0
  0
LINE
  8
0
 62
     0
 10
285.769
 20
0.333485
 30
0.0
 11
0.0192925
 21
0.333485
 31
0.0
  0
LINE
  8
0
 62
     0
 10
0.0192925
 20
0.333485
 30
0.0
 11
0.0192925
 21
95.5834
 31
0.0
  0
LINE
  8
0
 62
     0
 10
123.986
 20
16.8589
 30
0.0
 11
123.986
 21
12.1584
 31
0.0
  0
LINE
  8
0
 62
     0
 10
123.986
 20
12.1584
 30
0.0
 11
84.3622
 21
12.1584
 31
0.0
  0
LINE
  8
0
 62
     0
 10
84.3622
 20
12.1584
 30
0.0
 11
84.3622
 21
15.3886
 31
0.0
  0
LINE
  8
0
 62
     0
 10
84.3622
 20
15.3886
 30
0.0
 11
77.6125
 21
15.3886
 31
0.0
  0
LINE
  8
0
 62
     0
 10
77.6125
 20
15.3886
 30
0.0
 11
77.6125
 21
12.1584
 31
0.0
  0
LINE
  8
0
 62
     0
 10
77.6125
 20
12.1584
 30
0.0
 11
76.787
 21
12.1584
 31
0.0
  0
LINE
  8
0
 62
     0
 10
76.787
 20
12.1584
 30
0.0
 11
76.787
 21
9.35824
 31
0.0
  0
LINE
  8
0
 62
     0
 10
76.787
 20
9.35824
 30
0.0
 11
77.6125
 21
9.35824
 31
0.0
  0
LINE
  8
0
 62
     0
 10
77.6125
 20
9.35824
 30
0.0
 11
77.6125
 21
3.08956
 31
0.0
  0
LINE
  8
0
 62
     0
 10
77.6125
 20
3.08956
 30
0.0
 11
79.3365
 21
3.08956
 31
0.0
  0
LINE
  8
0
 62
     0
 10
79.3365
 20
3.08956
 30
0.0
 11
79.3365
 21
1.88929
 31
0.0
  0
LINE
  8
0
 62
     0
 10
79.3365
 20
1.88929
 30
0.0
 11
82.6368
 21
1.88929
 31
0.0
  0
LINE
  8
0
 62
     0
 10
82.6368
 20
1.88929
 30
0.0
 11
82.6368
 21
3.08956
 31
0.0
  0
LINE
  8
0
 62
     0
 10
82.6368
 20
3.08956
 30
0.0
 11
84.3622
 21
3.08956
 31
0.0
  0
LINE
  8
0
 62
     0
 10
84.3622
 20
3.08956
 30
0.0
 11
84.3622
 21
7.55992
 31
0.0
  0
LINE
  8
0
 62
     0
 10
84.3622
 20
7.55992
 30
0.0
 11
123.986
 21
7.55992
 31
0.0
  0
LINE
  8
0
 62
     0
 10
123.986
 20
7.55992
 30
0.0
 11
123.986
 21
2.85943
 31
0.0
  0
LINE
  8
0
 62
     0
 10
123.986
 20
2.85943
 30
0.0
 11
137.987
 21
2.85943
 31
0.0
  0
LINE
  8
0
 62
     0
 10
137.987
 20
2.85943
 30
0.0
 11
137.987
 21
7.55992
 31
0.0
  0
LINE
  8
0
 62
     0
 10
137.987
 20
7.55992
 30
0.0
 11
177.611
 21
7.55992
 31
0.0
  0
LINE
  8
0
 62
     0
 10
177.611
 20
7.55992
 30
0.0
 11
177.611
 21
3.08956
 31
0.0
  0
LINE
  8
0
 62
     0
 10
177.611
 20
3.08956
 30
0.0
 11
179.336
 21
3.08956
 31
0.0
  0
LINE
  8
0
 62
     0
 10
179.336
 20
3.08956
 30
0.0
 11
179.336
 21
1.88929
 31
0.0
  0
LINE
  8
0
 62
     0
 10
179.336
 20
1.88929
 30
0.0
 11
182.637
 21
1.88929
 31
0.0
  0
LINE
  8
0
 62
     0
 10
182.637
 20
1.88929
 30
0.0
 11
182.637
 21
3.08956
 31
0.0
  0
LINE
  8
0
 62
     0
 10
182.637
 20
3.08956
 30
0.0
 11
184.362
 21
3.08956
 31
0.0
  0
LINE
  8
0
 62
     0
 10
184.362
 20
3.08956
 30
0.0
 11
184.362
 21
9.35824
 31
0.0
  0
LINE
  8
0
 62
     0
 10
184.362
 20
9.35824
 30
0.0
 11
185.186
 21
9.35824
 31
0.0
  0
LINE
  8
0
 62
     0
 10
185.186
 20
9.35824
 30
0.0
 11
185.186
 21
12.1584
 31
0.0
  0
LINE
  8
0
 62
     0
 10
185.186
 20
12.1584
 30
0.0
 11
184.362
 21
12.1584
 31
0.0
  0
LINE
  8
0
 62
     0
 10
184.362
 20
12.1584
 30
0.0
 11
184.362
 21
15.3886
 31
0.0
  0
LINE
  8
0
 62
     0
 10
184.362
 20
15.3886
 30
0.0
 11
177.611
 21
15.3886
 31
0.0
  0
LINE
  8
0
 62
     0
 10
177.611
 20
15.3886
 30
0.0
 11
177.611
 21
12.1584
 31
0.0
  0
LINE
  8
0
 62
     0
 10
177.611
 20
12.1584
 30
0.0
 11
137.987
 21
12.1584
 31
0.0
  0
LINE
  8
0
 62
     0
 10
137.987
 20
12.1584
 30
0.0
 11
137.987
 21
16.8589
 31
0.0
  0
LINE
  8
0
 62
     0
 10
137.987
 20
16.8589
 30
0.0
 11
123.986
 21
16.8589
 31
0.0
  0
LINE
  8
0
 62
     0
 10
4.9251
 20
16.8589
 30
0.0
 11
18.9246
 21
16.8589
 31
0.0
  0
LINE
  8
0
 62
     0
 10
18.9246
 20
16.8589
 30
0.0
 11
18.9246
 21
2.85943
 31
0.0
  0
LINE
  8
0
 62
     0
 10
18.9246
 20
2.85943
 30
0.0
 11
4.9251
 21
2.85943
 31
0.0
  0
LINE
  8
0
 62
     0
 10
4.9251
 20
2.85943
 30
0.0
 11
4.9251
 21
16.8589
 31
0.0
  0
LINE
  8
0
 62
     0
 10
28.7362
 20
16.8589
 30
0.0
 11
42.7373
 21
16.8589
 31
0.0
  0
LINE
  8
0
 62
     0
 10
42.7373
 20
16.8589
 30
0.0
 11
42.7373
 21
2.85943
 31
0.0
  0
LINE
  8
0
 62
     0
 10
42.7373
 20
2.85943
 30
0.0
 11
28.7362
 21
2.85943
 31
0.0
  0
LINE
  8
0
 62
     0
 10
28.7362
 20
2.85943
 30
0.0
 11
28.7362
 21
16.8589
 31
0.0
  0
LINE
  8
0
 62
     0
 10
52.5501
 20
16.8589
 30
0.0
 11
66.5498
 21
16.8589
 31
0.0
  0
LINE
  8
0
 62
     0
 10
66.5498
 20
16.8589
 30
0.0
 11
66.5498
 21
2.85943
 31
0.0
  0
LINE
  8
0
 62
     0
 10
66.5498
 20
2.85943
 30
0.0
 11
52.5501
 21
2.85943
 31
0.0
  0
LINE
  8
0
 62
     0
 10
52.5501
 20
2.85943
 30
0.0
 11
52.5501
 21
16.8589
 31
0.0
  0
LINE
  8
0
 62
     0
 10
195.425
 20
16.8589
 30
0.0
 11
209.425
 21
16.8589
 31
0.0
  0
LINE
  8
0
 62
     0
 10
209.425
 20
16.8589
 30
0.0
 11
209.425
 21
2.85943
 31
0.0
  0
LINE
  8
0
 62
     0
 10
209.425
 20
2.85943
 30
0.0
 11
195.425
 21
2.85943
 31
0.0
  0
LINE
  8
0
 62
     0
 10
195.425
 20
2.85943
 30
0.0
 11
195.425
 21
16.8589
 31
0.0
  0
LINE
  8
0
 62
     0
 10
219.236
 20
16.8589
 30
0.0
 11
233.237
 21
16.8589
 31
0.0
  0
LINE
  8
0
 62
     0
 10
233.237
 20
16.8589
 30
0.0
 11
233.237
 21
2.85943
 31
0.0
  0
LINE
  8
0
 62
     0
 10
233.237
 20
2.85943
 30
0.0
 11
219.236
 21
2.85943
 31
0.0
  0
LINE
  8
0
 62
     0
 10
219.236
 20
2.85943
 30
0.0
 11
219.236
 21
16.8589
 31
0.0
  0
LINE
  8
0
 62
     0
 10
243.05
 20
16.8589
 30
0.0
 11
257.05
 21
16.8589
 31
0.0
  0
LINE
  8
0
 62
     0
 10
257.05
 20
16.8589
 30
0.0
 11
257.05
 21
2.85943
 31
0.0
  0
LINE
  8
0
 62
     0
 10
257.05
 20
2.85943
 30
0.0
 11
243.05
 21
2.85943
 31
0.0
  0
LINE
  8
0
 62
     0
 10
243.05
 20
2.85943
 30
0.0
 11
243.05
 21
16.8589
 31
0.0
  0
LINE
  8
0
 62
     0
 10
266.861
 20
16.8589
 30
0.0
 11
280.862
 21
16.8589
 31
0.0
  0
LINE
  8
0
 62
     0
 10
280.862
 20
16.8589
 30
0.0
 11
280.862
 21
2.85943
 31
0.0
  0
LINE
  8
0
 62
     0
 10
280.862
 20
2.85943
 30
0.0
 11
266.861
 21
2.85943
 31
0.0
  0
LINE
  8
0
 62
     0
 10
266.861
 20
2.85943
 30
0.0
 11
266.861
 21
16.8589
 31
0.0
  0
LINE
  8
0
 62
     0
 10
14.4501
 20
35.9089
 30
0.0
 11
14.4501
 21
31.2084
 31
0.0
  0
LINE
  8
0
 62
     0
 10
14.4501
 20
31.2084
 30
0.0
 11
12.9246
 21
31.2084
 31
0.0
  0
LINE
  8
0
 62
     0
 10
12.9246
 20
31.2084
 30
0.0
 11
12.9246
 21
34.4386
 31
0.0
  0
LINE
  8
0
 62
     0
 10
12.9246
 20
34.4386
 30
0.0
 11
6.17499
 21
34.4386
 31
0.0
  0
LINE
  8
0
 62
     0
 10
6.17499
 20
34.4386
 30
0.0
 11
6.17499
 21
31.2084
 31
0.0
  0
LINE
  8
0
 62
     0
 10
6.17499
 20
31.2084
 30
0.0
 11
5.34956
 21
31.2084
 31
0.0
  0
LINE
  8
0
 62
     0
 10
5.34956
 20
31.2084
 30
0.0
 11
5.34956
 21
28.4082
 31
0.0
  0
LINE
  8
0
 62
     0
 10
5.34956
 20
28.4082
 30
0.0
 11
6.17499
 21
28.4082
 31
0.0
  0
LINE
  8
0
 62
     0
 10
6.17499
 20
28.4082
 30
0.0
 11
6.17499
 21
22.1396
 31
0.0
  0
LINE
  8
0
 62
     0
 10
6.17499
 20
22.1396
 30
0.0
 11
7.90028
 21
22.1396
 31
0.0
  0
LINE
  8
0
 62
     0
 10
7.90028
 20
22.1396
 30
0.0
 11
7.90028
 21
20.9393
 31
0.0
  0
LINE
  8
0
 62
     0
 10
7.90028
 20
20.9393
 30
0.0
 11
11.1993
 21
20.9393
 31
0.0
  0
LINE
  8
0
 62
     0
 10
11.1993
 20
20.9393
 30
0.0
 11
11.1993
 21
22.1396
 31
0.0
  0
LINE
  8
0
 62
     0
 10
11.1993
 20
22.1396
 30
0.0
 11
12.9246
 21
22.1396
 31
0.0
  0
LINE
  8
0
 62
     0
 10
12.9246
 20
22.1396
 30
0.0
 11
12.9246
 21
26.6085
 31
0.0
  0
LINE
  8
0
 62
     0
 10
12.9246
 20
26.6085
 30
0.0
 11
14.4501
 21
26.6085
 31
0.0
  0
LINE
  8
0
 62
     0
 10
14.4501
 20
26.6085
 30
0.0
 11
14.4501
 21
21.9094
 31
0.0
  0
LINE
  8
0
 62
     0
 10
14.4501
 20
21.9094
 30
0.0
 11
28.4496
 21
21.9094
 31
0.0
  0
LINE
  8
0
 62
     0
 10
28.4496
 20
21.9094
 30
0.0
 11
28.4496
 21
26.6085
 31
0.0
  0
LINE
  8
0
 62
     0
 10
28.4496
 20
26.6085
 30
0.0
 11
29.9751
 21
26.6085
 31
0.0
  0
LINE
  8
0
 62
     0
 10
29.9751
 20
26.6085
 30
0.0
 11
29.9751
 21
22.1396
 31
0.0
  0
LINE
  8
0
 62
     0
 10
29.9751
 20
22.1396
 30
0.0
 11
31.7004
 21
22.1396
 31
0.0
  0
LINE
  8
0
 62
     0
 10
31.7004
 20
22.1396
 30
0.0
 11
31.7004
 21
20.9393
 31
0.0
  0
LINE
  8
0
 62
     0
 10
31.7004
 20
20.9393
 30
0.0
 11
34.9994
 21
20.9393
 31
0.0
  0
LINE
  8
0
 62
     0
 10
34.9994
 20
20.9393
 30
0.0
 11
34.9994
 21
22.1396
 31
0.0
  0
LINE
  8
0
 62
     0
 10
34.9994
 20
22.1396
 30
0.0
 11
36.7249
 21
22.1396
 31
0.0
  0
LINE
  8
0
 62
     0
 10
36.7249
 20
22.1396
 30
0.0
 11
36.7249
 21
28.4082
 31
0.0
  0
LINE
  8
0
 62
     0
 10
36.7249
 20
28.4082
 30
0.0
 11
37.55
 21
28.4082
 31
0.0
  0
LINE
  8
0
 62
     0
 10
37.55
 20
28.4082
 30
0.0
 11
37.55
 21
31.2084
 31
0.0
  0
LINE
  8
0
 62
     0
 10
37.55
 20
31.2084
 30
0.0
 11
36.7249
 21
31.2084
 31
0.0
  0
LINE
  8
0
 62
     0
 10
36.7249
 20
31.2084
 30
0.0
 11
36.7249
 21
34.4386
 31
0.0
  0
LINE
  8
0
 62
     0
 10
36.7249
 20
34.4386
 30
0.0
 11
29.9751
 21
34.4386
 31
0.0
  0
LINE
  8
0
 62
     0
 10
29.9751
 20
34.4386
 30
0.0
 11
29.9751
 21
31.2084
 31
0.0
  0
LINE
  8
0
 62
     0
 10
29.9751
 20
31.2084
 30
0.0
 11
28.4496
 21
31.2084
 31
0.0
  0
LINE
  8
0
 62
     0
 10
28.4496
 20
31.2084
 30
0.0
 11
28.4496
 21
35.9089
 31
0.0
  0
LINE
  8
0
 62
     0
 10
28.4496
 20
35.9089
 30
0.0
 11
14.4501
 21
35.9089
 31
0.0
  0
LINE
  8
0
 62
     0
 10
252.574
 20
35.9089
 30
0.0
 11
252.574
 21
31.2084
 31
0.0
  0
LINE
  8
0
 62
     0
 10
252.574
 20
31.2084
 30
0.0
 11
251.05
 21
31.2084
 31
0.0
  0
LINE
  8
0
 62
     0
 10
251.05
 20
31.2084
 30
0.0
 11
251.05
 21
34.4386
 31
0.0
  0
LINE
  8
0
 62
     0
 10
251.05
 20
34.4386
 30
0.0
 11
244.3
 21
34.4386
 31
0.0
  0
LINE
  8
0
 62
     0
 10
244.3
 20
34.4386
 30
0.0
 11
244.3
 21
31.2084
 31
0.0
  0
LINE
  8
0
 62
     0
 10
244.3
 20
31.2084
 30
0.0
 11
243.475
 21
31.2084
 31
0.0
  0
LINE
  8
0
 62
     0
 10
243.475
 20
31.2084
 30
0.0
 11
243.475
 21
28.4082
 31
0.0
  0
LINE
  8
0
 62
     0
 10
243.475
 20
28.4082
 30
0.0
 11
244.3
 21
28.4082
 31
0.0
  0
LINE
  8
0
 62
     0
 10
244.3
 20
28.4082
 30
0.0
 11
244.3
 21
22.1396
 31
0.0
  0
LINE
  8
0
 62
     0
 10
244.3
 20
22.1396
 30
0.0
 11
246.025
 21
22.1396
 31
0.0
  0
LINE
  8
0
 62
     0
 10
246.025
 20
22.1396
 30
0.0
 11
246.025
 21
20.9393
 31
0.0
  0
LINE
  8
0
 62
     0
 10
246.025
 20
20.9393
 30
0.0
 11
249.324
 21
20.9393
 31
0.0
  0
LINE
  8
0
 62
     0
 10
249.324
 20
20.9393
 30
0.0
 11
249.324
 21
22.1396
 31
0.0
  0
LINE
  8
0
 62
     0
 10
249.324
 20
22.1396
 30
0.0
 11
251.05
 21
22.1396
 31
0.0
  0
LINE
  8
0
 62
     0
 10
251.05
 20
22.1396
 30
0.0
 11
251.05
 21
26.6085
 31
0.0
  0
LINE
  8
0
 62
     0
 10
251.05
 20
26.6085
 30
0.0
 11
252.574
 21
26.6085
 31
0.0
  0
LINE
  8
0
 62
     0
 10
252.574
 20
26.6085
 30
0.0
 11
252.574
 21
21.9094
 31
0.0
  0
LINE
  8
0
 62
     0
 10
252.574
 20
21.9094
 30
0.0
 11
266.575
 21
21.9094
 31
0.0
  0
LINE
  8
0
 62
     0
 10
266.575
 20
21.9094
 30
0.0
 11
266.575
 21
26.6085
 31
0.0
  0
LINE
  8
0
 62
     0
 10
266.575
 20
26.6085
 30
0.0
 11
268.1
 21
26.6085
 31
0.0
  0
LINE
  8
0
 62
     0
 10
268.1
 20
26.6085
 30
0.0
 11
268.1
 21
22.1396
 31
0.0
  0
LINE
  8
0
 62
     0
 10
268.1
 20
22.1396
 30
0.0
 11
269.825
 21
22.1396
 31
0.0
  0
LINE
  8
0
 62
     0
 10
269.825
 20
22.1396
 30
0.0
 11
269.825
 21
20.9393
 31
0.0
  0
LINE
  8
0
 62
     0
 10
269.825
 20
20.9393
 30
0.0
 11
273.124
 21
20.9393
 31
0.0
  0
LINE
  8
0
 62
     0
 10
273.124
 20
20.9393
 30
0.0
 11
273.124
 21
22.1396
 31
0.0
  0
LINE
  8
0
 62
     0
 10
273.124
 20
22.1396
 30
0.0
 11
274.85
 21
22.1396
 31
0.0
  0
LINE
  8
0
 62
     0
 10
274.85
 20
22.1396
 30
0.0
 11
274.85
 21
28.4082
 31
0.0
  0
LINE
  8
0
 62
     0
 10
274.85
 20
28.4082
 30
0.0
 11
275.675
 21
28.4082
 31
0.0
  0
LINE
  8
0
 62
     0
 10
275.675
 20
28.4082
 30
0.0
 11
275.675
 21
31.2084
 31
0.0
  0
LINE
  8
0
 62
     0
 10
275.675
 20
31.2084
 30
0.0
 11
274.85
 21
31.2084
 31
0.0
  0
LINE
  8
0
 62
     0
 10
274.85
 20
31.2084
 30
0.0
 11
274.85
 21
34.4386
 31
0.0
  0
LINE
  8
0
 62
     0
 10
274.85
 20
34.4386
 30
0.0
 11
268.1
 21
34.4386
 31
0.0
  0
LINE
  8
0
 62
     0
 10
268.1
 20
34.4386
 30
0.0
 11
268.1
 21
31.2084
 31
0.0
  0
LINE
  8
0
 62
     0
 10
268.1
 20
31.2084
 30
0.0
 11
266.575
 21
31.2084
 31
0.0
  0
LINE
  8
0
 62
     0
 10
266.575
 20
31.2084
 30
0.0
 11
266.575
 21
35.9089
 31
0.0
  0
LINE
  8
0
 62
     0
 10
266.575
 20
35.9089
 30
0.0
 11
252.574
 21
35.9089
 31
0.0
  0
LINE
  8
0
 62
     0
 10
45.4064
 20
35.9089
 30
0.0
 11
59.406
 21
35.9089
 31
0.0
  0
LINE
  8
0
 62
     0
 10
59.406
 20
35.9089
 30
0.0
 11
59.406
 21
21.9094
 31
0.0
  0
LINE
  8
0
 62
     0
 10
59.406
 20
21.9094
 30
0.0
 11
45.4064
 21
21.9094
 31
0.0
  0
LINE
  8
0
 62
     0
 10
45.4064
 20
21.9094
 30
0.0
 11
45.4064
 21
35.9089
 31
0.0
  0
LINE
  8
0
 62
     0
 10
64.4564
 20
35.9089
 30
0.0
 11
78.456
 21
35.9089
 31
0.0
  0
LINE
  8
0
 62
     0
 10
78.456
 20
35.9089
 30
0.0
 11
78.456
 21
21.9094
 31
0.0
  0
LINE
  8
0
 62
     0
 10
78.456
 20
21.9094
 30
0.0
 11
64.4564
 21
21.9094
 31
0.0
  0
LINE
  8
0
 62
     0
 10
64.4564
 20
21.9094
 30
0.0
 11
64.4564
 21
35.9089
 31
0.0
  0
LINE
  8
0
 62
     0
 10
83.5064
 20
35.9089
 30
0.0
 11
97.506
 21
35.9089
 31
0.0
  0
LINE
  8
0
 62
     0
 10
97.506
 20
35.9089
 30
0.0
 11
97.506
 21
21.9094
 31
0.0
  0
LINE
  8
0
 62
     0
 10
97.506
 20
21.9094
 30
0.0
 11
83.5064
 21
21.9094
 31
0.0
  0
LINE
  8
0
 62
     0
 10
83.5064
 20
21.9094
 30
0.0
 11
83.5064
 21
35.9089
 31
0.0
  0
LINE
  8
0
 62
     0
 10
102.556
 20
35.9089
 30
0.0
 11
116.556
 21
35.9089
 31
0.0
  0
LINE
  8
0
 62
     0
 10
116.556
 20
35.9089
 30
0.0
 11
116.556
 21
21.9094
 31
0.0
  0
LINE
  8
0
 62
     0
 10
116.556
 20
21.9094
 30
0.0
 11
102.556
 21
21.9094
 31
0.0
  0
LINE
  8
0
 62
     0
 10
102.556
 20
21.9094
 30
0.0
 11
102.556
 21
35.9089
 31
0.0
  0
LINE
  8
0
 62
     0
 10
121.606
 20
35.9089
 30
0.0
 11
135.606
 21
35.9089
 31
0.0
  0
LINE
  8
0
 62
     0
 10
135.606
 20
35.9089
 30
0.0
 11
135.606
 21
21.9094
 31
0.0
  0
LINE
  8
0
 62
     0
 10
135.606
 20
21.9094
 30
0.0
 11
121.606
 21
21.9094
 31
0.0
  0
LINE
  8
0
 62
     0
 10
121.606
 20
21.9094
 30
0.0
 11
121.606
 21
35.9089
 31
0.0
  0
LINE
  8
0
 62
     0
 10
140.656
 20
35.9089
 30
0.0
 11
154.656
 21
35.9089
 31
0.0
  0
LINE
  8
0
 62
     0
 10
154.656
 20
35.9089
 30
0.0
 11
154.656
 21
21.9094
 31
0.0
  0
LINE
  8
0
 62
     0
 10
154.656
 20
21.9094
 30
0.0
 11
140.656
 21
21.9094
 31
0.0
  0
LINE
  8
0
 62
     0
 10
140.656
 20
21.9094
 30
0.0
 11
140.656
 21
35.9089
 31
0.0
  0
LINE
  8
0
 62
     0
 10
159.706
 20
35.9089
 30
0.0
 11
173.706
 21
35.9089
 31
0.0
  0
LINE
  8
0
 62
     0
 10
173.706
 20
35.9089
 30
0.0
 11
173.706
 21
21.9094
 31
0.0
  0
LINE
  8
0
 62
     0
 10
173.706
 20
21.9094
 30
0.0
 11
159.706
 21
21.9094
 31
0.0
  0
LINE
  8
0
 62
     0
 10
159.706
 20
21.9094
 30
0.0
 11
159.706
 21
35.9089
 31
0.0
  0
LINE
  8
0
 62
     0
 10
178.756
 20
35.9089
 30
0.0
 11
192.756
 21
35.9089
 31
0.0
  0
LINE
  8
0
 62
     0
 10
192.756
 20
35.9089
 30
0.0
 11
192.756
 21
21.9094
 31
0.0
  0
LINE
  8
0
 62
     0
 10
192.756
 20
21.9094
 30
0.0
 11
178.756
 21
21.9094
 31
0.0
  0
LINE
  8
0
 62
     0
 10
178.756
 20
21.9094
 30
0.0
 11
178.756
 21
35.9089
 31
0.0
  0
LINE
  8
0
 62
     0
 10
197.806
 20
35.9089
 30
0.0
 11
211.806
 21
35.9089
 31
0.0
  0
LINE
  8
0
 62
     0
 10
211.806
 20
35.9089
 30
0.0
 11
211.806
 21
21.9094
 31
0.0
  0
LINE
  8
0
 62
     0
 10
211.806
 20
21.9094
 30
0.0
 11
197.806
 21
21.9094
 31
0.0
  0
LINE
  8
0
 62
     0
 10
197.806
 20
21.9094
 30
0.0
 11
197.806
 21
35.9089
 31
0.0
  0
LINE
  8
0
 62
     0
 10
216.856
 20
35.9089
 30
0.0
 11
230.856
 21
35.9089
 31
0.0
  0
LINE
  8
0
 62
     0
 10
230.856
 20
35.9089
 30
0.0
 11
230.856
 21
21.9094
 31
0.0
  0
LINE
  8
0
 62
     0
 10
230.856
 20
21.9094
 30
0.0
 11
216.856
 21
21.9094
 31
0.0
  0
LINE
  8
0
 62
     0
 10
216.856
 20
21.9094
 30
0.0
 11
216.856
 21
35.9089
 31
0.0
  0
LINE
  8
0
 62
     0
 10
257.336
 20
54.9589
 30
0.0
 11
257.336
 21
50.2585
 31
0.0
  0
LINE
  8
0
 62
     0
 10
257.336
 20
50.2585
 30
0.0
 11
255.812
 21
50.2585
 31
0.0
  0
LINE
  8
0
 62
     0
 10
255.812
 20
50.2585
 30
0.0
 11
255.812
 21
53.4885
 31
0.0
  0
LINE
  8
0
 62
     0
 10
255.812
 20
53.4885
 30
0.0
 11
249.063
 21
53.4885
 31
0.0
  0
LINE
  8
0
 62
     0
 10
249.063
 20
53.4885
 30
0.0
 11
249.063
 21
50.2585
 31
0.0
  0
LINE
  8
0
 62
     0
 10
249.063
 20
50.2585
 30
0.0
 11
248.237
 21
50.2585
 31
0.0
  0
LINE
  8
0
 62
     0
 10
248.237
 20
50.2585
 30
0.0
 11
248.237
 21
47.4581
 31
0.0
  0
LINE
  8
0
 62
     0
 10
248.237
 20
47.4581
 30
0.0
 11
249.063
 21
47.4581
 31
0.0
  0
LINE
  8
0
 62
     0
 10
249.063
 20
47.4581
 30
0.0
 11
249.063
 21
41.1896
 31
0.0
  0
LINE
  8
0
 62
     0
 10
249.063
 20
41.1896
 30
0.0
 11
250.787
 21
41.1896
 31
0.0
  0
LINE
  8
0
 62
     0
 10
250.787
 20
41.1896
 30
0.0
 11
250.787
 21
39.9891
 31
0.0
  0
LINE
  8
0
 62
     0
 10
250.787
 20
39.9891
 30
0.0
 11
254.085
 21
39.9891
 31
0.0
  0
LINE
  8
0
 62
     0
 10
254.085
 20
39.9891
 30
0.0
 11
254.085
 21
41.1896
 31
0.0
  0
LINE
  8
0
 62
     0
 10
254.085
 20
41.1896
 30
0.0
 11
255.812
 21
41.1896
 31
0.0
  0
LINE
  8
0
 62
     0
 10
255.812
 20
41.1896
 30
0.0
 11
255.812
 21
45.6586
 31
0.0
  0
LINE
  8
0
 62
     0
 10
255.812
 20
45.6586
 30
0.0
 11
257.336
 21
45.6586
 31
0.0
  0
LINE
  8
0
 62
     0
 10
257.336
 20
45.6586
 30
0.0
 11
257.336
 21
40.9593
 31
0.0
  0
LINE
  8
0
 62
     0
 10
257.336
 20
40.9593
 30
0.0
 11
271.337
 21
40.9593
 31
0.0
  0
LINE
  8
0
 62
     0
 10
271.337
 20
40.9593
 30
0.0
 11
271.337
 21
45.6586
 31
0.0
  0
LINE
  8
0
 62
     0
 10
271.337
 20
45.6586
 30
0.0
 11
272.861
 21
45.6586
 31
0.0
  0
LINE
  8
0
 62
     0
 10
272.861
 20
45.6586
 30
0.0
 11
272.861
 21
41.1896
 31
0.0
  0
LINE
  8
0
 62
     0
 10
272.861
 20
41.1896
 30
0.0
 11
274.586
 21
41.1896
 31
0.0
  0
LINE
  8
0
 62
     0
 10
274.586
 20
41.1896
 30
0.0
 11
274.586
 21
39.9891
 31
0.0
  0
LINE
  8
0
 62
     0
 10
274.586
 20
39.9891
 30
0.0
 11
277.887
 21
39.9891
 31
0.0
  0
LINE
  8
0
 62
     0
 10
277.887
 20
39.9891
 30
0.0
 11
277.887
 21
41.1896
 31
0.0
  0
LINE
  8
0
 62
     0
 10
277.887
 20
41.1896
 30
0.0
 11
279.612
 21
41.1896
 31
0.0
  0
LINE
  8
0
 62
     0
 10
279.612
 20
41.1896
 30
0.0
 11
279.612
 21
47.4581
 31
0.0
  0
LINE
  8
0
 62
     0
 10
279.612
 20
47.4581
 30
0.0
 11
280.436
 21
47.4581
 31
0.0
  0
LINE
  8
0
 62
     0
 10
280.436
 20
47.4581
 30
0.0
 11
280.436
 21
50.2585
 31
0.0
  0
LINE
  8
0
 62
     0
 10
280.436
 20
50.2585
 30
0.0
 11
279.612
 21
50.2585
 31
0.0
  0
LINE
  8
0
 62
     0
 10
279.612
 20
50.2585
 30
0.0
 11
279.612
 21
53.4885
 31
0.0
  0
LINE
  8
0
 62
     0
 10
279.612
 20
53.4885
 30
0.0
 11
272.861
 21
53.4885
 31
0.0
  0
LINE
  8
0
 62
     0
 10
272.861
 20
53.4885
 30
0.0
 11
272.861
 21
50.2585
 31
0.0
  0
LINE
  8
0
 62
     0
 10
272.861
 20
50.2585
 30
0.0
 11
271.337
 21
50.2585
 31
0.0
  0
LINE
  8
0
 62
     0
 10
271.337
 20
50.2585
 30
0.0
 11
271.337
 21
54.9589
 31
0.0
  0
LINE
  8
0
 62
     0
 10
271.337
 20
54.9589
 30
0.0
 11
257.336
 21
54.9589
 31
0.0
  0
LINE
  8
0
 62
     0
 10
9.68622
 20
54.9589
 30
0.0
 11
23.6871
 21
54.9589
 31
0.0
  0
LINE
  8
0
 62
     0
 10
23.6871
 20
54.9589
 30
0.0
 11
23.6871
 21
40.9593
 31
0.0
  0
LINE
  8
0
 62
     0
 10
23.6871
 20
40.9593
 30
0.0
 11
9.68622
 21
40.9593
 31
0.0
  0
LINE
  8
0
 62
     0
 10
9.68622
 20
40.9593
 30
0.0
 11
9.68622
 21
54.9589
 31
0.0
  0
LINE
  8
0
 62
     0
 10
35.8814
 20
54.9589
 30
0.0
 11
49.881
 21
54.9589
 31
0.0
  0
LINE
  8
0
 62
     0
 10
49.881
 20
54.9589
 30
0.0
 11
49.881
 21
40.9593
 31
0.0
  0
LINE
  8
0
 62
     0
 10
49.881
 20
40.9593
 30
0.0
 11
35.8814
 21
40.9593
 31
0.0
  0
LINE
  8
0
 62
     0
 10
35.8814
 20
40.9593
 30
0.0
 11
35.8814
 21
54.9589
 31
0.0
  0
LINE
  8
0
 62
     0
 10
54.9314
 20
54.9589
 30
0.0
 11
68.931
 21
54.9589
 31
0.0
  0
LINE
  8
0
 62
     0
 10
68.931
 20
54.9589
 30
0.0
 11
68.931
 21
40.9593
 31
0.0
  0
LINE
  8
0
 62
     0
 10
68.931
 20
40.9593
 30
0.0
 11
54.9314
 21
40.9593
 31
0.0
  0
LINE
  8
0
 62
     0
 10
54.9314
 20
40.9593
 30
0.0
 11
54.9314
 21
54.9589
 31
0.0
  0
LINE
  8
0
 62
     0
 10
73.9814
 20
54.9589
 30
0.0
 11
87.981
 21
54.9589
 31
0.0
  0
LINE
  8
0
 62
     0
 10
87.981
 20
54.9589
 30
0.0
 11
87.981
 21
40.9593
 31
0.0
  0
LINE
  8
0
 62
     0
 10
87.981
 20
40.9593
 30
0.0
 11
73.9814
 21
40.9593
 31
0.0
  0
LINE
  8
0
 62
     0
 10
73.9814
 20
40.9593
 30
0.0
 11
73.9814
 21
54.9589
 31
0.0
  0
LINE
  8
0
 62
     0
 10
93.0314
 20
54.9589
 30
0.0
 11
107.031
 21
54.9589
 31
0.0
  0
LINE
  8
0
 62
     0
 10
107.031
 20
54.9589
 30
0.0
 11
107.031
 21
40.9593
 31
0.0
  0
LINE
  8
0
 62
     0
 10
107.031
 20
40.9593
 30
0.0
 11
93.0314
 21
40.9593
 31
0.0
  0
LINE
  8
0
 62
     0
 10
93.0314
 20
40.9593
 30
0.0
 11
93.0314
 21
54.9589
 31
0.0
  0
LINE
  8
0
 62
     0
 10
112.081
 20
54.9589
 30
0.0
 11
126.081
 21
54.9589
 31
0.0
  0
LINE
  8
0
 62
     0
 10
126.081
 20
54.9589
 30
0.0
 11
126.081
 21
40.9593
 31
0.0
  0
LINE
  8
0
 62
     0
 10
126.081
 20
40.9593
 30
0.0
 11
112.081
 21
40.9593
 31
0.0
  0
LINE
  8
0
 62
     0
 10
112.081
 20
40.9593
 30
0.0
 11
112.081
 21
54.9589
 31
0.0
  0
LINE
  8
0
 62
     0
 10
131.131
 20
54.9589
 30
0.0
 11
145.131
 21
54.9589
 31
0.0
  0
LINE
  8
0
 62
     0
 10
145.131
 20
54.9589
 30
0.0
 11
145.131
 21
40.9593
 31
0.0
  0
LINE
  8
0
 62
     0
 10
145.131
 20
40.9593
 30
0.0
 11
131.131
 21
40.9593
 31
0.0
  0
LINE
  8
0
 62
     0
 10
131.131
 20
40.9593
 30
0.0
 11
131.131
 21
54.9589
 31
0.0
  0
LINE
  8
0
 62
     0
 10
150.181
 20
54.9589
 30
0.0
 11
164.181
 21
54.9589
 31
0.0
  0
LINE
  8
0
 62
     0
 10
164.181
 20
54.9589
 30
0.0
 11
164.181
 21
40.9593
 31
0.0
  0
LINE
  8
0
 62
     0
 10
164.181
 20
40.9593
 30
0.0
 11
150.181
 21
40.9593
 31
0.0
  0
LINE
  8
0
 62
     0
 10
150.181
 20
40.9593
 30
0.0
 11
150.181
 21
54.9589
 31
0.0
  0
LINE
  8
0
 62
     0
 10
169.231
 20
54.9589
 30
0.0
 11
183.231
 21
54.9589
 31
0.0
  0
LINE
  8
0
 62
     0
 10
183.231
 20
54.9589
 30
0.0
 11
183.231
 21
40.9593
 31
0.0
  0
LINE
  8
0
 62
     0
 10
183.231
 20
40.9593
 30
0.0
 11
169.231
 21
40.9593
 31
0.0
  0
LINE
  8
0
 62
     0
 10
169.231
 20
40.9593
 30
0.0
 11
169.231
 21
54.9589
 31
0.0
  0
LINE
  8
0
 62
     0
 10
188.281
 20
54.9589
 30
0.0
 11
202.281
 21
54.9589
 31
0.0
  0
LINE
  8
0
 62
     0
 10
202.281
 20
54.9589
 30
0.0
 11
202.281
 21
40.9593
 31
0.0
  0
LINE
  8
0
 62
     0
 10
202.281
 20
40.9593
 30
0.0
 11
188.281
 21
40.9593
 31
0.0
  0
LINE
  8
0
 62
     0
 10
188.281
 20
40.9593
 30
0.0
 11
188.281
 21
54.9589
 31
0.0
  0
LINE
  8
0
 62
     0
 10
207.331
 20
54.9589
 30
0.0
 11
221.331
 21
54.9589
 31
0.0
  0
LINE
  8
0
 62
     0
 10
221.331
 20
54.9589
 30
0.0
 11
221.331
 21
40.9593
 31
0.0
  0
LINE
  8
0
 62
     0
 10
221.331
 20
40.9593
 30
0.0
 11
207.331
 21
40.9593
 31
0.0
  0
LINE
  8
0
 62
     0
 10
207.331
 20
40.9593
 30
0.0
 11
207.331
 21
54.9589
 31
0.0
  0
LINE
  8
0
 62
     0
 10
226.381
 20
54.9589
 30
0.0
 11
240.381
 21
54.9589
 31
0.0
  0
LINE
  8
0
 62
     0
 10
240.381
 20
54.9589
 30
0.0
 11
240.381
 21
40.9593
 31
0.0
  0
LINE
  8
0
 62
     0
 10
240.381
 20
40.9593
 30
0.0
 11
226.381
 21
40.9593
 31
0.0
  0
LINE
  8
0
 62
     0
 10
226.381
 20
40.9593
 30
0.0
 11
226.381
 21
54.9589
 31
0.0
  0
LINE
  8
0
 62
     0
 10
7.30635
 20
74.0089
 30
0.0
 11
21.3058
 21
74.0089
 31
0.0
  0
LINE
  8
0
 62
     0
 10
21.3058
 20
74.0089
 30
0.0
 11
21.3058
 21
60.0093
 31
0.0
  0
LINE
  8
0
 62
     0
 10
21.3058
 20
60.0093
 30
0.0
 11
7.30635
 21
60.0093
 31
0.0
  0
LINE
  8
0
 62
     0
 10
7.30635
 20
60.0093
 30
0.0
 11
7.30635
 21
74.0089
 31
0.0
  0
LINE
  8
0
 62
     0
 10
31.1188
 20
74.0089
 30
0.0
 11
45.1185
 21
74.0089
 31
0.0
  0
LINE
  8
0
 62
     0
 10
45.1185
 20
74.0089
 30
0.0
 11
45.1185
 21
60.0093
 31
0.0
  0
LINE
  8
0
 62
     0
 10
45.1185
 20
60.0093
 30
0.0
 11
31.1188
 21
60.0093
 31
0.0
  0
LINE
  8
0
 62
     0
 10
31.1188
 20
60.0093
 30
0.0
 11
31.1188
 21
74.0089
 31
0.0
  0
LINE
  8
0
 62
     0
 10
50.1689
 20
74.0089
 30
0.0
 11
64.1685
 21
74.0089
 31
0.0
  0
LINE
  8
0
 62
     0
 10
64.1685
 20
74.0089
 30
0.0
 11
64.1685
 21
60.0093
 31
0.0
  0
LINE
  8
0
 62
     0
 10
64.1685
 20
60.0093
 30
0.0
 11
50.1689
 21
60.0093
 31
0.0
  0
LINE
  8
0
 62
     0
 10
50.1689
 20
60.0093
 30
0.0
 11
50.1689
 21
74.0089
 31
0.0
  0
LINE
  8
0
 62
     0
 10
69.2189
 20
74.0089
 30
0.0
 11
83.2185
 21
74.0089
 31
0.0
  0
LINE
  8
0
 62
     0
 10
83.2185
 20
74.0089
 30
0.0
 11
83.2185
 21
60.0093
 31
0.0
  0
LINE
  8
0
 62
     0
 10
83.2185
 20
60.0093
 30
0.0
 11
69.2189
 21
60.0093
 31
0.0
  0
LINE
  8
0
 62
     0
 10
69.2189
 20
60.0093
 30
0.0
 11
69.2189
 21
74.0089
 31
0.0
  0
LINE
  8
0
 62
     0
 10
88.2689
 20
74.0089
 30
0.0
 11
102.269
 21
74.0089
 31
0.0
  0
LINE
  8
0
 62
     0
 10
102.269
 20
74.0089
 30
0.0
 11
102.269
 21
60.0093
 31
0.0
  0
LINE
  8
0
 62
     0
 10
102.269
 20
60.0093
 30
0.0
 11
88.2689
 21
60.0093
 31
0.0
  0
LINE
  8
0
 62
     0
 10
88.2689
 20
60.0093
 30
0.0
 11
88.2689
 21
74.0089
 31
0.0
  0
LINE
  8
0
 62
     0
 10
107.319
 20
74.0089
 30
0.0
 11
121.319
 21
74.0089
 31
0.0
  0
LINE
  8
0
 62
     0
 10
121.319
 20
74.0089
 30
0.0
 11
121.319
 21
60.0093
 31
0.0
  0
LINE
  8
0
 62
     0
 10
121.319
 20
60.0093
 30
0.0
 11
107.319
 21
60.0093
 31
0.0
  0
LINE
  8
0
 62
     0
 10
107.319
 20
60.0093
 30
0.0
 11
107.319
 21
74.0089
 31
0.0
  0
LINE
  8
0
 62
     0
 10
126.369
 20
74.0089
 30
0.0
 11
140.369
 21
74.0089
 31
0.0
  0
LINE
  8
0
 62
     0
 10
140.369
 20
74.0089
 30
0.0
 11
140.369
 21
60.0093
 31
0.0
  0
LINE
  8
0
 62
     0
 10
140.369
 20
60.0093
 30
0.0
 11
126.369
 21
60.0093
 31
0.0
  0
LINE
  8
0
 62
     0
 10
126.369
 20
60.0093
 30
0.0
 11
126.369
 21
74.0089
 31
0.0
  0
LINE
  8
0
 62
     0
 10
145.419
 20
74.0089
 30
0.0
 11
159.419
 21
74.0089
 31
0.0
  0
LINE
  8
0
 62
     0
 10
159.419
 20
74.0089
 30
0.0
 11
159.419
 21
60.0093
 31
0.0
  0
LINE
  8
0
 62
     0
 10
159.419
 20
60.0093
 30
0.0
 11
145.419
 21
60.0093
 31
0.0
  0
LINE
  8
0
 62
     0
 10
145.419
 20
60.0093
 30
0.0
 11
145.419
 21
74.0089
 31
0.0
  0
LINE
  8
0
 62
     0
 10
164.469
 20
74.0089
 30
0.0
 11
178.469
 21
74.0089
 31
0.0
  0
LINE
  8
0
 62
     0
 10
178.469
 20
74.0089
 30
0.0
 11
178.469
 21
60.0093
 31
0.0
  0
LINE
  8
0
 62
     0
 10
178.469
 20
60.0093
 30
0.0
 11
164.469
 21
60.0093
 31
0.0
  0
LINE
  8
0
 62
     0
 10
164.469
 20
60.0093
 30
0.0
 11
164.469
 21
74.0089
 31
0.0
  0
LINE
  8
0
 62
     0
 10
183.519
 20
74.0089
 30
0.0
 11
197.519
 21
74.0089
 31
0.0
  0
LINE
  8
0
 62
     0
 10
197.519
 20
74.0089
 30
0.0
 11
197.519
 21
60.0093
 31
0.0
  0
LINE
  8
0
 62
     0
 10
197.519
 20
60.0093
 30
0.0
 11
183.519
 21
60.0093
 31
0.0
  0
LINE
  8
0
 62
     0
 10
183.519
 20
60.0093
 30
0.0
 11
183.519
 21
74.0089
 31
0.0
  0
LINE
  8
0
 62
     0
 10
202.569
 20
74.0089
 30
0.0
 11
216.569
 21
74.0089
 31
0.0
  0
LINE
  8
0
 62
     0
 10
216.569
 20
74.0089
 30
0.0
 11
216.569
 21
60.0093
 31
0.0
  0
LINE
  8
0
 62
     0
 10
216.569
 20
60.0093
 30
0.0
 11
202.569
 21
60.0093
 31
0.0
  0
LINE
  8
0
 62
     0
 10
202.569
 20
60.0093
 30
0.0
 11
202.569
 21
74.0089
 31
0.0
  0
LINE
  8
0
 62
     0
 10
221.619
 20
74.0089
 30
0.0
 11
235.619
 21
74.0089
 31
0.0
  0
LINE
  8
0
 62
     0
 10
235.619
 20
74.0089
 30
0.0
 11
235.619
 21
60.0093
 31
0.0
  0
LINE
  8
0
 62
     0
 10
235.619
 20
60.0093
 30
0.0
 11
221.619
 21
60.0093
 31
0.0
  0
LINE
  8
0
 62
     0
 10
221.619
 20
60.0093
 30
0.0
 11
221.619
 21
74.0089
 31
0.0
  0
LINE
  8
0
 62
     0
 10
240.669
 20
74.0089
 30
0.0
 11
254.669
 21
74.0089
 31
0.0
  0
LINE
  8
0
 62
     0
 10
254.669
 20
74.0089
 30
0.0
 11
254.669
 21
60.0093
 31
0.0
  0
LINE
  8
0
 62
     0
 10
254.669
 20
60.0093
 30
0.0
 11
240.669
 21
60.0093
 31
0.0
  0
LINE
  8
0
 62
     0
 10
240.669
 20
60.0093
 30
0.0
 11
240.669
 21
74.0089
 31
0.0
  0
LINE
  8
0
 62
     0
 10
264.481
 20
74.0089
 30
0.0
 11
278.481
 21
74.0089
 31
0.0
  0
LINE
  8
0
 62
     0
 10
278.481
 20
74.0089
 30
0.0
 11
278.481
 21
60.0093
 31
0.0
  0
LINE
  8
0
 62
     0
 10
278.481
 20
60.0093
 30
0.0
 11
264.481
 21
60.0093
 31
0.0
  0
LINE
  8
0
 62
     0
 10
264.481
 20
60.0093
 30
0.0
 11
264.481
 21
74.0089
 31
0.0
  0
LINE
  8
0
 62
     0
 10
259.719
 20
93.0589
 30
0.0
 11
259.719
 21
88.3585
 31
0.0
  0
LINE
  8
0
 62
     0
 10
259.719
 20
88.3585
 30
0.0
 11
258.193
 21
88.3585
 31
0.0
  0
LINE
  8
0
 62
     0
 10
258.193
 20
88.3585
 30
0.0
 11
258.193
 21
91.5885
 31
0.0
  0
LINE
  8
0
 62
     0
 10
258.193
 20
91.5885
 30
0.0
 11
251.444
 21
91.5885
 31
0.0
  0
LINE
  8
0
 62
     0
 10
251.444
 20
91.5885
 30
0.0
 11
251.444
 21
88.3585
 31
0.0
  0
LINE
  8
0
 62
     0
 10
251.444
 20
88.3585
 30
0.0
 11
250.618
 21
88.3585
 31
0.0
  0
LINE
  8
0
 62
     0
 10
250.618
 20
88.3585
 30
0.0
 11
250.618
 21
85.5581
 31
0.0
  0
LINE
  8
0
 62
     0
 10
250.618
 20
85.5581
 30
0.0
 11
251.444
 21
85.5581
 31
0.0
  0
LINE
  8
0
 62
     0
 10
251.444
 20
85.5581
 30
0.0
 11
251.444
 21
79.2896
 31
0.0
  0
LINE
  8
0
 62
     0
 10
251.444
 20
79.2896
 30
0.0
 11
253.168
 21
79.2896
 31
0.0
  0
LINE
  8
0
 62
     0
 10
253.168
 20
79.2896
 30
0.0
 11
253.168
 21
78.0891
 31
0.0
  0
LINE
  8
0
 62
     0
 10
253.168
 20
78.0891
 30
0.0
 11
256.469
 21
78.0891
 31
0.0
  0
LINE
  8
0
 62
     0
 10
256.469
 20
78.0891
 30
0.0
 11
256.469
 21
79.2896
 31
0.0
  0
LINE
  8
0
 62
     0
 10
256.469
 20
79.2896
 30
0.0
 11
258.193
 21
79.2896
 31
0.0
  0
LINE
  8
0
 62
     0
 10
258.193
 20
79.2896
 30
0.0
 11
258.193
 21
83.7586
 31
0.0
  0
LINE
  8
0
 62
     0
 10
258.193
 20
83.7586
 30
0.0
 11
259.719
 21
83.7586
 31
0.0
  0
LINE
  8
0
 62
     0
 10
259.719
 20
83.7586
 30
0.0
 11
259.719
 21
79.0593
 31
0.0
  0
LINE
  8
0
 62
     0
 10
259.719
 20
79.0593
 30
0.0
 11
273.719
 21
79.0593
 31
0.0
  0
LINE
  8
0
 62
     0
 10
273.719
 20
79.0593
 30
0.0
 11
273.719
 21
83.7586
 31
0.0
  0
LINE
  8
0
 62
     0
 10
273.719
 20
83.7586
 30
0.0
 11
275.244
 21
83.7586
 31
0.0
  0
LINE
  8
0
 62
     0
 10
275.244
 20
83.7586
 30
0.0
 11
275.244
 21
79.2896
 31
0.0
  0
LINE
  8
0
 62
     0
 10
275.244
 20
79.2896
 30
0.0
 11
276.969
 21
79.2896
 31
0.0
  0
LINE
  8
0
 62
     0
 10
276.969
 20
79.2896
 30
0.0
 11
276.969
 21
78.0891
 31
0.0
  0
LINE
  8
0
 62
     0
 10
276.969
 20
78.0891
 30
0.0
 11
280.27
 21
78.0891
 31
0.0
  0
LINE
  8
0
 62
     0
 10
280.27
 20
78.0891
 30
0.0
 11
280.27
 21
79.2896
 31
0.0
  0
LINE
  8
0
 62
     0
 10
280.27
 20
79.2896
 30
0.0
 11
281.994
 21
79.2896
 31
0.0
  0
LINE
  8
0
 62
     0
 10
281.994
 20
79.2896
 30
0.0
 11
281.994
 21
85.5581
 31
0.0
  0
LINE
  8
0
 62
     0
 10
281.994
 20
85.5581
 30
0.0
 11
282.819
 21
85.5581
 31
0.0
  0
LINE
  8
0
 62
     0
 10
282.819
 20
85.5581
 30
0.0
 11
282.819
 21
88.3585
 31
0.0
  0
LINE
  8
0
 62
     0
 10
282.819
 20
88.3585
 30
0.0
 11
281.994
 21
88.3585
 31
0.0
  0
LINE
  8
0
 62
     0
 10
281.994
 20
88.3585
 30
0.0
 11
281.994
 21
91.5885
 31
0.0
  0
LINE
  8
0
 62
     0
 10
281.994
 20
91.5885
 30
0.0
 11
275.244
 21
91.5885
 31
0.0
  0
LINE
  8
0
 62
     0
 10
275.244
 20
91.5885
 30
0.0
 11
275.244
 21
88.3585
 31
0.0
  0
LINE
  8
0
 62
     0
 10
275.244
 20
88.3585
 30
0.0
 11
273.719
 21
88.3585
 31
0.0
  0
LINE
  8
0
 62
     0
 10
273.719
 20
88.3585
 30
0.0
 11
273.719
 21
93.0589
 31
0.0
  0
LINE
  8
0
 62
     0
 10
273.719
 20
93.0589
 30
0.0
 11
259.719
 21
93.0589
 31
0.0
  0
LINE
  8
0
 62
     0
 10
2.54386
 20
93.0589
 30
0.0
 11
16.5433
 21
93.0589
 31
0.0
  0
LINE
  8
0
 62
     0
 10
16.5433
 20
93.0589
 30
0.0
 11
16.5433
 21
79.0593
 31
0.0
  0
LINE
  8
0
 62
     0
 10
16.5433
 20
79.0593
 30
0.0
 11
2.54386
 21
79.0593
 31
0.0
  0
LINE
  8
0
 62
     0
 10
2.54386
 20
79.0593
 30
0.0
 11
2.54386
 21
93.0589
 31
0.0
  0
LINE
  8
0
 62
     0
 10
21.5938
 20
93.0589
 30
0.0
 11
35.5935
 21
93.0589
 31
0.0
  0
LINE
  8
0
 62
     0
 10
35.5935
 20
93.0589
 30
0.0
 11
35.5935
 21
79.0593
 31
0.0
  0
LINE
  8
0
 62
     0
 10
35.5935
 20
79.0593
 30
0.0
 11
21.5938
 21
79.0593
 31
0.0
  0
LINE
  8
0
 62
     0
 10
21.5938
 20
79.0593
 30
0.0
 11
21.5938
 21
93.0589
 31
0.0
  0
LINE
  8
0
 62
     0
 10
40.6439
 20
93.0589
 30
0.0
 11
54.6435
 21
93.0589
 31
0.0
  0
LINE
  8
0
 62
     0
 10
54.6435
 20
93.0589
 30
0.0
 11
54.6435
 21
79.0593
 31
0.0
  0
LINE
  8
0
 62
     0
 10
54.6435
 20
79.0593
 30
0.0
 11
40.6439
 21
79.0593
 31
0.0
  0
LINE
  8
0
 62
     0
 10
40.6439
 20
79.0593
 30
0.0
 11
40.6439
 21
93.0589
 31
0.0
  0
LINE
  8
0
 62
     0
 10
59.6939
 20
93.0589
 30
0.0
 11
73.6935
 21
93.0589
 31
0.0
  0
LINE
  8
0
 62
     0
 10
73.6935
 20
93.0589
 30
0.0
 11
73.6935
 21
79.0593
 31
0.0
  0
LINE
  8
0
 62
     0
 10
73.6935
 20
79.0593
 30
0.0
 11
59.6939
 21
79.0593
 31
0.0
  0
LINE
  8
0
 62
     0
 10
59.6939
 20
79.0593
 30
0.0
 11
59.6939
 21
93.0589
 31
0.0
  0
LINE
  8
0
 62
     0
 10
78.7439
 20
93.0589
 30
0.0
 11
92.7435
 21
93.0589
 31
0.0
  0
LINE
  8
0
 62
     0
 10
92.7435
 20
93.0589
 30
0.0
 11
92.7435
 21
79.0593
 31
0.0
  0
LINE
  8
0
 62
     0
 10
92.7435
 20
79.0593
 30
0.0
 11
78.7439
 21
79.0593
 31
0.0
  0
LINE
  8
0
 62
     0
 10
78.7439
 20
79.0593
 30
0.0
 11
78.7439
 21
93.0589
 31
0.0
  0
LINE
  8
0
 62
     0
 10
97.7925
 20
93.0589
 30
0.0
 11
111.794
 21
93.0589
 31
0.0
  0
LINE
  8
0
 62
     0
 10
111.794
 20
93.0589
 30
0.0
 11
111.794
 21
79.0593
 31
0.0
  0
LINE
  8
0
 62
     0
 10
111.794
 20
79.0593
 30
0.0
 11
97.7925
 21
79.0593
 31
0.0
  0
LINE
  8
0
 62
     0
 10
97.7925
 20
79.0593
 30
0.0
 11
97.7925
 21
93.0589
 31
0.0
  0
LINE
  8
0
 62
     0
 10
116.842
 20
93.0589
 30
0.0
 11
130.844
 21
93.0589
 31
0.0
  0
LINE
  8
0
 62
     0
 10
130.844
 20
93.0589
 30
0.0
 11
130.844
 21
79.0593
 31
0.0
  0
LINE
  8
0
 62
     0
 10
130.844
 20
79.0593
 30
0.0
 11
116.842
 21
79.0593
 31
0.0
  0
LINE
  8
0
 62
     0
 10
116.842
 20
79.0593
 30
0.0
 11
116.842
 21
93.0589
 31
0.0
  0
LINE
  8
0
 62
     0
 10
135.894
 20
93.0589
 30
0.0
 11
149.894
 21
93.0589
 31
0.0
  0
LINE
  8
0
 62
     0
 10
149.894
 20
93.0589
 30
0.0
 11
149.894
 21
79.0593
 31
0.0
  0
LINE
  8
0
 62
     0
 10
149.894
 20
79.0593
 30
0.0
 11
135.894
 21
79.0593
 31
0.0
  0
LINE
  8
0
 62
     0
 10
135.894
 20
79.0593
 30
0.0
 11
135.894
 21
93.0589
 31
0.0
  0
LINE
  8
0
 62
     0
 10
154.944
 20
93.0589
 30
0.0
 11
168.944
 21
93.0589
 31
0.0
  0
LINE
  8
0
 62
     0
 10
168.944
 20
93.0589
 30
0.0
 11
168.944
 21
79.0593
 31
0.0
  0
LINE
  8
0
 62
     0
 10
168.944
 20
79.0593
 30
0.0
 11
154.944
 21
79.0593
 31
0.0
  0
LINE
  8
0
 62
     0
 10
154.944
 20
79.0593
 30
0.0
 11
154.944
 21
93.0589
 31
0.0
  0
LINE
  8
0
 62
     0
 10
173.994
 20
93.0589
 30
0.0
 11
187.994
 21
93.0589
 31
0.0
  0
LINE
  8
0
 62
     0
 10
187.994
 20
93.0589
 30
0.0
 11
187.994
 21
79.0593
 31
0.0
  0
LINE
  8
0
 62
     0
 10
187.994
 20
79.0593
 30
0.0
 11
173.994
 21
79.0593
 31
0.0
  0
LINE
  8
0
 62
     0
 10
173.994
 20
79.0593
 30
0.0
 11
173.994
 21
93.0589
 31
0.0
  0
LINE
  8
0
 62
     0
 10
193.044
 20
93.0589
 30
0.0
 11
207.044
 21
93.0589
 31
0.0
  0
LINE
  8
0
 62
     0
 10
207.044
 20
93.0589
 30
0.0
 11
207.044
 21
79.0593
 31
0.0
  0
LINE
  8
0
 62
     0
 10
207.044
 20
79.0593
 30
0.0
 11
193.044
 21
79.0593
 31
0.0
  0
LINE
  8
0
 62
     0
 10
193.044
 20
79.0593
 30
0.0
 11
193.044
 21
93.0589
 31
0.0
  0
LINE
  8
0
 62
     0
 10
212.094
 20
93.0589
 30
0.0
 11
226.094
 21
93.0589
 31
0.0
  0
LINE
  8
0
 62
     0
 10
226.094
 20
93.0589
 30
0.0
 11
226.094
 21
79.0593
 31
0.0
  0
LINE
  8
0
 62
     0
 10
226.094
 20
79.0593
 30
0.0
 11
212.094
 21
79.0593
 31
0.0
  0
LINE
  8
0
 62
     0
 10
212.094
 20
79.0593
 30
0.0
 11
212.094
 21
93.0589
 31
0.0
  0
LINE
  8
0
 62
     0
 10
231.144
 20
93.0589
 30
0.0
 11
245.144
 21
93.0589
 31
0.0
  0
LINE
  8
0
 62
     0
 10
245.144
 20
93.0589
 30
0.0
 11
245.144
 21
79.0593
 31
0.0
  0
LINE
  8
0
 62
     0
 10
245.144
 20
79.0593
 30
0.0
 11
231.144
 21
79.0593
 31
0.0
  0
LINE
  8
0
 62
     0
 10
231.144
 20
79.0593
 30
0.0
 11
231.144
 21
93.0589
 31
0.0
  0
ENDSEC
  0
EOF
