  0
SECTION
  2
HEADER
  9
$ACADVER
  1
AC1009
  9
$FILLMODE
 70
 0
  9
$SPLFRAME
 70
 1
  9
$EXTMIN
 10
0
 20
0
 30
0.0
  9
$EXTMAX
 10
1058.33
 20
1058.33
 30
0.0
  0
ENDSEC
  0
SECTION
  2
TABLES
  0
TABLE
  2
LAYER
 70
1
  0
LAYER
  2
0
 70
     0
 62
     7
  6
CONTINUOUS
  0
ENDTAB
  0
ENDSEC
  0
SECTION
  2
ENTITIES
  0
LINE
  8
0
 62
     0
 10
0.0192925
 20
95.9362
 30
0.0
 11
286.218
 21
95.9362
 31
0.0
  0
LINE
  8
0
 62
     0
 10
286.218
 20
95.9362
 30
0.0
 11
286.218
 21
0.237023
 31
0.0
  0
LINE
  8
0
 62
     0
 10
286.218
 20
0.237023
 30
0.0
 11
0.0192925
 21
0.237023
 31
0.0
  0
LINE
  8
0
 62
     0
 10
0.0192925
 20
0.237023
 30
0.0
 11
0.0192925
 21
95.9362
 31
0.0
  0
LINE
  8
0
 62
     0
 10
124.437
 20
16.7624
 30
0.0
 11
124.437
 21
12.062
 31
0.0
  0
LINE
  8
0
 62
     0
 10
124.437
 20
12.062
 30
0.0
 11
84.3622
 21
12.062
 31
0.0
  0
LINE
  8
0
 62
     0
 10
84.3622
 20
12.062
 30
0.0
 11
84.3622
 21
15.2921
 31
0.0
  0
LINE
  8
0
 62
     0
 10
84.3622
 20
15.2921
 30
0.0
 11
78.0616
 21
15.2921
 31
0.0
  0
LINE
  8
0
 62
     0
 10
78.0616
 20
15.2921
 30
0.0
 11
78.0616
 21
12.062
 31
0.0
  0
LINE
  8
0
 62
     0
 10
78.0616
 20
12.062
 30
0.0
 11
77.2365
 21
12.062
 31
0.0
  0
LINE
  8
0
 62
     0
 10
77.2365
 20
12.062
 30
0.0
 11
77.2365
 21
9.71102
 31
0.0
  0
LINE
  8
0
 62
     0
 10
77.2365
 20
9.71102
 30
0.0
 11
78.0616
 21
9.71102
 31
0.0
  0
LINE
  8
0
 62
     0
 10
78.0616
 20
9.71102
 30
0.0
 11
78.0616
 21
3.44234
 31
0.0
  0
LINE
  8
0
 62
     0
 10
78.0616
 20
3.44234
 30
0.0
 11
79.787
 21
3.44234
 31
0.0
  0
LINE
  8
0
 62
     0
 10
79.787
 20
3.44234
 30
0.0
 11
79.787
 21
2.24207
 31
0.0
  0
LINE
  8
0
 62
     0
 10
79.787
 20
2.24207
 30
0.0
 11
82.6368
 21
2.24207
 31
0.0
  0
LINE
  8
0
 62
     0
 10
82.6368
 20
2.24207
 30
0.0
 11
82.6368
 21
3.44234
 31
0.0
  0
LINE
  8
0
 62
     0
 10
82.6368
 20
3.44234
 30
0.0
 11
84.3622
 21
3.44234
 31
0.0
  0
LINE
  8
0
 62
     0
 10
84.3622
 20
3.44234
 30
0.0
 11
84.3622
 21
7.91132
 31
0.0
  0
LINE
  8
0
 62
     0
 10
84.3622
 20
7.91132
 30
0.0
 11
124.437
 21
7.91132
 31
0.0
  0
LINE
  8
0
 62
     0
 10
124.437
 20
7.91132
 30
0.0
 11
124.437
 21
3.21221
 31
0.0
  0
LINE
  8
0
 62
     0
 10
124.437
 20
3.21221
 30
0.0
 11
137.987
 21
3.21221
 31
0.0
  0
LINE
  8
0
 62
     0
 10
137.987
 20
3.21221
 30
0.0
 11
137.987
 21
7.91132
 31
0.0
  0
LINE
  8
0
 62
     0
 10
137.987
 20
7.91132
 30
0.0
 11
178.062
 21
7.91132
 31
0.0
  0
LINE
  8
0
 62
     0
 10
178.062
 20
7.91132
 30
0.0
 11
178.062
 21
3.44234
 31
0.0
  0
LINE
  8
0
 62
     0
 10
178.062
 20
3.44234
 30
0.0
 11
179.787
 21
3.44234
 31
0.0
  0
LINE
  8
0
 62
     0
 10
179.787
 20
3.44234
 30
0.0
 11
179.787
 21
2.24207
 31
0.0
  0
LINE
  8
0
 62
     0
 10
179.787
 20
2.24207
 30
0.0
 11
182.637
 21
2.24207
 31
0.0
  0
LINE
  8
0
 62
     0
 10
182.637
 20
2.24207
 30
0.0
 11
182.637
 21
3.44234
 31
0.0
  0
LINE
  8
0
 62
     0
 10
182.637
 20
3.44234
 30
0.0
 11
184.362
 21
3.44234
 31
0.0
  0
LINE
  8
0
 62
     0
 10
184.362
 20
3.44234
 30
0.0
 11
184.362
 21
9.71102
 31
0.0
  0
LINE
  8
0
 62
     0
 10
184.362
 20
9.71102
 30
0.0
 11
185.186
 21
9.71102
 31
0.0
  0
LINE
  8
0
 62
     0
 10
185.186
 20
9.71102
 30
0.0
 11
185.186
 21
12.062
 31
0.0
  0
LINE
  8
0
 62
     0
 10
185.186
 20
12.062
 30
0.0
 11
184.362
 21
12.062
 31
0.0
  0
LINE
  8
0
 62
     0
 10
184.362
 20
12.062
 30
0.0
 11
184.362
 21
15.2921
 31
0.0
  0
LINE
  8
0
 62
     0
 10
184.362
 20
15.2921
 30
0.0
 11
178.062
 21
15.2921
 31
0.0
  0
LINE
  8
0
 62
     0
 10
178.062
 20
15.2921
 30
0.0
 11
178.062
 21
12.062
 31
0.0
  0
LINE
  8
0
 62
     0
 10
178.062
 20
12.062
 30
0.0
 11
137.987
 21
12.062
 31
0.0
  0
LINE
  8
0
 62
     0
 10
137.987
 20
12.062
 30
0.0
 11
137.987
 21
16.7624
 31
0.0
  0
LINE
  8
0
 62
     0
 10
137.987
 20
16.7624
 30
0.0
 11
124.437
 21
16.7624
 31
0.0
  0
LINE
  8
0
 62
     0
 10
5.37436
 20
16.7624
 30
0.0
 11
18.9246
 21
16.7624
 31
0.0
  0
LINE
  8
0
 62
     0
 10
18.9246
 20
16.7624
 30
0.0
 11
18.9246
 21
3.21221
 31
0.0
  0
LINE
  8
0
 62
     0
 10
18.9246
 20
3.21221
 30
0.0
 11
5.37436
 21
3.21221
 31
0.0
  0
LINE
  8
0
 62
     0
 10
5.37436
 20
3.21221
 30
0.0
 11
5.37436
 21
16.7624
 31
0.0
  0
LINE
  8
0
 62
     0
 10
29.1869
 20
16.7624
 30
0.0
 11
42.7373
 21
16.7624
 31
0.0
  0
LINE
  8
0
 62
     0
 10
42.7373
 20
16.7624
 30
0.0
 11
42.7373
 21
3.21221
 31
0.0
  0
LINE
  8
0
 62
     0
 10
42.7373
 20
3.21221
 30
0.0
 11
29.1869
 21
3.21221
 31
0.0
  0
LINE
  8
0
 62
     0
 10
29.1869
 20
3.21221
 30
0.0
 11
29.1869
 21
16.7624
 31
0.0
  0
LINE
  8
0
 62
     0
 10
52.9992
 20
16.7624
 30
0.0
 11
66.5498
 21
16.7624
 31
0.0
  0
LINE
  8
0
 62
     0
 10
66.5498
 20
16.7624
 30
0.0
 11
66.5498
 21
3.21221
 31
0.0
  0
LINE
  8
0
 62
     0
 10
66.5498
 20
3.21221
 30
0.0
 11
52.9992
 21
3.21221
 31
0.0
  0
LINE
  8
0
 62
     0
 10
52.9992
 20
3.21221
 30
0.0
 11
52.9992
 21
16.7624
 31
0.0
  0
LINE
  8
0
 62
     0
 10
195.874
 20
16.7624
 30
0.0
 11
209.425
 21
16.7624
 31
0.0
  0
LINE
  8
0
 62
     0
 10
209.425
 20
16.7624
 30
0.0
 11
209.425
 21
3.21221
 31
0.0
  0
LINE
  8
0
 62
     0
 10
209.425
 20
3.21221
 30
0.0
 11
195.874
 21
3.21221
 31
0.0
  0
LINE
  8
0
 62
     0
 10
195.874
 20
3.21221
 30
0.0
 11
195.874
 21
16.7624
 31
0.0
  0
LINE
  8
0
 62
     0
 10
219.687
 20
16.7624
 30
0.0
 11
233.237
 21
16.7624
 31
0.0
  0
LINE
  8
0
 62
     0
 10
233.237
 20
16.7624
 30
0.0
 11
233.237
 21
3.21221
 31
0.0
  0
LINE
  8
0
 62
     0
 10
233.237
 20
3.21221
 30
0.0
 11
219.687
 21
3.21221
 31
0.0
  0
LINE
  8
0
 62
     0
 10
219.687
 20
3.21221
 30
0.0
 11
219.687
 21
16.7624
 31
0.0
  0
LINE
  8
0
 62
     0
 10
243.499
 20
16.7624
 30
0.0
 11
257.05
 21
16.7624
 31
0.0
  0
LINE
  8
0
 62
     0
 10
257.05
 20
16.7624
 30
0.0
 11
257.05
 21
3.21221
 31
0.0
  0
LINE
  8
0
 62
     0
 10
257.05
 20
3.21221
 30
0.0
 11
243.499
 21
3.21221
 31
0.0
  0
LINE
  8
0
 62
     0
 10
243.499
 20
3.21221
 30
0.0
 11
243.499
 21
16.7624
 31
0.0
  0
LINE
  8
0
 62
     0
 10
267.312
 20
16.7624
 30
0.0
 11
280.862
 21
16.7624
 31
0.0
  0
LINE
  8
0
 62
     0
 10
280.862
 20
16.7624
 30
0.0
 11
280.862
 21
3.21221
 31
0.0
  0
LINE
  8
0
 62
     0
 10
280.862
 20
3.21221
 30
0.0
 11
267.312
 21
3.21221
 31
0.0
  0
LINE
  8
0
 62
     0
 10
267.312
 20
3.21221
 30
0.0
 11
267.312
 21
16.7624
 31
0.0
  0
LINE
  8
0
 62
     0
 10
14.8994
 20
35.814
 30
0.0
 11
14.8994
 21
31.112
 31
0.0
  0
LINE
  8
0
 62
     0
 10
14.8994
 20
31.112
 30
0.0
 11
12.9246
 21
31.112
 31
0.0
  0
LINE
  8
0
 62
     0
 10
12.9246
 20
31.112
 30
0.0
 11
12.9246
 21
34.3421
 31
0.0
  0
LINE
  8
0
 62
     0
 10
12.9246
 20
34.3421
 30
0.0
 11
6.62421
 21
34.3421
 31
0.0
  0
LINE
  8
0
 62
     0
 10
6.62421
 20
34.3421
 30
0.0
 11
6.62421
 21
31.112
 31
0.0
  0
LINE
  8
0
 62
     0
 10
6.62421
 20
31.112
 30
0.0
 11
5.80016
 21
31.112
 31
0.0
  0
LINE
  8
0
 62
     0
 10
5.80016
 20
31.112
 30
0.0
 11
5.80016
 21
28.761
 31
0.0
  0
LINE
  8
0
 62
     0
 10
5.80016
 20
28.761
 30
0.0
 11
6.62421
 21
28.761
 31
0.0
  0
LINE
  8
0
 62
     0
 10
6.62421
 20
28.761
 30
0.0
 11
6.62421
 21
22.4923
 31
0.0
  0
LINE
  8
0
 62
     0
 10
6.62421
 20
22.4923
 30
0.0
 11
8.34954
 21
22.4923
 31
0.0
  0
LINE
  8
0
 62
     0
 10
8.34954
 20
22.4923
 30
0.0
 11
8.34954
 21
21.2921
 31
0.0
  0
LINE
  8
0
 62
     0
 10
8.34954
 20
21.2921
 30
0.0
 11
11.1993
 21
21.2921
 31
0.0
  0
LINE
  8
0
 62
     0
 10
11.1993
 20
21.2921
 30
0.0
 11
11.1993
 21
22.4923
 31
0.0
  0
LINE
  8
0
 62
     0
 10
11.1993
 20
22.4923
 30
0.0
 11
12.9246
 21
22.4923
 31
0.0
  0
LINE
  8
0
 62
     0
 10
12.9246
 20
22.4923
 30
0.0
 11
12.9246
 21
26.9613
 31
0.0
  0
LINE
  8
0
 62
     0
 10
12.9246
 20
26.9613
 30
0.0
 11
14.8994
 21
26.9613
 31
0.0
  0
LINE
  8
0
 62
     0
 10
14.8994
 20
26.9613
 30
0.0
 11
14.8994
 21
22.2622
 31
0.0
  0
LINE
  8
0
 62
     0
 10
14.8994
 20
22.2622
 30
0.0
 11
28.4496
 21
22.2622
 31
0.0
  0
LINE
  8
0
 62
     0
 10
28.4496
 20
22.2622
 30
0.0
 11
28.4496
 21
26.9613
 31
0.0
  0
LINE
  8
0
 62
     0
 10
28.4496
 20
26.9613
 30
0.0
 11
30.4243
 21
26.9613
 31
0.0
  0
LINE
  8
0
 62
     0
 10
30.4243
 20
26.9613
 30
0.0
 11
30.4243
 21
22.4923
 31
0.0
  0
LINE
  8
0
 62
     0
 10
30.4243
 20
22.4923
 30
0.0
 11
32.1496
 21
22.4923
 31
0.0
  0
LINE
  8
0
 62
     0
 10
32.1496
 20
22.4923
 30
0.0
 11
32.1496
 21
21.2921
 31
0.0
  0
LINE
  8
0
 62
     0
 10
32.1496
 20
21.2921
 30
0.0
 11
34.9994
 21
21.2921
 31
0.0
  0
LINE
  8
0
 62
     0
 10
34.9994
 20
21.2921
 30
0.0
 11
34.9994
 21
22.4923
 31
0.0
  0
LINE
  8
0
 62
     0
 10
34.9994
 20
22.4923
 30
0.0
 11
36.7249
 21
22.4923
 31
0.0
  0
LINE
  8
0
 62
     0
 10
36.7249
 20
22.4923
 30
0.0
 11
36.7249
 21
28.761
 31
0.0
  0
LINE
  8
0
 62
     0
 10
36.7249
 20
28.761
 30
0.0
 11
37.55
 21
28.761
 31
0.0
  0
LINE
  8
0
 62
     0
 10
37.55
 20
28.761
 30
0.0
 11
37.55
 21
31.112
 31
0.0
  0
LINE
  8
0
 62
     0
 10
37.55
 20
31.112
 30
0.0
 11
36.7249
 21
31.112
 31
0.0
  0
LINE
  8
0
 62
     0
 10
36.7249
 20
31.112
 30
0.0
 11
36.7249
 21
34.3421
 31
0.0
  0
LINE
  8
0
 62
     0
 10
36.7249
 20
34.3421
 30
0.0
 11
30.4243
 21
34.3421
 31
0.0
  0
LINE
  8
0
 62
     0
 10
30.4243
 20
34.3421
 30
0.0
 11
30.4243
 21
31.112
 31
0.0
  0
LINE
  8
0
 62
     0
 10
30.4243
 20
31.112
 30
0.0
 11
28.4496
 21
31.112
 31
0.0
  0
LINE
  8
0
 62
     0
 10
28.4496
 20
31.112
 30
0.0
 11
28.4496
 21
35.814
 31
0.0
  0
LINE
  8
0
 62
     0
 10
28.4496
 20
35.814
 30
0.0
 11
14.8994
 21
35.814
 31
0.0
  0
LINE
  8
0
 62
     0
 10
253.024
 20
35.814
 30
0.0
 11
253.024
 21
31.112
 31
0.0
  0
LINE
  8
0
 62
     0
 10
253.024
 20
31.112
 30
0.0
 11
251.05
 21
31.112
 31
0.0
  0
LINE
  8
0
 62
     0
 10
251.05
 20
31.112
 30
0.0
 11
251.05
 21
34.3421
 31
0.0
  0
LINE
  8
0
 62
     0
 10
251.05
 20
34.3421
 30
0.0
 11
244.749
 21
34.3421
 31
0.0
  0
LINE
  8
0
 62
     0
 10
244.749
 20
34.3421
 30
0.0
 11
244.749
 21
31.112
 31
0.0
  0
LINE
  8
0
 62
     0
 10
244.749
 20
31.112
 30
0.0
 11
243.925
 21
31.112
 31
0.0
  0
LINE
  8
0
 62
     0
 10
243.925
 20
31.112
 30
0.0
 11
243.925
 21
28.761
 31
0.0
  0
LINE
  8
0
 62
     0
 10
243.925
 20
28.761
 30
0.0
 11
244.749
 21
28.761
 31
0.0
  0
LINE
  8
0
 62
     0
 10
244.749
 20
28.761
 30
0.0
 11
244.749
 21
22.4923
 31
0.0
  0
LINE
  8
0
 62
     0
 10
244.749
 20
22.4923
 30
0.0
 11
246.475
 21
22.4923
 31
0.0
  0
LINE
  8
0
 62
     0
 10
246.475
 20
22.4923
 30
0.0
 11
246.475
 21
21.2921
 31
0.0
  0
LINE
  8
0
 62
     0
 10
246.475
 20
21.2921
 30
0.0
 11
249.324
 21
21.2921
 31
0.0
  0
LINE
  8
0
 62
     0
 10
249.324
 20
21.2921
 30
0.0
 11
249.324
 21
22.4923
 31
0.0
  0
LINE
  8
0
 62
     0
 10
249.324
 20
22.4923
 30
0.0
 11
251.05
 21
22.4923
 31
0.0
  0
LINE
  8
0
 62
     0
 10
251.05
 20
22.4923
 30
0.0
 11
251.05
 21
26.9613
 31
0.0
  0
LINE
  8
0
 62
     0
 10
251.05
 20
26.9613
 30
0.0
 11
253.024
 21
26.9613
 31
0.0
  0
LINE
  8
0
 62
     0
 10
253.024
 20
26.9613
 30
0.0
 11
253.024
 21
22.2622
 31
0.0
  0
LINE
  8
0
 62
     0
 10
253.024
 20
22.2622
 30
0.0
 11
266.575
 21
22.2622
 31
0.0
  0
LINE
  8
0
 62
     0
 10
266.575
 20
22.2622
 30
0.0
 11
266.575
 21
26.9613
 31
0.0
  0
LINE
  8
0
 62
     0
 10
266.575
 20
26.9613
 30
0.0
 11
268.549
 21
26.9613
 31
0.0
  0
LINE
  8
0
 62
     0
 10
268.549
 20
26.9613
 30
0.0
 11
268.549
 21
22.4923
 31
0.0
  0
LINE
  8
0
 62
     0
 10
268.549
 20
22.4923
 30
0.0
 11
270.275
 21
22.4923
 31
0.0
  0
LINE
  8
0
 62
     0
 10
270.275
 20
22.4923
 30
0.0
 11
270.275
 21
21.2921
 31
0.0
  0
LINE
  8
0
 62
     0
 10
270.275
 20
21.2921
 30
0.0
 11
273.124
 21
21.2921
 31
0.0
  0
LINE
  8
0
 62
     0
 10
273.124
 20
21.2921
 30
0.0
 11
273.124
 21
22.4923
 31
0.0
  0
LINE
  8
0
 62
     0
 10
273.124
 20
22.4923
 30
0.0
 11
274.85
 21
22.4923
 31
0.0
  0
LINE
  8
0
 62
     0
 10
274.85
 20
22.4923
 30
0.0
 11
274.85
 21
28.761
 31
0.0
  0
LINE
  8
0
 62
     0
 10
274.85
 20
28.761
 30
0.0
 11
275.675
 21
28.761
 31
0.0
  0
LINE
  8
0
 62
     0
 10
275.675
 20
28.761
 30
0.0
 11
275.675
 21
31.112
 31
0.0
  0
LINE
  8
0
 62
     0
 10
275.675
 20
31.112
 30
0.0
 11
274.85
 21
31.112
 31
0.0
  0
LINE
  8
0
 62
     0
 10
274.85
 20
31.112
 30
0.0
 11
274.85
 21
34.3421
 31
0.0
  0
LINE
  8
0
 62
     0
 10
274.85
 20
34.3421
 30
0.0
 11
268.549
 21
34.3421
 31
0.0
  0
LINE
  8
0
 62
     0
 10
268.549
 20
34.3421
 30
0.0
 11
268.549
 21
31.112
 31
0.0
  0
LINE
  8
0
 62
     0
 10
268.549
 20
31.112
 30
0.0
 11
266.575
 21
31.112
 31
0.0
  0
LINE
  8
0
 62
     0
 10
266.575
 20
31.112
 30
0.0
 11
266.575
 21
35.814
 31
0.0
  0
LINE
  8
0
 62
     0
 10
266.575
 20
35.814
 30
0.0
 11
253.024
 21
35.814
 31
0.0
  0
LINE
  8
0
 62
     0
 10
45.8555
 20
35.814
 30
0.0
 11
59.406
 21
35.814
 31
0.0
  0
LINE
  8
0
 62
     0
 10
59.406
 20
35.814
 30
0.0
 11
59.406
 21
22.2622
 31
0.0
  0
LINE
  8
0
 62
     0
 10
59.406
 20
22.2622
 30
0.0
 11
45.8555
 21
22.2622
 31
0.0
  0
LINE
  8
0
 62
     0
 10
45.8555
 20
22.2622
 30
0.0
 11
45.8555
 21
35.814
 31
0.0
  0
LINE
  8
0
 62
     0
 10
64.9055
 20
35.814
 30
0.0
 11
78.456
 21
35.814
 31
0.0
  0
LINE
  8
0
 62
     0
 10
78.456
 20
35.814
 30
0.0
 11
78.456
 21
22.2622
 31
0.0
  0
LINE
  8
0
 62
     0
 10
78.456
 20
22.2622
 30
0.0
 11
64.9055
 21
22.2622
 31
0.0
  0
LINE
  8
0
 62
     0
 10
64.9055
 20
22.2622
 30
0.0
 11
64.9055
 21
35.814
 31
0.0
  0
LINE
  8
0
 62
     0
 10
83.9555
 20
35.814
 30
0.0
 11
97.506
 21
35.814
 31
0.0
  0
LINE
  8
0
 62
     0
 10
97.506
 20
35.814
 30
0.0
 11
97.506
 21
22.2622
 31
0.0
  0
LINE
  8
0
 62
     0
 10
97.506
 20
22.2622
 30
0.0
 11
83.9555
 21
22.2622
 31
0.0
  0
LINE
  8
0
 62
     0
 10
83.9555
 20
22.2622
 30
0.0
 11
83.9555
 21
35.814
 31
0.0
  0
LINE
  8
0
 62
     0
 10
103.005
 20
35.814
 30
0.0
 11
116.556
 21
35.814
 31
0.0
  0
LINE
  8
0
 62
     0
 10
116.556
 20
35.814
 30
0.0
 11
116.556
 21
22.2622
 31
0.0
  0
LINE
  8
0
 62
     0
 10
116.556
 20
22.2622
 30
0.0
 11
103.005
 21
22.2622
 31
0.0
  0
LINE
  8
0
 62
     0
 10
103.005
 20
22.2622
 30
0.0
 11
103.005
 21
35.814
 31
0.0
  0
LINE
  8
0
 62
     0
 10
122.055
 20
35.814
 30
0.0
 11
135.606
 21
35.814
 31
0.0
  0
LINE
  8
0
 62
     0
 10
135.606
 20
35.814
 30
0.0
 11
135.606
 21
22.2622
 31
0.0
  0
LINE
  8
0
 62
     0
 10
135.606
 20
22.2622
 30
0.0
 11
122.055
 21
22.2622
 31
0.0
  0
LINE
  8
0
 62
     0
 10
122.055
 20
22.2622
 30
0.0
 11
122.055
 21
35.814
 31
0.0
  0
LINE
  8
0
 62
     0
 10
141.105
 20
35.814
 30
0.0
 11
154.656
 21
35.814
 31
0.0
  0
LINE
  8
0
 62
     0
 10
154.656
 20
35.814
 30
0.0
 11
154.656
 21
22.2622
 31
0.0
  0
LINE
  8
0
 62
     0
 10
154.656
 20
22.2622
 30
0.0
 11
141.105
 21
22.2622
 31
0.0
  0
LINE
  8
0
 62
     0
 10
141.105
 20
22.2622
 30
0.0
 11
141.105
 21
35.814
 31
0.0
  0
LINE
  8
0
 62
     0
 10
160.155
 20
35.814
 30
0.0
 11
173.706
 21
35.814
 31
0.0
  0
LINE
  8
0
 62
     0
 10
173.706
 20
35.814
 30
0.0
 11
173.706
 21
22.2622
 31
0.0
  0
LINE
  8
0
 62
     0
 10
173.706
 20
22.2622
 30
0.0
 11
160.155
 21
22.2622
 31
0.0
  0
LINE
  8
0
 62
     0
 10
160.155
 20
22.2622
 30
0.0
 11
160.155
 21
35.814
 31
0.0
  0
LINE
  8
0
 62
     0
 10
179.205
 20
35.814
 30
0.0
 11
192.756
 21
35.814
 31
0.0
  0
LINE
  8
0
 62
     0
 10
192.756
 20
35.814
 30
0.0
 11
192.756
 21
22.2622
 31
0.0
  0
LINE
  8
0
 62
     0
 10
192.756
 20
22.2622
 30
0.0
 11
179.205
 21
22.2622
 31
0.0
  0
LINE
  8
0
 62
     0
 10
179.205
 20
22.2622
 30
0.0
 11
179.205
 21
35.814
 31
0.0
  0
LINE
  8
0
 62
     0
 10
198.255
 20
35.814
 30
0.0
 11
211.806
 21
35.814
 31
0.0
  0
LINE
  8
0
 62
     0
 10
211.806
 20
35.814
 30
0.0
 11
211.806
 21
22.2622
 31
0.0
  0
LINE
  8
0
 62
     0
 10
211.806
 20
22.2622
 30
0.0
 11
198.255
 21
22.2622
 31
0.0
  0
LINE
  8
0
 62
     0
 10
198.255
 20
22.2622
 30
0.0
 11
198.255
 21
35.814
 31
0.0
  0
LINE
  8
0
 62
     0
 10
217.305
 20
35.814
 30
0.0
 11
230.856
 21
35.814
 31
0.0
  0
LINE
  8
0
 62
     0
 10
230.856
 20
35.814
 30
0.0
 11
230.856
 21
22.2622
 31
0.0
  0
LINE
  8
0
 62
     0
 10
230.856
 20
22.2622
 30
0.0
 11
217.305
 21
22.2622
 31
0.0
  0
LINE
  8
0
 62
     0
 10
217.305
 20
22.2622
 30
0.0
 11
217.305
 21
35.814
 31
0.0
  0
LINE
  8
0
 62
     0
 10
257.787
 20
54.8626
 30
0.0
 11
257.787
 21
50.1618
 31
0.0
  0
LINE
  8
0
 62
     0
 10
257.787
 20
50.1618
 30
0.0
 11
255.812
 21
50.1618
 31
0.0
  0
LINE
  8
0
 62
     0
 10
255.812
 20
50.1618
 30
0.0
 11
255.812
 21
53.3922
 31
0.0
  0
LINE
  8
0
 62
     0
 10
255.812
 20
53.3922
 30
0.0
 11
249.512
 21
53.3922
 31
0.0
  0
LINE
  8
0
 62
     0
 10
249.512
 20
53.3922
 30
0.0
 11
249.512
 21
50.1618
 31
0.0
  0
LINE
  8
0
 62
     0
 10
249.512
 20
50.1618
 30
0.0
 11
248.686
 21
50.1618
 31
0.0
  0
LINE
  8
0
 62
     0
 10
248.686
 20
50.1618
 30
0.0
 11
248.686
 21
47.8109
 31
0.0
  0
LINE
  8
0
 62
     0
 10
248.686
 20
47.8109
 30
0.0
 11
249.512
 21
47.8109
 31
0.0
  0
LINE
  8
0
 62
     0
 10
249.512
 20
47.8109
 30
0.0
 11
249.512
 21
41.5424
 31
0.0
  0
LINE
  8
0
 62
     0
 10
249.512
 20
41.5424
 30
0.0
 11
251.237
 21
41.5424
 31
0.0
  0
LINE
  8
0
 62
     0
 10
251.237
 20
41.5424
 30
0.0
 11
251.237
 21
40.3419
 31
0.0
  0
LINE
  8
0
 62
     0
 10
251.237
 20
40.3419
 30
0.0
 11
254.085
 21
40.3419
 31
0.0
  0
LINE
  8
0
 62
     0
 10
254.085
 20
40.3419
 30
0.0
 11
254.085
 21
41.5424
 31
0.0
  0
LINE
  8
0
 62
     0
 10
254.085
 20
41.5424
 30
0.0
 11
255.812
 21
41.5424
 31
0.0
  0
LINE
  8
0
 62
     0
 10
255.812
 20
41.5424
 30
0.0
 11
255.812
 21
46.0114
 31
0.0
  0
LINE
  8
0
 62
     0
 10
255.812
 20
46.0114
 30
0.0
 11
257.787
 21
46.0114
 31
0.0
  0
LINE
  8
0
 62
     0
 10
257.787
 20
46.0114
 30
0.0
 11
257.787
 21
41.312
 31
0.0
  0
LINE
  8
0
 62
     0
 10
257.787
 20
41.312
 30
0.0
 11
271.337
 21
41.312
 31
0.0
  0
LINE
  8
0
 62
     0
 10
271.337
 20
41.312
 30
0.0
 11
271.337
 21
46.0114
 31
0.0
  0
LINE
  8
0
 62
     0
 10
271.337
 20
46.0114
 30
0.0
 11
273.312
 21
46.0114
 31
0.0
  0
LINE
  8
0
 62
     0
 10
273.312
 20
46.0114
 30
0.0
 11
273.312
 21
41.5424
 31
0.0
  0
LINE
  8
0
 62
     0
 10
273.312
 20
41.5424
 30
0.0
 11
275.037
 21
41.5424
 31
0.0
  0
LINE
  8
0
 62
     0
 10
275.037
 20
41.5424
 30
0.0
 11
275.037
 21
40.3419
 31
0.0
  0
LINE
  8
0
 62
     0
 10
275.037
 20
40.3419
 30
0.0
 11
277.887
 21
40.3419
 31
0.0
  0
LINE
  8
0
 62
     0
 10
277.887
 20
40.3419
 30
0.0
 11
277.887
 21
41.5424
 31
0.0
  0
LINE
  8
0
 62
     0
 10
277.887
 20
41.5424
 30
0.0
 11
279.612
 21
41.5424
 31
0.0
  0
LINE
  8
0
 62
     0
 10
279.612
 20
41.5424
 30
0.0
 11
279.612
 21
47.8109
 31
0.0
  0
LINE
  8
0
 62
     0
 10
279.612
 20
47.8109
 30
0.0
 11
280.436
 21
47.8109
 31
0.0
  0
LINE
  8
0
 62
     0
 10
280.436
 20
47.8109
 30
0.0
 11
280.436
 21
50.1618
 31
0.0
  0
LINE
  8
0
 62
     0
 10
280.436
 20
50.1618
 30
0.0
 11
279.612
 21
50.1618
 31
0.0
  0
LINE
  8
0
 62
     0
 10
279.612
 20
50.1618
 30
0.0
 11
279.612
 21
53.3922
 31
0.0
  0
LINE
  8
0
 62
     0
 10
279.612
 20
53.3922
 30
0.0
 11
273.312
 21
53.3922
 31
0.0
  0
LINE
  8
0
 62
     0
 10
273.312
 20
53.3922
 30
0.0
 11
273.312
 21
50.1618
 31
0.0
  0
LINE
  8
0
 62
     0
 10
273.312
 20
50.1618
 30
0.0
 11
271.337
 21
50.1618
 31
0.0
  0
LINE
  8
0
 62
     0
 10
271.337
 20
50.1618
 30
0.0
 11
271.337
 21
54.8626
 31
0.0
  0
LINE
  8
0
 62
     0
 10
271.337
 20
54.8626
 30
0.0
 11
257.787
 21
54.8626
 31
0.0
  0
LINE
  8
0
 62
     0
 10
10.1369
 20
54.8626
 30
0.0
 11
23.6871
 21
54.8626
 31
0.0
  0
LINE
  8
0
 62
     0
 10
23.6871
 20
54.8626
 30
0.0
 11
23.6871
 21
41.312
 31
0.0
  0
LINE
  8
0
 62
     0
 10
23.6871
 20
41.312
 30
0.0
 11
10.1369
 21
41.312
 31
0.0
  0
LINE
  8
0
 62
     0
 10
10.1369
 20
41.312
 30
0.0
 11
10.1369
 21
54.8626
 31
0.0
  0
LINE
  8
0
 62
     0
 10
36.3305
 20
54.8626
 30
0.0
 11
49.881
 21
54.8626
 31
0.0
  0
LINE
  8
0
 62
     0
 10
49.881
 20
54.8626
 30
0.0
 11
49.881
 21
41.312
 31
0.0
  0
LINE
  8
0
 62
     0
 10
49.881
 20
41.312
 30
0.0
 11
36.3305
 21
41.312
 31
0.0
  0
LINE
  8
0
 62
     0
 10
36.3305
 20
41.312
 30
0.0
 11
36.3305
 21
54.8626
 31
0.0
  0
LINE
  8
0
 62
     0
 10
55.3805
 20
54.8626
 30
0.0
 11
68.931
 21
54.8626
 31
0.0
  0
LINE
  8
0
 62
     0
 10
68.931
 20
54.8626
 30
0.0
 11
68.931
 21
41.312
 31
0.0
  0
LINE
  8
0
 62
     0
 10
68.931
 20
41.312
 30
0.0
 11
55.3805
 21
41.312
 31
0.0
  0
LINE
  8
0
 62
     0
 10
55.3805
 20
41.312
 30
0.0
 11
55.3805
 21
54.8626
 31
0.0
  0
LINE
  8
0
 62
     0
 10
74.4305
 20
54.8626
 30
0.0
 11
87.981
 21
54.8626
 31
0.0
  0
LINE
  8
0
 62
     0
 10
87.981
 20
54.8626
 30
0.0
 11
87.981
 21
41.312
 31
0.0
  0
LINE
  8
0
 62
     0
 10
87.981
 20
41.312
 30
0.0
 11
74.4305
 21
41.312
 31
0.0
  0
LINE
  8
0
 62
     0
 10
74.4305
 20
41.312
 30
0.0
 11
74.4305
 21
54.8626
 31
0.0
  0
LINE
  8
0
 62
     0
 10
93.4805
 20
54.8626
 30
0.0
 11
107.031
 21
54.8626
 31
0.0
  0
LINE
  8
0
 62
     0
 10
107.031
 20
54.8626
 30
0.0
 11
107.031
 21
41.312
 31
0.0
  0
LINE
  8
0
 62
     0
 10
107.031
 20
41.312
 30
0.0
 11
93.4805
 21
41.312
 31
0.0
  0
LINE
  8
0
 62
     0
 10
93.4805
 20
41.312
 30
0.0
 11
93.4805
 21
54.8626
 31
0.0
  0
LINE
  8
0
 62
     0
 10
112.53
 20
54.8626
 30
0.0
 11
126.081
 21
54.8626
 31
0.0
  0
LINE
  8
0
 62
     0
 10
126.081
 20
54.8626
 30
0.0
 11
126.081
 21
41.312
 31
0.0
  0
LINE
  8
0
 62
     0
 10
126.081
 20
41.312
 30
0.0
 11
112.53
 21
41.312
 31
0.0
  0
LINE
  8
0
 62
     0
 10
112.53
 20
41.312
 30
0.0
 11
112.53
 21
54.8626
 31
0.0
  0
LINE
  8
0
 62
     0
 10
131.58
 20
54.8626
 30
0.0
 11
145.131
 21
54.8626
 31
0.0
  0
LINE
  8
0
 62
     0
 10
145.131
 20
54.8626
 30
0.0
 11
145.131
 21
41.312
 31
0.0
  0
LINE
  8
0
 62
     0
 10
145.131
 20
41.312
 30
0.0
 11
131.58
 21
41.312
 31
0.0
  0
LINE
  8
0
 62
     0
 10
131.58
 20
41.312
 30
0.0
 11
131.58
 21
54.8626
 31
0.0
  0
LINE
  8
0
 62
     0
 10
150.63
 20
54.8626
 30
0.0
 11
164.181
 21
54.8626
 31
0.0
  0
LINE
  8
0
 62
     0
 10
164.181
 20
54.8626
 30
0.0
 11
164.181
 21
41.312
 31
0.0
  0
LINE
  8
0
 62
     0
 10
164.181
 20
41.312
 30
0.0
 11
150.63
 21
41.312
 31
0.0
  0
LINE
  8
0
 62
     0
 10
150.63
 20
41.312
 30
0.0
 11
150.63
 21
54.8626
 31
0.0
  0
LINE
  8
0
 62
     0
 10
169.68
 20
54.8626
 30
0.0
 11
183.231
 21
54.8626
 31
0.0
  0
LINE
  8
0
 62
     0
 10
183.231
 20
54.8626
 30
0.0
 11
183.231
 21
41.312
 31
0.0
  0
LINE
  8
0
 62
     0
 10
183.231
 20
41.312
 30
0.0
 11
169.68
 21
41.312
 31
0.0
  0
LINE
  8
0
 62
     0
 10
169.68
 20
41.312
 30
0.0
 11
169.68
 21
54.8626
 31
0.0
  0
LINE
  8
0
 62
     0
 10
188.73
 20
54.8626
 30
0.0
 11
202.281
 21
54.8626
 31
0.0
  0
LINE
  8
0
 62
     0
 10
202.281
 20
54.8626
 30
0.0
 11
202.281
 21
41.312
 31
0.0
  0
LINE
  8
0
 62
     0
 10
202.281
 20
41.312
 30
0.0
 11
188.73
 21
41.312
 31
0.0
  0
LINE
  8
0
 62
     0
 10
188.73
 20
41.312
 30
0.0
 11
188.73
 21
54.8626
 31
0.0
  0
LINE
  8
0
 62
     0
 10
207.78
 20
54.8626
 30
0.0
 11
221.331
 21
54.8626
 31
0.0
  0
LINE
  8
0
 62
     0
 10
221.331
 20
54.8626
 30
0.0
 11
221.331
 21
41.312
 31
0.0
  0
LINE
  8
0
 62
     0
 10
221.331
 20
41.312
 30
0.0
 11
207.78
 21
41.312
 31
0.0
  0
LINE
  8
0
 62
     0
 10
207.78
 20
41.312
 30
0.0
 11
207.78
 21
54.8626
 31
0.0
  0
LINE
  8
0
 62
     0
 10
226.83
 20
54.8626
 30
0.0
 11
240.381
 21
54.8626
 31
0.0
  0
LINE
  8
0
 62
     0
 10
240.381
 20
54.8626
 30
0.0
 11
240.381
 21
41.312
 31
0.0
  0
LINE
  8
0
 62
     0
 10
240.381
 20
41.312
 30
0.0
 11
226.83
 21
41.312
 31
0.0
  0
LINE
  8
0
 62
     0
 10
226.83
 20
41.312
 30
0.0
 11
226.83
 21
54.8626
 31
0.0
  0
LINE
  8
0
 62
     0
 10
7.75561
 20
73.9126
 30
0.0
 11
21.3058
 21
73.9126
 31
0.0
  0
LINE
  8
0
 62
     0
 10
21.3058
 20
73.9126
 30
0.0
 11
21.3058
 21
60.362
 31
0.0
  0
LINE
  8
0
 62
     0
 10
21.3058
 20
60.362
 30
0.0
 11
7.75561
 21
60.362
 31
0.0
  0
LINE
  8
0
 62
     0
 10
7.75561
 20
60.362
 30
0.0
 11
7.75561
 21
73.9126
 31
0.0
  0
LINE
  8
0
 62
     0
 10
31.5681
 20
73.9126
 30
0.0
 11
45.1185
 21
73.9126
 31
0.0
  0
LINE
  8
0
 62
     0
 10
45.1185
 20
73.9126
 30
0.0
 11
45.1185
 21
60.362
 31
0.0
  0
LINE
  8
0
 62
     0
 10
45.1185
 20
60.362
 30
0.0
 11
31.5681
 21
60.362
 31
0.0
  0
LINE
  8
0
 62
     0
 10
31.5681
 20
60.362
 30
0.0
 11
31.5681
 21
73.9126
 31
0.0
  0
LINE
  8
0
 62
     0
 10
50.618
 20
73.9126
 30
0.0
 11
64.1685
 21
73.9126
 31
0.0
  0
LINE
  8
0
 62
     0
 10
64.1685
 20
73.9126
 30
0.0
 11
64.1685
 21
60.362
 31
0.0
  0
LINE
  8
0
 62
     0
 10
64.1685
 20
60.362
 30
0.0
 11
50.618
 21
60.362
 31
0.0
  0
LINE
  8
0
 62
     0
 10
50.618
 20
60.362
 30
0.0
 11
50.618
 21
73.9126
 31
0.0
  0
LINE
  8
0
 62
     0
 10
69.668
 20
73.9126
 30
0.0
 11
83.2185
 21
73.9126
 31
0.0
  0
LINE
  8
0
 62
     0
 10
83.2185
 20
73.9126
 30
0.0
 11
83.2185
 21
60.362
 31
0.0
  0
LINE
  8
0
 62
     0
 10
83.2185
 20
60.362
 30
0.0
 11
69.668
 21
60.362
 31
0.0
  0
LINE
  8
0
 62
     0
 10
69.668
 20
60.362
 30
0.0
 11
69.668
 21
73.9126
 31
0.0
  0
LINE
  8
0
 62
     0
 10
88.718
 20
73.9126
 30
0.0
 11
102.269
 21
73.9126
 31
0.0
  0
LINE
  8
0
 62
     0
 10
102.269
 20
73.9126
 30
0.0
 11
102.269
 21
60.362
 31
0.0
  0
LINE
  8
0
 62
     0
 10
102.269
 20
60.362
 30
0.0
 11
88.718
 21
60.362
 31
0.0
  0
LINE
  8
0
 62
     0
 10
88.718
 20
60.362
 30
0.0
 11
88.718
 21
73.9126
 31
0.0
  0
LINE
  8
0
 62
     0
 10
107.768
 20
73.9126
 30
0.0
 11
121.319
 21
73.9126
 31
0.0
  0
LINE
  8
0
 62
     0
 10
121.319
 20
73.9126
 30
0.0
 11
121.319
 21
60.362
 31
0.0
  0
LINE
  8
0
 62
     0
 10
121.319
 20
60.362
 30
0.0
 11
107.768
 21
60.362
 31
0.0
  0
LINE
  8
0
 62
     0
 10
107.768
 20
60.362
 30
0.0
 11
107.768
 21
73.9126
 31
0.0
  0
LINE
  8
0
 62
     0
 10
126.818
 20
73.9126
 30
0.0
 11
140.369
 21
73.9126
 31
0.0
  0
LINE
  8
0
 62
     0
 10
140.369
 20
73.9126
 30
0.0
 11
140.369
 21
60.362
 31
0.0
  0
LINE
  8
0
 62
     0
 10
140.369
 20
60.362
 30
0.0
 11
126.818
 21
60.362
 31
0.0
  0
LINE
  8
0
 62
     0
 10
126.818
 20
60.362
 30
0.0
 11
126.818
 21
73.9126
 31
0.0
  0
LINE
  8
0
 62
     0
 10
145.868
 20
73.9126
 30
0.0
 11
159.419
 21
73.9126
 31
0.0
  0
LINE
  8
0
 62
     0
 10
159.419
 20
73.9126
 30
0.0
 11
159.419
 21
60.362
 31
0.0
  0
LINE
  8
0
 62
     0
 10
159.419
 20
60.362
 30
0.0
 11
145.868
 21
60.362
 31
0.0
  0
LINE
  8
0
 62
     0
 10
145.868
 20
60.362
 30
0.0
 11
145.868
 21
73.9126
 31
0.0
  0
LINE
  8
0
 62
     0
 10
164.918
 20
73.9126
 30
0.0
 11
178.469
 21
73.9126
 31
0.0
  0
LINE
  8
0
 62
     0
 10
178.469
 20
73.9126
 30
0.0
 11
178.469
 21
60.362
 31
0.0
  0
LINE
  8
0
 62
     0
 10
178.469
 20
60.362
 30
0.0
 11
164.918
 21
60.362
 31
0.0
  0
LINE
  8
0
 62
     0
 10
164.918
 20
60.362
 30
0.0
 11
164.918
 21
73.9126
 31
0.0
  0
LINE
  8
0
 62
     0
 10
183.968
 20
73.9126
 30
0.0
 11
197.519
 21
73.9126
 31
0.0
  0
LINE
  8
0
 62
     0
 10
197.519
 20
73.9126
 30
0.0
 11
197.519
 21
60.362
 31
0.0
  0
LINE
  8
0
 62
     0
 10
197.519
 20
60.362
 30
0.0
 11
183.968
 21
60.362
 31
0.0
  0
LINE
  8
0
 62
     0
 10
183.968
 20
60.362
 30
0.0
 11
183.968
 21
73.9126
 31
0.0
  0
LINE
  8
0
 62
     0
 10
203.018
 20
73.9126
 30
0.0
 11
216.569
 21
73.9126
 31
0.0
  0
LINE
  8
0
 62
     0
 10
216.569
 20
73.9126
 30
0.0
 11
216.569
 21
60.362
 31
0.0
  0
LINE
  8
0
 62
     0
 10
216.569
 20
60.362
 30
0.0
 11
203.018
 21
60.362
 31
0.0
  0
LINE
  8
0
 62
     0
 10
203.018
 20
60.362
 30
0.0
 11
203.018
 21
73.9126
 31
0.0
  0
LINE
  8
0
 62
     0
 10
222.068
 20
73.9126
 30
0.0
 11
235.619
 21
73.9126
 31
0.0
  0
LINE
  8
0
 62
     0
 10
235.619
 20
73.9126
 30
0.0
 11
235.619
 21
60.362
 31
0.0
  0
LINE
  8
0
 62
     0
 10
235.619
 20
60.362
 30
0.0
 11
222.068
 21
60.362
 31
0.0
  0
LINE
  8
0
 62
     0
 10
222.068
 20
60.362
 30
0.0
 11
222.068
 21
73.9126
 31
0.0
  0
LINE
  8
0
 62
     0
 10
241.118
 20
73.9126
 30
0.0
 11
254.669
 21
73.9126
 31
0.0
  0
LINE
  8
0
 62
     0
 10
254.669
 20
73.9126
 30
0.0
 11
254.669
 21
60.362
 31
0.0
  0
LINE
  8
0
 62
     0
 10
254.669
 20
60.362
 30
0.0
 11
241.118
 21
60.362
 31
0.0
  0
LINE
  8
0
 62
     0
 10
241.118
 20
60.362
 30
0.0
 11
241.118
 21
73.9126
 31
0.0
  0
LINE
  8
0
 62
     0
 10
264.93
 20
73.9126
 30
0.0
 11
278.481
 21
73.9126
 31
0.0
  0
LINE
  8
0
 62
     0
 10
278.481
 20
73.9126
 30
0.0
 11
278.481
 21
60.362
 31
0.0
  0
LINE
  8
0
 62
     0
 10
278.481
 20
60.362
 30
0.0
 11
264.93
 21
60.362
 31
0.0
  0
LINE
  8
0
 62
     0
 10
264.93
 20
60.362
 30
0.0
 11
264.93
 21
73.9126
 31
0.0
  0
LINE
  8
0
 62
     0
 10
260.168
 20
92.9626
 30
0.0
 11
260.168
 21
88.2632
 31
0.0
  0
LINE
  8
0
 62
     0
 10
260.168
 20
88.2632
 30
0.0
 11
258.193
 21
88.2632
 31
0.0
  0
LINE
  8
0
 62
     0
 10
258.193
 20
88.2632
 30
0.0
 11
258.193
 21
91.4922
 31
0.0
  0
LINE
  8
0
 62
     0
 10
258.193
 20
91.4922
 30
0.0
 11
251.893
 21
91.4922
 31
0.0
  0
LINE
  8
0
 62
     0
 10
251.893
 20
91.4922
 30
0.0
 11
251.893
 21
88.2632
 31
0.0
  0
LINE
  8
0
 62
     0
 10
251.893
 20
88.2632
 30
0.0
 11
251.068
 21
88.2632
 31
0.0
  0
LINE
  8
0
 62
     0
 10
251.068
 20
88.2632
 30
0.0
 11
251.068
 21
85.9109
 31
0.0
  0
LINE
  8
0
 62
     0
 10
251.068
 20
85.9109
 30
0.0
 11
251.893
 21
85.9109
 31
0.0
  0
LINE
  8
0
 62
     0
 10
251.893
 20
85.9109
 30
0.0
 11
251.893
 21
79.6424
 31
0.0
  0
LINE
  8
0
 62
     0
 10
251.893
 20
79.6424
 30
0.0
 11
253.618
 21
79.6424
 31
0.0
  0
LINE
  8
0
 62
     0
 10
253.618
 20
79.6424
 30
0.0
 11
253.618
 21
78.4419
 31
0.0
  0
LINE
  8
0
 62
     0
 10
253.618
 20
78.4419
 30
0.0
 11
256.469
 21
78.4419
 31
0.0
  0
LINE
  8
0
 62
     0
 10
256.469
 20
78.4419
 30
0.0
 11
256.469
 21
79.6424
 31
0.0
  0
LINE
  8
0
 62
     0
 10
256.469
 20
79.6424
 30
0.0
 11
258.193
 21
79.6424
 31
0.0
  0
LINE
  8
0
 62
     0
 10
258.193
 20
79.6424
 30
0.0
 11
258.193
 21
84.1114
 31
0.0
  0
LINE
  8
0
 62
     0
 10
258.193
 20
84.1114
 30
0.0
 11
260.168
 21
84.1114
 31
0.0
  0
LINE
  8
0
 62
     0
 10
260.168
 20
84.1114
 30
0.0
 11
260.168
 21
79.412
 31
0.0
  0
LINE
  8
0
 62
     0
 10
260.168
 20
79.412
 30
0.0
 11
273.719
 21
79.412
 31
0.0
  0
LINE
  8
0
 62
     0
 10
273.719
 20
79.412
 30
0.0
 11
273.719
 21
84.1114
 31
0.0
  0
LINE
  8
0
 62
     0
 10
273.719
 20
84.1114
 30
0.0
 11
275.693
 21
84.1114
 31
0.0
  0
LINE
  8
0
 62
     0
 10
275.693
 20
84.1114
 30
0.0
 11
275.693
 21
79.6424
 31
0.0
  0
LINE
  8
0
 62
     0
 10
275.693
 20
79.6424
 30
0.0
 11
277.418
 21
79.6424
 31
0.0
  0
LINE
  8
0
 62
     0
 10
277.418
 20
79.6424
 30
0.0
 11
277.418
 21
78.4419
 31
0.0
  0
LINE
  8
0
 62
     0
 10
277.418
 20
78.4419
 30
0.0
 11
280.27
 21
78.4419
 31
0.0
  0
LINE
  8
0
 62
     0
 10
280.27
 20
78.4419
 30
0.0
 11
280.27
 21
79.6424
 31
0.0
  0
LINE
  8
0
 62
     0
 10
280.27
 20
79.6424
 30
0.0
 11
281.994
 21
79.6424
 31
0.0
  0
LINE
  8
0
 62
     0
 10
281.994
 20
79.6424
 30
0.0
 11
281.994
 21
85.9109
 31
0.0
  0
LINE
  8
0
 62
     0
 10
281.994
 20
85.9109
 30
0.0
 11
282.819
 21
85.9109
 31
0.0
  0
LINE
  8
0
 62
     0
 10
282.819
 20
85.9109
 30
0.0
 11
282.819
 21
88.2632
 31
0.0
  0
LINE
  8
0
 62
     0
 10
282.819
 20
88.2632
 30
0.0
 11
281.994
 21
88.2632
 31
0.0
  0
LINE
  8
0
 62
     0
 10
281.994
 20
88.2632
 30
0.0
 11
281.994
 21
91.4922
 31
0.0
  0
LINE
  8
0
 62
     0
 10
281.994
 20
91.4922
 30
0.0
 11
275.693
 21
91.4922
 31
0.0
  0
LINE
  8
0
 62
     0
 10
275.693
 20
91.4922
 30
0.0
 11
275.693
 21
88.2632
 31
0.0
  0
LINE
  8
0
 62
     0
 10
275.693
 20
88.2632
 30
0.0
 11
273.719
 21
88.2632
 31
0.0
  0
LINE
  8
0
 62
     0
 10
273.719
 20
88.2632
 30
0.0
 11
273.719
 21
92.9626
 31
0.0
  0
LINE
  8
0
 62
     0
 10
273.719
 20
92.9626
 30
0.0
 11
260.168
 21
92.9626
 31
0.0
  0
LINE
  8
0
 62
     0
 10
2.9931
 20
92.9626
 30
0.0
 11
16.5433
 21
92.9626
 31
0.0
  0
LINE
  8
0
 62
     0
 10
16.5433
 20
92.9626
 30
0.0
 11
16.5433
 21
79.412
 31
0.0
  0
LINE
  8
0
 62
     0
 10
16.5433
 20
79.412
 30
0.0
 11
2.9931
 21
79.412
 31
0.0
  0
LINE
  8
0
 62
     0
 10
2.9931
 20
79.412
 30
0.0
 11
2.9931
 21
92.9626
 31
0.0
  0
LINE
  8
0
 62
     0
 10
22.0431
 20
92.9626
 30
0.0
 11
35.5935
 21
92.9626
 31
0.0
  0
LINE
  8
0
 62
     0
 10
35.5935
 20
92.9626
 30
0.0
 11
35.5935
 21
79.412
 31
0.0
  0
LINE
  8
0
 62
     0
 10
35.5935
 20
79.412
 30
0.0
 11
22.0431
 21
79.412
 31
0.0
  0
LINE
  8
0
 62
     0
 10
22.0431
 20
79.412
 30
0.0
 11
22.0431
 21
92.9626
 31
0.0
  0
LINE
  8
0
 62
     0
 10
41.093
 20
92.9626
 30
0.0
 11
54.6435
 21
92.9626
 31
0.0
  0
LINE
  8
0
 62
     0
 10
54.6435
 20
92.9626
 30
0.0
 11
54.6435
 21
79.412
 31
0.0
  0
LINE
  8
0
 62
     0
 10
54.6435
 20
79.412
 30
0.0
 11
41.093
 21
79.412
 31
0.0
  0
LINE
  8
0
 62
     0
 10
41.093
 20
79.412
 30
0.0
 11
41.093
 21
92.9626
 31
0.0
  0
LINE
  8
0
 62
     0
 10
60.1416
 20
92.9626
 30
0.0
 11
73.6935
 21
92.9626
 31
0.0
  0
LINE
  8
0
 62
     0
 10
73.6935
 20
92.9626
 30
0.0
 11
73.6935
 21
79.412
 31
0.0
  0
LINE
  8
0
 62
     0
 10
73.6935
 20
79.412
 30
0.0
 11
60.1416
 21
79.412
 31
0.0
  0
LINE
  8
0
 62
     0
 10
60.1416
 20
79.412
 30
0.0
 11
60.1416
 21
92.9626
 31
0.0
  0
LINE
  8
0
 62
     0
 10
79.193
 20
92.9626
 30
0.0
 11
92.7435
 21
92.9626
 31
0.0
  0
LINE
  8
0
 62
     0
 10
92.7435
 20
92.9626
 30
0.0
 11
92.7435
 21
79.412
 31
0.0
  0
LINE
  8
0
 62
     0
 10
92.7435
 20
79.412
 30
0.0
 11
79.193
 21
79.412
 31
0.0
  0
LINE
  8
0
 62
     0
 10
79.193
 20
79.412
 30
0.0
 11
79.193
 21
92.9626
 31
0.0
  0
LINE
  8
0
 62
     0
 10
98.243
 20
92.9626
 30
0.0
 11
111.794
 21
92.9626
 31
0.0
  0
LINE
  8
0
 62
     0
 10
111.794
 20
92.9626
 30
0.0
 11
111.794
 21
79.412
 31
0.0
  0
LINE
  8
0
 62
     0
 10
111.794
 20
79.412
 30
0.0
 11
98.243
 21
79.412
 31
0.0
  0
LINE
  8
0
 62
     0
 10
98.243
 20
79.412
 30
0.0
 11
98.243
 21
92.9626
 31
0.0
  0
LINE
  8
0
 62
     0
 10
117.293
 20
92.9626
 30
0.0
 11
130.844
 21
92.9626
 31
0.0
  0
LINE
  8
0
 62
     0
 10
130.844
 20
92.9626
 30
0.0
 11
130.844
 21
79.412
 31
0.0
  0
LINE
  8
0
 62
     0
 10
130.844
 20
79.412
 30
0.0
 11
117.293
 21
79.412
 31
0.0
  0
LINE
  8
0
 62
     0
 10
117.293
 20
79.412
 30
0.0
 11
117.293
 21
92.9626
 31
0.0
  0
LINE
  8
0
 62
     0
 10
136.343
 20
92.9626
 30
0.0
 11
149.894
 21
92.9626
 31
0.0
  0
LINE
  8
0
 62
     0
 10
149.894
 20
92.9626
 30
0.0
 11
149.894
 21
79.412
 31
0.0
  0
LINE
  8
0
 62
     0
 10
149.894
 20
79.412
 30
0.0
 11
136.343
 21
79.412
 31
0.0
  0
LINE
  8
0
 62
     0
 10
136.343
 20
79.412
 30
0.0
 11
136.343
 21
92.9626
 31
0.0
  0
LINE
  8
0
 62
     0
 10
155.393
 20
92.9626
 30
0.0
 11
168.944
 21
92.9626
 31
0.0
  0
LINE
  8
0
 62
     0
 10
168.944
 20
92.9626
 30
0.0
 11
168.944
 21
79.412
 31
0.0
  0
LINE
  8
0
 62
     0
 10
168.944
 20
79.412
 30
0.0
 11
155.393
 21
79.412
 31
0.0
  0
LINE
  8
0
 62
     0
 10
155.393
 20
79.412
 30
0.0
 11
155.393
 21
92.9626
 31
0.0
  0
LINE
  8
0
 62
     0
 10
174.443
 20
92.9626
 30
0.0
 11
187.994
 21
92.9626
 31
0.0
  0
LINE
  8
0
 62
     0
 10
187.994
 20
92.9626
 30
0.0
 11
187.994
 21
79.412
 31
0.0
  0
LINE
  8
0
 62
     0
 10
187.994
 20
79.412
 30
0.0
 11
174.443
 21
79.412
 31
0.0
  0
LINE
  8
0
 62
     0
 10
174.443
 20
79.412
 30
0.0
 11
174.443
 21
92.9626
 31
0.0
  0
LINE
  8
0
 62
     0
 10
193.493
 20
92.9626
 30
0.0
 11
207.044
 21
92.9626
 31
0.0
  0
LINE
  8
0
 62
     0
 10
207.044
 20
92.9626
 30
0.0
 11
207.044
 21
79.412
 31
0.0
  0
LINE
  8
0
 62
     0
 10
207.044
 20
79.412
 30
0.0
 11
193.493
 21
79.412
 31
0.0
  0
LINE
  8
0
 62
     0
 10
193.493
 20
79.412
 30
0.0
 11
193.493
 21
92.9626
 31
0.0
  0
LINE
  8
0
 62
     0
 10
212.543
 20
92.9626
 30
0.0
 11
226.094
 21
92.9626
 31
0.0
  0
LINE
  8
0
 62
     0
 10
226.094
 20
92.9626
 30
0.0
 11
226.094
 21
79.412
 31
0.0
  0
LINE
  8
0
 62
     0
 10
226.094
 20
79.412
 30
0.0
 11
212.543
 21
79.412
 31
0.0
  0
LINE
  8
0
 62
     0
 10
212.543
 20
79.412
 30
0.0
 11
212.543
 21
92.9626
 31
0.0
  0
LINE
  8
0
 62
     0
 10
231.593
 20
92.9626
 30
0.0
 11
245.144
 21
92.9626
 31
0.0
  0
LINE
  8
0
 62
     0
 10
245.144
 20
92.9626
 30
0.0
 11
245.144
 21
79.412
 31
0.0
  0
LINE
  8
0
 62
     0
 10
245.144
 20
79.412
 30
0.0
 11
231.593
 21
79.412
 31
0.0
  0
LINE
  8
0
 62
     0
 10
231.593
 20
79.412
 30
0.0
 11
231.593
 21
92.9626
 31
0.0
  0
ENDSEC
  0
EOF
