999
FreeCAD v0.19 24267 +99 (Git)
  0
SECTION
  2
HEADER
  9
$ACADVER
  1
AC1014
  9
$ACADMAINTVER
 70
     9
  9
$DWGCODEPAGE
  3
ANSI_1252
  9
$TEXTSTYLE
  7
STANDARD
  9
$DIMSTYLE
  2
STANDARD
  9
$DIMTXSTY
  7
STANDARD
  9
$CMLSTYLE
  2
STANDARD
  9
$PEXTMAX
 10
50
 20
50
 30
50
  9
$PEXTMIN
 10
0
 20
0
 30
0
  9
$HANDSEED
  5
FFFF
  0
ENDSEC
  0
SECTION
  2
CLASSES
  0
CLASS
  1
ACDBDICTIONARYWDFLT
  2
AcDbDictionaryWithDefault
  3
ObjectDBX Classes
 90
        0
280
     0
281
     0
  0
CLASS
  1
XRECORD
  2
AcDbXrecord
  3
ObjectDBX Classes
 90
        0
280
     0
281
     0
  0
CLASS
  1
LWPOLYLINE
  2
AcDbPolyline
  3
ObjectDBX Classes
 90
        0
280
     0
281
     1
  0
ENDSEC
  0
SECTION
  2
TABLES
  0
TABLE
  2
VPORT
  5
20
330
0
100
AcDbSymbolTable
 70
     1
  0
VPORT
  5
21
330
20
100
AcDbSymbolTableRecord
100
AcDbViewportTableRecord
  2
*ACTIVE
 70
     0
  0
ENDTAB
  0
TABLE
  2
LTYPE
  5
22
330
0
100
AcDbSymbolTable
 70
     1
  0
LTYPE
  5
23
330
21
100
AcDbSymbolTableRecord
100
AcDbLinetypeTableRecord
  2
BYBLOCK
 70
     0
  3

 72
    65
 73
     0
 40
0.0
  0
LTYPE
  5
24
330
21
100
AcDbSymbolTableRecord
100
AcDbLinetypeTableRecord
  2
BYLAYER
 70
     0
  3

 72
    65
 73
     0
 40
0.0
  0
LTYPE
  5
25
330
21
100
AcDbSymbolTableRecord
100
AcDbLinetypeTableRecord
  2
CONTINUOUS
 70
     0
  3
Solid line
 72
    65
 73
     0
 40
0.0
  0
ENDTAB
  0
TABLE
  2
LAYER
  5
B70
330
0
100
AcDbSymbolTable
 70
3
  0
LAYER
  5
B71
330
B70
100
AcDbSymbolTableRecord
100
AcDbLayerTableRecord
  2
0
 70
   0
 62
   7
  6
CONTINUOUS
  0
LAYER
  5
B72
330
B70
100
AcDbSymbolTableRecord
100
AcDbLayerTableRecord
  2
none
 70
    0
 62
    7
  6
CONTINUOUS
  0
LAYER
  5
B73
330
B70
100
AcDbSymbolTableRecord
100
AcDbLayerTableRecord
  2
Part__Feature
 70
    0
 62
    7
  6
CONTINUOUS
  0
ENDTAB
  0
TABLE
  2
STYLE
  5
70
330
0
100
AcDbSymbolTable
 70
     2
  0
STYLE
  5
71
330
70
100
AcDbSymbolTableRecord
100
AcDbTextStyleTableRecord
  2
STANDARD
 70
     0
 40
0.0
 41
1.0
 50
0.0
 71
     0
 42
2.5
  3
arial.ttf
  4

  0
STYLE
  5
72
330
70
100
AcDbSymbolTableRecord
100
AcDbTextStyleTableRecord
  2
ANNOTATIVE
 70
     0
 40
0.0
 41
1.0
 50
0.0
 71
     0
 42
2.5
  3
arial.ttf
  4

  0
ENDTAB
  0
TABLE
  2
VIEW
  5
73
330
0
100
AcDbSymbolTable
 70
     0
  0
ENDTAB
  0
TABLE
  2
UCS
  5
74
330
0
100
AcDbSymbolTable
 70
     0
  0
ENDTAB
  0
TABLE
  2
APPID
  5
75
330
0
100
AcDbSymbolTable
 70
     2
  0
APPID
  5
76
330
75
100
AcDbSymbolTableRecord
100
AcDbRegAppTableRecord
  2
ACAD
 70
     0
  0
APPID
  5
77
330
75
100
AcDbSymbolTableRecord
100
AcDbRegAppTableRecord
  2
ACADANNOTATIVE
 70
     0
  0
ENDTAB
  0
TABLE
  2
DIMSTYLE
  5
78
330
0
100
AcDbSymbolTable
 70
     2
  0
DIMSTYLE
105
79
330
78
100
AcDbSymbolTableRecord
100
AcDbDimStyleTableRecord
  2
STANDARD
 70
     0
  3

  4

  5

  6

  7

 40
0.0
 41
2.5
 42
0.625
 43
3.75
 44
1.25
 45
0.0
 46
0.0
 47
0.0
 48
0.0
140
2.5
141
2.5
142
0.0
143
0.03937007874016
144
1.0
145
0.0
146
1.0
147
0.625
 71
     0
 72
     0
 73
     0
 74
     0
 75
     0
 76
     0
 77
     1
 78
     8
170
     0
171
     3
172
     1
173
     0
174
     0
175
     0
176
     0
177
     0
178
     0
270
     2
271
     2
272
     2
273
     2
274
     3
340
71
275
     0
280
     0
281
     0
282
     0
283
     0
284
     8
285
     0
286
     0
287
     3
288
     0
  0
ENDTAB
  0
TABLE
  2
BLOCK_RECORD
  5
A01
330
0
100
AcDbSymbolTable
  70
5
  0
BLOCK_RECORD
  5
A02
330
A01
100
AcDbSymbolTableRecord
100
AcDbBlockTableRecord
  2
*MODEL_SPACE
  0
BLOCK_RECORD
  5
A03
330
A01
100
AcDbSymbolTableRecord
100
AcDbBlockTableRecord
  2
*PAPER_SPACE
  0
ENDTAB
  0
ENDSEC
  0
SECTION
  2
BLOCKS
  0
BLOCK
  5
A04
330
A02
100
AcDbEntity
  8
0
100
AcDbBlockBegin
  2
*MODEL_SPACE
 70
   0
 10
0
 20
0
 30
0
  3
*MODEL_SPACE
  1
 
  0
ENDBLK
  5
A05
330
A02
100
AcDbEntity
  8
0
100
AcDbBlockEnd
  0
BLOCK
  5
A06
330
A03
100
AcDbEntity
 67
1
  8
0
100
AcDbBlockBegin
  2
*PAPER_SPACE
 70
   0
 10
0
 20
0
 30
0
  3
*PAPER_SPACE
  1
 
  0
ENDBLK
  5
A07
330
A03
100
AcDbEntity
 67
    1
  8
0
100
AcDbBlockEnd
  0
ENDSEC
  0
SECTION
  2
ENTITIES
  0
ELLIPSE
  5
A08
330
A02
100
AcDbEntity
  8
Part__Feature
100
AcDbEllipse
 10
416.387
 20
5.80453
 30
61.754
 11
-1.52143
 21
-0.00767533
 31
0
 40
0.73299
 41
0
 42
6.28318
  0
LINE
  5
A09
330
A02
100
AcDbEntity
  8
Part__Feature
100
AcDbLine
 10
417.909
 20
5.8122
 30
61.754
 11
417.909
 21
5.8122
 31
59.754
  0
ELLIPSE
  5
A0A
330
A02
100
AcDbEntity
  8
Part__Feature
100
AcDbEllipse
 10
416.387
 20
5.80453
 30
59.754
 11
-1.52143
 21
-0.00767533
 31
0
 40
0.73299
 41
0
 42
6.28318
  0
LINE
  5
A0B
330
A02
100
AcDbEntity
  8
Part__Feature
100
AcDbLine
 10
417.909
 20
5.8122
 30
61.754
 11
417.909
 21
5.8122
 31
59.754
  0
LINE
  5
A0C
330
A02
100
AcDbEntity
  8
Part__Feature
100
AcDbLine
 10
409.5
 20
12.2108
 30
59.754
 11
409.5
 21
12.2108
 31
61.754
  0
ARC
  5
A0D
330
A02
100
AcDbEntity
  8
Part__Feature
100
AcDbCircle
 10
409.5
 20
13.0108
 30
61.754
 40
0.8
100
AcDbArc
 50
90
 51
-90
  0
LINE
  5
A0E
330
A02
100
AcDbEntity
  8
Part__Feature
100
AcDbLine
 10
409.5
 20
13.8108
 30
59.754
 11
409.5
 21
13.8108
 31
61.754
  0
ARC
  5
A0F
330
A02
100
AcDbEntity
  8
Part__Feature
100
AcDbCircle
 10
409.5
 20
13.0108
 30
59.754
 40
0.8
100
AcDbArc
 50
90
 51
-90
  0
LINE
  5
A10
330
A02
100
AcDbEntity
  8
Part__Feature
100
AcDbLine
 10
422.223
 20
12.2108
 30
59.754
 11
409.5
 21
12.2108
 31
59.754
  0
LINE
  5
A11
330
A02
100
AcDbEntity
  8
Part__Feature
100
AcDbLine
 10
409.5
 20
12.2108
 30
59.754
 11
409.5
 21
12.2108
 31
61.754
  0
LINE
  5
A12
330
A02
100
AcDbEntity
  8
Part__Feature
100
AcDbLine
 10
422.223
 20
12.2108
 30
61.754
 11
409.5
 21
12.2108
 31
61.754
  0
LINE
  5
A13
330
A02
100
AcDbEntity
  8
Part__Feature
100
AcDbLine
 10
422.223
 20
12.2108
 30
59.754
 11
422.223
 21
12.2108
 31
61.754
  0
LINE
  5
A14
330
A02
100
AcDbEntity
  8
Part__Feature
100
AcDbLine
 10
422.223
 20
13.8108
 30
59.754
 11
422.223
 21
13.8108
 31
61.754
  0
ARC
  5
A15
330
A02
100
AcDbEntity
  8
Part__Feature
100
AcDbCircle
 10
422.223
 20
13.0108
 30
61.754
 40
0.8
100
AcDbArc
 50
-90
 51
90
  0
LINE
  5
A16
330
A02
100
AcDbEntity
  8
Part__Feature
100
AcDbLine
 10
422.223
 20
12.2108
 30
59.754
 11
422.223
 21
12.2108
 31
61.754
  0
ARC
  5
A17
330
A02
100
AcDbEntity
  8
Part__Feature
100
AcDbCircle
 10
422.223
 20
13.0108
 30
59.754
 40
0.8
100
AcDbArc
 50
-90
 51
90
  0
LINE
  5
A18
330
A02
100
AcDbEntity
  8
Part__Feature
100
AcDbLine
 10
409.5
 20
13.8108
 30
59.754
 11
422.223
 21
13.8108
 31
59.754
  0
LINE
  5
A19
330
A02
100
AcDbEntity
  8
Part__Feature
100
AcDbLine
 10
422.223
 20
13.8108
 30
59.754
 11
422.223
 21
13.8108
 31
61.754
  0
LINE
  5
A1A
330
A02
100
AcDbEntity
  8
Part__Feature
100
AcDbLine
 10
409.5
 20
13.8108
 30
61.754
 11
422.223
 21
13.8108
 31
61.754
  0
LINE
  5
A1B
330
A02
100
AcDbEntity
  8
Part__Feature
100
AcDbLine
 10
409.5
 20
13.8108
 30
59.754
 11
409.5
 21
13.8108
 31
61.754
  0
LINE
  5
A1C
330
A02
100
AcDbEntity
  8
Part__Feature
100
AcDbLine
 10
325.19
 20
95.078
 30
61.754
 11
325.19
 21
95.078
 31
59.754
  0
CIRCLE
  5
A1D
330
A02
100
AcDbEntity
  8
Part__Feature
100
AcDbCircle
 10
324.09
 20
95.078
 40
1.1
  0
LINE
  5
A1E
330
A02
100
AcDbEntity
  8
Part__Feature
100
AcDbLine
 10
325.19
 20
95.078
 30
61.754
 11
325.19
 21
95.078
 31
59.754
  0
CIRCLE
  5
A1F
330
A02
100
AcDbEntity
  8
Part__Feature
100
AcDbCircle
 10
324.09
 20
95.078
 40
1.1
  0
LINE
  5
A20
330
A02
100
AcDbEntity
  8
Part__Feature
100
AcDbLine
 10
326.66
 20
55.454
 30
61.754
 11
326.66
 21
55.454
 31
59.754
  0
CIRCLE
  5
A21
330
A02
100
AcDbEntity
  8
Part__Feature
100
AcDbCircle
 10
325.56
 20
55.454
 40
1.1
  0
LINE
  5
A22
330
A02
100
AcDbEntity
  8
Part__Feature
100
AcDbLine
 10
326.66
 20
55.454
 30
61.754
 11
326.66
 21
55.454
 31
59.754
  0
CIRCLE
  5
A23
330
A02
100
AcDbEntity
  8
Part__Feature
100
AcDbCircle
 10
325.56
 20
55.454
 40
1.1
  0
LINE
  5
A24
330
A02
100
AcDbEntity
  8
Part__Feature
100
AcDbLine
 10
324.882
 20
17.2269
 30
61.754
 11
324.882
 21
17.2269
 31
59.754
  0
CIRCLE
  5
A25
330
A02
100
AcDbEntity
  8
Part__Feature
100
AcDbCircle
 10
323.782
 20
17.2269
 40
1.1
  0
LINE
  5
A26
330
A02
100
AcDbEntity
  8
Part__Feature
100
AcDbLine
 10
324.882
 20
17.2269
 30
61.754
 11
324.882
 21
17.2269
 31
59.754
  0
CIRCLE
  5
A27
330
A02
100
AcDbEntity
  8
Part__Feature
100
AcDbCircle
 10
323.782
 20
17.2269
 40
1.1
  0
LINE
  5
A28
330
A02
100
AcDbEntity
  8
Part__Feature
100
AcDbLine
 10
364.253
 20
17.2269
 30
61.754
 11
364.253
 21
17.2269
 31
59.754
  0
CIRCLE
  5
A29
330
A02
100
AcDbEntity
  8
Part__Feature
100
AcDbCircle
 10
363.153
 20
17.2269
 40
1.1
  0
LINE
  5
A2A
330
A02
100
AcDbEntity
  8
Part__Feature
100
AcDbLine
 10
364.253
 20
17.2269
 30
61.754
 11
364.253
 21
17.2269
 31
59.754
  0
CIRCLE
  5
A2B
330
A02
100
AcDbEntity
  8
Part__Feature
100
AcDbCircle
 10
363.153
 20
17.2269
 40
1.1
  0
LINE
  5
A2C
330
A02
100
AcDbEntity
  8
Part__Feature
100
AcDbLine
 10
386.859
 20
55.454
 30
61.754
 11
386.859
 21
55.454
 31
59.754
  0
CIRCLE
  5
A2D
330
A02
100
AcDbEntity
  8
Part__Feature
100
AcDbCircle
 10
385.759
 20
55.454
 40
1.1
  0
LINE
  5
A2E
330
A02
100
AcDbEntity
  8
Part__Feature
100
AcDbLine
 10
386.859
 20
55.454
 30
61.754
 11
386.859
 21
55.454
 31
59.754
  0
CIRCLE
  5
A2F
330
A02
100
AcDbEntity
  8
Part__Feature
100
AcDbCircle
 10
385.759
 20
55.454
 40
1.1
  0
LINE
  5
A30
330
A02
100
AcDbEntity
  8
Part__Feature
100
AcDbLine
 10
401.21
 20
95.078
 30
61.754
 11
401.21
 21
95.078
 31
59.754
  0
CIRCLE
  5
A31
330
A02
100
AcDbEntity
  8
Part__Feature
100
AcDbCircle
 10
400.11
 20
95.078
 40
1.1
  0
LINE
  5
A32
330
A02
100
AcDbEntity
  8
Part__Feature
100
AcDbLine
 10
401.21
 20
95.078
 30
61.754
 11
401.21
 21
95.078
 31
59.754
  0
CIRCLE
  5
A33
330
A02
100
AcDbEntity
  8
Part__Feature
100
AcDbCircle
 10
400.11
 20
95.078
 40
1.1
  0
LINE
  5
A34
330
A02
100
AcDbEntity
  8
Part__Feature
100
AcDbLine
 10
477.283
 20
95.078
 30
61.754
 11
477.283
 21
95.078
 31
59.754
  0
CIRCLE
  5
A35
330
A02
100
AcDbEntity
  8
Part__Feature
100
AcDbCircle
 10
476.183
 20
95.078
 40
1.1
  0
LINE
  5
A36
330
A02
100
AcDbEntity
  8
Part__Feature
100
AcDbLine
 10
477.283
 20
95.078
 30
61.754
 11
477.283
 21
95.078
 31
59.754
  0
CIRCLE
  5
A37
330
A02
100
AcDbEntity
  8
Part__Feature
100
AcDbCircle
 10
476.183
 20
95.078
 40
1.1
  0
LINE
  5
A38
330
A02
100
AcDbEntity
  8
Part__Feature
100
AcDbLine
 10
463.44
 20
55.454
 30
61.754
 11
463.44
 21
55.454
 31
59.754
  0
CIRCLE
  5
A39
330
A02
100
AcDbEntity
  8
Part__Feature
100
AcDbCircle
 10
462.34
 20
55.454
 40
1.1
  0
LINE
  5
A3A
330
A02
100
AcDbEntity
  8
Part__Feature
100
AcDbLine
 10
463.44
 20
55.454
 30
61.754
 11
463.44
 21
55.454
 31
59.754
  0
CIRCLE
  5
A3B
330
A02
100
AcDbEntity
  8
Part__Feature
100
AcDbCircle
 10
462.34
 20
55.454
 40
1.1
  0
LINE
  5
A3C
330
A02
100
AcDbEntity
  8
Part__Feature
100
AcDbLine
 10
454.677
 20
17.2269
 30
61.754
 11
454.677
 21
17.2269
 31
59.754
  0
CIRCLE
  5
A3D
330
A02
100
AcDbEntity
  8
Part__Feature
100
AcDbCircle
 10
453.577
 20
17.2269
 40
1.1
  0
LINE
  5
A3E
330
A02
100
AcDbEntity
  8
Part__Feature
100
AcDbLine
 10
454.677
 20
17.2269
 30
61.754
 11
454.677
 21
17.2269
 31
59.754
  0
CIRCLE
  5
A3F
330
A02
100
AcDbEntity
  8
Part__Feature
100
AcDbCircle
 10
453.577
 20
17.2269
 40
1.1
  0
LINE
  5
A40
330
A02
100
AcDbEntity
  8
Part__Feature
100
AcDbLine
 10
507.128
 20
17.2269
 30
61.754
 11
507.128
 21
17.2269
 31
59.754
  0
CIRCLE
  5
A41
330
A02
100
AcDbEntity
  8
Part__Feature
100
AcDbCircle
 10
506.028
 20
17.2269
 40
1.1
  0
LINE
  5
A42
330
A02
100
AcDbEntity
  8
Part__Feature
100
AcDbLine
 10
507.128
 20
17.2269
 30
61.754
 11
507.128
 21
17.2269
 31
59.754
  0
CIRCLE
  5
A43
330
A02
100
AcDbEntity
  8
Part__Feature
100
AcDbCircle
 10
506.028
 20
17.2269
 40
1.1
  0
LINE
  5
A44
330
A02
100
AcDbEntity
  8
Part__Feature
100
AcDbLine
 10
520.336
 20
55.454
 30
61.754
 11
520.336
 21
55.454
 31
59.754
  0
CIRCLE
  5
A45
330
A02
100
AcDbEntity
  8
Part__Feature
100
AcDbCircle
 10
519.236
 20
55.454
 40
1.1
  0
LINE
  5
A46
330
A02
100
AcDbEntity
  8
Part__Feature
100
AcDbLine
 10
520.336
 20
55.454
 30
61.754
 11
520.336
 21
55.454
 31
59.754
  0
CIRCLE
  5
A47
330
A02
100
AcDbEntity
  8
Part__Feature
100
AcDbCircle
 10
519.236
 20
55.454
 40
1.1
  0
LINE
  5
A48
330
A02
100
AcDbEntity
  8
Part__Feature
100
AcDbLine
 10
534.56
 20
95.078
 30
61.754
 11
534.56
 21
95.078
 31
59.754
  0
CIRCLE
  5
A49
330
A02
100
AcDbEntity
  8
Part__Feature
100
AcDbCircle
 10
533.46
 20
95.078
 40
1.1
  0
LINE
  5
A4A
330
A02
100
AcDbEntity
  8
Part__Feature
100
AcDbLine
 10
534.56
 20
95.078
 30
61.754
 11
534.56
 21
95.078
 31
59.754
  0
CIRCLE
  5
A4B
330
A02
100
AcDbEntity
  8
Part__Feature
100
AcDbCircle
 10
533.46
 20
95.078
 40
1.1
  0
LINE
  5
A4C
330
A02
100
AcDbEntity
  8
Part__Feature
100
AcDbLine
 10
591.202
 20
95.078
 30
61.754
 11
591.202
 21
95.078
 31
59.754
  0
CIRCLE
  5
A4D
330
A02
100
AcDbEntity
  8
Part__Feature
100
AcDbCircle
 10
590.102
 20
95.078
 40
1.1
  0
LINE
  5
A4E
330
A02
100
AcDbEntity
  8
Part__Feature
100
AcDbLine
 10
591.202
 20
95.078
 30
61.754
 11
591.202
 21
95.078
 31
59.754
  0
CIRCLE
  5
A4F
330
A02
100
AcDbEntity
  8
Part__Feature
100
AcDbCircle
 10
590.102
 20
95.078
 40
1.1
  0
LINE
  5
A50
330
A02
100
AcDbEntity
  8
Part__Feature
100
AcDbLine
 10
581.804
 20
55.454
 30
61.754
 11
581.804
 21
55.454
 31
59.754
  0
CIRCLE
  5
A51
330
A02
100
AcDbEntity
  8
Part__Feature
100
AcDbCircle
 10
580.704
 20
55.454
 40
1.1
  0
LINE
  5
A52
330
A02
100
AcDbEntity
  8
Part__Feature
100
AcDbLine
 10
581.804
 20
55.454
 30
61.754
 11
581.804
 21
55.454
 31
59.754
  0
CIRCLE
  5
A53
330
A02
100
AcDbEntity
  8
Part__Feature
100
AcDbCircle
 10
580.704
 20
55.454
 40
1.1
  0
LINE
  5
A54
330
A02
100
AcDbEntity
  8
Part__Feature
100
AcDbLine
 10
588.027
 20
17.2269
 30
61.754
 11
588.027
 21
17.2269
 31
59.754
  0
CIRCLE
  5
A55
330
A02
100
AcDbEntity
  8
Part__Feature
100
AcDbCircle
 10
586.927
 20
17.2269
 40
1.1
  0
LINE
  5
A56
330
A02
100
AcDbEntity
  8
Part__Feature
100
AcDbLine
 10
588.027
 20
17.2269
 30
61.754
 11
588.027
 21
17.2269
 31
59.754
  0
CIRCLE
  5
A57
330
A02
100
AcDbEntity
  8
Part__Feature
100
AcDbCircle
 10
586.927
 20
17.2269
 40
1.1
  0
LINE
  5
A58
330
A02
100
AcDbEntity
  8
Part__Feature
100
AcDbLine
 10
301.045
 20
106.499
 30
59.754
 11
301.045
 21
74.8102
 31
59.754
  0
LINE
  5
A59
330
A02
100
AcDbEntity
  8
Part__Feature
100
AcDbLine
 10
301.045
 20
74.8102
 30
59.754
 11
301.045
 21
74.8102
 31
61.754
  0
LINE
  5
A5A
330
A02
100
AcDbEntity
  8
Part__Feature
100
AcDbLine
 10
301.045
 20
106.499
 30
61.754
 11
301.045
 21
74.8102
 31
61.754
  0
LINE
  5
A5B
330
A02
100
AcDbEntity
  8
Part__Feature
100
AcDbLine
 10
301.045
 20
106.499
 30
59.754
 11
301.045
 21
106.499
 31
61.754
  0
ARC
  5
A5C
330
A02
100
AcDbEntity
  8
Part__Feature
100
AcDbCircle
 10
312.955
 20
106.499
 30
59.754
 40
11.91
100
AcDbArc
 50
90
 51
180
  0
LINE
  5
A5D
330
A02
100
AcDbEntity
  8
Part__Feature
100
AcDbLine
 10
301.045
 20
106.499
 30
59.754
 11
301.045
 21
106.499
 31
61.754
  0
ARC
  5
A5E
330
A02
100
AcDbEntity
  8
Part__Feature
100
AcDbCircle
 10
312.955
 20
106.499
 30
61.754
 40
11.91
100
AcDbArc
 50
90
 51
180
  0
LINE
  5
A5F
330
A02
100
AcDbEntity
  8
Part__Feature
100
AcDbLine
 10
312.955
 20
118.409
 30
59.754
 11
312.955
 21
118.409
 31
61.754
  0
LINE
  5
A60
330
A02
100
AcDbEntity
  8
Part__Feature
100
AcDbLine
 10
439.899
 20
118.409
 30
59.754
 11
312.955
 21
118.409
 31
59.754
  0
LINE
  5
A61
330
A02
100
AcDbEntity
  8
Part__Feature
100
AcDbLine
 10
312.955
 20
118.409
 30
59.754
 11
312.955
 21
118.409
 31
61.754
  0
LINE
  5
A62
330
A02
100
AcDbEntity
  8
Part__Feature
100
AcDbLine
 10
439.899
 20
118.409
 30
61.754
 11
312.955
 21
118.409
 31
61.754
  0
LINE
  5
A63
330
A02
100
AcDbEntity
  8
Part__Feature
100
AcDbLine
 10
439.899
 20
118.409
 30
59.754
 11
439.899
 21
118.409
 31
61.754
  0
ARC
  5
A64
330
A02
100
AcDbEntity
  8
Part__Feature
100
AcDbCircle
 10
439.899
 20
118.209
 30
59.754
 40
0.2
100
AcDbArc
 50
-40
 51
90
  0
LINE
  5
A65
330
A02
100
AcDbEntity
  8
Part__Feature
100
AcDbLine
 10
439.899
 20
118.409
 30
59.754
 11
439.899
 21
118.409
 31
61.754
  0
ARC
  5
A66
330
A02
100
AcDbEntity
  8
Part__Feature
100
AcDbCircle
 10
439.899
 20
118.209
 30
61.754
 40
0.2
100
AcDbArc
 50
-40
 51
90
  0
LINE
  5
A67
330
A02
100
AcDbEntity
  8
Part__Feature
100
AcDbLine
 10
440.052
 20
118.081
 30
59.754
 11
440.052
 21
118.081
 31
61.754
  0
LINE
  5
A68
330
A02
100
AcDbEntity
  8
Part__Feature
100
AcDbLine
 10
440.052
 20
118.081
 30
59.754
 11
437.499
 21
115.038
 31
59.754
  0
LINE
  5
A69
330
A02
100
AcDbEntity
  8
Part__Feature
100
AcDbLine
 10
440.052
 20
118.081
 30
59.754
 11
440.052
 21
118.081
 31
61.754
  0
LINE
  5
A6A
330
A02
100
AcDbEntity
  8
Part__Feature
100
AcDbLine
 10
437.499
 20
115.038
 30
61.754
 11
440.052
 21
118.081
 31
61.754
  0
LINE
  5
A6B
330
A02
100
AcDbEntity
  8
Part__Feature
100
AcDbLine
 10
437.499
 20
115.038
 30
59.754
 11
437.499
 21
115.038
 31
61.754
  0
LINE
  5
A6C
330
A02
100
AcDbEntity
  8
Part__Feature
100
AcDbLine
 10
437.652
 20
114.709
 30
59.754
 11
437.652
 21
114.709
 31
61.754
  0
ARC
  5
A6D
330
A02
100
AcDbEntity
  8
Part__Feature
100
AcDbCircle
 10
437.652
 20
114.909
 30
61.754
 40
0.2
100
AcDbArc
 50
140
 51
-90
  0
LINE
  5
A6E
330
A02
100
AcDbEntity
  8
Part__Feature
100
AcDbLine
 10
437.499
 20
115.038
 30
59.754
 11
437.499
 21
115.038
 31
61.754
  0
ARC
  5
A6F
330
A02
100
AcDbEntity
  8
Part__Feature
100
AcDbCircle
 10
437.652
 20
114.909
 30
59.754
 40
0.2
100
AcDbArc
 50
140
 51
-90
  0
LINE
  5
A70
330
A02
100
AcDbEntity
  8
Part__Feature
100
AcDbLine
 10
437.652
 20
114.709
 30
59.754
 11
476.794
 21
114.709
 31
59.754
  0
LINE
  5
A71
330
A02
100
AcDbEntity
  8
Part__Feature
100
AcDbLine
 10
437.652
 20
114.709
 30
59.754
 11
437.652
 21
114.709
 31
61.754
  0
LINE
  5
A72
330
A02
100
AcDbEntity
  8
Part__Feature
100
AcDbLine
 10
476.794
 20
114.709
 30
61.754
 11
437.652
 21
114.709
 31
61.754
  0
LINE
  5
A73
330
A02
100
AcDbEntity
  8
Part__Feature
100
AcDbLine
 10
476.794
 20
114.709
 30
59.754
 11
476.794
 21
114.709
 31
61.754
  0
LINE
  5
A74
330
A02
100
AcDbEntity
  8
Part__Feature
100
AcDbLine
 10
476.947
 20
115.038
 30
59.754
 11
476.947
 21
115.038
 31
61.754
  0
ARC
  5
A75
330
A02
100
AcDbEntity
  8
Part__Feature
100
AcDbCircle
 10
476.794
 20
114.909
 30
61.754
 40
0.2
100
AcDbArc
 50
-90
 51
40
  0
LINE
  5
A76
330
A02
100
AcDbEntity
  8
Part__Feature
100
AcDbLine
 10
476.794
 20
114.709
 30
59.754
 11
476.794
 21
114.709
 31
61.754
  0
ARC
  5
A77
330
A02
100
AcDbEntity
  8
Part__Feature
100
AcDbCircle
 10
476.794
 20
114.909
 30
59.754
 40
0.2
100
AcDbArc
 50
-90
 51
40
  0
LINE
  5
A78
330
A02
100
AcDbEntity
  8
Part__Feature
100
AcDbLine
 10
476.947
 20
115.038
 30
59.754
 11
474.394
 21
118.081
 31
59.754
  0
LINE
  5
A79
330
A02
100
AcDbEntity
  8
Part__Feature
100
AcDbLine
 10
476.947
 20
115.038
 30
59.754
 11
476.947
 21
115.038
 31
61.754
  0
LINE
  5
A7A
330
A02
100
AcDbEntity
  8
Part__Feature
100
AcDbLine
 10
474.394
 20
118.081
 30
61.754
 11
476.947
 21
115.038
 31
61.754
  0
LINE
  5
A7B
330
A02
100
AcDbEntity
  8
Part__Feature
100
AcDbLine
 10
474.394
 20
118.081
 30
59.754
 11
474.394
 21
118.081
 31
61.754
  0
ARC
  5
A7C
330
A02
100
AcDbEntity
  8
Part__Feature
100
AcDbCircle
 10
474.547
 20
118.209
 30
59.754
 40
0.2
100
AcDbArc
 50
90
 51
-140
  0
LINE
  5
A7D
330
A02
100
AcDbEntity
  8
Part__Feature
100
AcDbLine
 10
474.394
 20
118.081
 30
59.754
 11
474.394
 21
118.081
 31
61.754
  0
ARC
  5
A7E
330
A02
100
AcDbEntity
  8
Part__Feature
100
AcDbCircle
 10
474.547
 20
118.209
 30
61.754
 40
0.2
100
AcDbArc
 50
90
 51
-140
  0
LINE
  5
A7F
330
A02
100
AcDbEntity
  8
Part__Feature
100
AcDbLine
 10
474.547
 20
118.409
 30
59.754
 11
474.547
 21
118.409
 31
61.754
  0
LINE
  5
A80
330
A02
100
AcDbEntity
  8
Part__Feature
100
AcDbLine
 10
601.491
 20
118.409
 30
59.754
 11
474.547
 21
118.409
 31
59.754
  0
LINE
  5
A81
330
A02
100
AcDbEntity
  8
Part__Feature
100
AcDbLine
 10
474.547
 20
118.409
 30
59.754
 11
474.547
 21
118.409
 31
61.754
  0
LINE
  5
A82
330
A02
100
AcDbEntity
  8
Part__Feature
100
AcDbLine
 10
601.491
 20
118.409
 30
61.754
 11
474.547
 21
118.409
 31
61.754
  0
LINE
  5
A83
330
A02
100
AcDbEntity
  8
Part__Feature
100
AcDbLine
 10
601.491
 20
118.409
 30
59.754
 11
601.491
 21
118.409
 31
61.754
  0
ARC
  5
A84
330
A02
100
AcDbEntity
  8
Part__Feature
100
AcDbCircle
 10
601.491
 20
106.499
 30
59.754
 40
11.91
100
AcDbArc
 50
-2.338e-07
 51
90
  0
LINE
  5
A85
330
A02
100
AcDbEntity
  8
Part__Feature
100
AcDbLine
 10
601.491
 20
118.409
 30
59.754
 11
601.491
 21
118.409
 31
61.754
  0
ARC
  5
A86
330
A02
100
AcDbEntity
  8
Part__Feature
100
AcDbCircle
 10
601.491
 20
106.499
 30
61.754
 40
11.91
100
AcDbArc
 50
-2.338e-07
 51
90
  0
LINE
  5
A87
330
A02
100
AcDbEntity
  8
Part__Feature
100
AcDbLine
 10
613.401
 20
106.499
 30
59.754
 11
613.401
 21
106.499
 31
61.754
  0
LINE
  5
A88
330
A02
100
AcDbEntity
  8
Part__Feature
100
AcDbLine
 10
613.401
 20
74.8102
 30
59.754
 11
613.401
 21
106.499
 31
59.754
  0
LINE
  5
A89
330
A02
100
AcDbEntity
  8
Part__Feature
100
AcDbLine
 10
613.401
 20
106.499
 30
59.754
 11
613.401
 21
106.499
 31
61.754
  0
LINE
  5
A8A
330
A02
100
AcDbEntity
  8
Part__Feature
100
AcDbLine
 10
613.401
 20
74.8102
 30
61.754
 11
613.401
 21
106.499
 31
61.754
  0
LINE
  5
A8B
330
A02
100
AcDbEntity
  8
Part__Feature
100
AcDbLine
 10
613.401
 20
74.8102
 30
59.754
 11
613.401
 21
74.8102
 31
61.754
  0
ARC
  5
A8C
330
A02
100
AcDbEntity
  8
Part__Feature
100
AcDbCircle
 10
613.201
 20
74.8102
 30
59.754
 40
0.2
100
AcDbArc
 50
-130
 51
-2.33763e-08
  0
LINE
  5
A8D
330
A02
100
AcDbEntity
  8
Part__Feature
100
AcDbLine
 10
613.401
 20
74.8102
 30
59.754
 11
613.401
 21
74.8102
 31
61.754
  0
ARC
  5
A8E
330
A02
100
AcDbEntity
  8
Part__Feature
100
AcDbCircle
 10
613.201
 20
74.8102
 30
61.754
 40
0.2
100
AcDbArc
 50
-130
 51
-2.33763e-08
  0
LINE
  5
A8F
330
A02
100
AcDbEntity
  8
Part__Feature
100
AcDbLine
 10
613.072
 20
74.657
 30
59.754
 11
613.072
 21
74.657
 31
61.754
  0
LINE
  5
A90
330
A02
100
AcDbEntity
  8
Part__Feature
100
AcDbLine
 10
610.03
 20
77.2103
 30
59.754
 11
613.072
 21
74.657
 31
59.754
  0
LINE
  5
A91
330
A02
100
AcDbEntity
  8
Part__Feature
100
AcDbLine
 10
613.072
 20
74.657
 30
59.754
 11
613.072
 21
74.657
 31
61.754
  0
LINE
  5
A92
330
A02
100
AcDbEntity
  8
Part__Feature
100
AcDbLine
 10
610.03
 20
77.2103
 30
61.754
 11
613.072
 21
74.657
 31
61.754
  0
LINE
  5
A93
330
A02
100
AcDbEntity
  8
Part__Feature
100
AcDbLine
 10
610.03
 20
77.2103
 30
59.754
 11
610.03
 21
77.2103
 31
61.754
  0
LINE
  5
A94
330
A02
100
AcDbEntity
  8
Part__Feature
100
AcDbLine
 10
609.701
 20
77.0571
 30
59.754
 11
609.701
 21
77.0571
 31
61.754
  0
ARC
  5
A95
330
A02
100
AcDbEntity
  8
Part__Feature
100
AcDbCircle
 10
609.901
 20
77.0571
 30
61.754
 40
0.2
100
AcDbArc
 50
50
 51
180
  0
LINE
  5
A96
330
A02
100
AcDbEntity
  8
Part__Feature
100
AcDbLine
 10
610.03
 20
77.2103
 30
59.754
 11
610.03
 21
77.2103
 31
61.754
  0
ARC
  5
A97
330
A02
100
AcDbEntity
  8
Part__Feature
100
AcDbCircle
 10
609.901
 20
77.0571
 30
59.754
 40
0.2
100
AcDbArc
 50
50
 51
180
  0
LINE
  5
A98
330
A02
100
AcDbEntity
  8
Part__Feature
100
AcDbLine
 10
609.701
 20
77.0571
 30
59.754
 11
609.701
 21
37.9149
 31
59.754
  0
LINE
  5
A99
330
A02
100
AcDbEntity
  8
Part__Feature
100
AcDbLine
 10
609.701
 20
77.0571
 30
59.754
 11
609.701
 21
77.0571
 31
61.754
  0
LINE
  5
A9A
330
A02
100
AcDbEntity
  8
Part__Feature
100
AcDbLine
 10
609.701
 20
37.9149
 30
61.754
 11
609.701
 21
77.0571
 31
61.754
  0
LINE
  5
A9B
330
A02
100
AcDbEntity
  8
Part__Feature
100
AcDbLine
 10
609.701
 20
37.9149
 30
59.754
 11
609.701
 21
37.9149
 31
61.754
  0
LINE
  5
A9C
330
A02
100
AcDbEntity
  8
Part__Feature
100
AcDbLine
 10
610.03
 20
37.7616
 30
59.754
 11
610.03
 21
37.7616
 31
61.754
  0
ARC
  5
A9D
330
A02
100
AcDbEntity
  8
Part__Feature
100
AcDbCircle
 10
609.901
 20
37.9149
 30
61.754
 40
0.2
100
AcDbArc
 50
180
 51
-50
  0
LINE
  5
A9E
330
A02
100
AcDbEntity
  8
Part__Feature
100
AcDbLine
 10
609.701
 20
37.9149
 30
59.754
 11
609.701
 21
37.9149
 31
61.754
  0
ARC
  5
A9F
330
A02
100
AcDbEntity
  8
Part__Feature
100
AcDbCircle
 10
609.901
 20
37.9149
 30
59.754
 40
0.2
100
AcDbArc
 50
180
 51
-50
  0
LINE
  5
AA0
330
A02
100
AcDbEntity
  8
Part__Feature
100
AcDbLine
 10
610.03
 20
37.7616
 30
59.754
 11
613.072
 21
40.3149
 31
59.754
  0
LINE
  5
AA1
330
A02
100
AcDbEntity
  8
Part__Feature
100
AcDbLine
 10
610.03
 20
37.7616
 30
59.754
 11
610.03
 21
37.7616
 31
61.754
  0
LINE
  5
AA2
330
A02
100
AcDbEntity
  8
Part__Feature
100
AcDbLine
 10
613.072
 20
40.3149
 30
61.754
 11
610.03
 21
37.7616
 31
61.754
  0
LINE
  5
AA3
330
A02
100
AcDbEntity
  8
Part__Feature
100
AcDbLine
 10
613.072
 20
40.3149
 30
59.754
 11
613.072
 21
40.3149
 31
61.754
  0
ARC
  5
AA4
330
A02
100
AcDbEntity
  8
Part__Feature
100
AcDbCircle
 10
613.201
 20
40.1617
 30
59.754
 40
0.2
100
AcDbArc
 50
-2.33808e-07
 51
130
  0
LINE
  5
AA5
330
A02
100
AcDbEntity
  8
Part__Feature
100
AcDbLine
 10
613.072
 20
40.3149
 30
59.754
 11
613.072
 21
40.3149
 31
61.754
  0
ARC
  5
AA6
330
A02
100
AcDbEntity
  8
Part__Feature
100
AcDbCircle
 10
613.201
 20
40.1617
 30
61.754
 40
0.2
100
AcDbArc
 50
-2.33808e-07
 51
130
  0
LINE
  5
AA7
330
A02
100
AcDbEntity
  8
Part__Feature
100
AcDbLine
 10
613.401
 20
40.1617
 30
59.754
 11
613.401
 21
40.1617
 31
61.754
  0
LINE
  5
AA8
330
A02
100
AcDbEntity
  8
Part__Feature
100
AcDbLine
 10
613.401
 20
8.47284
 30
59.754
 11
613.401
 21
40.1617
 31
59.754
  0
LINE
  5
AA9
330
A02
100
AcDbEntity
  8
Part__Feature
100
AcDbLine
 10
613.401
 20
40.1617
 30
59.754
 11
613.401
 21
40.1617
 31
61.754
  0
LINE
  5
AAA
330
A02
100
AcDbEntity
  8
Part__Feature
100
AcDbLine
 10
613.401
 20
8.47284
 30
61.754
 11
613.401
 21
40.1617
 31
61.754
  0
LINE
  5
AAB
330
A02
100
AcDbEntity
  8
Part__Feature
100
AcDbLine
 10
613.401
 20
8.47284
 30
59.754
 11
613.401
 21
8.47284
 31
61.754
  0
ARC
  5
AAC
330
A02
100
AcDbEntity
  8
Part__Feature
100
AcDbCircle
 10
601.491
 20
8.47284
 30
59.754
 40
11.91
100
AcDbArc
 50
-90
 51
-2.33801e-07
  0
LINE
  5
AAD
330
A02
100
AcDbEntity
  8
Part__Feature
100
AcDbLine
 10
613.401
 20
8.47284
 30
59.754
 11
613.401
 21
8.47284
 31
61.754
  0
ARC
  5
AAE
330
A02
100
AcDbEntity
  8
Part__Feature
100
AcDbCircle
 10
601.491
 20
8.47284
 30
61.754
 40
11.91
100
AcDbArc
 50
-90
 51
-2.33801e-07
  0
LINE
  5
AAF
330
A02
100
AcDbEntity
  8
Part__Feature
100
AcDbLine
 10
601.491
 20
-3.43716
 30
59.754
 11
601.491
 21
-3.43716
 31
61.754
  0
LINE
  5
AB0
330
A02
100
AcDbEntity
  8
Part__Feature
100
AcDbLine
 10
474.547
 20
-3.43716
 30
59.754
 11
601.491
 21
-3.43716
 31
59.754
  0
LINE
  5
AB1
330
A02
100
AcDbEntity
  8
Part__Feature
100
AcDbLine
 10
601.491
 20
-3.43716
 30
59.754
 11
601.491
 21
-3.43716
 31
61.754
  0
LINE
  5
AB2
330
A02
100
AcDbEntity
  8
Part__Feature
100
AcDbLine
 10
474.547
 20
-3.43716
 30
61.754
 11
601.491
 21
-3.43716
 31
61.754
  0
LINE
  5
AB3
330
A02
100
AcDbEntity
  8
Part__Feature
100
AcDbLine
 10
474.547
 20
-3.43716
 30
59.754
 11
474.547
 21
-3.43716
 31
61.754
  0
ARC
  5
AB4
330
A02
100
AcDbEntity
  8
Part__Feature
100
AcDbCircle
 10
474.547
 20
-3.23716
 30
59.754
 40
0.2
100
AcDbArc
 50
140
 51
-90
  0
LINE
  5
AB5
330
A02
100
AcDbEntity
  8
Part__Feature
100
AcDbLine
 10
474.547
 20
-3.43716
 30
59.754
 11
474.547
 21
-3.43716
 31
61.754
  0
ARC
  5
AB6
330
A02
100
AcDbEntity
  8
Part__Feature
100
AcDbCircle
 10
474.547
 20
-3.23716
 30
61.754
 40
0.2
100
AcDbArc
 50
140
 51
-90
  0
LINE
  5
AB7
330
A02
100
AcDbEntity
  8
Part__Feature
100
AcDbLine
 10
474.394
 20
-3.1086
 30
59.754
 11
474.394
 21
-3.1086
 31
61.754
  0
LINE
  5
AB8
330
A02
100
AcDbEntity
  8
Part__Feature
100
AcDbLine
 10
474.394
 20
-3.1086
 30
59.754
 11
476.947
 21
-0.065714
 31
59.754
  0
LINE
  5
AB9
330
A02
100
AcDbEntity
  8
Part__Feature
100
AcDbLine
 10
474.394
 20
-3.1086
 30
59.754
 11
474.394
 21
-3.1086
 31
61.754
  0
LINE
  5
ABA
330
A02
100
AcDbEntity
  8
Part__Feature
100
AcDbLine
 10
476.947
 20
-0.065714
 30
61.754
 11
474.394
 21
-3.1086
 31
61.754
  0
LINE
  5
ABB
330
A02
100
AcDbEntity
  8
Part__Feature
100
AcDbLine
 10
476.947
 20
-0.065714
 30
59.754
 11
476.947
 21
-0.065714
 31
61.754
  0
LINE
  5
ABC
330
A02
100
AcDbEntity
  8
Part__Feature
100
AcDbLine
 10
476.794
 20
0.262843
 30
59.754
 11
476.794
 21
0.262843
 31
61.754
  0
ARC
  5
ABD
330
A02
100
AcDbEntity
  8
Part__Feature
100
AcDbCircle
 10
476.794
 20
0.0628435
 30
61.754
 40
0.2
100
AcDbArc
 50
-40
 51
90
  0
LINE
  5
ABE
330
A02
100
AcDbEntity
  8
Part__Feature
100
AcDbLine
 10
476.947
 20
-0.065714
 30
59.754
 11
476.947
 21
-0.065714
 31
61.754
  0
ARC
  5
ABF
330
A02
100
AcDbEntity
  8
Part__Feature
100
AcDbCircle
 10
476.794
 20
0.0628435
 30
59.754
 40
0.2
100
AcDbArc
 50
-40
 51
90
  0
LINE
  5
AC0
330
A02
100
AcDbEntity
  8
Part__Feature
100
AcDbLine
 10
476.794
 20
0.262843
 30
59.754
 11
437.652
 21
0.262843
 31
59.754
  0
LINE
  5
AC1
330
A02
100
AcDbEntity
  8
Part__Feature
100
AcDbLine
 10
476.794
 20
0.262843
 30
59.754
 11
476.794
 21
0.262843
 31
61.754
  0
LINE
  5
AC2
330
A02
100
AcDbEntity
  8
Part__Feature
100
AcDbLine
 10
437.652
 20
0.262843
 30
61.754
 11
476.794
 21
0.262843
 31
61.754
  0
LINE
  5
AC3
330
A02
100
AcDbEntity
  8
Part__Feature
100
AcDbLine
 10
437.652
 20
0.262843
 30
59.754
 11
437.652
 21
0.262843
 31
61.754
  0
LINE
  5
AC4
330
A02
100
AcDbEntity
  8
Part__Feature
100
AcDbLine
 10
437.499
 20
-0.065714
 30
59.754
 11
437.499
 21
-0.065714
 31
61.754
  0
ARC
  5
AC5
330
A02
100
AcDbEntity
  8
Part__Feature
100
AcDbCircle
 10
437.652
 20
0.0628435
 30
61.754
 40
0.2
100
AcDbArc
 50
90
 51
-140
  0
LINE
  5
AC6
330
A02
100
AcDbEntity
  8
Part__Feature
100
AcDbLine
 10
437.652
 20
0.262843
 30
59.754
 11
437.652
 21
0.262843
 31
61.754
  0
ARC
  5
AC7
330
A02
100
AcDbEntity
  8
Part__Feature
100
AcDbCircle
 10
437.652
 20
0.0628435
 30
59.754
 40
0.2
100
AcDbArc
 50
90
 51
-140
  0
LINE
  5
AC8
330
A02
100
AcDbEntity
  8
Part__Feature
100
AcDbLine
 10
437.499
 20
-0.065714
 30
59.754
 11
440.052
 21
-3.1086
 31
59.754
  0
LINE
  5
AC9
330
A02
100
AcDbEntity
  8
Part__Feature
100
AcDbLine
 10
437.499
 20
-0.065714
 30
59.754
 11
437.499
 21
-0.065714
 31
61.754
  0
LINE
  5
ACA
330
A02
100
AcDbEntity
  8
Part__Feature
100
AcDbLine
 10
440.052
 20
-3.1086
 30
61.754
 11
437.499
 21
-0.065714
 31
61.754
  0
LINE
  5
ACB
330
A02
100
AcDbEntity
  8
Part__Feature
100
AcDbLine
 10
440.052
 20
-3.1086
 30
59.754
 11
440.052
 21
-3.1086
 31
61.754
  0
ARC
  5
ACC
330
A02
100
AcDbEntity
  8
Part__Feature
100
AcDbCircle
 10
439.899
 20
-3.23716
 30
59.754
 40
0.2
100
AcDbArc
 50
-90
 51
40
  0
LINE
  5
ACD
330
A02
100
AcDbEntity
  8
Part__Feature
100
AcDbLine
 10
440.052
 20
-3.1086
 30
59.754
 11
440.052
 21
-3.1086
 31
61.754
  0
ARC
  5
ACE
330
A02
100
AcDbEntity
  8
Part__Feature
100
AcDbCircle
 10
439.899
 20
-3.23716
 30
61.754
 40
0.2
100
AcDbArc
 50
-90
 51
40
  0
LINE
  5
ACF
330
A02
100
AcDbEntity
  8
Part__Feature
100
AcDbLine
 10
439.899
 20
-3.43716
 30
59.754
 11
439.899
 21
-3.43716
 31
61.754
  0
LINE
  5
AD0
330
A02
100
AcDbEntity
  8
Part__Feature
100
AcDbLine
 10
312.955
 20
-3.43716
 30
59.754
 11
439.899
 21
-3.43716
 31
59.754
  0
LINE
  5
AD1
330
A02
100
AcDbEntity
  8
Part__Feature
100
AcDbLine
 10
439.899
 20
-3.43716
 30
59.754
 11
439.899
 21
-3.43716
 31
61.754
  0
LINE
  5
AD2
330
A02
100
AcDbEntity
  8
Part__Feature
100
AcDbLine
 10
312.955
 20
-3.43716
 30
61.754
 11
439.899
 21
-3.43716
 31
61.754
  0
LINE
  5
AD3
330
A02
100
AcDbEntity
  8
Part__Feature
100
AcDbLine
 10
312.955
 20
-3.43716
 30
59.754
 11
312.955
 21
-3.43716
 31
61.754
  0
ARC
  5
AD4
330
A02
100
AcDbEntity
  8
Part__Feature
100
AcDbCircle
 10
312.955
 20
8.47284
 30
59.754
 40
11.91
100
AcDbArc
 50
180
 51
-90
  0
LINE
  5
AD5
330
A02
100
AcDbEntity
  8
Part__Feature
100
AcDbLine
 10
312.955
 20
-3.43716
 30
59.754
 11
312.955
 21
-3.43716
 31
61.754
  0
ARC
  5
AD6
330
A02
100
AcDbEntity
  8
Part__Feature
100
AcDbCircle
 10
312.955
 20
8.47284
 30
61.754
 40
11.91
100
AcDbArc
 50
180
 51
-90
  0
LINE
  5
AD7
330
A02
100
AcDbEntity
  8
Part__Feature
100
AcDbLine
 10
301.045
 20
8.47284
 30
59.754
 11
301.045
 21
8.47284
 31
61.754
  0
LINE
  5
AD8
330
A02
100
AcDbEntity
  8
Part__Feature
100
AcDbLine
 10
301.045
 20
40.1617
 30
59.754
 11
301.045
 21
8.47284
 31
59.754
  0
LINE
  5
AD9
330
A02
100
AcDbEntity
  8
Part__Feature
100
AcDbLine
 10
301.045
 20
8.47284
 30
59.754
 11
301.045
 21
8.47284
 31
61.754
  0
LINE
  5
ADA
330
A02
100
AcDbEntity
  8
Part__Feature
100
AcDbLine
 10
301.045
 20
40.1617
 30
61.754
 11
301.045
 21
8.47284
 31
61.754
  0
LINE
  5
ADB
330
A02
100
AcDbEntity
  8
Part__Feature
100
AcDbLine
 10
301.045
 20
40.1617
 30
59.754
 11
301.045
 21
40.1617
 31
61.754
  0
ARC
  5
ADC
330
A02
100
AcDbEntity
  8
Part__Feature
100
AcDbCircle
 10
301.245
 20
40.1617
 30
59.754
 40
0.2
100
AcDbArc
 50
50
 51
180
  0
LINE
  5
ADD
330
A02
100
AcDbEntity
  8
Part__Feature
100
AcDbLine
 10
301.045
 20
40.1617
 30
59.754
 11
301.045
 21
40.1617
 31
61.754
  0
ARC
  5
ADE
330
A02
100
AcDbEntity
  8
Part__Feature
100
AcDbCircle
 10
301.245
 20
40.1617
 30
61.754
 40
0.2
100
AcDbArc
 50
50
 51
180
  0
LINE
  5
ADF
330
A02
100
AcDbEntity
  8
Part__Feature
100
AcDbLine
 10
301.374
 20
40.3149
 30
59.754
 11
301.374
 21
40.3149
 31
61.754
  0
LINE
  5
AE0
330
A02
100
AcDbEntity
  8
Part__Feature
100
AcDbLine
 10
301.374
 20
40.3149
 30
59.754
 11
304.416
 21
37.7617
 31
59.754
  0
LINE
  5
AE1
330
A02
100
AcDbEntity
  8
Part__Feature
100
AcDbLine
 10
301.374
 20
40.3149
 30
59.754
 11
301.374
 21
40.3149
 31
61.754
  0
LINE
  5
AE2
330
A02
100
AcDbEntity
  8
Part__Feature
100
AcDbLine
 10
304.416
 20
37.7617
 30
61.754
 11
301.374
 21
40.3149
 31
61.754
  0
LINE
  5
AE3
330
A02
100
AcDbEntity
  8
Part__Feature
100
AcDbLine
 10
304.416
 20
37.7617
 30
59.754
 11
304.416
 21
37.7617
 31
61.754
  0
LINE
  5
AE4
330
A02
100
AcDbEntity
  8
Part__Feature
100
AcDbLine
 10
304.745
 20
37.9149
 30
59.754
 11
304.745
 21
37.9149
 31
61.754
  0
ARC
  5
AE5
330
A02
100
AcDbEntity
  8
Part__Feature
100
AcDbCircle
 10
304.545
 20
37.9149
 30
61.754
 40
0.2
100
AcDbArc
 50
-130
 51
-3.05333e-11
  0
LINE
  5
AE6
330
A02
100
AcDbEntity
  8
Part__Feature
100
AcDbLine
 10
304.416
 20
37.7617
 30
59.754
 11
304.416
 21
37.7617
 31
61.754
  0
ARC
  5
AE7
330
A02
100
AcDbEntity
  8
Part__Feature
100
AcDbCircle
 10
304.545
 20
37.9149
 30
59.754
 40
0.2
100
AcDbArc
 50
-130
 51
-3.05333e-11
  0
LINE
  5
AE8
330
A02
100
AcDbEntity
  8
Part__Feature
100
AcDbLine
 10
304.745
 20
37.9149
 30
59.754
 11
304.745
 21
77.0571
 31
59.754
  0
LINE
  5
AE9
330
A02
100
AcDbEntity
  8
Part__Feature
100
AcDbLine
 10
304.745
 20
37.9149
 30
59.754
 11
304.745
 21
37.9149
 31
61.754
  0
LINE
  5
AEA
330
A02
100
AcDbEntity
  8
Part__Feature
100
AcDbLine
 10
304.745
 20
77.0571
 30
61.754
 11
304.745
 21
37.9149
 31
61.754
  0
LINE
  5
AEB
330
A02
100
AcDbEntity
  8
Part__Feature
100
AcDbLine
 10
304.745
 20
77.0571
 30
59.754
 11
304.745
 21
77.0571
 31
61.754
  0
LINE
  5
AEC
330
A02
100
AcDbEntity
  8
Part__Feature
100
AcDbLine
 10
304.416
 20
77.2103
 30
59.754
 11
304.416
 21
77.2103
 31
61.754
  0
ARC
  5
AED
330
A02
100
AcDbEntity
  8
Part__Feature
100
AcDbCircle
 10
304.545
 20
77.0571
 30
61.754
 40
0.2
100
AcDbArc
 50
4.07111e-12
 51
130
  0
LINE
  5
AEE
330
A02
100
AcDbEntity
  8
Part__Feature
100
AcDbLine
 10
304.745
 20
77.0571
 30
59.754
 11
304.745
 21
77.0571
 31
61.754
  0
ARC
  5
AEF
330
A02
100
AcDbEntity
  8
Part__Feature
100
AcDbCircle
 10
304.545
 20
77.0571
 30
59.754
 40
0.2
100
AcDbArc
 50
4.07111e-12
 51
130
  0
LINE
  5
AF0
330
A02
100
AcDbEntity
  8
Part__Feature
100
AcDbLine
 10
304.416
 20
77.2103
 30
59.754
 11
301.374
 21
74.657
 31
59.754
  0
LINE
  5
AF1
330
A02
100
AcDbEntity
  8
Part__Feature
100
AcDbLine
 10
304.416
 20
77.2103
 30
59.754
 11
304.416
 21
77.2103
 31
61.754
  0
LINE
  5
AF2
330
A02
100
AcDbEntity
  8
Part__Feature
100
AcDbLine
 10
301.374
 20
74.657
 30
61.754
 11
304.416
 21
77.2103
 31
61.754
  0
LINE
  5
AF3
330
A02
100
AcDbEntity
  8
Part__Feature
100
AcDbLine
 10
301.374
 20
74.657
 30
59.754
 11
301.374
 21
74.657
 31
61.754
  0
ARC
  5
AF4
330
A02
100
AcDbEntity
  8
Part__Feature
100
AcDbCircle
 10
301.245
 20
74.8102
 30
59.754
 40
0.2
100
AcDbArc
 50
180
 51
-50
  0
LINE
  5
AF5
330
A02
100
AcDbEntity
  8
Part__Feature
100
AcDbLine
 10
301.374
 20
74.657
 30
59.754
 11
301.374
 21
74.657
 31
61.754
  0
ARC
  5
AF6
330
A02
100
AcDbEntity
  8
Part__Feature
100
AcDbCircle
 10
301.245
 20
74.8102
 30
61.754
 40
0.2
100
AcDbArc
 50
180
 51
-50
  0
LINE
  5
AF7
330
A02
100
AcDbEntity
  8
Part__Feature
100
AcDbLine
 10
301.045
 20
74.8102
 30
59.754
 11
301.045
 21
74.8102
 31
61.754
  0
ARC
  5
AF8
330
A02
100
AcDbEntity
  8
Part__Feature
100
AcDbCircle
 10
301.245
 20
74.8102
 30
61.754
 40
0.2
100
AcDbArc
 50
180
 51
-50
  0
LINE
  5
AF9
330
A02
100
AcDbEntity
  8
Part__Feature
100
AcDbLine
 10
301.374
 20
74.657
 30
61.754
 11
304.416
 21
77.2103
 31
61.754
  0
ARC
  5
AFA
330
A02
100
AcDbEntity
  8
Part__Feature
100
AcDbCircle
 10
304.545
 20
77.0571
 30
61.754
 40
0.2
100
AcDbArc
 50
4.07111e-12
 51
130
  0
LINE
  5
AFB
330
A02
100
AcDbEntity
  8
Part__Feature
100
AcDbLine
 10
304.745
 20
77.0571
 30
61.754
 11
304.745
 21
37.9149
 31
61.754
  0
ARC
  5
AFC
330
A02
100
AcDbEntity
  8
Part__Feature
100
AcDbCircle
 10
304.545
 20
37.9149
 30
61.754
 40
0.2
100
AcDbArc
 50
-130
 51
-3.05333e-11
  0
LINE
  5
AFD
330
A02
100
AcDbEntity
  8
Part__Feature
100
AcDbLine
 10
304.416
 20
37.7617
 30
61.754
 11
301.374
 21
40.3149
 31
61.754
  0
ARC
  5
AFE
330
A02
100
AcDbEntity
  8
Part__Feature
100
AcDbCircle
 10
301.245
 20
40.1617
 30
61.754
 40
0.2
100
AcDbArc
 50
50
 51
180
  0
LINE
  5
AFF
330
A02
100
AcDbEntity
  8
Part__Feature
100
AcDbLine
 10
301.045
 20
40.1617
 30
61.754
 11
301.045
 21
8.47284
 31
61.754
  0
ARC
  5
B00
330
A02
100
AcDbEntity
  8
Part__Feature
100
AcDbCircle
 10
312.955
 20
8.47284
 30
61.754
 40
11.91
100
AcDbArc
 50
180
 51
-90
  0
LINE
  5
B01
330
A02
100
AcDbEntity
  8
Part__Feature
100
AcDbLine
 10
312.955
 20
-3.43716
 30
61.754
 11
439.899
 21
-3.43716
 31
61.754
  0
ARC
  5
B02
330
A02
100
AcDbEntity
  8
Part__Feature
100
AcDbCircle
 10
439.899
 20
-3.23716
 30
61.754
 40
0.2
100
AcDbArc
 50
-90
 51
40
  0
LINE
  5
B03
330
A02
100
AcDbEntity
  8
Part__Feature
100
AcDbLine
 10
440.052
 20
-3.1086
 30
61.754
 11
437.499
 21
-0.065714
 31
61.754
  0
ARC
  5
B04
330
A02
100
AcDbEntity
  8
Part__Feature
100
AcDbCircle
 10
437.652
 20
0.0628435
 30
61.754
 40
0.2
100
AcDbArc
 50
90
 51
-140
  0
LINE
  5
B05
330
A02
100
AcDbEntity
  8
Part__Feature
100
AcDbLine
 10
437.652
 20
0.262843
 30
61.754
 11
476.794
 21
0.262843
 31
61.754
  0
ARC
  5
B06
330
A02
100
AcDbEntity
  8
Part__Feature
100
AcDbCircle
 10
476.794
 20
0.0628435
 30
61.754
 40
0.2
100
AcDbArc
 50
-40
 51
90
  0
LINE
  5
B07
330
A02
100
AcDbEntity
  8
Part__Feature
100
AcDbLine
 10
476.947
 20
-0.065714
 30
61.754
 11
474.394
 21
-3.1086
 31
61.754
  0
ARC
  5
B08
330
A02
100
AcDbEntity
  8
Part__Feature
100
AcDbCircle
 10
474.547
 20
-3.23716
 30
61.754
 40
0.2
100
AcDbArc
 50
140
 51
-90
  0
LINE
  5
B09
330
A02
100
AcDbEntity
  8
Part__Feature
100
AcDbLine
 10
474.547
 20
-3.43716
 30
61.754
 11
601.491
 21
-3.43716
 31
61.754
  0
ARC
  5
B0A
330
A02
100
AcDbEntity
  8
Part__Feature
100
AcDbCircle
 10
601.491
 20
8.47284
 30
61.754
 40
11.91
100
AcDbArc
 50
-90
 51
-2.33801e-07
  0
LINE
  5
B0B
330
A02
100
AcDbEntity
  8
Part__Feature
100
AcDbLine
 10
613.401
 20
8.47284
 30
61.754
 11
613.401
 21
40.1617
 31
61.754
  0
ARC
  5
B0C
330
A02
100
AcDbEntity
  8
Part__Feature
100
AcDbCircle
 10
613.201
 20
40.1617
 30
61.754
 40
0.2
100
AcDbArc
 50
-2.33808e-07
 51
130
  0
LINE
  5
B0D
330
A02
100
AcDbEntity
  8
Part__Feature
100
AcDbLine
 10
613.072
 20
40.3149
 30
61.754
 11
610.03
 21
37.7616
 31
61.754
  0
ARC
  5
B0E
330
A02
100
AcDbEntity
  8
Part__Feature
100
AcDbCircle
 10
609.901
 20
37.9149
 30
61.754
 40
0.2
100
AcDbArc
 50
180
 51
-50
  0
LINE
  5
B0F
330
A02
100
AcDbEntity
  8
Part__Feature
100
AcDbLine
 10
609.701
 20
37.9149
 30
61.754
 11
609.701
 21
77.0571
 31
61.754
  0
ARC
  5
B10
330
A02
100
AcDbEntity
  8
Part__Feature
100
AcDbCircle
 10
609.901
 20
77.0571
 30
61.754
 40
0.2
100
AcDbArc
 50
50
 51
180
  0
LINE
  5
B11
330
A02
100
AcDbEntity
  8
Part__Feature
100
AcDbLine
 10
610.03
 20
77.2103
 30
61.754
 11
613.072
 21
74.657
 31
61.754
  0
ARC
  5
B12
330
A02
100
AcDbEntity
  8
Part__Feature
100
AcDbCircle
 10
613.201
 20
74.8102
 30
61.754
 40
0.2
100
AcDbArc
 50
-130
 51
-2.33763e-08
  0
LINE
  5
B13
330
A02
100
AcDbEntity
  8
Part__Feature
100
AcDbLine
 10
613.401
 20
74.8102
 30
61.754
 11
613.401
 21
106.499
 31
61.754
  0
ARC
  5
B14
330
A02
100
AcDbEntity
  8
Part__Feature
100
AcDbCircle
 10
601.491
 20
106.499
 30
61.754
 40
11.91
100
AcDbArc
 50
-2.338e-07
 51
90
  0
LINE
  5
B15
330
A02
100
AcDbEntity
  8
Part__Feature
100
AcDbLine
 10
601.491
 20
118.409
 30
61.754
 11
474.547
 21
118.409
 31
61.754
  0
ARC
  5
B16
330
A02
100
AcDbEntity
  8
Part__Feature
100
AcDbCircle
 10
474.547
 20
118.209
 30
61.754
 40
0.2
100
AcDbArc
 50
90
 51
-140
  0
LINE
  5
B17
330
A02
100
AcDbEntity
  8
Part__Feature
100
AcDbLine
 10
474.394
 20
118.081
 30
61.754
 11
476.947
 21
115.038
 31
61.754
  0
ARC
  5
B18
330
A02
100
AcDbEntity
  8
Part__Feature
100
AcDbCircle
 10
476.794
 20
114.909
 30
61.754
 40
0.2
100
AcDbArc
 50
-90
 51
40
  0
LINE
  5
B19
330
A02
100
AcDbEntity
  8
Part__Feature
100
AcDbLine
 10
476.794
 20
114.709
 30
61.754
 11
437.652
 21
114.709
 31
61.754
  0
ARC
  5
B1A
330
A02
100
AcDbEntity
  8
Part__Feature
100
AcDbCircle
 10
437.652
 20
114.909
 30
61.754
 40
0.2
100
AcDbArc
 50
140
 51
-90
  0
LINE
  5
B1B
330
A02
100
AcDbEntity
  8
Part__Feature
100
AcDbLine
 10
437.499
 20
115.038
 30
61.754
 11
440.052
 21
118.081
 31
61.754
  0
ARC
  5
B1C
330
A02
100
AcDbEntity
  8
Part__Feature
100
AcDbCircle
 10
439.899
 20
118.209
 30
61.754
 40
0.2
100
AcDbArc
 50
-40
 51
90
  0
LINE
  5
B1D
330
A02
100
AcDbEntity
  8
Part__Feature
100
AcDbLine
 10
439.899
 20
118.409
 30
61.754
 11
312.955
 21
118.409
 31
61.754
  0
ARC
  5
B1E
330
A02
100
AcDbEntity
  8
Part__Feature
100
AcDbCircle
 10
312.955
 20
106.499
 30
61.754
 40
11.91
100
AcDbArc
 50
90
 51
180
  0
LINE
  5
B1F
330
A02
100
AcDbEntity
  8
Part__Feature
100
AcDbLine
 10
301.045
 20
106.499
 30
61.754
 11
301.045
 21
74.8102
 31
61.754
  0
CIRCLE
  5
B20
330
A02
100
AcDbEntity
  8
Part__Feature
100
AcDbCircle
 10
586.927
 20
17.2269
 40
1.1
  0
CIRCLE
  5
B21
330
A02
100
AcDbEntity
  8
Part__Feature
100
AcDbCircle
 10
580.704
 20
55.454
 40
1.1
  0
CIRCLE
  5
B22
330
A02
100
AcDbEntity
  8
Part__Feature
100
AcDbCircle
 10
590.102
 20
95.078
 40
1.1
  0
CIRCLE
  5
B23
330
A02
100
AcDbEntity
  8
Part__Feature
100
AcDbCircle
 10
533.46
 20
95.078
 40
1.1
  0
CIRCLE
  5
B24
330
A02
100
AcDbEntity
  8
Part__Feature
100
AcDbCircle
 10
519.236
 20
55.454
 40
1.1
  0
CIRCLE
  5
B25
330
A02
100
AcDbEntity
  8
Part__Feature
100
AcDbCircle
 10
506.028
 20
17.2269
 40
1.1
  0
CIRCLE
  5
B26
330
A02
100
AcDbEntity
  8
Part__Feature
100
AcDbCircle
 10
453.577
 20
17.2269
 40
1.1
  0
CIRCLE
  5
B27
330
A02
100
AcDbEntity
  8
Part__Feature
100
AcDbCircle
 10
462.34
 20
55.454
 40
1.1
  0
CIRCLE
  5
B28
330
A02
100
AcDbEntity
  8
Part__Feature
100
AcDbCircle
 10
476.183
 20
95.078
 40
1.1
  0
CIRCLE
  5
B29
330
A02
100
AcDbEntity
  8
Part__Feature
100
AcDbCircle
 10
400.11
 20
95.078
 40
1.1
  0
CIRCLE
  5
B2A
330
A02
100
AcDbEntity
  8
Part__Feature
100
AcDbCircle
 10
385.759
 20
55.454
 40
1.1
  0
CIRCLE
  5
B2B
330
A02
100
AcDbEntity
  8
Part__Feature
100
AcDbCircle
 10
363.153
 20
17.2269
 40
1.1
  0
CIRCLE
  5
B2C
330
A02
100
AcDbEntity
  8
Part__Feature
100
AcDbCircle
 10
323.782
 20
17.2269
 40
1.1
  0
CIRCLE
  5
B2D
330
A02
100
AcDbEntity
  8
Part__Feature
100
AcDbCircle
 10
325.56
 20
55.454
 40
1.1
  0
CIRCLE
  5
B2E
330
A02
100
AcDbEntity
  8
Part__Feature
100
AcDbCircle
 10
324.09
 20
95.078
 40
1.1
  0
LINE
  5
B2F
330
A02
100
AcDbEntity
  8
Part__Feature
100
AcDbLine
 10
409.5
 20
13.8108
 30
61.754
 11
422.223
 21
13.8108
 31
61.754
  0
ARC
  5
B30
330
A02
100
AcDbEntity
  8
Part__Feature
100
AcDbCircle
 10
422.223
 20
13.0108
 30
61.754
 40
0.8
100
AcDbArc
 50
-90
 51
90
  0
LINE
  5
B31
330
A02
100
AcDbEntity
  8
Part__Feature
100
AcDbLine
 10
422.223
 20
12.2108
 30
61.754
 11
409.5
 21
12.2108
 31
61.754
  0
ARC
  5
B32
330
A02
100
AcDbEntity
  8
Part__Feature
100
AcDbCircle
 10
409.5
 20
13.0108
 30
61.754
 40
0.8
100
AcDbArc
 50
90
 51
-90
  0
ELLIPSE
  5
B33
330
A02
100
AcDbEntity
  8
Part__Feature
100
AcDbEllipse
 10
416.387
 20
5.80453
 30
61.754
 11
-1.52143
 21
-0.00767533
 31
0
 40
0.73299
 41
0
 42
6.28318
  0
ARC
  5
B34
330
A02
100
AcDbEntity
  8
Part__Feature
100
AcDbCircle
 10
301.245
 20
74.8102
 30
59.754
 40
0.2
100
AcDbArc
 50
180
 51
-50
  0
LINE
  5
B35
330
A02
100
AcDbEntity
  8
Part__Feature
100
AcDbLine
 10
301.045
 20
106.499
 30
59.754
 11
301.045
 21
74.8102
 31
59.754
  0
ARC
  5
B36
330
A02
100
AcDbEntity
  8
Part__Feature
100
AcDbCircle
 10
312.955
 20
106.499
 30
59.754
 40
11.91
100
AcDbArc
 50
90
 51
180
  0
LINE
  5
B37
330
A02
100
AcDbEntity
  8
Part__Feature
100
AcDbLine
 10
439.899
 20
118.409
 30
59.754
 11
312.955
 21
118.409
 31
59.754
  0
ARC
  5
B38
330
A02
100
AcDbEntity
  8
Part__Feature
100
AcDbCircle
 10
439.899
 20
118.209
 30
59.754
 40
0.2
100
AcDbArc
 50
-40
 51
90
  0
LINE
  5
B39
330
A02
100
AcDbEntity
  8
Part__Feature
100
AcDbLine
 10
440.052
 20
118.081
 30
59.754
 11
437.499
 21
115.038
 31
59.754
  0
ARC
  5
B3A
330
A02
100
AcDbEntity
  8
Part__Feature
100
AcDbCircle
 10
437.652
 20
114.909
 30
59.754
 40
0.2
100
AcDbArc
 50
140
 51
-90
  0
LINE
  5
B3B
330
A02
100
AcDbEntity
  8
Part__Feature
100
AcDbLine
 10
437.652
 20
114.709
 30
59.754
 11
476.794
 21
114.709
 31
59.754
  0
ARC
  5
B3C
330
A02
100
AcDbEntity
  8
Part__Feature
100
AcDbCircle
 10
476.794
 20
114.909
 30
59.754
 40
0.2
100
AcDbArc
 50
-90
 51
40
  0
LINE
  5
B3D
330
A02
100
AcDbEntity
  8
Part__Feature
100
AcDbLine
 10
476.947
 20
115.038
 30
59.754
 11
474.394
 21
118.081
 31
59.754
  0
ARC
  5
B3E
330
A02
100
AcDbEntity
  8
Part__Feature
100
AcDbCircle
 10
474.547
 20
118.209
 30
59.754
 40
0.2
100
AcDbArc
 50
90
 51
-140
  0
LINE
  5
B3F
330
A02
100
AcDbEntity
  8
Part__Feature
100
AcDbLine
 10
601.491
 20
118.409
 30
59.754
 11
474.547
 21
118.409
 31
59.754
  0
ARC
  5
B40
330
A02
100
AcDbEntity
  8
Part__Feature
100
AcDbCircle
 10
601.491
 20
106.499
 30
59.754
 40
11.91
100
AcDbArc
 50
-2.338e-07
 51
90
  0
LINE
  5
B41
330
A02
100
AcDbEntity
  8
Part__Feature
100
AcDbLine
 10
613.401
 20
74.8102
 30
59.754
 11
613.401
 21
106.499
 31
59.754
  0
ARC
  5
B42
330
A02
100
AcDbEntity
  8
Part__Feature
100
AcDbCircle
 10
613.201
 20
74.8102
 30
59.754
 40
0.2
100
AcDbArc
 50
-130
 51
-2.33763e-08
  0
LINE
  5
B43
330
A02
100
AcDbEntity
  8
Part__Feature
100
AcDbLine
 10
610.03
 20
77.2103
 30
59.754
 11
613.072
 21
74.657
 31
59.754
  0
ARC
  5
B44
330
A02
100
AcDbEntity
  8
Part__Feature
100
AcDbCircle
 10
609.901
 20
77.0571
 30
59.754
 40
0.2
100
AcDbArc
 50
50
 51
180
  0
LINE
  5
B45
330
A02
100
AcDbEntity
  8
Part__Feature
100
AcDbLine
 10
609.701
 20
77.0571
 30
59.754
 11
609.701
 21
37.9149
 31
59.754
  0
ARC
  5
B46
330
A02
100
AcDbEntity
  8
Part__Feature
100
AcDbCircle
 10
609.901
 20
37.9149
 30
59.754
 40
0.2
100
AcDbArc
 50
180
 51
-50
  0
LINE
  5
B47
330
A02
100
AcDbEntity
  8
Part__Feature
100
AcDbLine
 10
610.03
 20
37.7616
 30
59.754
 11
613.072
 21
40.3149
 31
59.754
  0
ARC
  5
B48
330
A02
100
AcDbEntity
  8
Part__Feature
100
AcDbCircle
 10
613.201
 20
40.1617
 30
59.754
 40
0.2
100
AcDbArc
 50
-2.33808e-07
 51
130
  0
LINE
  5
B49
330
A02
100
AcDbEntity
  8
Part__Feature
100
AcDbLine
 10
613.401
 20
8.47284
 30
59.754
 11
613.401
 21
40.1617
 31
59.754
  0
ARC
  5
B4A
330
A02
100
AcDbEntity
  8
Part__Feature
100
AcDbCircle
 10
601.491
 20
8.47284
 30
59.754
 40
11.91
100
AcDbArc
 50
-90
 51
-2.33801e-07
  0
LINE
  5
B4B
330
A02
100
AcDbEntity
  8
Part__Feature
100
AcDbLine
 10
474.547
 20
-3.43716
 30
59.754
 11
601.491
 21
-3.43716
 31
59.754
  0
ARC
  5
B4C
330
A02
100
AcDbEntity
  8
Part__Feature
100
AcDbCircle
 10
474.547
 20
-3.23716
 30
59.754
 40
0.2
100
AcDbArc
 50
140
 51
-90
  0
LINE
  5
B4D
330
A02
100
AcDbEntity
  8
Part__Feature
100
AcDbLine
 10
474.394
 20
-3.1086
 30
59.754
 11
476.947
 21
-0.065714
 31
59.754
  0
ARC
  5
B4E
330
A02
100
AcDbEntity
  8
Part__Feature
100
AcDbCircle
 10
476.794
 20
0.0628435
 30
59.754
 40
0.2
100
AcDbArc
 50
-40
 51
90
  0
LINE
  5
B4F
330
A02
100
AcDbEntity
  8
Part__Feature
100
AcDbLine
 10
476.794
 20
0.262843
 30
59.754
 11
437.652
 21
0.262843
 31
59.754
  0
ARC
  5
B50
330
A02
100
AcDbEntity
  8
Part__Feature
100
AcDbCircle
 10
437.652
 20
0.0628435
 30
59.754
 40
0.2
100
AcDbArc
 50
90
 51
-140
  0
LINE
  5
B51
330
A02
100
AcDbEntity
  8
Part__Feature
100
AcDbLine
 10
437.499
 20
-0.065714
 30
59.754
 11
440.052
 21
-3.1086
 31
59.754
  0
ARC
  5
B52
330
A02
100
AcDbEntity
  8
Part__Feature
100
AcDbCircle
 10
439.899
 20
-3.23716
 30
59.754
 40
0.2
100
AcDbArc
 50
-90
 51
40
  0
LINE
  5
B53
330
A02
100
AcDbEntity
  8
Part__Feature
100
AcDbLine
 10
312.955
 20
-3.43716
 30
59.754
 11
439.899
 21
-3.43716
 31
59.754
  0
ARC
  5
B54
330
A02
100
AcDbEntity
  8
Part__Feature
100
AcDbCircle
 10
312.955
 20
8.47284
 30
59.754
 40
11.91
100
AcDbArc
 50
180
 51
-90
  0
LINE
  5
B55
330
A02
100
AcDbEntity
  8
Part__Feature
100
AcDbLine
 10
301.045
 20
40.1617
 30
59.754
 11
301.045
 21
8.47284
 31
59.754
  0
ARC
  5
B56
330
A02
100
AcDbEntity
  8
Part__Feature
100
AcDbCircle
 10
301.245
 20
40.1617
 30
59.754
 40
0.2
100
AcDbArc
 50
50
 51
180
  0
LINE
  5
B57
330
A02
100
AcDbEntity
  8
Part__Feature
100
AcDbLine
 10
301.374
 20
40.3149
 30
59.754
 11
304.416
 21
37.7617
 31
59.754
  0
ARC
  5
B58
330
A02
100
AcDbEntity
  8
Part__Feature
100
AcDbCircle
 10
304.545
 20
37.9149
 30
59.754
 40
0.2
100
AcDbArc
 50
-130
 51
-3.05333e-11
  0
LINE
  5
B59
330
A02
100
AcDbEntity
  8
Part__Feature
100
AcDbLine
 10
304.745
 20
37.9149
 30
59.754
 11
304.745
 21
77.0571
 31
59.754
  0
ARC
  5
B5A
330
A02
100
AcDbEntity
  8
Part__Feature
100
AcDbCircle
 10
304.545
 20
77.0571
 30
59.754
 40
0.2
100
AcDbArc
 50
4.07111e-12
 51
130
  0
LINE
  5
B5B
330
A02
100
AcDbEntity
  8
Part__Feature
100
AcDbLine
 10
304.416
 20
77.2103
 30
59.754
 11
301.374
 21
74.657
 31
59.754
  0
CIRCLE
  5
B5C
330
A02
100
AcDbEntity
  8
Part__Feature
100
AcDbCircle
 10
586.927
 20
17.2269
 40
1.1
  0
CIRCLE
  5
B5D
330
A02
100
AcDbEntity
  8
Part__Feature
100
AcDbCircle
 10
580.704
 20
55.454
 40
1.1
  0
CIRCLE
  5
B5E
330
A02
100
AcDbEntity
  8
Part__Feature
100
AcDbCircle
 10
590.102
 20
95.078
 40
1.1
  0
CIRCLE
  5
B5F
330
A02
100
AcDbEntity
  8
Part__Feature
100
AcDbCircle
 10
533.46
 20
95.078
 40
1.1
  0
CIRCLE
  5
B60
330
A02
100
AcDbEntity
  8
Part__Feature
100
AcDbCircle
 10
519.236
 20
55.454
 40
1.1
  0
CIRCLE
  5
B61
330
A02
100
AcDbEntity
  8
Part__Feature
100
AcDbCircle
 10
506.028
 20
17.2269
 40
1.1
  0
CIRCLE
  5
B62
330
A02
100
AcDbEntity
  8
Part__Feature
100
AcDbCircle
 10
453.577
 20
17.2269
 40
1.1
  0
CIRCLE
  5
B63
330
A02
100
AcDbEntity
  8
Part__Feature
100
AcDbCircle
 10
462.34
 20
55.454
 40
1.1
  0
CIRCLE
  5
B64
330
A02
100
AcDbEntity
  8
Part__Feature
100
AcDbCircle
 10
476.183
 20
95.078
 40
1.1
  0
CIRCLE
  5
B65
330
A02
100
AcDbEntity
  8
Part__Feature
100
AcDbCircle
 10
400.11
 20
95.078
 40
1.1
  0
CIRCLE
  5
B66
330
A02
100
AcDbEntity
  8
Part__Feature
100
AcDbCircle
 10
385.759
 20
55.454
 40
1.1
  0
CIRCLE
  5
B67
330
A02
100
AcDbEntity
  8
Part__Feature
100
AcDbCircle
 10
363.153
 20
17.2269
 40
1.1
  0
CIRCLE
  5
B68
330
A02
100
AcDbEntity
  8
Part__Feature
100
AcDbCircle
 10
323.782
 20
17.2269
 40
1.1
  0
CIRCLE
  5
B69
330
A02
100
AcDbEntity
  8
Part__Feature
100
AcDbCircle
 10
325.56
 20
55.454
 40
1.1
  0
CIRCLE
  5
B6A
330
A02
100
AcDbEntity
  8
Part__Feature
100
AcDbCircle
 10
324.09
 20
95.078
 40
1.1
  0
LINE
  5
B6B
330
A02
100
AcDbEntity
  8
Part__Feature
100
AcDbLine
 10
409.5
 20
13.8108
 30
59.754
 11
422.223
 21
13.8108
 31
59.754
  0
ARC
  5
B6C
330
A02
100
AcDbEntity
  8
Part__Feature
100
AcDbCircle
 10
409.5
 20
13.0108
 30
59.754
 40
0.8
100
AcDbArc
 50
90
 51
-90
  0
LINE
  5
B6D
330
A02
100
AcDbEntity
  8
Part__Feature
100
AcDbLine
 10
422.223
 20
12.2108
 30
59.754
 11
409.5
 21
12.2108
 31
59.754
  0
ARC
  5
B6E
330
A02
100
AcDbEntity
  8
Part__Feature
100
AcDbCircle
 10
422.223
 20
13.0108
 30
59.754
 40
0.8
100
AcDbArc
 50
-90
 51
90
  0
ELLIPSE
  5
B6F
330
A02
100
AcDbEntity
  8
Part__Feature
100
AcDbEllipse
 10
416.387
 20
5.80453
 30
59.754
 11
-1.52143
 21
-0.00767533
 31
0
 40
0.73299
 41
0
 42
6.28318
  0
ENDSEC
  0
SECTION
  2
OBJECTS
  0
DICTIONARY
  5
F000
330
0
100
AcDbDictionary
  3
ACAD_GROUP
350
F001
  0
DICTIONARY
  5
F001
330
F000
100
AcDbDictionary
  0
ENDSEC
  0
EOF